%TF.GenerationSoftware,KiCad,Pcbnew,10.0.4*%
%TF.CreationDate,2026-06-26T15:47:44-04:00*%
%TF.ProjectId,CountdownTimerController_V1.0,436f756e-7464-46f7-976e-54696d657243,rev?*%
%TF.SameCoordinates,Original*%
%TF.FileFunction,Paste,Bot*%
%TF.FilePolarity,Positive*%
%FSLAX46Y46*%
G04 Gerber Fmt 4.6, Leading zero omitted, Abs format (unit mm)*
G04 Created by KiCad (PCBNEW 10.0.4) date 2026-06-26 15:47:44*
%MOMM*%
%LPD*%
G01*
G04 APERTURE LIST*
G04 Aperture macros list*
%AMRoundRect*
0 Rectangle with rounded corners*
0 $1 Rounding radius*
0 $2 $3 $4 $5 $6 $7 $8 $9 X,Y pos of 4 corners*
0 Add a 4 corners polygon primitive as box body*
4,1,4,$2,$3,$4,$5,$6,$7,$8,$9,$2,$3,0*
0 Add four circle primitives for the rounded corners*
1,1,$1+$1,$2,$3*
1,1,$1+$1,$4,$5*
1,1,$1+$1,$6,$7*
1,1,$1+$1,$8,$9*
0 Add four rect primitives between the rounded corners*
20,1,$1+$1,$2,$3,$4,$5,0*
20,1,$1+$1,$4,$5,$6,$7,0*
20,1,$1+$1,$6,$7,$8,$9,0*
20,1,$1+$1,$8,$9,$2,$3,0*%
G04 Aperture macros list end*
%ADD10RoundRect,0.250000X-0.262500X-0.450000X0.262500X-0.450000X0.262500X0.450000X-0.262500X0.450000X0*%
%ADD11RoundRect,0.150000X-0.825000X-0.150000X0.825000X-0.150000X0.825000X0.150000X-0.825000X0.150000X0*%
G04 APERTURE END LIST*
D10*
%TO.C,R19*%
X130225000Y-82320000D03*
X128400000Y-82320000D03*
%TD*%
%TO.C,R21*%
X140500000Y-82320000D03*
X138675000Y-82320000D03*
%TD*%
%TO.C,R23*%
X149100000Y-82320000D03*
X150925000Y-82320000D03*
%TD*%
D11*
%TO.C,U5*%
X137150000Y-80540000D03*
X137150000Y-79270000D03*
X137150000Y-78000000D03*
X137150000Y-76730000D03*
X137150000Y-75460000D03*
X137150000Y-74190000D03*
X137150000Y-72920000D03*
X137150000Y-71650000D03*
X142100000Y-71650000D03*
X142100000Y-72920000D03*
X142100000Y-74190000D03*
X142100000Y-75460000D03*
X142100000Y-76730000D03*
X142100000Y-78000000D03*
X142100000Y-79270000D03*
X142100000Y-80540000D03*
%TD*%
%TO.C,U7*%
X152450000Y-80565000D03*
X152450000Y-79295000D03*
X152450000Y-78025000D03*
X152450000Y-76755000D03*
X152450000Y-75485000D03*
X152450000Y-74215000D03*
X152450000Y-72945000D03*
X152450000Y-71675000D03*
X147500000Y-71675000D03*
X147500000Y-72945000D03*
X147500000Y-74215000D03*
X147500000Y-75485000D03*
X147500000Y-76755000D03*
X147500000Y-78025000D03*
X147500000Y-79295000D03*
X147500000Y-80565000D03*
%TD*%
%TO.C,U3*%
X131750000Y-80540000D03*
X131750000Y-79270000D03*
X131750000Y-78000000D03*
X131750000Y-76730000D03*
X131750000Y-75460000D03*
X131750000Y-74190000D03*
X131750000Y-72920000D03*
X131750000Y-71650000D03*
X126800000Y-71650000D03*
X126800000Y-72920000D03*
X126800000Y-74190000D03*
X126800000Y-75460000D03*
X126800000Y-76730000D03*
X126800000Y-78000000D03*
X126800000Y-79270000D03*
X126800000Y-80540000D03*
%TD*%
M02*
