%TF.GenerationSoftware,KiCad,Pcbnew,10.0.4*%
%TF.CreationDate,2026-06-26T15:47:44-04:00*%
%TF.ProjectId,CountdownTimerController_V1.0,436f756e-7464-46f7-976e-54696d657243,rev?*%
%TF.SameCoordinates,Original*%
%TF.FileFunction,Paste,Top*%
%TF.FilePolarity,Positive*%
%FSLAX46Y46*%
G04 Gerber Fmt 4.6, Leading zero omitted, Abs format (unit mm)*
G04 Created by KiCad (PCBNEW 10.0.4) date 2026-06-26 15:47:44*
%MOMM*%
%LPD*%
G01*
G04 APERTURE LIST*
G04 Aperture macros list*
%AMRoundRect*
0 Rectangle with rounded corners*
0 $1 Rounding radius*
0 $2 $3 $4 $5 $6 $7 $8 $9 X,Y pos of 4 corners*
0 Add a 4 corners polygon primitive as box body*
4,1,4,$2,$3,$4,$5,$6,$7,$8,$9,$2,$3,0*
0 Add four circle primitives for the rounded corners*
1,1,$1+$1,$2,$3*
1,1,$1+$1,$4,$5*
1,1,$1+$1,$6,$7*
1,1,$1+$1,$8,$9*
0 Add four rect primitives between the rounded corners*
20,1,$1+$1,$2,$3,$4,$5,0*
20,1,$1+$1,$4,$5,$6,$7,0*
20,1,$1+$1,$6,$7,$8,$9,0*
20,1,$1+$1,$8,$9,$2,$3,0*%
G04 Aperture macros list end*
%ADD10RoundRect,0.250000X0.262500X0.450000X-0.262500X0.450000X-0.262500X-0.450000X0.262500X-0.450000X0*%
%ADD11RoundRect,0.150000X0.825000X0.150000X-0.825000X0.150000X-0.825000X-0.150000X0.825000X-0.150000X0*%
%ADD12RoundRect,0.200000X-0.275000X0.200000X-0.275000X-0.200000X0.275000X-0.200000X0.275000X0.200000X0*%
%ADD13RoundRect,0.218750X-0.256250X0.218750X-0.256250X-0.218750X0.256250X-0.218750X0.256250X0.218750X0*%
%ADD14RoundRect,0.200000X0.200000X0.275000X-0.200000X0.275000X-0.200000X-0.275000X0.200000X-0.275000X0*%
%ADD15RoundRect,0.150000X-0.587500X-0.150000X0.587500X-0.150000X0.587500X0.150000X-0.587500X0.150000X0*%
%ADD16RoundRect,0.250000X0.650000X-1.000000X0.650000X1.000000X-0.650000X1.000000X-0.650000X-1.000000X0*%
%ADD17RoundRect,0.150000X0.587500X0.150000X-0.587500X0.150000X-0.587500X-0.150000X0.587500X-0.150000X0*%
%ADD18RoundRect,0.075000X0.075000X0.275000X-0.075000X0.275000X-0.075000X-0.275000X0.075000X-0.275000X0*%
%ADD19RoundRect,0.200000X-0.200000X-0.275000X0.200000X-0.275000X0.200000X0.275000X-0.200000X0.275000X0*%
%ADD20RoundRect,0.200000X0.275000X-0.200000X0.275000X0.200000X-0.275000X0.200000X-0.275000X-0.200000X0*%
%ADD21RoundRect,0.225000X-0.225000X-0.250000X0.225000X-0.250000X0.225000X0.250000X-0.225000X0.250000X0*%
%ADD22R,1.000000X0.900000*%
%ADD23RoundRect,0.225000X-0.250000X0.225000X-0.250000X-0.225000X0.250000X-0.225000X0.250000X0.225000X0*%
%ADD24RoundRect,0.250000X-0.250000X-0.475000X0.250000X-0.475000X0.250000X0.475000X-0.250000X0.475000X0*%
%ADD25RoundRect,0.250000X0.250000X0.475000X-0.250000X0.475000X-0.250000X-0.475000X0.250000X-0.475000X0*%
%ADD26RoundRect,0.250000X-0.475000X0.250000X-0.475000X-0.250000X0.475000X-0.250000X0.475000X0.250000X0*%
%ADD27RoundRect,0.225000X0.375000X-0.225000X0.375000X0.225000X-0.375000X0.225000X-0.375000X-0.225000X0*%
%ADD28RoundRect,0.225000X0.225000X0.225000X-0.225000X0.225000X-0.225000X-0.225000X0.225000X-0.225000X0*%
%ADD29RoundRect,0.062500X0.337500X0.062500X-0.337500X0.062500X-0.337500X-0.062500X0.337500X-0.062500X0*%
%ADD30RoundRect,0.062500X0.062500X0.337500X-0.062500X0.337500X-0.062500X-0.337500X0.062500X-0.337500X0*%
%ADD31RoundRect,0.375000X-0.625000X-0.375000X0.625000X-0.375000X0.625000X0.375000X-0.625000X0.375000X0*%
%ADD32RoundRect,0.500000X-0.500000X-1.400000X0.500000X-1.400000X0.500000X1.400000X-0.500000X1.400000X0*%
%ADD33R,0.700000X0.700000*%
%ADD34R,0.900000X1.500000*%
G04 APERTURE END LIST*
D10*
%TO.C,R18*%
X125012500Y-82320000D03*
X123187500Y-82320000D03*
%TD*%
D11*
%TO.C,U2*%
X126600000Y-80565000D03*
X126600000Y-79295000D03*
X126600000Y-78025000D03*
X126600000Y-76755000D03*
X126600000Y-75485000D03*
X126600000Y-74215000D03*
X126600000Y-72945000D03*
X126600000Y-71675000D03*
X121650000Y-71675000D03*
X121650000Y-72945000D03*
X121650000Y-74215000D03*
X121650000Y-75485000D03*
X121650000Y-76755000D03*
X121650000Y-78025000D03*
X121650000Y-79295000D03*
X121650000Y-80565000D03*
%TD*%
D12*
%TO.C,R25*%
X65200000Y-51970000D03*
X65200000Y-53620000D03*
%TD*%
D10*
%TO.C,R22*%
X143887500Y-82320000D03*
X145712500Y-82320000D03*
%TD*%
%TO.C,R24*%
X154300000Y-82320000D03*
X156125000Y-82320000D03*
%TD*%
%TO.C,R20*%
X133500000Y-82320000D03*
X135325000Y-82320000D03*
%TD*%
D11*
%TO.C,U4*%
X131950000Y-80565000D03*
X131950000Y-79295000D03*
X131950000Y-78025000D03*
X131950000Y-76755000D03*
X131950000Y-75485000D03*
X131950000Y-74215000D03*
X131950000Y-72945000D03*
X131950000Y-71675000D03*
X136900000Y-71675000D03*
X136900000Y-72945000D03*
X136900000Y-74215000D03*
X136900000Y-75485000D03*
X136900000Y-76755000D03*
X136900000Y-78025000D03*
X136900000Y-79295000D03*
X136900000Y-80565000D03*
%TD*%
%TO.C,U6*%
X142350000Y-80570000D03*
X142350000Y-79300000D03*
X142350000Y-78030000D03*
X142350000Y-76760000D03*
X142350000Y-75490000D03*
X142350000Y-74220000D03*
X142350000Y-72950000D03*
X142350000Y-71680000D03*
X147300000Y-71680000D03*
X147300000Y-72950000D03*
X147300000Y-74220000D03*
X147300000Y-75490000D03*
X147300000Y-76760000D03*
X147300000Y-78030000D03*
X147300000Y-79300000D03*
X147300000Y-80570000D03*
%TD*%
%TO.C,U8*%
X152725000Y-80565000D03*
X152725000Y-79295000D03*
X152725000Y-78025000D03*
X152725000Y-76755000D03*
X152725000Y-75485000D03*
X152725000Y-74215000D03*
X152725000Y-72945000D03*
X152725000Y-71675000D03*
X157675000Y-71675000D03*
X157675000Y-72945000D03*
X157675000Y-74215000D03*
X157675000Y-75485000D03*
X157675000Y-76755000D03*
X157675000Y-78025000D03*
X157675000Y-79295000D03*
X157675000Y-80565000D03*
%TD*%
D13*
%TO.C,F1*%
X111000000Y-61320000D03*
X111000000Y-62895000D03*
%TD*%
D14*
%TO.C,R3*%
X91350000Y-60520000D03*
X93000000Y-60520000D03*
%TD*%
D15*
%TO.C,Q2*%
X95737500Y-70120000D03*
X93862500Y-71070000D03*
X93862500Y-69170000D03*
%TD*%
D16*
%TO.C,D2*%
X103200000Y-51320000D03*
X103200000Y-55320000D03*
%TD*%
D17*
%TO.C,Q1*%
X86925000Y-70120000D03*
X88800000Y-69170000D03*
X88800000Y-71070000D03*
%TD*%
D18*
%TO.C,J1*%
X91780000Y-57240000D03*
X91280000Y-57240000D03*
X90780000Y-57240000D03*
X90280000Y-57240000D03*
X89780000Y-57240000D03*
X89280000Y-57240000D03*
X88780000Y-57240000D03*
X88280000Y-57240000D03*
X87780000Y-57240000D03*
X87280000Y-57240000D03*
X86780000Y-57240000D03*
X86280000Y-57240000D03*
X86530000Y-55540000D03*
X87030000Y-55540000D03*
X87530000Y-55540000D03*
X88030000Y-55540000D03*
X88530000Y-55540000D03*
X89030000Y-55540000D03*
X89530000Y-55540000D03*
X90030000Y-55540000D03*
X90530000Y-55540000D03*
X91030000Y-55540000D03*
X91530000Y-55540000D03*
X92030000Y-55540000D03*
%TD*%
D12*
%TO.C,R1*%
X65700000Y-76770000D03*
X65700000Y-75120000D03*
%TD*%
D19*
%TO.C,R7*%
X93000000Y-59020000D03*
X91350000Y-59020000D03*
%TD*%
D12*
%TO.C,R13*%
X74200000Y-53620000D03*
X74200000Y-51970000D03*
%TD*%
D20*
%TO.C,R12*%
X72700000Y-76420000D03*
X72700000Y-74770000D03*
%TD*%
%TO.C,R10*%
X94400000Y-60645000D03*
X94400000Y-58995000D03*
%TD*%
%TO.C,R11*%
X71200000Y-76420000D03*
X71200000Y-74770000D03*
%TD*%
D19*
%TO.C,R17*%
X92162500Y-69220000D03*
X90512500Y-69220000D03*
%TD*%
D14*
%TO.C,R16*%
X90512500Y-71020000D03*
X92162500Y-71020000D03*
%TD*%
D20*
%TO.C,R14*%
X89900000Y-58970000D03*
X89900000Y-60620000D03*
%TD*%
D21*
%TO.C,C2*%
X65675000Y-78220000D03*
X64125000Y-78220000D03*
%TD*%
D20*
%TO.C,R8*%
X68200000Y-76420000D03*
X68200000Y-74770000D03*
%TD*%
D12*
%TO.C,R5*%
X63700000Y-53620000D03*
X63700000Y-51970000D03*
%TD*%
%TO.C,R2*%
X62200000Y-53620000D03*
X62200000Y-51970000D03*
%TD*%
D22*
%TO.C,SW2*%
X79200000Y-58070000D03*
X79200000Y-53970000D03*
X80800000Y-58070000D03*
X80800000Y-53970000D03*
%TD*%
%TO.C,SW1*%
X79200000Y-64170000D03*
X79200000Y-60070000D03*
X80800000Y-64170000D03*
X80800000Y-60070000D03*
%TD*%
D21*
%TO.C,C4*%
X82150000Y-74820000D03*
X83700000Y-74820000D03*
%TD*%
D23*
%TO.C,C5*%
X95900000Y-59020000D03*
X95900000Y-60570000D03*
%TD*%
%TO.C,C9*%
X64200000Y-75170000D03*
X64200000Y-76720000D03*
%TD*%
D21*
%TO.C,C3*%
X79150000Y-74820000D03*
X80700000Y-74820000D03*
%TD*%
D24*
%TO.C,C1*%
X93800000Y-62320000D03*
X95700000Y-62320000D03*
%TD*%
D25*
%TO.C,C6*%
X105800000Y-62120000D03*
X103900000Y-62120000D03*
%TD*%
D24*
%TO.C,C7*%
X100400000Y-62120000D03*
X102300000Y-62120000D03*
%TD*%
D26*
%TO.C,C8*%
X62400000Y-74770000D03*
X62400000Y-76670000D03*
%TD*%
D16*
%TO.C,D3*%
X99700000Y-55320000D03*
X99700000Y-51320000D03*
%TD*%
%TO.C,D4*%
X96200000Y-55320000D03*
X96200000Y-51320000D03*
%TD*%
D27*
%TO.C,D1*%
X84800000Y-62170000D03*
X84800000Y-58870000D03*
%TD*%
D28*
%TO.C,U1*%
X91000000Y-65540000D03*
X91000000Y-64420000D03*
X91000000Y-63300000D03*
X89880000Y-65540000D03*
X89880000Y-64420000D03*
X89880000Y-63300000D03*
X88760000Y-65540000D03*
X88760000Y-64420000D03*
X88760000Y-63300000D03*
D29*
X92330000Y-65920000D03*
X92330000Y-65420000D03*
X92330000Y-64920000D03*
X92330000Y-64420000D03*
X92330000Y-63920000D03*
X92330000Y-63420000D03*
X92330000Y-62920000D03*
D30*
X91380000Y-61970000D03*
X90880000Y-61970000D03*
X90380000Y-61970000D03*
X89880000Y-61970000D03*
X89380000Y-61970000D03*
X88880000Y-61970000D03*
X88380000Y-61970000D03*
D29*
X87430000Y-62920000D03*
X87430000Y-63420000D03*
X87430000Y-63920000D03*
X87430000Y-64420000D03*
X87430000Y-64920000D03*
X87430000Y-65420000D03*
X87430000Y-65920000D03*
D30*
X88380000Y-66870000D03*
X88880000Y-66870000D03*
X89380000Y-66870000D03*
X89880000Y-66870000D03*
X90380000Y-66870000D03*
X90880000Y-66870000D03*
X91380000Y-66870000D03*
%TD*%
D31*
%TO.C,LDO1*%
X78300000Y-68120000D03*
X78300000Y-70420000D03*
D32*
X84600000Y-70420000D03*
D31*
X78300000Y-72720000D03*
%TD*%
D33*
%TO.C,MCU1*%
X67300000Y-64320000D03*
X68400000Y-64320000D03*
X69500000Y-64320000D03*
X67300000Y-63220000D03*
X68400000Y-63220000D03*
X69500000Y-63220000D03*
X67300000Y-62120000D03*
X68400000Y-62120000D03*
X69500000Y-62120000D03*
D34*
X62200000Y-72930000D03*
X63700000Y-72930000D03*
X65200000Y-72930000D03*
X66700000Y-72930000D03*
X68200000Y-72930000D03*
X69700000Y-72930000D03*
X71200000Y-72930000D03*
X72700000Y-72930000D03*
X74200000Y-72930000D03*
X74200000Y-55430000D03*
X72700000Y-55430000D03*
X71200000Y-55430000D03*
X69700000Y-55430000D03*
X68200000Y-55430000D03*
X66700000Y-55430000D03*
X65200000Y-55430000D03*
X63700000Y-55430000D03*
X62200000Y-55430000D03*
%TD*%
D12*
%TO.C,R4*%
X71200000Y-51970000D03*
X71200000Y-53620000D03*
%TD*%
%TO.C,R6*%
X72700000Y-51970000D03*
X72700000Y-53620000D03*
%TD*%
D20*
%TO.C,R9*%
X69700000Y-76420000D03*
X69700000Y-74770000D03*
%TD*%
D12*
%TO.C,R15*%
X68200000Y-51970000D03*
X68200000Y-53620000D03*
%TD*%
M02*
