%TF.GenerationSoftware,KiCad,Pcbnew,10.0.4*%
%TF.CreationDate,2026-06-26T15:47:44-04:00*%
%TF.ProjectId,CountdownTimerController_V1.0,436f756e-7464-46f7-976e-54696d657243,rev?*%
%TF.SameCoordinates,Original*%
%TF.FileFunction,Legend,Bot*%
%TF.FilePolarity,Positive*%
%FSLAX46Y46*%
G04 Gerber Fmt 4.6, Leading zero omitted, Abs format (unit mm)*
G04 Created by KiCad (PCBNEW 10.0.4) date 2026-06-26 15:47:44*
%MOMM*%
%LPD*%
G01*
G04 APERTURE LIST*
%ADD10C,0.150000*%
%ADD11C,0.120000*%
G04 APERTURE END LIST*
D10*
X119033333Y-48816033D02*
X119033333Y-49316033D01*
X119033333Y-49316033D02*
X119066666Y-49416033D01*
X119066666Y-49416033D02*
X119133333Y-49482700D01*
X119133333Y-49482700D02*
X119233333Y-49516033D01*
X119233333Y-49516033D02*
X119300000Y-49516033D01*
X118766667Y-48816033D02*
X118333333Y-48816033D01*
X118333333Y-48816033D02*
X118566667Y-49082700D01*
X118566667Y-49082700D02*
X118466667Y-49082700D01*
X118466667Y-49082700D02*
X118400000Y-49116033D01*
X118400000Y-49116033D02*
X118366667Y-49149366D01*
X118366667Y-49149366D02*
X118333333Y-49216033D01*
X118333333Y-49216033D02*
X118333333Y-49382700D01*
X118333333Y-49382700D02*
X118366667Y-49449366D01*
X118366667Y-49449366D02*
X118400000Y-49482700D01*
X118400000Y-49482700D02*
X118466667Y-49516033D01*
X118466667Y-49516033D02*
X118666667Y-49516033D01*
X118666667Y-49516033D02*
X118733333Y-49482700D01*
X118733333Y-49482700D02*
X118766667Y-49449366D01*
X129433333Y-48816033D02*
X129433333Y-49316033D01*
X129433333Y-49316033D02*
X129466666Y-49416033D01*
X129466666Y-49416033D02*
X129533333Y-49482700D01*
X129533333Y-49482700D02*
X129633333Y-49516033D01*
X129633333Y-49516033D02*
X129700000Y-49516033D01*
X128766667Y-48816033D02*
X129100000Y-48816033D01*
X129100000Y-48816033D02*
X129133333Y-49149366D01*
X129133333Y-49149366D02*
X129100000Y-49116033D01*
X129100000Y-49116033D02*
X129033333Y-49082700D01*
X129033333Y-49082700D02*
X128866667Y-49082700D01*
X128866667Y-49082700D02*
X128800000Y-49116033D01*
X128800000Y-49116033D02*
X128766667Y-49149366D01*
X128766667Y-49149366D02*
X128733333Y-49216033D01*
X128733333Y-49216033D02*
X128733333Y-49382700D01*
X128733333Y-49382700D02*
X128766667Y-49449366D01*
X128766667Y-49449366D02*
X128800000Y-49482700D01*
X128800000Y-49482700D02*
X128866667Y-49516033D01*
X128866667Y-49516033D02*
X129033333Y-49516033D01*
X129033333Y-49516033D02*
X129100000Y-49482700D01*
X129100000Y-49482700D02*
X129133333Y-49449366D01*
X134633333Y-48816033D02*
X134633333Y-49316033D01*
X134633333Y-49316033D02*
X134666666Y-49416033D01*
X134666666Y-49416033D02*
X134733333Y-49482700D01*
X134733333Y-49482700D02*
X134833333Y-49516033D01*
X134833333Y-49516033D02*
X134900000Y-49516033D01*
X134000000Y-48816033D02*
X134133333Y-48816033D01*
X134133333Y-48816033D02*
X134200000Y-48849366D01*
X134200000Y-48849366D02*
X134233333Y-48882700D01*
X134233333Y-48882700D02*
X134300000Y-48982700D01*
X134300000Y-48982700D02*
X134333333Y-49116033D01*
X134333333Y-49116033D02*
X134333333Y-49382700D01*
X134333333Y-49382700D02*
X134300000Y-49449366D01*
X134300000Y-49449366D02*
X134266667Y-49482700D01*
X134266667Y-49482700D02*
X134200000Y-49516033D01*
X134200000Y-49516033D02*
X134066667Y-49516033D01*
X134066667Y-49516033D02*
X134000000Y-49482700D01*
X134000000Y-49482700D02*
X133966667Y-49449366D01*
X133966667Y-49449366D02*
X133933333Y-49382700D01*
X133933333Y-49382700D02*
X133933333Y-49216033D01*
X133933333Y-49216033D02*
X133966667Y-49149366D01*
X133966667Y-49149366D02*
X134000000Y-49116033D01*
X134000000Y-49116033D02*
X134066667Y-49082700D01*
X134066667Y-49082700D02*
X134200000Y-49082700D01*
X134200000Y-49082700D02*
X134266667Y-49116033D01*
X134266667Y-49116033D02*
X134300000Y-49149366D01*
X134300000Y-49149366D02*
X134333333Y-49216033D01*
X124233333Y-48816033D02*
X124233333Y-49316033D01*
X124233333Y-49316033D02*
X124266666Y-49416033D01*
X124266666Y-49416033D02*
X124333333Y-49482700D01*
X124333333Y-49482700D02*
X124433333Y-49516033D01*
X124433333Y-49516033D02*
X124500000Y-49516033D01*
X123600000Y-49049366D02*
X123600000Y-49516033D01*
X123766667Y-48782700D02*
X123933333Y-49282700D01*
X123933333Y-49282700D02*
X123500000Y-49282700D01*
X145033333Y-48816033D02*
X145033333Y-49316033D01*
X145033333Y-49316033D02*
X145066666Y-49416033D01*
X145066666Y-49416033D02*
X145133333Y-49482700D01*
X145133333Y-49482700D02*
X145233333Y-49516033D01*
X145233333Y-49516033D02*
X145300000Y-49516033D01*
X144600000Y-49116033D02*
X144666667Y-49082700D01*
X144666667Y-49082700D02*
X144700000Y-49049366D01*
X144700000Y-49049366D02*
X144733333Y-48982700D01*
X144733333Y-48982700D02*
X144733333Y-48949366D01*
X144733333Y-48949366D02*
X144700000Y-48882700D01*
X144700000Y-48882700D02*
X144666667Y-48849366D01*
X144666667Y-48849366D02*
X144600000Y-48816033D01*
X144600000Y-48816033D02*
X144466667Y-48816033D01*
X144466667Y-48816033D02*
X144400000Y-48849366D01*
X144400000Y-48849366D02*
X144366667Y-48882700D01*
X144366667Y-48882700D02*
X144333333Y-48949366D01*
X144333333Y-48949366D02*
X144333333Y-48982700D01*
X144333333Y-48982700D02*
X144366667Y-49049366D01*
X144366667Y-49049366D02*
X144400000Y-49082700D01*
X144400000Y-49082700D02*
X144466667Y-49116033D01*
X144466667Y-49116033D02*
X144600000Y-49116033D01*
X144600000Y-49116033D02*
X144666667Y-49149366D01*
X144666667Y-49149366D02*
X144700000Y-49182700D01*
X144700000Y-49182700D02*
X144733333Y-49249366D01*
X144733333Y-49249366D02*
X144733333Y-49382700D01*
X144733333Y-49382700D02*
X144700000Y-49449366D01*
X144700000Y-49449366D02*
X144666667Y-49482700D01*
X144666667Y-49482700D02*
X144600000Y-49516033D01*
X144600000Y-49516033D02*
X144466667Y-49516033D01*
X144466667Y-49516033D02*
X144400000Y-49482700D01*
X144400000Y-49482700D02*
X144366667Y-49449366D01*
X144366667Y-49449366D02*
X144333333Y-49382700D01*
X144333333Y-49382700D02*
X144333333Y-49249366D01*
X144333333Y-49249366D02*
X144366667Y-49182700D01*
X144366667Y-49182700D02*
X144400000Y-49149366D01*
X144400000Y-49149366D02*
X144466667Y-49116033D01*
X139833333Y-48816033D02*
X139833333Y-49316033D01*
X139833333Y-49316033D02*
X139866666Y-49416033D01*
X139866666Y-49416033D02*
X139933333Y-49482700D01*
X139933333Y-49482700D02*
X140033333Y-49516033D01*
X140033333Y-49516033D02*
X140100000Y-49516033D01*
X139566667Y-48816033D02*
X139100000Y-48816033D01*
X139100000Y-48816033D02*
X139400000Y-49516033D01*
X155766666Y-48816033D02*
X155766666Y-49316033D01*
X155766666Y-49316033D02*
X155799999Y-49416033D01*
X155799999Y-49416033D02*
X155866666Y-49482700D01*
X155866666Y-49482700D02*
X155966666Y-49516033D01*
X155966666Y-49516033D02*
X156033333Y-49516033D01*
X155066666Y-49516033D02*
X155466666Y-49516033D01*
X155266666Y-49516033D02*
X155266666Y-48816033D01*
X155266666Y-48816033D02*
X155333333Y-48916033D01*
X155333333Y-48916033D02*
X155400000Y-48982700D01*
X155400000Y-48982700D02*
X155466666Y-49016033D01*
X154633333Y-48816033D02*
X154566666Y-48816033D01*
X154566666Y-48816033D02*
X154499999Y-48849366D01*
X154499999Y-48849366D02*
X154466666Y-48882700D01*
X154466666Y-48882700D02*
X154433333Y-48949366D01*
X154433333Y-48949366D02*
X154399999Y-49082700D01*
X154399999Y-49082700D02*
X154399999Y-49249366D01*
X154399999Y-49249366D02*
X154433333Y-49382700D01*
X154433333Y-49382700D02*
X154466666Y-49449366D01*
X154466666Y-49449366D02*
X154499999Y-49482700D01*
X154499999Y-49482700D02*
X154566666Y-49516033D01*
X154566666Y-49516033D02*
X154633333Y-49516033D01*
X154633333Y-49516033D02*
X154699999Y-49482700D01*
X154699999Y-49482700D02*
X154733333Y-49449366D01*
X154733333Y-49449366D02*
X154766666Y-49382700D01*
X154766666Y-49382700D02*
X154799999Y-49249366D01*
X154799999Y-49249366D02*
X154799999Y-49082700D01*
X154799999Y-49082700D02*
X154766666Y-48949366D01*
X154766666Y-48949366D02*
X154733333Y-48882700D01*
X154733333Y-48882700D02*
X154699999Y-48849366D01*
X154699999Y-48849366D02*
X154633333Y-48816033D01*
X150233333Y-48816033D02*
X150233333Y-49316033D01*
X150233333Y-49316033D02*
X150266666Y-49416033D01*
X150266666Y-49416033D02*
X150333333Y-49482700D01*
X150333333Y-49482700D02*
X150433333Y-49516033D01*
X150433333Y-49516033D02*
X150500000Y-49516033D01*
X149866667Y-49516033D02*
X149733333Y-49516033D01*
X149733333Y-49516033D02*
X149666667Y-49482700D01*
X149666667Y-49482700D02*
X149633333Y-49449366D01*
X149633333Y-49449366D02*
X149566667Y-49349366D01*
X149566667Y-49349366D02*
X149533333Y-49216033D01*
X149533333Y-49216033D02*
X149533333Y-48949366D01*
X149533333Y-48949366D02*
X149566667Y-48882700D01*
X149566667Y-48882700D02*
X149600000Y-48849366D01*
X149600000Y-48849366D02*
X149666667Y-48816033D01*
X149666667Y-48816033D02*
X149800000Y-48816033D01*
X149800000Y-48816033D02*
X149866667Y-48849366D01*
X149866667Y-48849366D02*
X149900000Y-48882700D01*
X149900000Y-48882700D02*
X149933333Y-48949366D01*
X149933333Y-48949366D02*
X149933333Y-49116033D01*
X149933333Y-49116033D02*
X149900000Y-49182700D01*
X149900000Y-49182700D02*
X149866667Y-49216033D01*
X149866667Y-49216033D02*
X149800000Y-49249366D01*
X149800000Y-49249366D02*
X149666667Y-49249366D01*
X149666667Y-49249366D02*
X149600000Y-49216033D01*
X149600000Y-49216033D02*
X149566667Y-49182700D01*
X149566667Y-49182700D02*
X149533333Y-49116033D01*
X129762500Y-84016033D02*
X129995833Y-83682700D01*
X130162500Y-84016033D02*
X130162500Y-83316033D01*
X130162500Y-83316033D02*
X129895833Y-83316033D01*
X129895833Y-83316033D02*
X129829167Y-83349366D01*
X129829167Y-83349366D02*
X129795833Y-83382700D01*
X129795833Y-83382700D02*
X129762500Y-83449366D01*
X129762500Y-83449366D02*
X129762500Y-83549366D01*
X129762500Y-83549366D02*
X129795833Y-83616033D01*
X129795833Y-83616033D02*
X129829167Y-83649366D01*
X129829167Y-83649366D02*
X129895833Y-83682700D01*
X129895833Y-83682700D02*
X130162500Y-83682700D01*
X129095833Y-84016033D02*
X129495833Y-84016033D01*
X129295833Y-84016033D02*
X129295833Y-83316033D01*
X129295833Y-83316033D02*
X129362500Y-83416033D01*
X129362500Y-83416033D02*
X129429167Y-83482700D01*
X129429167Y-83482700D02*
X129495833Y-83516033D01*
X128762500Y-84016033D02*
X128629166Y-84016033D01*
X128629166Y-84016033D02*
X128562500Y-83982700D01*
X128562500Y-83982700D02*
X128529166Y-83949366D01*
X128529166Y-83949366D02*
X128462500Y-83849366D01*
X128462500Y-83849366D02*
X128429166Y-83716033D01*
X128429166Y-83716033D02*
X128429166Y-83449366D01*
X128429166Y-83449366D02*
X128462500Y-83382700D01*
X128462500Y-83382700D02*
X128495833Y-83349366D01*
X128495833Y-83349366D02*
X128562500Y-83316033D01*
X128562500Y-83316033D02*
X128695833Y-83316033D01*
X128695833Y-83316033D02*
X128762500Y-83349366D01*
X128762500Y-83349366D02*
X128795833Y-83382700D01*
X128795833Y-83382700D02*
X128829166Y-83449366D01*
X128829166Y-83449366D02*
X128829166Y-83616033D01*
X128829166Y-83616033D02*
X128795833Y-83682700D01*
X128795833Y-83682700D02*
X128762500Y-83716033D01*
X128762500Y-83716033D02*
X128695833Y-83749366D01*
X128695833Y-83749366D02*
X128562500Y-83749366D01*
X128562500Y-83749366D02*
X128495833Y-83716033D01*
X128495833Y-83716033D02*
X128462500Y-83682700D01*
X128462500Y-83682700D02*
X128429166Y-83616033D01*
X140037500Y-84016033D02*
X140270833Y-83682700D01*
X140437500Y-84016033D02*
X140437500Y-83316033D01*
X140437500Y-83316033D02*
X140170833Y-83316033D01*
X140170833Y-83316033D02*
X140104167Y-83349366D01*
X140104167Y-83349366D02*
X140070833Y-83382700D01*
X140070833Y-83382700D02*
X140037500Y-83449366D01*
X140037500Y-83449366D02*
X140037500Y-83549366D01*
X140037500Y-83549366D02*
X140070833Y-83616033D01*
X140070833Y-83616033D02*
X140104167Y-83649366D01*
X140104167Y-83649366D02*
X140170833Y-83682700D01*
X140170833Y-83682700D02*
X140437500Y-83682700D01*
X139770833Y-83382700D02*
X139737500Y-83349366D01*
X139737500Y-83349366D02*
X139670833Y-83316033D01*
X139670833Y-83316033D02*
X139504167Y-83316033D01*
X139504167Y-83316033D02*
X139437500Y-83349366D01*
X139437500Y-83349366D02*
X139404167Y-83382700D01*
X139404167Y-83382700D02*
X139370833Y-83449366D01*
X139370833Y-83449366D02*
X139370833Y-83516033D01*
X139370833Y-83516033D02*
X139404167Y-83616033D01*
X139404167Y-83616033D02*
X139804167Y-84016033D01*
X139804167Y-84016033D02*
X139370833Y-84016033D01*
X138704166Y-84016033D02*
X139104166Y-84016033D01*
X138904166Y-84016033D02*
X138904166Y-83316033D01*
X138904166Y-83316033D02*
X138970833Y-83416033D01*
X138970833Y-83416033D02*
X139037500Y-83482700D01*
X139037500Y-83482700D02*
X139104166Y-83516033D01*
X150450000Y-84016033D02*
X150683333Y-83682700D01*
X150850000Y-84016033D02*
X150850000Y-83316033D01*
X150850000Y-83316033D02*
X150583333Y-83316033D01*
X150583333Y-83316033D02*
X150516667Y-83349366D01*
X150516667Y-83349366D02*
X150483333Y-83382700D01*
X150483333Y-83382700D02*
X150450000Y-83449366D01*
X150450000Y-83449366D02*
X150450000Y-83549366D01*
X150450000Y-83549366D02*
X150483333Y-83616033D01*
X150483333Y-83616033D02*
X150516667Y-83649366D01*
X150516667Y-83649366D02*
X150583333Y-83682700D01*
X150583333Y-83682700D02*
X150850000Y-83682700D01*
X150183333Y-83382700D02*
X150150000Y-83349366D01*
X150150000Y-83349366D02*
X150083333Y-83316033D01*
X150083333Y-83316033D02*
X149916667Y-83316033D01*
X149916667Y-83316033D02*
X149850000Y-83349366D01*
X149850000Y-83349366D02*
X149816667Y-83382700D01*
X149816667Y-83382700D02*
X149783333Y-83449366D01*
X149783333Y-83449366D02*
X149783333Y-83516033D01*
X149783333Y-83516033D02*
X149816667Y-83616033D01*
X149816667Y-83616033D02*
X150216667Y-84016033D01*
X150216667Y-84016033D02*
X149783333Y-84016033D01*
X149550000Y-83316033D02*
X149116666Y-83316033D01*
X149116666Y-83316033D02*
X149350000Y-83582700D01*
X149350000Y-83582700D02*
X149250000Y-83582700D01*
X149250000Y-83582700D02*
X149183333Y-83616033D01*
X149183333Y-83616033D02*
X149150000Y-83649366D01*
X149150000Y-83649366D02*
X149116666Y-83716033D01*
X149116666Y-83716033D02*
X149116666Y-83882700D01*
X149116666Y-83882700D02*
X149150000Y-83949366D01*
X149150000Y-83949366D02*
X149183333Y-83982700D01*
X149183333Y-83982700D02*
X149250000Y-84016033D01*
X149250000Y-84016033D02*
X149450000Y-84016033D01*
X149450000Y-84016033D02*
X149516666Y-83982700D01*
X149516666Y-83982700D02*
X149550000Y-83949366D01*
X144833333Y-75736033D02*
X144833333Y-76302700D01*
X144833333Y-76302700D02*
X144800000Y-76369366D01*
X144800000Y-76369366D02*
X144766666Y-76402700D01*
X144766666Y-76402700D02*
X144700000Y-76436033D01*
X144700000Y-76436033D02*
X144566666Y-76436033D01*
X144566666Y-76436033D02*
X144500000Y-76402700D01*
X144500000Y-76402700D02*
X144466666Y-76369366D01*
X144466666Y-76369366D02*
X144433333Y-76302700D01*
X144433333Y-76302700D02*
X144433333Y-75736033D01*
X143766667Y-75736033D02*
X144100000Y-75736033D01*
X144100000Y-75736033D02*
X144133333Y-76069366D01*
X144133333Y-76069366D02*
X144100000Y-76036033D01*
X144100000Y-76036033D02*
X144033333Y-76002700D01*
X144033333Y-76002700D02*
X143866667Y-76002700D01*
X143866667Y-76002700D02*
X143800000Y-76036033D01*
X143800000Y-76036033D02*
X143766667Y-76069366D01*
X143766667Y-76069366D02*
X143733333Y-76136033D01*
X143733333Y-76136033D02*
X143733333Y-76302700D01*
X143733333Y-76302700D02*
X143766667Y-76369366D01*
X143766667Y-76369366D02*
X143800000Y-76402700D01*
X143800000Y-76402700D02*
X143866667Y-76436033D01*
X143866667Y-76436033D02*
X144033333Y-76436033D01*
X144033333Y-76436033D02*
X144100000Y-76402700D01*
X144100000Y-76402700D02*
X144133333Y-76369366D01*
X155233333Y-75736033D02*
X155233333Y-76302700D01*
X155233333Y-76302700D02*
X155200000Y-76369366D01*
X155200000Y-76369366D02*
X155166666Y-76402700D01*
X155166666Y-76402700D02*
X155100000Y-76436033D01*
X155100000Y-76436033D02*
X154966666Y-76436033D01*
X154966666Y-76436033D02*
X154900000Y-76402700D01*
X154900000Y-76402700D02*
X154866666Y-76369366D01*
X154866666Y-76369366D02*
X154833333Y-76302700D01*
X154833333Y-76302700D02*
X154833333Y-75736033D01*
X154566667Y-75736033D02*
X154100000Y-75736033D01*
X154100000Y-75736033D02*
X154400000Y-76436033D01*
X134533333Y-75736033D02*
X134533333Y-76302700D01*
X134533333Y-76302700D02*
X134500000Y-76369366D01*
X134500000Y-76369366D02*
X134466666Y-76402700D01*
X134466666Y-76402700D02*
X134400000Y-76436033D01*
X134400000Y-76436033D02*
X134266666Y-76436033D01*
X134266666Y-76436033D02*
X134200000Y-76402700D01*
X134200000Y-76402700D02*
X134166666Y-76369366D01*
X134166666Y-76369366D02*
X134133333Y-76302700D01*
X134133333Y-76302700D02*
X134133333Y-75736033D01*
X133866667Y-75736033D02*
X133433333Y-75736033D01*
X133433333Y-75736033D02*
X133666667Y-76002700D01*
X133666667Y-76002700D02*
X133566667Y-76002700D01*
X133566667Y-76002700D02*
X133500000Y-76036033D01*
X133500000Y-76036033D02*
X133466667Y-76069366D01*
X133466667Y-76069366D02*
X133433333Y-76136033D01*
X133433333Y-76136033D02*
X133433333Y-76302700D01*
X133433333Y-76302700D02*
X133466667Y-76369366D01*
X133466667Y-76369366D02*
X133500000Y-76402700D01*
X133500000Y-76402700D02*
X133566667Y-76436033D01*
X133566667Y-76436033D02*
X133766667Y-76436033D01*
X133766667Y-76436033D02*
X133833333Y-76402700D01*
X133833333Y-76402700D02*
X133866667Y-76369366D01*
%TO.C,J3*%
D11*
X120180000Y-49940000D02*
X118800000Y-49940000D01*
X120180000Y-51320000D02*
X120180000Y-49940000D01*
X120180000Y-52590000D02*
X120180000Y-70480000D01*
X120180000Y-52590000D02*
X117420000Y-52590000D01*
X120180000Y-70480000D02*
X117420000Y-70480000D01*
X117420000Y-52590000D02*
X117420000Y-70480000D01*
%TO.C,J5*%
X130580000Y-49940000D02*
X129200000Y-49940000D01*
X130580000Y-51320000D02*
X130580000Y-49940000D01*
X130580000Y-52590000D02*
X130580000Y-70480000D01*
X130580000Y-52590000D02*
X127820000Y-52590000D01*
X130580000Y-70480000D02*
X127820000Y-70480000D01*
X127820000Y-52590000D02*
X127820000Y-70480000D01*
%TO.C,J6*%
X133020000Y-52590000D02*
X133020000Y-70480000D01*
X135780000Y-70480000D02*
X133020000Y-70480000D01*
X135780000Y-52590000D02*
X133020000Y-52590000D01*
X135780000Y-52590000D02*
X135780000Y-70480000D01*
X135780000Y-51320000D02*
X135780000Y-49940000D01*
X135780000Y-49940000D02*
X134400000Y-49940000D01*
%TO.C,J4*%
X122620000Y-52590000D02*
X122620000Y-70480000D01*
X125380000Y-70480000D02*
X122620000Y-70480000D01*
X125380000Y-52590000D02*
X122620000Y-52590000D01*
X125380000Y-52590000D02*
X125380000Y-70480000D01*
X125380000Y-51320000D02*
X125380000Y-49940000D01*
X125380000Y-49940000D02*
X124000000Y-49940000D01*
%TO.C,J8*%
X143420000Y-52590000D02*
X143420000Y-70480000D01*
X146180000Y-70480000D02*
X143420000Y-70480000D01*
X146180000Y-52590000D02*
X143420000Y-52590000D01*
X146180000Y-52590000D02*
X146180000Y-70480000D01*
X146180000Y-51320000D02*
X146180000Y-49940000D01*
X146180000Y-49940000D02*
X144800000Y-49940000D01*
%TO.C,J7*%
X138220000Y-52590000D02*
X138220000Y-70480000D01*
X140980000Y-70480000D02*
X138220000Y-70480000D01*
X140980000Y-52590000D02*
X138220000Y-52590000D01*
X140980000Y-52590000D02*
X140980000Y-70480000D01*
X140980000Y-51320000D02*
X140980000Y-49940000D01*
X140980000Y-49940000D02*
X139600000Y-49940000D01*
%TO.C,J10*%
X153820000Y-52590000D02*
X153820000Y-70480000D01*
X156580000Y-70480000D02*
X153820000Y-70480000D01*
X156580000Y-52590000D02*
X153820000Y-52590000D01*
X156580000Y-52590000D02*
X156580000Y-70480000D01*
X156580000Y-51320000D02*
X156580000Y-49940000D01*
X156580000Y-49940000D02*
X155200000Y-49940000D01*
%TO.C,J9*%
X148620000Y-52590000D02*
X148620000Y-70480000D01*
X151380000Y-70480000D02*
X148620000Y-70480000D01*
X151380000Y-52590000D02*
X148620000Y-52590000D01*
X151380000Y-52590000D02*
X151380000Y-70480000D01*
X151380000Y-51320000D02*
X151380000Y-49940000D01*
X151380000Y-49940000D02*
X150000000Y-49940000D01*
%TO.C,R19*%
X129085436Y-81585000D02*
X129539564Y-81585000D01*
X129085436Y-83055000D02*
X129539564Y-83055000D01*
%TO.C,R21*%
X139360436Y-81585000D02*
X139814564Y-81585000D01*
X139360436Y-83055000D02*
X139814564Y-83055000D01*
%TO.C,R23*%
X149785436Y-83055000D02*
X150239564Y-83055000D01*
X149785436Y-81585000D02*
X150239564Y-81585000D01*
%TO.C,U5*%
X137565000Y-81155000D02*
X141685000Y-81155000D01*
X137565000Y-81100000D02*
X137565000Y-81155000D01*
X137565000Y-71035000D02*
X137565000Y-71090000D01*
X141685000Y-81155000D02*
X141685000Y-81100000D01*
X141685000Y-71090000D02*
X141685000Y-71035000D01*
X141685000Y-71035000D02*
X137565000Y-71035000D01*
X137025000Y-81105000D02*
X136785000Y-81435000D01*
X137265000Y-81435000D01*
X137025000Y-81105000D01*
G36*
X137265000Y-81435000D02*
G01*
X136785000Y-81435000D01*
X137025000Y-81105000D01*
X137265000Y-81435000D01*
G37*
%TO.C,U7*%
X147375000Y-81130000D02*
X147135000Y-81460000D01*
X147615000Y-81460000D01*
X147375000Y-81130000D01*
G36*
X147615000Y-81460000D02*
G01*
X147135000Y-81460000D01*
X147375000Y-81130000D01*
X147615000Y-81460000D01*
G37*
X152035000Y-71060000D02*
X147915000Y-71060000D01*
X152035000Y-71115000D02*
X152035000Y-71060000D01*
X152035000Y-81180000D02*
X152035000Y-81125000D01*
X147915000Y-71060000D02*
X147915000Y-71115000D01*
X147915000Y-81125000D02*
X147915000Y-81180000D01*
X147915000Y-81180000D02*
X152035000Y-81180000D01*
%TO.C,U3*%
X126675000Y-81105000D02*
X126435000Y-81435000D01*
X126915000Y-81435000D01*
X126675000Y-81105000D01*
G36*
X126915000Y-81435000D02*
G01*
X126435000Y-81435000D01*
X126675000Y-81105000D01*
X126915000Y-81435000D01*
G37*
X131335000Y-71035000D02*
X127215000Y-71035000D01*
X131335000Y-71090000D02*
X131335000Y-71035000D01*
X131335000Y-81155000D02*
X131335000Y-81100000D01*
X127215000Y-71035000D02*
X127215000Y-71090000D01*
X127215000Y-81100000D02*
X127215000Y-81155000D01*
X127215000Y-81155000D02*
X131335000Y-81155000D01*
%TD*%
M02*
