%TF.GenerationSoftware,KiCad,Pcbnew,10.0.4*%
%TF.CreationDate,2026-06-26T15:47:44-04:00*%
%TF.ProjectId,CountdownTimerController_V1.0,436f756e-7464-46f7-976e-54696d657243,rev?*%
%TF.SameCoordinates,Original*%
%TF.FileFunction,Copper,L2,Bot*%
%TF.FilePolarity,Positive*%
%FSLAX46Y46*%
G04 Gerber Fmt 4.6, Leading zero omitted, Abs format (unit mm)*
G04 Created by KiCad (PCBNEW 10.0.4) date 2026-06-26 15:47:44*
%MOMM*%
%LPD*%
G01*
G04 APERTURE LIST*
G04 Aperture macros list*
%AMRoundRect*
0 Rectangle with rounded corners*
0 $1 Rounding radius*
0 $2 $3 $4 $5 $6 $7 $8 $9 X,Y pos of 4 corners*
0 Add a 4 corners polygon primitive as box body*
4,1,4,$2,$3,$4,$5,$6,$7,$8,$9,$2,$3,0*
0 Add four circle primitives for the rounded corners*
1,1,$1+$1,$2,$3*
1,1,$1+$1,$4,$5*
1,1,$1+$1,$6,$7*
1,1,$1+$1,$8,$9*
0 Add four rect primitives between the rounded corners*
20,1,$1+$1,$2,$3,$4,$5,0*
20,1,$1+$1,$4,$5,$6,$7,0*
20,1,$1+$1,$6,$7,$8,$9,0*
20,1,$1+$1,$8,$9,$2,$3,0*%
G04 Aperture macros list end*
%TA.AperFunction,ComponentPad*%
%ADD10R,1.700000X1.700000*%
%TD*%
%TA.AperFunction,ComponentPad*%
%ADD11C,1.700000*%
%TD*%
%TA.AperFunction,SMDPad,CuDef*%
%ADD12RoundRect,0.250000X-0.262500X-0.450000X0.262500X-0.450000X0.262500X0.450000X-0.262500X0.450000X0*%
%TD*%
%TA.AperFunction,SMDPad,CuDef*%
%ADD13RoundRect,0.150000X-0.825000X-0.150000X0.825000X-0.150000X0.825000X0.150000X-0.825000X0.150000X0*%
%TD*%
%TA.AperFunction,ComponentPad*%
%ADD14O,0.800000X1.400000*%
%TD*%
%TA.AperFunction,ComponentPad*%
%ADD15R,4.000000X2.000000*%
%TD*%
%TA.AperFunction,ComponentPad*%
%ADD16O,3.300000X2.000000*%
%TD*%
%TA.AperFunction,ComponentPad*%
%ADD17O,2.000000X3.500000*%
%TD*%
%TA.AperFunction,ComponentPad*%
%ADD18R,1.500000X2.300000*%
%TD*%
%TA.AperFunction,ComponentPad*%
%ADD19O,1.500000X2.300000*%
%TD*%
%TA.AperFunction,HeatsinkPad*%
%ADD20C,0.600000*%
%TD*%
%TA.AperFunction,ViaPad*%
%ADD21C,0.600000*%
%TD*%
%TA.AperFunction,Conductor*%
%ADD22C,0.200000*%
%TD*%
%TA.AperFunction,Conductor*%
%ADD23C,0.250000*%
%TD*%
G04 APERTURE END LIST*
D10*
%TO.P,J3,1,Pin_1_1*%
%TO.N,+12V*%
X118800000Y-51320000D03*
D11*
%TO.P,J3,2,Pin_2_2*%
X118800000Y-53860000D03*
%TO.P,J3,3,Pin_3_3*%
X118800000Y-56400000D03*
%TO.P,J3,4,Pin_4_4*%
X118800000Y-58940000D03*
%TO.P,J3,5,Pin_5_5*%
X118800000Y-61480000D03*
%TO.P,J3,6,Pin_6_6*%
X118800000Y-64020000D03*
%TO.P,J3,7,Pin_7_7*%
X118800000Y-66560000D03*
%TO.P,J3,8,Pin_8_8*%
X118800000Y-69100000D03*
%TD*%
D10*
%TO.P,J5,1,Pin_1_1*%
%TO.N,OUT1_0*%
X129200000Y-51320000D03*
D11*
%TO.P,J5,2,Pin_2_2*%
%TO.N,OUT1_1*%
X129200000Y-53860000D03*
%TO.P,J5,3,Pin_3_3*%
%TO.N,OUT1_2*%
X129200000Y-56400000D03*
%TO.P,J5,4,Pin_4_4*%
%TO.N,OUT1_3*%
X129200000Y-58940000D03*
%TO.P,J5,5,Pin_5_5*%
%TO.N,OUT1_4*%
X129200000Y-61480000D03*
%TO.P,J5,6,Pin_6_6*%
%TO.N,OUT1_5*%
X129200000Y-64020000D03*
%TO.P,J5,7,Pin_7_7*%
%TO.N,OUT1_6*%
X129200000Y-66560000D03*
%TO.P,J5,8,Pin_8_8*%
%TO.N,OUT1_7*%
X129200000Y-69100000D03*
%TD*%
%TO.P,J6,8,Pin_8_8*%
%TO.N,OUT2_7*%
X134400000Y-69100000D03*
%TO.P,J6,7,Pin_7_7*%
%TO.N,OUT2_6*%
X134400000Y-66560000D03*
%TO.P,J6,6,Pin_6_6*%
%TO.N,OUT2_5*%
X134400000Y-64020000D03*
%TO.P,J6,5,Pin_5_5*%
%TO.N,OUT2_4*%
X134400000Y-61480000D03*
%TO.P,J6,4,Pin_4_4*%
%TO.N,OUT2_3*%
X134400000Y-58940000D03*
%TO.P,J6,3,Pin_3_3*%
%TO.N,OUT2_2*%
X134400000Y-56400000D03*
%TO.P,J6,2,Pin_2_2*%
%TO.N,OUT2_1*%
X134400000Y-53860000D03*
D10*
%TO.P,J6,1,Pin_1_1*%
%TO.N,OUT2_0*%
X134400000Y-51320000D03*
%TD*%
D11*
%TO.P,J4,8,Pin_8_8*%
%TO.N,OUT0_7*%
X124000000Y-69100000D03*
%TO.P,J4,7,Pin_7_7*%
%TO.N,OUT0_6*%
X124000000Y-66560000D03*
%TO.P,J4,6,Pin_6_6*%
%TO.N,OUT0_5*%
X124000000Y-64020000D03*
%TO.P,J4,5,Pin_5_5*%
%TO.N,OUT0_4*%
X124000000Y-61480000D03*
%TO.P,J4,4,Pin_4_4*%
%TO.N,OUT0_3*%
X124000000Y-58940000D03*
%TO.P,J4,3,Pin_3_3*%
%TO.N,OUT0_2*%
X124000000Y-56400000D03*
%TO.P,J4,2,Pin_2_2*%
%TO.N,OUT0_1*%
X124000000Y-53860000D03*
D10*
%TO.P,J4,1,Pin_1_1*%
%TO.N,OUT0_0*%
X124000000Y-51320000D03*
%TD*%
D11*
%TO.P,J8,8,Pin_8_8*%
%TO.N,OUT4_7*%
X144800000Y-69100000D03*
%TO.P,J8,7,Pin_7_7*%
%TO.N,OUT4_6*%
X144800000Y-66560000D03*
%TO.P,J8,6,Pin_6_6*%
%TO.N,OUT4_5*%
X144800000Y-64020000D03*
%TO.P,J8,5,Pin_5_5*%
%TO.N,OUT4_4*%
X144800000Y-61480000D03*
%TO.P,J8,4,Pin_4_4*%
%TO.N,OUT4_3*%
X144800000Y-58940000D03*
%TO.P,J8,3,Pin_3_3*%
%TO.N,OUT4_2*%
X144800000Y-56400000D03*
%TO.P,J8,2,Pin_2_2*%
%TO.N,OUT4_1*%
X144800000Y-53860000D03*
D10*
%TO.P,J8,1,Pin_1_1*%
%TO.N,OUT4_0*%
X144800000Y-51320000D03*
%TD*%
D11*
%TO.P,J7,8,Pin_8_8*%
%TO.N,OUT3_7*%
X139600000Y-69100000D03*
%TO.P,J7,7,Pin_7_7*%
%TO.N,OUT3_6*%
X139600000Y-66560000D03*
%TO.P,J7,6,Pin_6_6*%
%TO.N,OUT3_5*%
X139600000Y-64020000D03*
%TO.P,J7,5,Pin_5_5*%
%TO.N,OUT3_4*%
X139600000Y-61480000D03*
%TO.P,J7,4,Pin_4_4*%
%TO.N,OUT3_3*%
X139600000Y-58940000D03*
%TO.P,J7,3,Pin_3_3*%
%TO.N,OUT3_2*%
X139600000Y-56400000D03*
%TO.P,J7,2,Pin_2_2*%
%TO.N,OUT3_1*%
X139600000Y-53860000D03*
D10*
%TO.P,J7,1,Pin_1_1*%
%TO.N,OUT3_0*%
X139600000Y-51320000D03*
%TD*%
D11*
%TO.P,J10,8,Pin_8_8*%
%TO.N,OUT6_7*%
X155200000Y-69100000D03*
%TO.P,J10,7,Pin_7_7*%
%TO.N,OUT6_6*%
X155200000Y-66560000D03*
%TO.P,J10,6,Pin_6_6*%
%TO.N,OUT6_5*%
X155200000Y-64020000D03*
%TO.P,J10,5,Pin_5_5*%
%TO.N,OUT6_4*%
X155200000Y-61480000D03*
%TO.P,J10,4,Pin_4_4*%
%TO.N,OUT6_3*%
X155200000Y-58940000D03*
%TO.P,J10,3,Pin_3_3*%
%TO.N,OUT6_2*%
X155200000Y-56400000D03*
%TO.P,J10,2,Pin_2_2*%
%TO.N,OUT6_1*%
X155200000Y-53860000D03*
D10*
%TO.P,J10,1,Pin_1_1*%
%TO.N,OUT6_0*%
X155200000Y-51320000D03*
%TD*%
D11*
%TO.P,J9,8,Pin_8_8*%
%TO.N,OUT5_7*%
X150000000Y-69100000D03*
%TO.P,J9,7,Pin_7_7*%
%TO.N,OUT5_6*%
X150000000Y-66560000D03*
%TO.P,J9,6,Pin_6_6*%
%TO.N,OUT5_5*%
X150000000Y-64020000D03*
%TO.P,J9,5,Pin_5_5*%
%TO.N,OUT5_4*%
X150000000Y-61480000D03*
%TO.P,J9,4,Pin_4_4*%
%TO.N,OUT5_3*%
X150000000Y-58940000D03*
%TO.P,J9,3,Pin_3_3*%
%TO.N,OUT5_2*%
X150000000Y-56400000D03*
%TO.P,J9,2,Pin_2_2*%
%TO.N,OUT5_1*%
X150000000Y-53860000D03*
D10*
%TO.P,J9,1,Pin_1_1*%
%TO.N,OUT5_0*%
X150000000Y-51320000D03*
%TD*%
D12*
%TO.P,R19,2*%
%TO.N,Net-(U3-R-EXT)*%
X130225000Y-82320000D03*
%TO.P,R19,1*%
%TO.N,GND*%
X128400000Y-82320000D03*
%TD*%
%TO.P,R21,2*%
%TO.N,Net-(U5-R-EXT)*%
X140500000Y-82320000D03*
%TO.P,R21,1*%
%TO.N,GND*%
X138675000Y-82320000D03*
%TD*%
%TO.P,R23,1*%
%TO.N,GND*%
X149100000Y-82320000D03*
%TO.P,R23,2*%
%TO.N,Net-(U7-R-EXT)*%
X150925000Y-82320000D03*
%TD*%
D13*
%TO.P,U5,1,GND_1*%
%TO.N,GND*%
X137150000Y-80540000D03*
%TO.P,U5,2,SDI_2*%
%TO.N,Net-(U4-SDO)*%
X137150000Y-79270000D03*
%TO.P,U5,3,CLK_3*%
%TO.N,SPI_CLK*%
X137150000Y-78000000D03*
%TO.P,U5,4,LE(ED1)_4*%
%TO.N,LE*%
X137150000Y-76730000D03*
%TO.P,U5,5,~{OUT0}_5*%
%TO.N,OUT3_0*%
X137150000Y-75460000D03*
%TO.P,U5,6,~{OUT1}_6*%
%TO.N,OUT3_1*%
X137150000Y-74190000D03*
%TO.P,U5,7,~{OUT2}_7*%
%TO.N,OUT3_2*%
X137150000Y-72920000D03*
%TO.P,U5,8,~{OUT3}_8*%
%TO.N,OUT3_3*%
X137150000Y-71650000D03*
%TO.P,U5,9,~{OUT4}_9*%
%TO.N,OUT3_4*%
X142100000Y-71650000D03*
%TO.P,U5,10,~{OUT5}_10*%
%TO.N,OUT3_5*%
X142100000Y-72920000D03*
%TO.P,U5,11,~{OUT6}_11*%
%TO.N,OUT3_6*%
X142100000Y-74190000D03*
%TO.P,U5,12,~{OUT7}_12*%
%TO.N,OUT3_7*%
X142100000Y-75460000D03*
%TO.P,U5,13,~{OE}(ED2)_13*%
%TO.N,OE*%
X142100000Y-76730000D03*
%TO.P,U5,14,SDO_14*%
%TO.N,Net-(U5-SDO)*%
X142100000Y-78000000D03*
%TO.P,U5,15,R-EXT_15*%
%TO.N,Net-(U5-R-EXT)*%
X142100000Y-79270000D03*
%TO.P,U5,16,VDD_16*%
%TO.N,+3.3V*%
X142100000Y-80540000D03*
%TD*%
%TO.P,U7,16,VDD_16*%
%TO.N,+3.3V*%
X152450000Y-80565000D03*
%TO.P,U7,15,R-EXT_15*%
%TO.N,Net-(U7-R-EXT)*%
X152450000Y-79295000D03*
%TO.P,U7,14,SDO_14*%
%TO.N,Net-(U7-SDO)*%
X152450000Y-78025000D03*
%TO.P,U7,13,~{OE}(ED2)_13*%
%TO.N,OE*%
X152450000Y-76755000D03*
%TO.P,U7,12,~{OUT7}_12*%
%TO.N,OUT5_7*%
X152450000Y-75485000D03*
%TO.P,U7,11,~{OUT6}_11*%
%TO.N,OUT5_6*%
X152450000Y-74215000D03*
%TO.P,U7,10,~{OUT5}_10*%
%TO.N,OUT5_5*%
X152450000Y-72945000D03*
%TO.P,U7,9,~{OUT4}_9*%
%TO.N,OUT5_4*%
X152450000Y-71675000D03*
%TO.P,U7,8,~{OUT3}_8*%
%TO.N,OUT5_3*%
X147500000Y-71675000D03*
%TO.P,U7,7,~{OUT2}_7*%
%TO.N,OUT5_2*%
X147500000Y-72945000D03*
%TO.P,U7,6,~{OUT1}_6*%
%TO.N,OUT5_1*%
X147500000Y-74215000D03*
%TO.P,U7,5,~{OUT0}_5*%
%TO.N,OUT5_0*%
X147500000Y-75485000D03*
%TO.P,U7,4,LE(ED1)_4*%
%TO.N,LE*%
X147500000Y-76755000D03*
%TO.P,U7,3,CLK_3*%
%TO.N,SPI_CLK*%
X147500000Y-78025000D03*
%TO.P,U7,2,SDI_2*%
%TO.N,Net-(U6-SDO)*%
X147500000Y-79295000D03*
%TO.P,U7,1,GND_1*%
%TO.N,GND*%
X147500000Y-80565000D03*
%TD*%
%TO.P,U3,16,VDD_16*%
%TO.N,+3.3V*%
X131750000Y-80540000D03*
%TO.P,U3,15,R-EXT_15*%
%TO.N,Net-(U3-R-EXT)*%
X131750000Y-79270000D03*
%TO.P,U3,14,SDO_14*%
%TO.N,Net-(U3-SDO)*%
X131750000Y-78000000D03*
%TO.P,U3,13,~{OE}(ED2)_13*%
%TO.N,OE*%
X131750000Y-76730000D03*
%TO.P,U3,12,~{OUT7}_12*%
%TO.N,OUT1_7*%
X131750000Y-75460000D03*
%TO.P,U3,11,~{OUT6}_11*%
%TO.N,OUT1_6*%
X131750000Y-74190000D03*
%TO.P,U3,10,~{OUT5}_10*%
%TO.N,OUT1_5*%
X131750000Y-72920000D03*
%TO.P,U3,9,~{OUT4}_9*%
%TO.N,OUT1_4*%
X131750000Y-71650000D03*
%TO.P,U3,8,~{OUT3}_8*%
%TO.N,OUT1_3*%
X126800000Y-71650000D03*
%TO.P,U3,7,~{OUT2}_7*%
%TO.N,OUT1_2*%
X126800000Y-72920000D03*
%TO.P,U3,6,~{OUT1}_6*%
%TO.N,OUT1_1*%
X126800000Y-74190000D03*
%TO.P,U3,5,~{OUT0}_5*%
%TO.N,OUT1_0*%
X126800000Y-75460000D03*
%TO.P,U3,4,LE(ED1)_4*%
%TO.N,LE*%
X126800000Y-76730000D03*
%TO.P,U3,3,CLK_3*%
%TO.N,SPI_CLK*%
X126800000Y-78000000D03*
%TO.P,U3,2,SDI_2*%
%TO.N,Net-(U2-SDO)*%
X126800000Y-79270000D03*
%TO.P,U3,1,GND_1*%
%TO.N,GND*%
X126800000Y-80540000D03*
%TD*%
D14*
%TO.P,J1,SH,SHIELD_SH*%
%TO.N,GND*%
X93520000Y-49380000D03*
X93160000Y-55330000D03*
X84900000Y-55330000D03*
X84540000Y-49380000D03*
%TD*%
D15*
%TO.P,J2,1*%
%TO.N,Net-(F1-Pad1)*%
X111000000Y-59120000D03*
D16*
%TO.P,J2,2*%
%TO.N,GND*%
X111000000Y-53120000D03*
D17*
%TO.P,J2,MP*%
%TO.N,N/C*%
X115500000Y-52120000D03*
X106500000Y-52120000D03*
%TD*%
D18*
%TO.P,DCDC1,1,IN_1*%
%TO.N,+12V*%
X105647500Y-65420000D03*
D19*
%TO.P,DCDC1,2,GND_2*%
%TO.N,GND*%
X103107500Y-65420000D03*
%TO.P,DCDC1,3,OUT_3*%
%TO.N,+5V*%
X100567500Y-65420000D03*
%TD*%
D20*
%TO.P,MCU1,19,GND_19*%
%TO.N,GND*%
X67850000Y-64320000D03*
X68950000Y-64320000D03*
X67300000Y-63770000D03*
X68400000Y-63770000D03*
X69500000Y-63770000D03*
X67850000Y-63220000D03*
X68950000Y-63220000D03*
X67300000Y-62670000D03*
X68400000Y-62670000D03*
X69500000Y-62670000D03*
X67850000Y-62120000D03*
X68950000Y-62120000D03*
%TD*%
D21*
%TO.N,GND*%
X129800000Y-79300000D03*
X134100000Y-80600000D03*
X57900000Y-49400000D03*
X57900000Y-78900000D03*
X67200000Y-78800000D03*
X75900000Y-76500000D03*
X112200000Y-71900000D03*
X108100000Y-73400000D03*
X92900000Y-73300000D03*
X97200000Y-73300000D03*
X153400000Y-83500000D03*
X145800000Y-80400000D03*
X135509079Y-80495000D03*
X101400000Y-57800000D03*
X97500000Y-57800000D03*
X81000000Y-50300000D03*
X86600000Y-54000000D03*
X88600000Y-58700000D03*
X87700000Y-59500000D03*
X89800000Y-64600000D03*
X78200000Y-65600000D03*
X81300000Y-68100000D03*
X77800000Y-60500000D03*
X80000000Y-56020000D03*
X73900000Y-58000000D03*
X72200000Y-63100000D03*
X62800000Y-63200000D03*
X69800000Y-51600000D03*
X66700000Y-51600000D03*
X67800000Y-57900000D03*
X68000000Y-70300000D03*
X74700000Y-70400000D03*
X88100000Y-76700000D03*
X84500000Y-73300000D03*
X88100000Y-73700000D03*
X103100000Y-76300000D03*
X103100000Y-69000000D03*
X111000000Y-55900000D03*
X124200000Y-75000000D03*
X119700000Y-79100000D03*
X113900000Y-76400000D03*
X118700000Y-72000000D03*
X118700000Y-74800000D03*
X121400000Y-59900000D03*
X121400000Y-51300000D03*
X126600000Y-51300000D03*
X129300000Y-75000000D03*
X131900000Y-59900000D03*
X131900000Y-51300000D03*
X137000000Y-51300000D03*
X142200000Y-60100000D03*
X142200000Y-51300000D03*
X147400000Y-51300000D03*
X158800000Y-60100000D03*
X158600000Y-51300000D03*
X152500000Y-60100000D03*
X152500000Y-51300000D03*
X150000000Y-74900000D03*
X155900000Y-74600000D03*
X157800000Y-82300000D03*
X147400000Y-82200000D03*
X137000000Y-82300000D03*
X126700000Y-82200000D03*
%TO.N,SDO*%
X150800000Y-78020000D03*
%TO.N,LE*%
X123125000Y-76731373D03*
%TO.N,OE*%
X117600000Y-76120000D03*
%TO.N,SPI_MOSI*%
X118600000Y-78020000D03*
%TO.N,SPI_CLK*%
X118000000Y-77420000D03*
%TO.N,SPI_MOSI*%
X69700000Y-78020000D03*
%TO.N,SPI_CLK*%
X68200000Y-77420000D03*
X148900000Y-79900000D03*
X138500000Y-79895000D03*
X128200000Y-78625000D03*
%TO.N,+3.3V*%
X120050000Y-80570000D03*
X94389950Y-75020000D03*
X92380025Y-74995000D03*
%TO.N,Net-(U7-SDO)*%
X155200000Y-78020000D03*
%TO.N,Net-(U5-SDO)*%
X144900000Y-78020000D03*
%TO.N,Net-(U6-SDO)*%
X144887500Y-79207500D03*
%TO.N,Net-(U3-SDO)*%
X134480000Y-78000000D03*
%TO.N,Net-(U4-SDO)*%
X134500000Y-79220000D03*
%TO.N,Net-(U2-SDO)*%
X125125000Y-79214412D03*
%TO.N,SDO*%
X68200000Y-51020000D03*
%TO.N,OE*%
X63700000Y-51020000D03*
%TO.N,LE*%
X62200000Y-51020000D03*
%TO.N,USB_DN*%
X89183651Y-58089805D03*
%TO.N,GPIO9*%
X95092397Y-70818363D03*
%TO.N,CHIP_PU*%
X66475000Y-75920000D03*
X86126472Y-71195000D03*
%TO.N,GPIO9*%
X80800000Y-63320000D03*
X79188235Y-61556765D03*
%TO.N,Net-(U1-RXD)*%
X72700000Y-51020000D03*
%TO.N,Net-(U1-TXD)*%
X71200000Y-51020000D03*
%TO.N,USB_DN*%
X93500000Y-64045000D03*
%TO.N,USB_DP*%
X93336429Y-64828101D03*
X89950000Y-53870000D03*
%TO.N,USB_DN*%
X89978527Y-54690000D03*
%TO.N,Net-(U1-TXD)*%
X86874265Y-68345735D03*
%TO.N,Net-(U1-RXD)*%
X87231233Y-67529939D03*
%TO.N,UART_DTR*%
X93200000Y-70120000D03*
X92200000Y-66820000D03*
%TO.N,UART_RTS*%
X89500000Y-70120000D03*
X87600000Y-66820000D03*
%TD*%
%TO.N,LE*%
D22*
X146925000Y-77330000D02*
X147500000Y-76755000D01*
X137750000Y-77330000D02*
X146925000Y-77330000D01*
X137150000Y-76730000D02*
X137750000Y-77330000D01*
%TO.N,+3.3V*%
D23*
X152450000Y-83050000D02*
X152450000Y-80565000D01*
X151705000Y-83795000D02*
X152450000Y-83050000D01*
X130050000Y-83795000D02*
X151705000Y-83795000D01*
X141405000Y-83795000D02*
X141007600Y-83795000D01*
X142100000Y-83100000D02*
X141405000Y-83795000D01*
X142100000Y-80540000D02*
X142100000Y-83100000D01*
X131750000Y-83050000D02*
X131750000Y-80540000D01*
X131005000Y-83795000D02*
X131750000Y-83050000D01*
X130050000Y-83795000D02*
X131005000Y-83795000D01*
X123275000Y-83795000D02*
X130050000Y-83795000D01*
X120050000Y-80570000D02*
X123275000Y-83795000D01*
%TO.N,SDO*%
D22*
X68800000Y-50420000D02*
X68200000Y-51020000D01*
X77000000Y-50420000D02*
X68800000Y-50420000D01*
X99280000Y-72700000D02*
X77000000Y-50420000D01*
X121000000Y-72700000D02*
X99280000Y-72700000D01*
X124400000Y-76100000D02*
X121000000Y-72700000D01*
X124400000Y-79420000D02*
X124400000Y-76100000D01*
X124850000Y-79870000D02*
X124400000Y-79420000D01*
X127815552Y-79870000D02*
X124850000Y-79870000D01*
X129085552Y-78600000D02*
X127815552Y-79870000D01*
X132765552Y-78600000D02*
X129085552Y-78600000D01*
X135305552Y-81140000D02*
X132765552Y-78600000D01*
X143115552Y-78600000D02*
X140705552Y-78600000D01*
X145680552Y-81165000D02*
X143115552Y-78600000D01*
X138165552Y-81140000D02*
X135305552Y-81140000D01*
X148515552Y-81165000D02*
X145680552Y-81165000D01*
X140705552Y-78600000D02*
X138165552Y-81140000D01*
X150000000Y-79680552D02*
X148515552Y-81165000D01*
X150000000Y-78820000D02*
X150000000Y-79680552D01*
X150800000Y-78020000D02*
X150000000Y-78820000D01*
%TO.N,Net-(U2-SDO)*%
X125199265Y-79270000D02*
X126800000Y-79270000D01*
X125143677Y-79214412D02*
X125199265Y-79270000D01*
X125125000Y-79214412D02*
X125143677Y-79214412D01*
%TO.N,LE*%
X75100000Y-63920000D02*
X62200000Y-51020000D01*
X79700000Y-63920000D02*
X75100000Y-63920000D01*
X90175000Y-74395000D02*
X79700000Y-63920000D01*
X123123627Y-76730000D02*
X117010000Y-76730000D01*
X117010000Y-76730000D02*
X114675000Y-74395000D01*
X123125000Y-76731373D02*
X123123627Y-76730000D01*
X114675000Y-74395000D02*
X90175000Y-74395000D01*
%TO.N,GPIO9*%
X94994034Y-70720000D02*
X95092397Y-70818363D01*
X88400000Y-70720000D02*
X94994034Y-70720000D01*
X81000000Y-63320000D02*
X88400000Y-70720000D01*
X80800000Y-63320000D02*
X81000000Y-63320000D01*
%TO.N,CHIP_PU*%
X71175000Y-71220000D02*
X66475000Y-75920000D01*
X86075000Y-71220000D02*
X71175000Y-71220000D01*
X86100000Y-71195000D02*
X86075000Y-71220000D01*
X86126472Y-71195000D02*
X86100000Y-71195000D01*
%TO.N,OE*%
X76200000Y-63520000D02*
X63700000Y-51020000D01*
X80151471Y-63520000D02*
X76200000Y-63520000D01*
X90626471Y-73995000D02*
X80151471Y-63520000D01*
X115475000Y-73995000D02*
X90626471Y-73995000D01*
X117600000Y-76120000D02*
X115475000Y-73995000D01*
%TO.N,+3.3V*%
D23*
X92405025Y-75020000D02*
X92380025Y-74995000D01*
X94389950Y-75020000D02*
X92405025Y-75020000D01*
%TO.N,SPI_MOSI*%
D22*
X69700000Y-78020000D02*
X118600000Y-78020000D01*
%TO.N,SPI_CLK*%
X68200000Y-77420000D02*
X118000000Y-77420000D01*
X148474999Y-78025000D02*
X147500000Y-78025000D01*
X148900000Y-78450001D02*
X148474999Y-78025000D01*
X148900000Y-79900000D02*
X148900000Y-78450001D01*
X138124999Y-78000000D02*
X137150000Y-78000000D01*
X138500000Y-78375001D02*
X138124999Y-78000000D01*
X138500000Y-79895000D02*
X138500000Y-78375001D01*
X127425000Y-78625000D02*
X126800000Y-78000000D01*
X128200000Y-78625000D02*
X127425000Y-78625000D01*
%TO.N,Net-(U3-SDO)*%
X134480000Y-78000000D02*
X131750000Y-78000000D01*
%TO.N,Net-(U4-SDO)*%
X134650000Y-79270000D02*
X137150000Y-79270000D01*
X134600000Y-79220000D02*
X134650000Y-79270000D01*
X134500000Y-79220000D02*
X134600000Y-79220000D01*
%TO.N,Net-(U5-SDO)*%
X144880000Y-78000000D02*
X142100000Y-78000000D01*
X144900000Y-78020000D02*
X144880000Y-78000000D01*
%TO.N,Net-(U6-SDO)*%
X144887500Y-79207500D02*
X144975000Y-79295000D01*
X144975000Y-79295000D02*
X147500000Y-79295000D01*
%TO.N,Net-(U7-SDO)*%
X155195000Y-78025000D02*
X152450000Y-78025000D01*
X155200000Y-78020000D02*
X155195000Y-78025000D01*
%TO.N,Net-(U1-TXD)*%
X86874265Y-68345735D02*
X71200000Y-52671470D01*
X71200000Y-52671470D02*
X71200000Y-51020000D01*
%TO.N,GPIO9*%
X80800000Y-63220000D02*
X80800000Y-63320000D01*
X79188235Y-61608235D02*
X80800000Y-63220000D01*
X79188235Y-61556765D02*
X79188235Y-61608235D01*
%TO.N,Net-(U1-RXD)*%
X72700000Y-52998706D02*
X72700000Y-51020000D01*
X87231233Y-67529939D02*
X72700000Y-52998706D01*
%TO.N,UART_RTS*%
X88900000Y-68220000D02*
X87600000Y-66920000D01*
X87600000Y-66920000D02*
X87600000Y-66820000D01*
X88900000Y-69520000D02*
X88900000Y-68220000D01*
X89500000Y-70120000D02*
X88900000Y-69520000D01*
%TO.N,UART_DTR*%
X93200000Y-70120000D02*
X93200000Y-67820000D01*
X93200000Y-67820000D02*
X92200000Y-66820000D01*
%TO.N,Net-(U7-R-EXT)*%
X151475001Y-79295000D02*
X152450000Y-79295000D01*
X150925000Y-79845001D02*
X151475001Y-79295000D01*
X150925000Y-82320000D02*
X150925000Y-79845001D01*
%TO.N,Net-(U5-R-EXT)*%
X141125001Y-79270000D02*
X142100000Y-79270000D01*
X140500000Y-79895001D02*
X141125001Y-79270000D01*
X140500000Y-82320000D02*
X140500000Y-79895001D01*
%TO.N,Net-(U3-R-EXT)*%
X130225000Y-79820001D02*
X130775001Y-79270000D01*
X130775001Y-79270000D02*
X131750000Y-79270000D01*
X130225000Y-82320000D02*
X130225000Y-79820001D01*
%TO.N,LE*%
X136550000Y-77330000D02*
X137150000Y-76730000D01*
X127400000Y-77330000D02*
X136550000Y-77330000D01*
X126800000Y-76730000D02*
X127400000Y-77330000D01*
%TO.N,OE*%
X151780000Y-76085000D02*
X152450000Y-76755000D01*
X142745000Y-76085000D02*
X151780000Y-76085000D01*
X142100000Y-76730000D02*
X142745000Y-76085000D01*
X132350000Y-76130000D02*
X141500000Y-76130000D01*
X131750000Y-76730000D02*
X132350000Y-76130000D01*
X141500000Y-76130000D02*
X142100000Y-76730000D01*
%TO.N,OUT5_7*%
X150000000Y-74009999D02*
X150000000Y-69100000D01*
X151475001Y-75485000D02*
X150000000Y-74009999D01*
X152450000Y-75485000D02*
X151475001Y-75485000D01*
%TO.N,OUT5_6*%
X151650000Y-70293762D02*
X151650000Y-68210000D01*
X151650000Y-68210000D02*
X150000000Y-66560000D01*
X150775000Y-71168762D02*
X151650000Y-70293762D01*
X151475001Y-74215000D02*
X150775000Y-73514999D01*
X152450000Y-74215000D02*
X151475001Y-74215000D01*
X150775000Y-73514999D02*
X150775000Y-71168762D01*
%TO.N,OUT5_5*%
X152050000Y-66070000D02*
X150000000Y-64020000D01*
X151175000Y-71334448D02*
X152050000Y-70459448D01*
X151725000Y-72945000D02*
X151175000Y-72395000D01*
X151175000Y-72395000D02*
X151175000Y-71334448D01*
X152050000Y-70459448D02*
X152050000Y-66070000D01*
X152104448Y-72945000D02*
X151725000Y-72945000D01*
X152200000Y-72945000D02*
X152104448Y-72945000D01*
X152104448Y-72945000D02*
X152200000Y-72849448D01*
X152200000Y-72849448D02*
X152200000Y-72945000D01*
X152450000Y-72945000D02*
X152104448Y-72945000D01*
%TO.N,OUT5_4*%
X152450000Y-63930000D02*
X150000000Y-61480000D01*
X152450000Y-71675000D02*
X152450000Y-63930000D01*
%TO.N,OUT5_3*%
X147500000Y-70585686D02*
X148800000Y-69285685D01*
X148800000Y-60140000D02*
X150000000Y-58940000D01*
X147500000Y-71675000D02*
X147500000Y-70585686D01*
X148800000Y-69285685D02*
X148800000Y-60140000D01*
%TO.N,OUT5_0*%
X147600000Y-53720000D02*
X150000000Y-51320000D01*
X147600000Y-68788628D02*
X147600000Y-53720000D01*
X145425000Y-70963628D02*
X147600000Y-68788628D01*
X146509724Y-75485000D02*
X145425000Y-74400276D01*
X147500000Y-75485000D02*
X146509724Y-75485000D01*
X145425000Y-74400276D02*
X145425000Y-70963628D01*
%TO.N,OUT5_1*%
X148000000Y-55860000D02*
X150000000Y-53860000D01*
X145825000Y-71129314D02*
X148000000Y-68954314D01*
X146525001Y-74215000D02*
X145825000Y-73514999D01*
X145825000Y-73514999D02*
X145825000Y-71129314D01*
X147500000Y-74215000D02*
X146525001Y-74215000D01*
X148000000Y-68954314D02*
X148000000Y-55860000D01*
%TO.N,OUT5_2*%
X148400000Y-58000000D02*
X150000000Y-56400000D01*
X146225000Y-71295000D02*
X148400000Y-69120000D01*
X146225000Y-72015552D02*
X146225000Y-71295000D01*
X148400000Y-69120000D02*
X148400000Y-58000000D01*
X147154448Y-72945000D02*
X146225000Y-72015552D01*
X147500000Y-72945000D02*
X147154448Y-72945000D01*
%TO.N,OUT3_7*%
X139600000Y-73934999D02*
X139600000Y-69100000D01*
X141125001Y-75460000D02*
X139600000Y-73934999D01*
X142100000Y-75460000D02*
X141125001Y-75460000D01*
%TO.N,OUT3_6*%
X141300000Y-70268762D02*
X141300000Y-68260000D01*
X140425000Y-71143762D02*
X141300000Y-70268762D01*
X140425000Y-73489999D02*
X140425000Y-71143762D01*
X141125001Y-74190000D02*
X140425000Y-73489999D01*
X142100000Y-74190000D02*
X141125001Y-74190000D01*
X141300000Y-68260000D02*
X139600000Y-66560000D01*
%TO.N,OUT3_5*%
X141700000Y-66120000D02*
X139600000Y-64020000D01*
X141700000Y-70434448D02*
X141700000Y-66120000D01*
X140825000Y-71309448D02*
X141700000Y-70434448D01*
X141400000Y-72920000D02*
X140825000Y-72345000D01*
X142100000Y-72920000D02*
X141400000Y-72920000D01*
X140825000Y-72345000D02*
X140825000Y-71309448D01*
%TO.N,OUT3_4*%
X142100000Y-63980000D02*
X139600000Y-61480000D01*
X142100000Y-71650000D02*
X142100000Y-63980000D01*
%TO.N,OUT3_3*%
X138400000Y-60140000D02*
X139600000Y-58940000D01*
X137200000Y-70550134D02*
X138400000Y-69350133D01*
X138400000Y-69350133D02*
X138400000Y-60140000D01*
X137200000Y-71600000D02*
X137200000Y-70550134D01*
X137150000Y-71650000D02*
X137200000Y-71600000D01*
%TO.N,OUT1_3*%
X128000000Y-69400133D02*
X128000000Y-60140000D01*
X126800000Y-70600134D02*
X128000000Y-69400133D01*
X126800000Y-71650000D02*
X126800000Y-70600134D01*
X128000000Y-60140000D02*
X129200000Y-58940000D01*
%TO.N,OUT3_0*%
X137200000Y-68853076D02*
X137200000Y-53720000D01*
X137200000Y-53720000D02*
X139600000Y-51320000D01*
X135075000Y-70978076D02*
X137200000Y-68853076D01*
X135075000Y-74395000D02*
X135075000Y-70978076D01*
X136140000Y-75460000D02*
X135075000Y-74395000D01*
X137150000Y-75460000D02*
X136140000Y-75460000D01*
%TO.N,OUT3_1*%
X137600000Y-55860000D02*
X139600000Y-53860000D01*
X137600000Y-69018762D02*
X137600000Y-55860000D01*
X135475000Y-71143762D02*
X137600000Y-69018762D01*
X136175001Y-74190000D02*
X135475000Y-73489999D01*
X135475000Y-73489999D02*
X135475000Y-71143762D01*
X137150000Y-74190000D02*
X136175001Y-74190000D01*
%TO.N,OUT3_2*%
X138000000Y-69184448D02*
X138000000Y-58000000D01*
X135875000Y-71990552D02*
X135875000Y-71309448D01*
X138000000Y-58000000D02*
X139600000Y-56400000D01*
X136804448Y-72920000D02*
X135875000Y-71990552D01*
X135875000Y-71309448D02*
X138000000Y-69184448D01*
X137150000Y-72920000D02*
X136804448Y-72920000D01*
%TO.N,OUT1_0*%
X126800000Y-68903076D02*
X126800000Y-53720000D01*
X124725000Y-74359999D02*
X124725000Y-70978076D01*
X126800000Y-53720000D02*
X129200000Y-51320000D01*
X125825001Y-75460000D02*
X124725000Y-74359999D01*
X126800000Y-75460000D02*
X125825001Y-75460000D01*
X124725000Y-70978076D02*
X126800000Y-68903076D01*
%TO.N,OUT1_1*%
X127200000Y-55860000D02*
X129200000Y-53860000D01*
X125125000Y-73489999D02*
X125125000Y-71143762D01*
X125825001Y-74190000D02*
X125125000Y-73489999D01*
X125125000Y-71143762D02*
X127200000Y-69068762D01*
X126800000Y-74190000D02*
X125825001Y-74190000D01*
X127200000Y-69068762D02*
X127200000Y-55860000D01*
%TO.N,OUT1_2*%
X127600000Y-58000000D02*
X129200000Y-56400000D01*
X125525000Y-71309448D02*
X127600000Y-69234448D01*
X127600000Y-69234448D02*
X127600000Y-58000000D01*
X125525000Y-72045000D02*
X125525000Y-71309448D01*
X126400000Y-72920000D02*
X125525000Y-72045000D01*
X126800000Y-72920000D02*
X126400000Y-72920000D01*
%TO.N,OUT1_7*%
X129200000Y-73884999D02*
X129200000Y-69100000D01*
X130775001Y-75460000D02*
X129200000Y-73884999D01*
X131750000Y-75460000D02*
X130775001Y-75460000D01*
%TO.N,OUT1_6*%
X130950000Y-68310000D02*
X129200000Y-66560000D01*
X130950000Y-70268762D02*
X130950000Y-68310000D01*
X130075000Y-71143762D02*
X130950000Y-70268762D01*
X130775001Y-74190000D02*
X130075000Y-73489999D01*
X130075000Y-73489999D02*
X130075000Y-71143762D01*
X131750000Y-74190000D02*
X130775001Y-74190000D01*
%TO.N,OUT1_5*%
X131350000Y-66170000D02*
X129200000Y-64020000D01*
X131350000Y-70434448D02*
X131350000Y-66170000D01*
X130475000Y-71309448D02*
X131350000Y-70434448D01*
X130475000Y-72395000D02*
X130475000Y-71309448D01*
X131750000Y-72920000D02*
X131000000Y-72920000D01*
X131000000Y-72920000D02*
X130475000Y-72395000D01*
%TO.N,OUT1_4*%
X131750000Y-64030000D02*
X129200000Y-61480000D01*
X131750000Y-71650000D02*
X131750000Y-64030000D01*
%TO.N,USB_DP*%
X90007056Y-53870000D02*
X89950000Y-53870000D01*
X94100000Y-62370000D02*
X90600000Y-58870000D01*
X90600000Y-58870000D02*
X90600000Y-54462944D01*
X94100000Y-64320000D02*
X94100000Y-62370000D01*
X93336429Y-64828101D02*
X93591899Y-64828101D01*
X93591899Y-64828101D02*
X94100000Y-64320000D01*
X90600000Y-54462944D02*
X90007056Y-53870000D01*
%TO.N,USB_DN*%
X93500000Y-62420000D02*
X93500000Y-64045000D01*
X89978527Y-54766473D02*
X89978527Y-54690000D01*
X89183651Y-58089805D02*
X89183651Y-58103651D01*
X89183651Y-58103651D02*
X93500000Y-62420000D01*
X89200000Y-58073456D02*
X89200000Y-55545000D01*
X89183651Y-58089805D02*
X89200000Y-58073456D01*
X89200000Y-55545000D02*
X89978527Y-54766473D01*
%TD*%
%TA.AperFunction,Conductor*%
%TO.N,GND*%
G36*
X84035890Y-48934852D02*
G01*
X84050242Y-48969500D01*
X84048572Y-48982183D01*
X84040000Y-49014172D01*
X84040000Y-49230000D01*
X84290000Y-49230000D01*
X84290000Y-49530000D01*
X84040000Y-49530000D01*
X84040000Y-49745828D01*
X84074073Y-49872989D01*
X84074075Y-49872995D01*
X84139901Y-49987007D01*
X84232992Y-50080098D01*
X84347005Y-50145924D01*
X84389999Y-50157445D01*
X84390000Y-50157445D01*
X84390000Y-49883554D01*
X84398386Y-49891940D01*
X84490272Y-49930000D01*
X84589728Y-49930000D01*
X84681614Y-49891940D01*
X84690000Y-49883554D01*
X84690000Y-50157445D01*
X84732993Y-50145924D01*
X84732995Y-50145924D01*
X84847007Y-50080098D01*
X84847008Y-50080098D01*
X84940098Y-49987008D01*
X84940098Y-49987007D01*
X85005924Y-49872995D01*
X85005926Y-49872989D01*
X85040000Y-49745828D01*
X85040000Y-49530000D01*
X84790000Y-49530000D01*
X84790000Y-49230000D01*
X85040000Y-49230000D01*
X85040000Y-49014172D01*
X85031428Y-48982183D01*
X85036322Y-48945001D01*
X85066075Y-48922170D01*
X85078758Y-48920500D01*
X92981242Y-48920500D01*
X93015890Y-48934852D01*
X93030242Y-48969500D01*
X93028572Y-48982183D01*
X93020000Y-49014172D01*
X93020000Y-49230000D01*
X93270000Y-49230000D01*
X93270000Y-49530000D01*
X93020000Y-49530000D01*
X93020000Y-49745828D01*
X93054073Y-49872989D01*
X93054075Y-49872995D01*
X93119901Y-49987007D01*
X93212992Y-50080098D01*
X93327005Y-50145924D01*
X93369999Y-50157445D01*
X93370000Y-50157445D01*
X93370000Y-49883554D01*
X93378386Y-49891940D01*
X93470272Y-49930000D01*
X93569728Y-49930000D01*
X93661614Y-49891940D01*
X93670000Y-49883554D01*
X93670000Y-50157445D01*
X93712993Y-50145924D01*
X93712995Y-50145924D01*
X93827007Y-50080098D01*
X93827008Y-50080098D01*
X93890570Y-50016535D01*
X109949500Y-50016535D01*
X109949500Y-50223465D01*
X109969786Y-50325448D01*
X109989869Y-50426417D01*
X109989871Y-50426423D01*
X110042553Y-50553607D01*
X110069059Y-50617598D01*
X110184023Y-50789655D01*
X110330345Y-50935977D01*
X110502402Y-51050941D01*
X110693580Y-51130130D01*
X110896535Y-51170500D01*
X110896538Y-51170500D01*
X111103462Y-51170500D01*
X111103465Y-51170500D01*
X111306420Y-51130130D01*
X111497598Y-51050941D01*
X111669655Y-50935977D01*
X111815977Y-50789655D01*
X111930941Y-50617598D01*
X112010130Y-50426420D01*
X112050500Y-50223465D01*
X112050500Y-50016535D01*
X112010130Y-49813580D01*
X111930941Y-49622402D01*
X111815977Y-49450345D01*
X111669655Y-49304023D01*
X111635267Y-49281046D01*
X111558871Y-49230000D01*
X111497598Y-49189059D01*
X111497596Y-49189058D01*
X111306423Y-49109871D01*
X111306417Y-49109869D01*
X111224572Y-49093589D01*
X111103465Y-49069500D01*
X110896535Y-49069500D01*
X110795520Y-49089592D01*
X110693582Y-49109869D01*
X110693576Y-49109871D01*
X110502403Y-49189058D01*
X110330345Y-49304022D01*
X110184022Y-49450345D01*
X110069058Y-49622403D01*
X109989871Y-49813576D01*
X109989869Y-49813582D01*
X109974283Y-49891940D01*
X109949500Y-50016535D01*
X93890570Y-50016535D01*
X93920097Y-49987008D01*
X93985924Y-49872995D01*
X93985926Y-49872989D01*
X94020000Y-49745828D01*
X94020000Y-49530000D01*
X93770000Y-49530000D01*
X93770000Y-49230000D01*
X94020000Y-49230000D01*
X94020000Y-49014172D01*
X94011428Y-48982183D01*
X94016322Y-48945001D01*
X94046075Y-48922170D01*
X94058758Y-48920500D01*
X158473448Y-48920500D01*
X158537195Y-48920500D01*
X158541465Y-48920685D01*
X158708643Y-48935312D01*
X158717039Y-48936793D01*
X158877048Y-48979667D01*
X158885071Y-48982587D01*
X159035213Y-49052600D01*
X159042596Y-49056863D01*
X159178293Y-49151879D01*
X159184836Y-49157369D01*
X159301970Y-49274503D01*
X159307460Y-49281046D01*
X159402474Y-49416740D01*
X159406743Y-49424133D01*
X159476751Y-49574266D01*
X159479672Y-49582292D01*
X159522544Y-49742293D01*
X159524028Y-49750704D01*
X159538654Y-49917874D01*
X159538840Y-49922145D01*
X159538840Y-82917854D01*
X159538654Y-82922125D01*
X159524028Y-83089295D01*
X159522544Y-83097706D01*
X159479672Y-83257707D01*
X159476751Y-83265733D01*
X159406743Y-83415866D01*
X159402472Y-83423263D01*
X159307460Y-83558953D01*
X159301970Y-83565496D01*
X159184836Y-83682630D01*
X159178293Y-83688120D01*
X159042603Y-83783132D01*
X159035206Y-83787403D01*
X158885073Y-83857411D01*
X158877047Y-83860332D01*
X158717046Y-83903204D01*
X158708635Y-83904688D01*
X158541466Y-83919314D01*
X158537195Y-83919500D01*
X152159123Y-83919500D01*
X152124475Y-83905148D01*
X152110123Y-83870500D01*
X152124475Y-83835852D01*
X152710464Y-83249863D01*
X152710465Y-83249862D01*
X152753318Y-83175639D01*
X152775499Y-83092856D01*
X152775500Y-83092856D01*
X152775500Y-81114500D01*
X152789852Y-81079852D01*
X152824500Y-81065500D01*
X153308262Y-81065500D01*
X153325590Y-81062974D01*
X153376393Y-81055573D01*
X153481483Y-81004198D01*
X153564198Y-80921483D01*
X153615573Y-80816393D01*
X153625500Y-80748260D01*
X153625500Y-80381740D01*
X153624782Y-80376815D01*
X153618162Y-80331376D01*
X153615573Y-80313607D01*
X153564198Y-80208517D01*
X153481483Y-80125802D01*
X153414770Y-80093188D01*
X153376396Y-80074428D01*
X153376394Y-80074427D01*
X153308262Y-80064500D01*
X153308260Y-80064500D01*
X151591740Y-80064500D01*
X151591738Y-80064500D01*
X151523605Y-80074427D01*
X151523603Y-80074428D01*
X151418519Y-80125801D01*
X151418515Y-80125803D01*
X151335803Y-80208515D01*
X151335800Y-80208519D01*
X151318521Y-80243865D01*
X151290410Y-80268689D01*
X151252979Y-80266365D01*
X151228155Y-80238254D01*
X151225500Y-80222344D01*
X151225500Y-79989767D01*
X151239851Y-79955120D01*
X151422160Y-79772810D01*
X151456807Y-79758459D01*
X151478328Y-79763438D01*
X151510180Y-79779009D01*
X151523607Y-79785573D01*
X151571884Y-79792606D01*
X151591738Y-79795500D01*
X151591740Y-79795500D01*
X153308262Y-79795500D01*
X153325590Y-79792974D01*
X153376393Y-79785573D01*
X153481483Y-79734198D01*
X153564198Y-79651483D01*
X153615573Y-79546393D01*
X153625500Y-79478260D01*
X153625500Y-79111740D01*
X153615573Y-79043607D01*
X153564198Y-78938517D01*
X153481483Y-78855802D01*
X153407226Y-78819500D01*
X153376396Y-78804428D01*
X153376394Y-78804427D01*
X153308262Y-78794500D01*
X153308260Y-78794500D01*
X151591740Y-78794500D01*
X151591738Y-78794500D01*
X151523605Y-78804427D01*
X151523603Y-78804428D01*
X151418519Y-78855801D01*
X151418515Y-78855803D01*
X151335803Y-78938515D01*
X151335799Y-78938521D01*
X151284427Y-79043606D01*
X151284426Y-79043609D01*
X151283871Y-79047417D01*
X151270032Y-79074996D01*
X150740489Y-79604541D01*
X150684541Y-79660489D01*
X150684540Y-79660489D01*
X150644979Y-79729009D01*
X150644979Y-79729011D01*
X150624500Y-79805437D01*
X150624500Y-81373354D01*
X150610148Y-81408002D01*
X150580078Y-81422140D01*
X150577801Y-81422353D01*
X150577800Y-81422353D01*
X150449623Y-81467204D01*
X150449614Y-81467208D01*
X150340349Y-81547849D01*
X150259708Y-81657114D01*
X150259704Y-81657123D01*
X150214853Y-81785300D01*
X150214853Y-81785301D01*
X150212000Y-81815724D01*
X150212000Y-82824275D01*
X150214853Y-82854698D01*
X150214853Y-82854699D01*
X150259704Y-82982876D01*
X150259708Y-82982885D01*
X150340349Y-83092150D01*
X150449614Y-83172791D01*
X150449617Y-83172792D01*
X150449618Y-83172793D01*
X150449620Y-83172793D01*
X150449623Y-83172795D01*
X150457751Y-83175639D01*
X150577801Y-83217646D01*
X150608234Y-83220500D01*
X150608244Y-83220500D01*
X151241756Y-83220500D01*
X151241766Y-83220500D01*
X151272199Y-83217646D01*
X151400382Y-83172793D01*
X151440946Y-83142856D01*
X151509650Y-83092150D01*
X151590291Y-82982885D01*
X151590291Y-82982884D01*
X151590293Y-82982882D01*
X151635146Y-82854699D01*
X151638000Y-82824266D01*
X151638000Y-81815734D01*
X151635146Y-81785301D01*
X151592634Y-81663809D01*
X151590295Y-81657123D01*
X151590291Y-81657114D01*
X151509650Y-81547849D01*
X151400385Y-81467208D01*
X151400376Y-81467204D01*
X151272199Y-81422353D01*
X151269922Y-81422140D01*
X151236766Y-81404614D01*
X151225500Y-81373354D01*
X151225500Y-80907655D01*
X151239852Y-80873007D01*
X151274500Y-80858655D01*
X151309148Y-80873007D01*
X151318521Y-80886134D01*
X151335802Y-80921483D01*
X151418517Y-81004198D01*
X151523607Y-81055573D01*
X151571884Y-81062606D01*
X151591738Y-81065500D01*
X151591740Y-81065500D01*
X152075500Y-81065500D01*
X152110148Y-81079852D01*
X152124500Y-81114500D01*
X152124500Y-82894877D01*
X152110148Y-82929525D01*
X151584525Y-83455148D01*
X151549877Y-83469500D01*
X142309123Y-83469500D01*
X142274475Y-83455148D01*
X142260123Y-83420500D01*
X142274475Y-83385852D01*
X142360464Y-83299863D01*
X142360465Y-83299862D01*
X142403318Y-83225638D01*
X142425499Y-83142856D01*
X142425500Y-83142856D01*
X142425500Y-82803221D01*
X148487501Y-82803221D01*
X148497411Y-82871248D01*
X148497411Y-82871249D01*
X148548712Y-82976186D01*
X148548715Y-82976190D01*
X148631309Y-83058784D01*
X148631313Y-83058786D01*
X148736251Y-83110087D01*
X148804279Y-83119999D01*
X148949999Y-83119999D01*
X149250000Y-83119999D01*
X149395721Y-83119999D01*
X149463748Y-83110088D01*
X149463749Y-83110088D01*
X149568686Y-83058787D01*
X149568690Y-83058784D01*
X149651284Y-82976190D01*
X149651286Y-82976186D01*
X149702587Y-82871249D01*
X149702587Y-82871248D01*
X149712500Y-82803220D01*
X149712500Y-82470000D01*
X149250000Y-82470000D01*
X149250000Y-83119999D01*
X148949999Y-83119999D01*
X148950000Y-83119998D01*
X148950000Y-82470000D01*
X148487501Y-82470000D01*
X148487501Y-82803221D01*
X142425500Y-82803221D01*
X142425500Y-81836779D01*
X148487500Y-81836779D01*
X148487500Y-82170000D01*
X148950000Y-82170000D01*
X149250000Y-82170000D01*
X149712499Y-82170000D01*
X149712499Y-81836778D01*
X149702588Y-81768751D01*
X149702588Y-81768750D01*
X149651287Y-81663813D01*
X149651284Y-81663809D01*
X149568690Y-81581215D01*
X149568686Y-81581213D01*
X149463748Y-81529912D01*
X149395721Y-81520000D01*
X149250000Y-81520000D01*
X149250000Y-82170000D01*
X148950000Y-82170000D01*
X148950000Y-81520000D01*
X148804278Y-81520000D01*
X148736251Y-81529911D01*
X148736250Y-81529911D01*
X148631313Y-81581212D01*
X148631309Y-81581215D01*
X148548715Y-81663809D01*
X148548713Y-81663813D01*
X148497412Y-81768750D01*
X148497412Y-81768751D01*
X148487500Y-81836779D01*
X142425500Y-81836779D01*
X142425500Y-81089500D01*
X142439852Y-81054852D01*
X142474500Y-81040500D01*
X142958262Y-81040500D01*
X142975590Y-81037974D01*
X143026393Y-81030573D01*
X143131483Y-80979198D01*
X143214198Y-80896483D01*
X143265573Y-80791393D01*
X143275500Y-80723260D01*
X143275500Y-80356740D01*
X143275478Y-80356592D01*
X143270985Y-80325753D01*
X143265573Y-80288607D01*
X143214198Y-80183517D01*
X143131483Y-80100802D01*
X143036793Y-80054511D01*
X143026396Y-80049428D01*
X143026394Y-80049427D01*
X142958262Y-80039500D01*
X142958260Y-80039500D01*
X141241740Y-80039500D01*
X141241738Y-80039500D01*
X141173605Y-80049427D01*
X141173603Y-80049428D01*
X141068519Y-80100801D01*
X141068515Y-80100803D01*
X140985803Y-80183515D01*
X140985801Y-80183519D01*
X140934428Y-80288603D01*
X140934427Y-80288605D01*
X140924500Y-80356738D01*
X140924500Y-80723261D01*
X140934427Y-80791394D01*
X140934428Y-80791396D01*
X140946649Y-80816394D01*
X140985802Y-80896483D01*
X141068517Y-80979198D01*
X141173607Y-81030573D01*
X141221884Y-81037606D01*
X141241738Y-81040500D01*
X141241740Y-81040500D01*
X141725500Y-81040500D01*
X141760148Y-81054852D01*
X141774500Y-81089500D01*
X141774500Y-82944877D01*
X141760148Y-82979525D01*
X141284525Y-83455148D01*
X141249877Y-83469500D01*
X131909123Y-83469500D01*
X131874475Y-83455148D01*
X131860123Y-83420500D01*
X131874475Y-83385852D01*
X132010464Y-83249863D01*
X132010465Y-83249862D01*
X132053318Y-83175639D01*
X132075499Y-83092856D01*
X132075500Y-83092856D01*
X132075500Y-82803221D01*
X138062501Y-82803221D01*
X138072411Y-82871248D01*
X138072411Y-82871249D01*
X138123712Y-82976186D01*
X138123715Y-82976190D01*
X138206309Y-83058784D01*
X138206313Y-83058786D01*
X138311251Y-83110087D01*
X138379279Y-83119999D01*
X138524999Y-83119999D01*
X138825000Y-83119999D01*
X138970721Y-83119999D01*
X139038748Y-83110088D01*
X139038749Y-83110088D01*
X139143686Y-83058787D01*
X139143690Y-83058784D01*
X139226284Y-82976190D01*
X139226286Y-82976186D01*
X139277587Y-82871249D01*
X139277587Y-82871248D01*
X139287500Y-82803220D01*
X139287500Y-82470000D01*
X138825000Y-82470000D01*
X138825000Y-83119999D01*
X138524999Y-83119999D01*
X138525000Y-83119998D01*
X138525000Y-82470000D01*
X138062501Y-82470000D01*
X138062501Y-82803221D01*
X132075500Y-82803221D01*
X132075500Y-81836779D01*
X138062500Y-81836779D01*
X138062500Y-82170000D01*
X138525000Y-82170000D01*
X138825000Y-82170000D01*
X139287499Y-82170000D01*
X139287499Y-81836778D01*
X139277588Y-81768751D01*
X139277588Y-81768750D01*
X139226287Y-81663813D01*
X139226284Y-81663809D01*
X139143690Y-81581215D01*
X139143686Y-81581213D01*
X139038748Y-81529912D01*
X138970721Y-81520000D01*
X138825000Y-81520000D01*
X138825000Y-82170000D01*
X138525000Y-82170000D01*
X138525000Y-81520000D01*
X138379278Y-81520000D01*
X138311251Y-81529911D01*
X138311250Y-81529911D01*
X138206313Y-81581212D01*
X138206309Y-81581215D01*
X138123715Y-81663809D01*
X138123713Y-81663813D01*
X138072412Y-81768750D01*
X138072412Y-81768751D01*
X138062500Y-81836779D01*
X132075500Y-81836779D01*
X132075500Y-81089500D01*
X132089852Y-81054852D01*
X132124500Y-81040500D01*
X132608262Y-81040500D01*
X132625590Y-81037974D01*
X132676393Y-81030573D01*
X132781483Y-80979198D01*
X132864198Y-80896483D01*
X132915573Y-80791393D01*
X132925500Y-80723260D01*
X132925500Y-80356740D01*
X132925478Y-80356592D01*
X132920985Y-80325753D01*
X132915573Y-80288607D01*
X132864198Y-80183517D01*
X132781483Y-80100802D01*
X132686793Y-80054511D01*
X132676396Y-80049428D01*
X132676394Y-80049427D01*
X132608262Y-80039500D01*
X132608260Y-80039500D01*
X130891740Y-80039500D01*
X130891738Y-80039500D01*
X130823605Y-80049427D01*
X130823603Y-80049428D01*
X130718519Y-80100801D01*
X130718515Y-80100803D01*
X130635803Y-80183515D01*
X130635800Y-80183519D01*
X130618521Y-80218865D01*
X130590410Y-80243689D01*
X130552979Y-80241365D01*
X130528155Y-80213254D01*
X130525500Y-80197344D01*
X130525500Y-79964767D01*
X130539851Y-79930120D01*
X130722160Y-79747810D01*
X130756807Y-79733459D01*
X130778328Y-79738438D01*
X130823607Y-79760573D01*
X130871884Y-79767606D01*
X130891738Y-79770500D01*
X130891740Y-79770500D01*
X132608262Y-79770500D01*
X132625590Y-79767974D01*
X132676393Y-79760573D01*
X132781483Y-79709198D01*
X132864198Y-79626483D01*
X132915573Y-79521393D01*
X132925500Y-79453260D01*
X132925500Y-79303215D01*
X132939852Y-79268567D01*
X132974500Y-79254215D01*
X133009148Y-79268567D01*
X135065092Y-81324511D01*
X135121041Y-81380460D01*
X135168745Y-81408002D01*
X135188660Y-81419500D01*
X135189563Y-81420021D01*
X135225030Y-81429524D01*
X135265988Y-81440500D01*
X135265990Y-81440500D01*
X138205116Y-81440500D01*
X138231782Y-81433354D01*
X138281541Y-81420021D01*
X138282444Y-81419500D01*
X138290722Y-81414720D01*
X138350063Y-81380460D01*
X138406012Y-81324511D01*
X140815671Y-78914852D01*
X140850319Y-78900500D01*
X140913669Y-78900500D01*
X140948317Y-78914852D01*
X140962669Y-78949500D01*
X140957690Y-78971020D01*
X140934427Y-79018606D01*
X140934426Y-79018609D01*
X140933871Y-79022417D01*
X140920032Y-79049996D01*
X140315489Y-79654541D01*
X140259541Y-79710489D01*
X140259540Y-79710489D01*
X140219979Y-79779009D01*
X140219979Y-79779011D01*
X140199500Y-79855437D01*
X140199500Y-81373354D01*
X140185148Y-81408002D01*
X140155078Y-81422140D01*
X140152801Y-81422353D01*
X140152800Y-81422353D01*
X140024623Y-81467204D01*
X140024614Y-81467208D01*
X139915349Y-81547849D01*
X139834708Y-81657114D01*
X139834704Y-81657123D01*
X139789853Y-81785300D01*
X139789853Y-81785301D01*
X139787000Y-81815724D01*
X139787000Y-82824275D01*
X139789853Y-82854698D01*
X139789853Y-82854699D01*
X139834704Y-82982876D01*
X139834708Y-82982885D01*
X139915349Y-83092150D01*
X140024614Y-83172791D01*
X140024617Y-83172792D01*
X140024618Y-83172793D01*
X140024620Y-83172793D01*
X140024623Y-83172795D01*
X140032751Y-83175639D01*
X140152801Y-83217646D01*
X140183234Y-83220500D01*
X140183244Y-83220500D01*
X140816756Y-83220500D01*
X140816766Y-83220500D01*
X140847199Y-83217646D01*
X140975382Y-83172793D01*
X141015946Y-83142856D01*
X141084650Y-83092150D01*
X141165291Y-82982885D01*
X141165291Y-82982884D01*
X141165293Y-82982882D01*
X141210146Y-82854699D01*
X141213000Y-82824266D01*
X141213000Y-81815734D01*
X141210146Y-81785301D01*
X141167634Y-81663809D01*
X141165295Y-81657123D01*
X141165291Y-81657114D01*
X141084650Y-81547849D01*
X140975385Y-81467208D01*
X140975376Y-81467204D01*
X140847199Y-81422353D01*
X140844922Y-81422140D01*
X140811766Y-81404614D01*
X140800500Y-81373354D01*
X140800500Y-80039767D01*
X140814851Y-80005120D01*
X141072160Y-79747810D01*
X141106807Y-79733459D01*
X141128328Y-79738438D01*
X141173607Y-79760573D01*
X141221884Y-79767606D01*
X141241738Y-79770500D01*
X141241740Y-79770500D01*
X142958262Y-79770500D01*
X142975590Y-79767974D01*
X143026393Y-79760573D01*
X143131483Y-79709198D01*
X143214198Y-79626483D01*
X143265573Y-79521393D01*
X143275500Y-79453260D01*
X143275500Y-79303215D01*
X143289852Y-79268567D01*
X143324500Y-79254215D01*
X143359148Y-79268567D01*
X145496041Y-81405460D01*
X145525302Y-81422354D01*
X145564560Y-81445020D01*
X145564564Y-81445022D01*
X145624838Y-81461172D01*
X145640986Y-81465499D01*
X145640987Y-81465500D01*
X145640990Y-81465500D01*
X148555116Y-81465500D01*
X148581782Y-81458354D01*
X148631541Y-81445021D01*
X148700063Y-81405460D01*
X148756012Y-81349511D01*
X150240460Y-79865063D01*
X150258332Y-79834108D01*
X150280021Y-79796541D01*
X150300500Y-79720114D01*
X150300500Y-78964766D01*
X150314851Y-78930119D01*
X150710118Y-78534851D01*
X150744766Y-78520500D01*
X150865895Y-78520500D01*
X150865895Y-78520499D01*
X150993186Y-78486392D01*
X150999784Y-78482583D01*
X151025485Y-78467744D01*
X151107314Y-78420500D01*
X151200500Y-78327314D01*
X151213399Y-78304970D01*
X151243150Y-78282142D01*
X151280332Y-78287036D01*
X151299854Y-78307951D01*
X151335800Y-78381480D01*
X151335801Y-78381482D01*
X151335802Y-78381483D01*
X151418517Y-78464198D01*
X151523607Y-78515573D01*
X151571884Y-78522606D01*
X151591738Y-78525500D01*
X151591740Y-78525500D01*
X153308262Y-78525500D01*
X153325590Y-78522974D01*
X153376393Y-78515573D01*
X153481483Y-78464198D01*
X153564198Y-78381483D01*
X153578132Y-78352978D01*
X153606242Y-78328155D01*
X153622153Y-78325500D01*
X154777390Y-78325500D01*
X154812038Y-78339852D01*
X154892686Y-78420500D01*
X154925072Y-78439198D01*
X155006811Y-78486391D01*
X155006813Y-78486391D01*
X155006814Y-78486392D01*
X155107207Y-78513292D01*
X155134104Y-78520499D01*
X155134105Y-78520500D01*
X155134108Y-78520500D01*
X155265895Y-78520500D01*
X155265895Y-78520499D01*
X155393186Y-78486392D01*
X155399784Y-78482583D01*
X155425485Y-78467744D01*
X155507314Y-78420500D01*
X155600500Y-78327314D01*
X155666392Y-78213186D01*
X155700499Y-78085895D01*
X155700500Y-78085895D01*
X155700500Y-77954105D01*
X155700499Y-77954104D01*
X155666392Y-77826815D01*
X155666391Y-77826811D01*
X155614326Y-77736633D01*
X155600500Y-77712686D01*
X155507314Y-77619500D01*
X155393188Y-77553608D01*
X155393184Y-77553607D01*
X155265895Y-77519500D01*
X155265892Y-77519500D01*
X155134108Y-77519500D01*
X155134105Y-77519500D01*
X155006815Y-77553607D01*
X155006811Y-77553608D01*
X154892685Y-77619500D01*
X154892685Y-77619501D01*
X154802038Y-77710148D01*
X154767390Y-77724500D01*
X153622153Y-77724500D01*
X153587505Y-77710148D01*
X153578134Y-77697024D01*
X153564198Y-77668517D01*
X153481483Y-77585802D01*
X153415627Y-77553607D01*
X153376396Y-77534428D01*
X153376394Y-77534427D01*
X153308262Y-77524500D01*
X153308260Y-77524500D01*
X151591740Y-77524500D01*
X151591738Y-77524500D01*
X151523605Y-77534427D01*
X151523603Y-77534428D01*
X151418519Y-77585801D01*
X151418515Y-77585803D01*
X151335803Y-77668515D01*
X151335800Y-77668519D01*
X151302501Y-77736633D01*
X151274390Y-77761457D01*
X151236959Y-77759133D01*
X151216046Y-77739613D01*
X151200500Y-77712686D01*
X151107314Y-77619500D01*
X150993188Y-77553608D01*
X150993184Y-77553607D01*
X150865895Y-77519500D01*
X150865892Y-77519500D01*
X150734108Y-77519500D01*
X150734105Y-77519500D01*
X150606815Y-77553607D01*
X150606811Y-77553608D01*
X150492685Y-77619500D01*
X150492685Y-77619501D01*
X150399501Y-77712685D01*
X150399500Y-77712685D01*
X150333608Y-77826811D01*
X150333607Y-77826815D01*
X150299500Y-77954104D01*
X150299500Y-78075232D01*
X150285148Y-78109880D01*
X149815489Y-78579540D01*
X149759541Y-78635488D01*
X149759540Y-78635488D01*
X149719979Y-78704008D01*
X149719979Y-78704010D01*
X149699500Y-78780436D01*
X149699500Y-79535785D01*
X149685148Y-79570433D01*
X149464944Y-79790636D01*
X149430296Y-79804988D01*
X149395648Y-79790636D01*
X149382966Y-79768670D01*
X149380796Y-79760573D01*
X149366392Y-79706814D01*
X149366391Y-79706811D01*
X149310411Y-79609852D01*
X149300500Y-79592686D01*
X149214852Y-79507038D01*
X149200500Y-79472390D01*
X149200500Y-78410437D01*
X149186041Y-78356480D01*
X149180021Y-78334012D01*
X149180020Y-78334010D01*
X149180020Y-78334009D01*
X149154939Y-78290569D01*
X149140460Y-78265490D01*
X149084511Y-78209541D01*
X148679967Y-77804997D01*
X148666126Y-77777408D01*
X148665573Y-77773607D01*
X148614198Y-77668517D01*
X148531483Y-77585802D01*
X148465627Y-77553607D01*
X148426396Y-77534428D01*
X148426394Y-77534427D01*
X148358262Y-77524500D01*
X148358260Y-77524500D01*
X147273767Y-77524500D01*
X147239119Y-77510148D01*
X147224767Y-77475500D01*
X147239119Y-77440852D01*
X147410119Y-77269852D01*
X147444767Y-77255500D01*
X148358262Y-77255500D01*
X148375590Y-77252974D01*
X148426393Y-77245573D01*
X148531483Y-77194198D01*
X148614198Y-77111483D01*
X148665573Y-77006393D01*
X148675500Y-76938260D01*
X148675500Y-76571740D01*
X148665573Y-76503607D01*
X148642310Y-76456021D01*
X148639986Y-76418590D01*
X148664810Y-76390479D01*
X148686331Y-76385500D01*
X151263669Y-76385500D01*
X151298317Y-76399852D01*
X151312669Y-76434500D01*
X151307690Y-76456021D01*
X151284428Y-76503603D01*
X151284427Y-76503605D01*
X151274500Y-76571738D01*
X151274500Y-76938261D01*
X151284427Y-77006394D01*
X151284428Y-77006396D01*
X151310114Y-77058938D01*
X151335802Y-77111483D01*
X151418517Y-77194198D01*
X151523607Y-77245573D01*
X151571884Y-77252606D01*
X151591738Y-77255500D01*
X151591740Y-77255500D01*
X153308262Y-77255500D01*
X153325590Y-77252974D01*
X153376393Y-77245573D01*
X153481483Y-77194198D01*
X153564198Y-77111483D01*
X153615573Y-77006393D01*
X153625500Y-76938260D01*
X153625500Y-76571740D01*
X153615573Y-76503607D01*
X153564198Y-76398517D01*
X153481483Y-76315802D01*
X153428938Y-76290114D01*
X153376396Y-76264428D01*
X153376394Y-76264427D01*
X153308262Y-76254500D01*
X153308260Y-76254500D01*
X152394767Y-76254500D01*
X152360119Y-76240148D01*
X152189119Y-76069148D01*
X152174767Y-76034500D01*
X152189119Y-75999852D01*
X152223767Y-75985500D01*
X153308262Y-75985500D01*
X153325590Y-75982974D01*
X153376393Y-75975573D01*
X153481483Y-75924198D01*
X153564198Y-75841483D01*
X153615573Y-75736393D01*
X153625500Y-75668260D01*
X153625500Y-75301740D01*
X153615573Y-75233607D01*
X153564198Y-75128517D01*
X153481483Y-75045802D01*
X153412757Y-75012204D01*
X153376396Y-74994428D01*
X153376394Y-74994427D01*
X153308262Y-74984500D01*
X153308260Y-74984500D01*
X151591740Y-74984500D01*
X151591738Y-74984500D01*
X151523605Y-74994427D01*
X151478326Y-75016561D01*
X151440895Y-75018883D01*
X151422159Y-75007187D01*
X150314852Y-73899880D01*
X150300500Y-73865232D01*
X150300500Y-70145323D01*
X150314852Y-70110675D01*
X150330748Y-70100053D01*
X150339988Y-70096225D01*
X150497598Y-70030941D01*
X150669655Y-69915977D01*
X150815977Y-69769655D01*
X150930941Y-69597598D01*
X151010130Y-69406420D01*
X151050500Y-69203465D01*
X151050500Y-68996535D01*
X151010130Y-68793580D01*
X150930941Y-68602402D01*
X150815977Y-68430345D01*
X150669655Y-68284023D01*
X150663399Y-68279843D01*
X150514628Y-68180438D01*
X150497598Y-68169059D01*
X150457740Y-68152549D01*
X150306423Y-68089871D01*
X150306417Y-68089869D01*
X150224572Y-68073589D01*
X150103465Y-68049500D01*
X149896535Y-68049500D01*
X149795520Y-68069592D01*
X149693582Y-68089869D01*
X149693576Y-68089871D01*
X149502403Y-68169058D01*
X149330345Y-68284022D01*
X149184148Y-68430220D01*
X149149500Y-68444572D01*
X149114852Y-68430220D01*
X149100500Y-68395572D01*
X149100500Y-67264428D01*
X149114852Y-67229780D01*
X149149500Y-67215428D01*
X149184148Y-67229780D01*
X149330345Y-67375977D01*
X149502402Y-67490941D01*
X149693580Y-67570130D01*
X149896535Y-67610500D01*
X149896538Y-67610500D01*
X150103462Y-67610500D01*
X150103465Y-67610500D01*
X150306420Y-67570130D01*
X150473270Y-67501018D01*
X150510772Y-67501018D01*
X150526669Y-67511640D01*
X151335148Y-68320119D01*
X151349500Y-68354767D01*
X151349500Y-70148995D01*
X151335148Y-70183643D01*
X150534541Y-70984250D01*
X150534540Y-70984250D01*
X150494979Y-71052770D01*
X150494979Y-71052772D01*
X150474500Y-71129198D01*
X150474500Y-73554562D01*
X150494979Y-73630988D01*
X150494979Y-73630990D01*
X150520103Y-73674504D01*
X150531647Y-73694500D01*
X150531669Y-73694537D01*
X150534540Y-73699510D01*
X151270032Y-74435002D01*
X151283872Y-74462582D01*
X151284427Y-74466394D01*
X151335799Y-74571478D01*
X151335801Y-74571481D01*
X151335802Y-74571483D01*
X151418517Y-74654198D01*
X151523607Y-74705573D01*
X151571884Y-74712606D01*
X151591738Y-74715500D01*
X151591740Y-74715500D01*
X153308262Y-74715500D01*
X153325590Y-74712974D01*
X153376393Y-74705573D01*
X153481483Y-74654198D01*
X153564198Y-74571483D01*
X153615573Y-74466393D01*
X153625310Y-74399562D01*
X153625500Y-74398261D01*
X153625500Y-74031738D01*
X153617169Y-73974562D01*
X153615573Y-73963607D01*
X153564198Y-73858517D01*
X153481483Y-73775802D01*
X153408723Y-73740232D01*
X153376396Y-73724428D01*
X153376394Y-73724427D01*
X153308262Y-73714500D01*
X153308260Y-73714500D01*
X151591740Y-73714500D01*
X151591738Y-73714500D01*
X151523605Y-73724427D01*
X151478326Y-73746561D01*
X151440895Y-73748883D01*
X151422159Y-73737187D01*
X151089852Y-73404880D01*
X151075500Y-73370232D01*
X151075500Y-72838767D01*
X151089852Y-72804119D01*
X151124500Y-72789767D01*
X151159148Y-72804119D01*
X151260148Y-72905119D01*
X151274500Y-72939767D01*
X151274500Y-73128261D01*
X151280785Y-73171394D01*
X151284427Y-73196393D01*
X151335802Y-73301483D01*
X151418517Y-73384198D01*
X151523607Y-73435573D01*
X151571884Y-73442606D01*
X151591738Y-73445500D01*
X151591740Y-73445500D01*
X153308262Y-73445500D01*
X153325590Y-73442974D01*
X153376393Y-73435573D01*
X153481483Y-73384198D01*
X153564198Y-73301483D01*
X153615573Y-73196393D01*
X153625500Y-73128260D01*
X153625500Y-72761740D01*
X153615573Y-72693607D01*
X153564198Y-72588517D01*
X153481483Y-72505802D01*
X153428938Y-72480114D01*
X153376396Y-72454428D01*
X153376394Y-72454427D01*
X153308262Y-72444500D01*
X153308260Y-72444500D01*
X151669767Y-72444500D01*
X151635119Y-72430148D01*
X151489852Y-72284881D01*
X151475500Y-72250233D01*
X151475500Y-72215220D01*
X151489852Y-72180572D01*
X151524500Y-72166220D01*
X151531558Y-72166731D01*
X151569100Y-72172201D01*
X151591738Y-72175500D01*
X151591740Y-72175500D01*
X153308262Y-72175500D01*
X153325590Y-72172974D01*
X153376393Y-72165573D01*
X153481483Y-72114198D01*
X153564198Y-72031483D01*
X153615573Y-71926393D01*
X153625500Y-71858260D01*
X153625500Y-71491740D01*
X153615573Y-71423607D01*
X153564198Y-71318517D01*
X153481483Y-71235802D01*
X153428938Y-71210114D01*
X153376396Y-71184428D01*
X153376394Y-71184427D01*
X153308262Y-71174500D01*
X153308260Y-71174500D01*
X152799500Y-71174500D01*
X152764852Y-71160148D01*
X152750500Y-71125500D01*
X152750500Y-68996535D01*
X154149500Y-68996535D01*
X154149500Y-69203465D01*
X154176290Y-69338150D01*
X154189869Y-69406417D01*
X154189871Y-69406423D01*
X154269056Y-69597591D01*
X154269059Y-69597598D01*
X154384023Y-69769655D01*
X154530345Y-69915977D01*
X154702402Y-70030941D01*
X154893580Y-70110130D01*
X155096535Y-70150500D01*
X155096538Y-70150500D01*
X155303462Y-70150500D01*
X155303465Y-70150500D01*
X155506420Y-70110130D01*
X155697598Y-70030941D01*
X155869655Y-69915977D01*
X156015977Y-69769655D01*
X156130941Y-69597598D01*
X156210130Y-69406420D01*
X156250500Y-69203465D01*
X156250500Y-68996535D01*
X156210130Y-68793580D01*
X156130941Y-68602402D01*
X156015977Y-68430345D01*
X155869655Y-68284023D01*
X155863399Y-68279843D01*
X155714628Y-68180438D01*
X155697598Y-68169059D01*
X155657740Y-68152549D01*
X155506423Y-68089871D01*
X155506417Y-68089869D01*
X155424572Y-68073589D01*
X155303465Y-68049500D01*
X155096535Y-68049500D01*
X154995520Y-68069592D01*
X154893582Y-68089869D01*
X154893576Y-68089871D01*
X154702403Y-68169058D01*
X154530345Y-68284022D01*
X154384022Y-68430345D01*
X154269058Y-68602403D01*
X154189871Y-68793576D01*
X154189869Y-68793582D01*
X154169592Y-68895520D01*
X154149500Y-68996535D01*
X152750500Y-68996535D01*
X152750500Y-66456535D01*
X154149500Y-66456535D01*
X154149500Y-66663465D01*
X154176290Y-66798150D01*
X154189869Y-66866417D01*
X154189871Y-66866423D01*
X154266749Y-67052021D01*
X154269059Y-67057598D01*
X154384023Y-67229655D01*
X154530345Y-67375977D01*
X154702402Y-67490941D01*
X154893580Y-67570130D01*
X155096535Y-67610500D01*
X155096538Y-67610500D01*
X155303462Y-67610500D01*
X155303465Y-67610500D01*
X155506420Y-67570130D01*
X155697598Y-67490941D01*
X155869655Y-67375977D01*
X156015977Y-67229655D01*
X156130941Y-67057598D01*
X156210130Y-66866420D01*
X156250500Y-66663465D01*
X156250500Y-66456535D01*
X156210130Y-66253580D01*
X156130941Y-66062402D01*
X156015977Y-65890345D01*
X155869655Y-65744023D01*
X155843030Y-65726233D01*
X155745223Y-65660881D01*
X155697598Y-65629059D01*
X155697596Y-65629058D01*
X155506423Y-65549871D01*
X155506417Y-65549869D01*
X155424572Y-65533589D01*
X155303465Y-65509500D01*
X155096535Y-65509500D01*
X154995520Y-65529592D01*
X154893582Y-65549869D01*
X154893576Y-65549871D01*
X154702403Y-65629058D01*
X154530345Y-65744022D01*
X154384022Y-65890345D01*
X154269058Y-66062403D01*
X154189871Y-66253576D01*
X154189869Y-66253582D01*
X154184591Y-66280119D01*
X154149500Y-66456535D01*
X152750500Y-66456535D01*
X152750500Y-63916535D01*
X154149500Y-63916535D01*
X154149500Y-64123465D01*
X154171656Y-64234852D01*
X154189869Y-64326417D01*
X154189871Y-64326423D01*
X154263636Y-64504507D01*
X154269059Y-64517598D01*
X154384023Y-64689655D01*
X154530345Y-64835977D01*
X154702402Y-64950941D01*
X154893580Y-65030130D01*
X155096535Y-65070500D01*
X155096538Y-65070500D01*
X155303462Y-65070500D01*
X155303465Y-65070500D01*
X155506420Y-65030130D01*
X155697598Y-64950941D01*
X155869655Y-64835977D01*
X156015977Y-64689655D01*
X156130941Y-64517598D01*
X156210130Y-64326420D01*
X156250500Y-64123465D01*
X156250500Y-63916535D01*
X156210130Y-63713580D01*
X156130941Y-63522402D01*
X156015977Y-63350345D01*
X155869655Y-63204023D01*
X155866033Y-63201603D01*
X155784207Y-63146929D01*
X155697598Y-63089059D01*
X155697596Y-63089058D01*
X155506423Y-63009871D01*
X155506417Y-63009869D01*
X155424572Y-62993589D01*
X155303465Y-62969500D01*
X155096535Y-62969500D01*
X154995520Y-62989592D01*
X154893582Y-63009869D01*
X154893576Y-63009871D01*
X154702403Y-63089058D01*
X154530345Y-63204022D01*
X154384022Y-63350345D01*
X154269058Y-63522403D01*
X154189871Y-63713576D01*
X154189869Y-63713582D01*
X154173577Y-63795489D01*
X154149500Y-63916535D01*
X152750500Y-63916535D01*
X152750500Y-63890436D01*
X152740151Y-63851815D01*
X152730021Y-63814011D01*
X152730020Y-63814009D01*
X152730020Y-63814008D01*
X152690459Y-63745488D01*
X150951640Y-62006669D01*
X150937288Y-61972021D01*
X150941018Y-61953269D01*
X150977962Y-61864079D01*
X151010130Y-61786420D01*
X151050500Y-61583465D01*
X151050500Y-61376535D01*
X154149500Y-61376535D01*
X154149500Y-61583465D01*
X154166882Y-61670850D01*
X154189869Y-61786417D01*
X154189871Y-61786423D01*
X154260636Y-61957264D01*
X154269059Y-61977598D01*
X154299500Y-62023156D01*
X154370582Y-62129540D01*
X154384023Y-62149655D01*
X154530345Y-62295977D01*
X154702402Y-62410941D01*
X154893580Y-62490130D01*
X155096535Y-62530500D01*
X155096538Y-62530500D01*
X155303462Y-62530500D01*
X155303465Y-62530500D01*
X155506420Y-62490130D01*
X155697598Y-62410941D01*
X155869655Y-62295977D01*
X156015977Y-62149655D01*
X156130941Y-61977598D01*
X156210130Y-61786420D01*
X156250500Y-61583465D01*
X156250500Y-61376535D01*
X156210130Y-61173580D01*
X156130941Y-60982402D01*
X156015977Y-60810345D01*
X155869655Y-60664023D01*
X155697598Y-60549059D01*
X155697596Y-60549058D01*
X155506423Y-60469871D01*
X155506417Y-60469869D01*
X155424572Y-60453589D01*
X155303465Y-60429500D01*
X155096535Y-60429500D01*
X154995520Y-60449592D01*
X154893582Y-60469869D01*
X154893576Y-60469871D01*
X154702403Y-60549058D01*
X154530345Y-60664022D01*
X154384022Y-60810345D01*
X154269058Y-60982403D01*
X154189871Y-61173576D01*
X154189869Y-61173582D01*
X154174778Y-61249451D01*
X154149500Y-61376535D01*
X151050500Y-61376535D01*
X151010130Y-61173580D01*
X150930941Y-60982402D01*
X150815977Y-60810345D01*
X150669655Y-60664023D01*
X150497598Y-60549059D01*
X150497596Y-60549058D01*
X150306423Y-60469871D01*
X150306417Y-60469869D01*
X150224572Y-60453589D01*
X150103465Y-60429500D01*
X149896535Y-60429500D01*
X149795520Y-60449592D01*
X149693582Y-60469869D01*
X149693576Y-60469871D01*
X149502403Y-60549058D01*
X149330345Y-60664022D01*
X149184148Y-60810220D01*
X149149500Y-60824572D01*
X149114852Y-60810220D01*
X149100500Y-60775572D01*
X149100500Y-60284766D01*
X149114851Y-60250119D01*
X149473330Y-59891639D01*
X149507977Y-59877288D01*
X149526728Y-59881018D01*
X149693572Y-59950127D01*
X149693574Y-59950127D01*
X149693580Y-59950130D01*
X149896535Y-59990500D01*
X149896538Y-59990500D01*
X150103462Y-59990500D01*
X150103465Y-59990500D01*
X150306420Y-59950130D01*
X150497598Y-59870941D01*
X150669655Y-59755977D01*
X150815977Y-59609655D01*
X150930941Y-59437598D01*
X151010130Y-59246420D01*
X151050500Y-59043465D01*
X151050500Y-58836535D01*
X154149500Y-58836535D01*
X154149500Y-59043465D01*
X154189870Y-59246420D01*
X154269059Y-59437598D01*
X154384023Y-59609655D01*
X154530345Y-59755977D01*
X154702402Y-59870941D01*
X154893580Y-59950130D01*
X155096535Y-59990500D01*
X155096538Y-59990500D01*
X155303462Y-59990500D01*
X155303465Y-59990500D01*
X155506420Y-59950130D01*
X155697598Y-59870941D01*
X155869655Y-59755977D01*
X156015977Y-59609655D01*
X156130941Y-59437598D01*
X156210130Y-59246420D01*
X156250500Y-59043465D01*
X156250500Y-58836535D01*
X156210130Y-58633580D01*
X156130941Y-58442402D01*
X156015977Y-58270345D01*
X155869655Y-58124023D01*
X155834083Y-58100255D01*
X155746552Y-58041769D01*
X155697598Y-58009059D01*
X155697596Y-58009058D01*
X155506423Y-57929871D01*
X155506417Y-57929869D01*
X155424572Y-57913589D01*
X155303465Y-57889500D01*
X155096535Y-57889500D01*
X154995520Y-57909592D01*
X154893582Y-57929869D01*
X154893576Y-57929871D01*
X154702403Y-58009058D01*
X154530345Y-58124022D01*
X154384022Y-58270345D01*
X154269058Y-58442403D01*
X154189871Y-58633576D01*
X154189869Y-58633582D01*
X154174494Y-58710881D01*
X154149500Y-58836535D01*
X151050500Y-58836535D01*
X151010130Y-58633580D01*
X150930941Y-58442402D01*
X150815977Y-58270345D01*
X150669655Y-58124023D01*
X150634083Y-58100255D01*
X150546552Y-58041769D01*
X150497598Y-58009059D01*
X150497596Y-58009058D01*
X150306423Y-57929871D01*
X150306417Y-57929869D01*
X150224572Y-57913589D01*
X150103465Y-57889500D01*
X149896535Y-57889500D01*
X149795520Y-57909592D01*
X149693582Y-57929869D01*
X149693576Y-57929871D01*
X149502403Y-58009058D01*
X149330345Y-58124022D01*
X149184022Y-58270345D01*
X149069058Y-58442403D01*
X148989871Y-58633576D01*
X148989869Y-58633582D01*
X148974494Y-58710881D01*
X148949500Y-58836535D01*
X148949500Y-59043465D01*
X148976290Y-59178150D01*
X148989869Y-59246417D01*
X148989871Y-59246423D01*
X149058981Y-59413268D01*
X149058981Y-59450771D01*
X149048359Y-59466668D01*
X148784148Y-59730880D01*
X148749500Y-59745232D01*
X148714852Y-59730880D01*
X148700500Y-59696232D01*
X148700500Y-58144766D01*
X148714851Y-58110119D01*
X149473330Y-57351639D01*
X149507977Y-57337288D01*
X149526728Y-57341018D01*
X149693572Y-57410127D01*
X149693574Y-57410127D01*
X149693580Y-57410130D01*
X149896535Y-57450500D01*
X149896538Y-57450500D01*
X150103462Y-57450500D01*
X150103465Y-57450500D01*
X150306420Y-57410130D01*
X150497598Y-57330941D01*
X150669655Y-57215977D01*
X150815977Y-57069655D01*
X150930941Y-56897598D01*
X151010130Y-56706420D01*
X151050500Y-56503465D01*
X151050500Y-56296535D01*
X154149500Y-56296535D01*
X154149500Y-56503465D01*
X154176290Y-56638150D01*
X154189869Y-56706417D01*
X154189871Y-56706423D01*
X154237243Y-56820789D01*
X154269059Y-56897598D01*
X154384023Y-57069655D01*
X154530345Y-57215977D01*
X154702402Y-57330941D01*
X154893580Y-57410130D01*
X155096535Y-57450500D01*
X155096538Y-57450500D01*
X155303462Y-57450500D01*
X155303465Y-57450500D01*
X155506420Y-57410130D01*
X155697598Y-57330941D01*
X155869655Y-57215977D01*
X156015977Y-57069655D01*
X156130941Y-56897598D01*
X156210130Y-56706420D01*
X156250500Y-56503465D01*
X156250500Y-56296535D01*
X156210130Y-56093580D01*
X156130941Y-55902402D01*
X156015977Y-55730345D01*
X155869655Y-55584023D01*
X155795581Y-55534529D01*
X155713972Y-55480000D01*
X155697598Y-55469059D01*
X155688359Y-55465232D01*
X155506423Y-55389871D01*
X155506417Y-55389869D01*
X155424572Y-55373589D01*
X155303465Y-55349500D01*
X155096535Y-55349500D01*
X154995520Y-55369592D01*
X154893582Y-55389869D01*
X154893576Y-55389871D01*
X154702403Y-55469058D01*
X154530345Y-55584022D01*
X154384022Y-55730345D01*
X154269058Y-55902403D01*
X154189871Y-56093576D01*
X154189869Y-56093582D01*
X154189281Y-56096539D01*
X154149500Y-56296535D01*
X151050500Y-56296535D01*
X151010130Y-56093580D01*
X150930941Y-55902402D01*
X150815977Y-55730345D01*
X150669655Y-55584023D01*
X150595581Y-55534529D01*
X150513972Y-55480000D01*
X150497598Y-55469059D01*
X150488359Y-55465232D01*
X150306423Y-55389871D01*
X150306417Y-55389869D01*
X150224572Y-55373589D01*
X150103465Y-55349500D01*
X149896535Y-55349500D01*
X149795520Y-55369592D01*
X149693582Y-55389869D01*
X149693576Y-55389871D01*
X149502403Y-55469058D01*
X149330345Y-55584022D01*
X149184022Y-55730345D01*
X149069058Y-55902403D01*
X148989871Y-56093576D01*
X148989869Y-56093582D01*
X148989281Y-56096539D01*
X148949500Y-56296535D01*
X148949500Y-56503465D01*
X148976290Y-56638150D01*
X148989869Y-56706417D01*
X148989871Y-56706423D01*
X149058981Y-56873268D01*
X149058981Y-56910771D01*
X149048359Y-56926668D01*
X148384148Y-57590880D01*
X148349500Y-57605232D01*
X148314852Y-57590880D01*
X148300500Y-57556232D01*
X148300500Y-56004766D01*
X148314851Y-55970119D01*
X149473330Y-54811639D01*
X149507977Y-54797288D01*
X149526728Y-54801018D01*
X149693572Y-54870127D01*
X149693574Y-54870127D01*
X149693580Y-54870130D01*
X149896535Y-54910500D01*
X149896538Y-54910500D01*
X150103462Y-54910500D01*
X150103465Y-54910500D01*
X150306420Y-54870130D01*
X150497598Y-54790941D01*
X150669655Y-54675977D01*
X150815977Y-54529655D01*
X150930941Y-54357598D01*
X151010130Y-54166420D01*
X151050500Y-53963465D01*
X151050500Y-53756535D01*
X154149500Y-53756535D01*
X154149500Y-53963465D01*
X154176290Y-54098150D01*
X154189869Y-54166417D01*
X154189871Y-54166423D01*
X154269058Y-54357596D01*
X154362079Y-54496814D01*
X154384023Y-54529655D01*
X154530345Y-54675977D01*
X154702402Y-54790941D01*
X154893580Y-54870130D01*
X155096535Y-54910500D01*
X155096538Y-54910500D01*
X155303462Y-54910500D01*
X155303465Y-54910500D01*
X155506420Y-54870130D01*
X155697598Y-54790941D01*
X155869655Y-54675977D01*
X156015977Y-54529655D01*
X156130941Y-54357598D01*
X156210130Y-54166420D01*
X156250500Y-53963465D01*
X156250500Y-53756535D01*
X156210130Y-53553580D01*
X156130941Y-53362402D01*
X156015977Y-53190345D01*
X155869655Y-53044023D01*
X155861043Y-53038269D01*
X155750611Y-52964481D01*
X155697598Y-52929059D01*
X155565242Y-52874235D01*
X155506423Y-52849871D01*
X155506417Y-52849869D01*
X155424572Y-52833589D01*
X155303465Y-52809500D01*
X155096535Y-52809500D01*
X154995520Y-52829592D01*
X154893582Y-52849869D01*
X154893576Y-52849871D01*
X154702403Y-52929058D01*
X154530345Y-53044022D01*
X154384022Y-53190345D01*
X154269058Y-53362403D01*
X154189871Y-53553576D01*
X154189869Y-53553582D01*
X154176658Y-53620000D01*
X154149500Y-53756535D01*
X151050500Y-53756535D01*
X151010130Y-53553580D01*
X150930941Y-53362402D01*
X150815977Y-53190345D01*
X150669655Y-53044023D01*
X150661043Y-53038269D01*
X150550611Y-52964481D01*
X150497598Y-52929059D01*
X150365242Y-52874235D01*
X150306423Y-52849871D01*
X150306417Y-52849869D01*
X150224572Y-52833589D01*
X150103465Y-52809500D01*
X149896535Y-52809500D01*
X149795520Y-52829592D01*
X149693582Y-52849869D01*
X149693576Y-52849871D01*
X149502403Y-52929058D01*
X149330345Y-53044022D01*
X149184022Y-53190345D01*
X149069058Y-53362403D01*
X148989871Y-53553576D01*
X148989869Y-53553582D01*
X148976658Y-53620000D01*
X148949500Y-53756535D01*
X148949500Y-53963465D01*
X148976290Y-54098150D01*
X148989869Y-54166417D01*
X148989871Y-54166423D01*
X149058981Y-54333268D01*
X149058981Y-54370771D01*
X149048359Y-54386668D01*
X147984148Y-55450880D01*
X147949500Y-55465232D01*
X147914852Y-55450880D01*
X147900500Y-55416232D01*
X147900500Y-53864767D01*
X147914852Y-53830119D01*
X149360119Y-52384852D01*
X149394767Y-52370500D01*
X150869745Y-52370500D01*
X150869748Y-52370500D01*
X150928231Y-52358867D01*
X150994552Y-52314552D01*
X151038867Y-52248231D01*
X151050500Y-52189748D01*
X151050500Y-50450252D01*
X154149500Y-50450252D01*
X154149500Y-52189748D01*
X154161133Y-52248231D01*
X154178882Y-52274795D01*
X154205447Y-52314552D01*
X154232012Y-52332301D01*
X154271769Y-52358867D01*
X154330252Y-52370500D01*
X154330255Y-52370500D01*
X156069745Y-52370500D01*
X156069748Y-52370500D01*
X156128231Y-52358867D01*
X156194552Y-52314552D01*
X156238867Y-52248231D01*
X156250500Y-52189748D01*
X156250500Y-50450252D01*
X156238867Y-50391769D01*
X156212301Y-50352012D01*
X156194552Y-50325447D01*
X156154795Y-50298882D01*
X156128231Y-50281133D01*
X156069748Y-50269500D01*
X154330252Y-50269500D01*
X154271769Y-50281133D01*
X154205447Y-50325447D01*
X154161133Y-50391769D01*
X154149500Y-50450252D01*
X151050500Y-50450252D01*
X151038867Y-50391769D01*
X151012301Y-50352012D01*
X150994552Y-50325447D01*
X150954795Y-50298882D01*
X150928231Y-50281133D01*
X150869748Y-50269500D01*
X149130252Y-50269500D01*
X149071769Y-50281133D01*
X149005447Y-50325447D01*
X148961133Y-50391769D01*
X148949500Y-50450252D01*
X148949500Y-50450255D01*
X148949500Y-51925233D01*
X148935148Y-51959881D01*
X147359541Y-53535488D01*
X147359540Y-53535488D01*
X147319979Y-53604008D01*
X147319979Y-53604010D01*
X147299500Y-53680436D01*
X147299500Y-68643861D01*
X147285148Y-68678509D01*
X145184541Y-70779116D01*
X145184540Y-70779116D01*
X145144979Y-70847636D01*
X145144979Y-70847638D01*
X145124500Y-70924064D01*
X145124500Y-74439839D01*
X145144978Y-74516263D01*
X145144979Y-74516267D01*
X145166539Y-74553608D01*
X145166540Y-74553609D01*
X145184537Y-74584783D01*
X145184542Y-74584789D01*
X146300605Y-75700852D01*
X146314957Y-75735500D01*
X146300605Y-75770148D01*
X146265957Y-75784500D01*
X143308329Y-75784500D01*
X143273681Y-75770148D01*
X143259329Y-75735500D01*
X143264308Y-75713979D01*
X143265573Y-75711393D01*
X143275500Y-75643260D01*
X143275500Y-75276740D01*
X143265573Y-75208607D01*
X143214198Y-75103517D01*
X143131483Y-75020802D01*
X143057226Y-74984500D01*
X143026396Y-74969428D01*
X143026394Y-74969427D01*
X142958262Y-74959500D01*
X142958260Y-74959500D01*
X141241740Y-74959500D01*
X141241738Y-74959500D01*
X141173605Y-74969427D01*
X141128326Y-74991561D01*
X141090895Y-74993883D01*
X141072159Y-74982187D01*
X139914852Y-73824880D01*
X139900500Y-73790232D01*
X139900500Y-70145323D01*
X139914852Y-70110675D01*
X139930748Y-70100053D01*
X139939988Y-70096225D01*
X140097598Y-70030941D01*
X140269655Y-69915977D01*
X140415977Y-69769655D01*
X140530941Y-69597598D01*
X140610130Y-69406420D01*
X140650500Y-69203465D01*
X140650500Y-68996535D01*
X140610130Y-68793580D01*
X140530941Y-68602402D01*
X140415977Y-68430345D01*
X140269655Y-68284023D01*
X140263399Y-68279843D01*
X140114628Y-68180438D01*
X140097598Y-68169059D01*
X140057740Y-68152549D01*
X139906423Y-68089871D01*
X139906417Y-68089869D01*
X139824572Y-68073589D01*
X139703465Y-68049500D01*
X139496535Y-68049500D01*
X139395520Y-68069592D01*
X139293582Y-68089869D01*
X139293576Y-68089871D01*
X139102403Y-68169058D01*
X138930345Y-68284022D01*
X138784148Y-68430220D01*
X138749500Y-68444572D01*
X138714852Y-68430220D01*
X138700500Y-68395572D01*
X138700500Y-67264428D01*
X138714852Y-67229780D01*
X138749500Y-67215428D01*
X138784148Y-67229780D01*
X138930345Y-67375977D01*
X139102402Y-67490941D01*
X139293580Y-67570130D01*
X139496535Y-67610500D01*
X139496538Y-67610500D01*
X139703462Y-67610500D01*
X139703465Y-67610500D01*
X139906420Y-67570130D01*
X140073270Y-67501018D01*
X140110772Y-67501018D01*
X140126669Y-67511640D01*
X140985148Y-68370119D01*
X140999500Y-68404767D01*
X140999500Y-70123995D01*
X140985148Y-70158643D01*
X140184541Y-70959250D01*
X140184540Y-70959250D01*
X140144979Y-71027770D01*
X140144979Y-71027772D01*
X140124500Y-71104198D01*
X140124500Y-73529562D01*
X140144979Y-73605988D01*
X140144979Y-73605990D01*
X140173263Y-73654978D01*
X140184536Y-73674504D01*
X140184538Y-73674506D01*
X140184540Y-73674510D01*
X140184543Y-73674513D01*
X140920032Y-74410002D01*
X140933872Y-74437582D01*
X140934427Y-74441394D01*
X140985799Y-74546478D01*
X140985801Y-74546481D01*
X140985802Y-74546483D01*
X141068517Y-74629198D01*
X141173607Y-74680573D01*
X141221884Y-74687606D01*
X141241738Y-74690500D01*
X141241740Y-74690500D01*
X142958262Y-74690500D01*
X142975590Y-74687974D01*
X143026393Y-74680573D01*
X143131483Y-74629198D01*
X143214198Y-74546483D01*
X143265573Y-74441393D01*
X143275500Y-74373260D01*
X143275500Y-74006740D01*
X143265573Y-73938607D01*
X143214198Y-73833517D01*
X143131483Y-73750802D01*
X143071669Y-73721561D01*
X143026396Y-73699428D01*
X143026394Y-73699427D01*
X142958262Y-73689500D01*
X142958260Y-73689500D01*
X141241740Y-73689500D01*
X141241738Y-73689500D01*
X141173605Y-73699427D01*
X141128326Y-73721561D01*
X141090895Y-73723883D01*
X141072159Y-73712187D01*
X140739852Y-73379880D01*
X140725500Y-73345232D01*
X140725500Y-72788767D01*
X140739852Y-72754119D01*
X140774500Y-72739767D01*
X140809148Y-72754119D01*
X140910148Y-72855119D01*
X140924500Y-72889767D01*
X140924500Y-73103261D01*
X140934427Y-73171394D01*
X140934428Y-73171396D01*
X140946649Y-73196394D01*
X140985802Y-73276483D01*
X141068517Y-73359198D01*
X141173607Y-73410573D01*
X141221884Y-73417606D01*
X141241738Y-73420500D01*
X141241740Y-73420500D01*
X142958262Y-73420500D01*
X142975590Y-73417974D01*
X143026393Y-73410573D01*
X143131483Y-73359198D01*
X143214198Y-73276483D01*
X143265573Y-73171393D01*
X143275500Y-73103260D01*
X143275500Y-72736740D01*
X143265573Y-72668607D01*
X143214198Y-72563517D01*
X143131483Y-72480802D01*
X143057226Y-72444500D01*
X143026396Y-72429428D01*
X143026394Y-72429427D01*
X142958262Y-72419500D01*
X142958260Y-72419500D01*
X141344767Y-72419500D01*
X141310119Y-72405148D01*
X141139852Y-72234881D01*
X141125500Y-72200233D01*
X141125500Y-72190220D01*
X141139852Y-72155572D01*
X141174500Y-72141220D01*
X141181558Y-72141731D01*
X141219100Y-72147201D01*
X141241738Y-72150500D01*
X141241740Y-72150500D01*
X142958262Y-72150500D01*
X142975590Y-72147974D01*
X143026393Y-72140573D01*
X143131483Y-72089198D01*
X143214198Y-72006483D01*
X143265573Y-71901393D01*
X143275500Y-71833260D01*
X143275500Y-71466740D01*
X143265573Y-71398607D01*
X143214198Y-71293517D01*
X143131483Y-71210802D01*
X143057226Y-71174500D01*
X143026396Y-71159428D01*
X143026394Y-71159427D01*
X142958262Y-71149500D01*
X142958260Y-71149500D01*
X142449500Y-71149500D01*
X142414852Y-71135148D01*
X142400500Y-71100500D01*
X142400500Y-68996535D01*
X143749500Y-68996535D01*
X143749500Y-69203465D01*
X143776290Y-69338150D01*
X143789869Y-69406417D01*
X143789871Y-69406423D01*
X143869056Y-69597591D01*
X143869059Y-69597598D01*
X143984023Y-69769655D01*
X144130345Y-69915977D01*
X144302402Y-70030941D01*
X144493580Y-70110130D01*
X144696535Y-70150500D01*
X144696538Y-70150500D01*
X144903462Y-70150500D01*
X144903465Y-70150500D01*
X145106420Y-70110130D01*
X145297598Y-70030941D01*
X145469655Y-69915977D01*
X145615977Y-69769655D01*
X145730941Y-69597598D01*
X145810130Y-69406420D01*
X145850500Y-69203465D01*
X145850500Y-68996535D01*
X145810130Y-68793580D01*
X145730941Y-68602402D01*
X145615977Y-68430345D01*
X145469655Y-68284023D01*
X145463399Y-68279843D01*
X145314628Y-68180438D01*
X145297598Y-68169059D01*
X145257740Y-68152549D01*
X145106423Y-68089871D01*
X145106417Y-68089869D01*
X145024572Y-68073589D01*
X144903465Y-68049500D01*
X144696535Y-68049500D01*
X144595520Y-68069592D01*
X144493582Y-68089869D01*
X144493576Y-68089871D01*
X144302403Y-68169058D01*
X144130345Y-68284022D01*
X143984022Y-68430345D01*
X143869058Y-68602403D01*
X143789871Y-68793576D01*
X143789869Y-68793582D01*
X143769592Y-68895520D01*
X143749500Y-68996535D01*
X142400500Y-68996535D01*
X142400500Y-66456535D01*
X143749500Y-66456535D01*
X143749500Y-66663465D01*
X143776290Y-66798150D01*
X143789869Y-66866417D01*
X143789871Y-66866423D01*
X143866749Y-67052021D01*
X143869059Y-67057598D01*
X143984023Y-67229655D01*
X144130345Y-67375977D01*
X144302402Y-67490941D01*
X144493580Y-67570130D01*
X144696535Y-67610500D01*
X144696538Y-67610500D01*
X144903462Y-67610500D01*
X144903465Y-67610500D01*
X145106420Y-67570130D01*
X145297598Y-67490941D01*
X145469655Y-67375977D01*
X145615977Y-67229655D01*
X145730941Y-67057598D01*
X145810130Y-66866420D01*
X145850500Y-66663465D01*
X145850500Y-66456535D01*
X145810130Y-66253580D01*
X145730941Y-66062402D01*
X145615977Y-65890345D01*
X145469655Y-65744023D01*
X145443030Y-65726233D01*
X145345223Y-65660881D01*
X145297598Y-65629059D01*
X145297596Y-65629058D01*
X145106423Y-65549871D01*
X145106417Y-65549869D01*
X145024572Y-65533589D01*
X144903465Y-65509500D01*
X144696535Y-65509500D01*
X144595520Y-65529592D01*
X144493582Y-65549869D01*
X144493576Y-65549871D01*
X144302403Y-65629058D01*
X144130345Y-65744022D01*
X143984022Y-65890345D01*
X143869058Y-66062403D01*
X143789871Y-66253576D01*
X143789869Y-66253582D01*
X143784591Y-66280119D01*
X143749500Y-66456535D01*
X142400500Y-66456535D01*
X142400500Y-63940436D01*
X142396849Y-63926811D01*
X142394095Y-63916535D01*
X143749500Y-63916535D01*
X143749500Y-64123465D01*
X143771656Y-64234852D01*
X143789869Y-64326417D01*
X143789871Y-64326423D01*
X143863636Y-64504507D01*
X143869059Y-64517598D01*
X143984023Y-64689655D01*
X144130345Y-64835977D01*
X144302402Y-64950941D01*
X144493580Y-65030130D01*
X144696535Y-65070500D01*
X144696538Y-65070500D01*
X144903462Y-65070500D01*
X144903465Y-65070500D01*
X145106420Y-65030130D01*
X145297598Y-64950941D01*
X145469655Y-64835977D01*
X145615977Y-64689655D01*
X145730941Y-64517598D01*
X145810130Y-64326420D01*
X145850500Y-64123465D01*
X145850500Y-63916535D01*
X145810130Y-63713580D01*
X145730941Y-63522402D01*
X145615977Y-63350345D01*
X145469655Y-63204023D01*
X145466033Y-63201603D01*
X145384207Y-63146929D01*
X145297598Y-63089059D01*
X145297596Y-63089058D01*
X145106423Y-63009871D01*
X145106417Y-63009869D01*
X145024572Y-62993589D01*
X144903465Y-62969500D01*
X144696535Y-62969500D01*
X144595520Y-62989592D01*
X144493582Y-63009869D01*
X144493576Y-63009871D01*
X144302403Y-63089058D01*
X144130345Y-63204022D01*
X143984022Y-63350345D01*
X143869058Y-63522403D01*
X143789871Y-63713576D01*
X143789869Y-63713582D01*
X143773577Y-63795489D01*
X143749500Y-63916535D01*
X142394095Y-63916535D01*
X142387102Y-63890438D01*
X142380021Y-63864011D01*
X142380020Y-63864009D01*
X142380020Y-63864008D01*
X142348192Y-63808881D01*
X142340460Y-63795489D01*
X142284511Y-63739540D01*
X140551640Y-62006669D01*
X140537288Y-61972021D01*
X140541018Y-61953269D01*
X140577962Y-61864079D01*
X140610130Y-61786420D01*
X140650500Y-61583465D01*
X140650500Y-61376535D01*
X143749500Y-61376535D01*
X143749500Y-61583465D01*
X143766882Y-61670850D01*
X143789869Y-61786417D01*
X143789871Y-61786423D01*
X143860636Y-61957264D01*
X143869059Y-61977598D01*
X143899500Y-62023156D01*
X143970582Y-62129540D01*
X143984023Y-62149655D01*
X144130345Y-62295977D01*
X144302402Y-62410941D01*
X144493580Y-62490130D01*
X144696535Y-62530500D01*
X144696538Y-62530500D01*
X144903462Y-62530500D01*
X144903465Y-62530500D01*
X145106420Y-62490130D01*
X145297598Y-62410941D01*
X145469655Y-62295977D01*
X145615977Y-62149655D01*
X145730941Y-61977598D01*
X145810130Y-61786420D01*
X145850500Y-61583465D01*
X145850500Y-61376535D01*
X145810130Y-61173580D01*
X145730941Y-60982402D01*
X145615977Y-60810345D01*
X145469655Y-60664023D01*
X145297598Y-60549059D01*
X145297596Y-60549058D01*
X145106423Y-60469871D01*
X145106417Y-60469869D01*
X145024572Y-60453589D01*
X144903465Y-60429500D01*
X144696535Y-60429500D01*
X144595520Y-60449592D01*
X144493582Y-60469869D01*
X144493576Y-60469871D01*
X144302403Y-60549058D01*
X144130345Y-60664022D01*
X143984022Y-60810345D01*
X143869058Y-60982403D01*
X143789871Y-61173576D01*
X143789869Y-61173582D01*
X143774778Y-61249451D01*
X143749500Y-61376535D01*
X140650500Y-61376535D01*
X140610130Y-61173580D01*
X140530941Y-60982402D01*
X140415977Y-60810345D01*
X140269655Y-60664023D01*
X140097598Y-60549059D01*
X140097596Y-60549058D01*
X139906423Y-60469871D01*
X139906417Y-60469869D01*
X139824572Y-60453589D01*
X139703465Y-60429500D01*
X139496535Y-60429500D01*
X139395520Y-60449592D01*
X139293582Y-60469869D01*
X139293576Y-60469871D01*
X139102403Y-60549058D01*
X138930345Y-60664022D01*
X138784148Y-60810220D01*
X138749500Y-60824572D01*
X138714852Y-60810220D01*
X138700500Y-60775572D01*
X138700500Y-60284766D01*
X138714851Y-60250119D01*
X139073330Y-59891639D01*
X139107977Y-59877288D01*
X139126728Y-59881018D01*
X139293572Y-59950127D01*
X139293574Y-59950127D01*
X139293580Y-59950130D01*
X139496535Y-59990500D01*
X139496538Y-59990500D01*
X139703462Y-59990500D01*
X139703465Y-59990500D01*
X139906420Y-59950130D01*
X140097598Y-59870941D01*
X140269655Y-59755977D01*
X140415977Y-59609655D01*
X140530941Y-59437598D01*
X140610130Y-59246420D01*
X140650500Y-59043465D01*
X140650500Y-58836535D01*
X143749500Y-58836535D01*
X143749500Y-59043465D01*
X143789870Y-59246420D01*
X143869059Y-59437598D01*
X143984023Y-59609655D01*
X144130345Y-59755977D01*
X144302402Y-59870941D01*
X144493580Y-59950130D01*
X144696535Y-59990500D01*
X144696538Y-59990500D01*
X144903462Y-59990500D01*
X144903465Y-59990500D01*
X145106420Y-59950130D01*
X145297598Y-59870941D01*
X145469655Y-59755977D01*
X145615977Y-59609655D01*
X145730941Y-59437598D01*
X145810130Y-59246420D01*
X145850500Y-59043465D01*
X145850500Y-58836535D01*
X145810130Y-58633580D01*
X145730941Y-58442402D01*
X145615977Y-58270345D01*
X145469655Y-58124023D01*
X145434083Y-58100255D01*
X145346552Y-58041769D01*
X145297598Y-58009059D01*
X145297596Y-58009058D01*
X145106423Y-57929871D01*
X145106417Y-57929869D01*
X145024572Y-57913589D01*
X144903465Y-57889500D01*
X144696535Y-57889500D01*
X144595520Y-57909592D01*
X144493582Y-57929869D01*
X144493576Y-57929871D01*
X144302403Y-58009058D01*
X144130345Y-58124022D01*
X143984022Y-58270345D01*
X143869058Y-58442403D01*
X143789871Y-58633576D01*
X143789869Y-58633582D01*
X143774494Y-58710881D01*
X143749500Y-58836535D01*
X140650500Y-58836535D01*
X140610130Y-58633580D01*
X140530941Y-58442402D01*
X140415977Y-58270345D01*
X140269655Y-58124023D01*
X140234083Y-58100255D01*
X140146552Y-58041769D01*
X140097598Y-58009059D01*
X140097596Y-58009058D01*
X139906423Y-57929871D01*
X139906417Y-57929869D01*
X139824572Y-57913589D01*
X139703465Y-57889500D01*
X139496535Y-57889500D01*
X139395520Y-57909592D01*
X139293582Y-57929869D01*
X139293576Y-57929871D01*
X139102403Y-58009058D01*
X138930345Y-58124022D01*
X138784022Y-58270345D01*
X138669058Y-58442403D01*
X138589871Y-58633576D01*
X138589869Y-58633582D01*
X138574494Y-58710881D01*
X138549500Y-58836535D01*
X138549500Y-59043465D01*
X138576290Y-59178150D01*
X138589869Y-59246417D01*
X138589871Y-59246423D01*
X138658981Y-59413268D01*
X138658981Y-59450771D01*
X138648359Y-59466668D01*
X138384148Y-59730880D01*
X138349500Y-59745232D01*
X138314852Y-59730880D01*
X138300500Y-59696232D01*
X138300500Y-58144766D01*
X138314851Y-58110119D01*
X139073330Y-57351639D01*
X139107977Y-57337288D01*
X139126728Y-57341018D01*
X139293572Y-57410127D01*
X139293574Y-57410127D01*
X139293580Y-57410130D01*
X139496535Y-57450500D01*
X139496538Y-57450500D01*
X139703462Y-57450500D01*
X139703465Y-57450500D01*
X139906420Y-57410130D01*
X140097598Y-57330941D01*
X140269655Y-57215977D01*
X140415977Y-57069655D01*
X140530941Y-56897598D01*
X140610130Y-56706420D01*
X140650500Y-56503465D01*
X140650500Y-56296535D01*
X143749500Y-56296535D01*
X143749500Y-56503465D01*
X143776290Y-56638150D01*
X143789869Y-56706417D01*
X143789871Y-56706423D01*
X143837243Y-56820789D01*
X143869059Y-56897598D01*
X143984023Y-57069655D01*
X144130345Y-57215977D01*
X144302402Y-57330941D01*
X144493580Y-57410130D01*
X144696535Y-57450500D01*
X144696538Y-57450500D01*
X144903462Y-57450500D01*
X144903465Y-57450500D01*
X145106420Y-57410130D01*
X145297598Y-57330941D01*
X145469655Y-57215977D01*
X145615977Y-57069655D01*
X145730941Y-56897598D01*
X145810130Y-56706420D01*
X145850500Y-56503465D01*
X145850500Y-56296535D01*
X145810130Y-56093580D01*
X145730941Y-55902402D01*
X145615977Y-55730345D01*
X145469655Y-55584023D01*
X145395581Y-55534529D01*
X145313972Y-55480000D01*
X145297598Y-55469059D01*
X145288359Y-55465232D01*
X145106423Y-55389871D01*
X145106417Y-55389869D01*
X145024572Y-55373589D01*
X144903465Y-55349500D01*
X144696535Y-55349500D01*
X144595520Y-55369592D01*
X144493582Y-55389869D01*
X144493576Y-55389871D01*
X144302403Y-55469058D01*
X144130345Y-55584022D01*
X143984022Y-55730345D01*
X143869058Y-55902403D01*
X143789871Y-56093576D01*
X143789869Y-56093582D01*
X143789281Y-56096539D01*
X143749500Y-56296535D01*
X140650500Y-56296535D01*
X140610130Y-56093580D01*
X140530941Y-55902402D01*
X140415977Y-55730345D01*
X140269655Y-55584023D01*
X140195581Y-55534529D01*
X140113972Y-55480000D01*
X140097598Y-55469059D01*
X140088359Y-55465232D01*
X139906423Y-55389871D01*
X139906417Y-55389869D01*
X139824572Y-55373589D01*
X139703465Y-55349500D01*
X139496535Y-55349500D01*
X139395520Y-55369592D01*
X139293582Y-55389869D01*
X139293576Y-55389871D01*
X139102403Y-55469058D01*
X138930345Y-55584022D01*
X138784022Y-55730345D01*
X138669058Y-55902403D01*
X138589871Y-56093576D01*
X138589869Y-56093582D01*
X138589281Y-56096539D01*
X138549500Y-56296535D01*
X138549500Y-56503465D01*
X138576290Y-56638150D01*
X138589869Y-56706417D01*
X138589871Y-56706423D01*
X138658981Y-56873268D01*
X138658981Y-56910771D01*
X138648359Y-56926668D01*
X137984148Y-57590880D01*
X137949500Y-57605232D01*
X137914852Y-57590880D01*
X137900500Y-57556232D01*
X137900500Y-56004766D01*
X137914851Y-55970119D01*
X139073330Y-54811639D01*
X139107977Y-54797288D01*
X139126728Y-54801018D01*
X139293572Y-54870127D01*
X139293574Y-54870127D01*
X139293580Y-54870130D01*
X139496535Y-54910500D01*
X139496538Y-54910500D01*
X139703462Y-54910500D01*
X139703465Y-54910500D01*
X139906420Y-54870130D01*
X140097598Y-54790941D01*
X140269655Y-54675977D01*
X140415977Y-54529655D01*
X140530941Y-54357598D01*
X140610130Y-54166420D01*
X140650500Y-53963465D01*
X140650500Y-53756535D01*
X143749500Y-53756535D01*
X143749500Y-53963465D01*
X143776290Y-54098150D01*
X143789869Y-54166417D01*
X143789871Y-54166423D01*
X143869058Y-54357596D01*
X143962079Y-54496814D01*
X143984023Y-54529655D01*
X144130345Y-54675977D01*
X144302402Y-54790941D01*
X144493580Y-54870130D01*
X144696535Y-54910500D01*
X144696538Y-54910500D01*
X144903462Y-54910500D01*
X144903465Y-54910500D01*
X145106420Y-54870130D01*
X145297598Y-54790941D01*
X145469655Y-54675977D01*
X145615977Y-54529655D01*
X145730941Y-54357598D01*
X145810130Y-54166420D01*
X145850500Y-53963465D01*
X145850500Y-53756535D01*
X145810130Y-53553580D01*
X145730941Y-53362402D01*
X145615977Y-53190345D01*
X145469655Y-53044023D01*
X145461043Y-53038269D01*
X145350611Y-52964481D01*
X145297598Y-52929059D01*
X145165242Y-52874235D01*
X145106423Y-52849871D01*
X145106417Y-52849869D01*
X145024572Y-52833589D01*
X144903465Y-52809500D01*
X144696535Y-52809500D01*
X144595520Y-52829592D01*
X144493582Y-52849869D01*
X144493576Y-52849871D01*
X144302403Y-52929058D01*
X144130345Y-53044022D01*
X143984022Y-53190345D01*
X143869058Y-53362403D01*
X143789871Y-53553576D01*
X143789869Y-53553582D01*
X143776658Y-53620000D01*
X143749500Y-53756535D01*
X140650500Y-53756535D01*
X140610130Y-53553580D01*
X140530941Y-53362402D01*
X140415977Y-53190345D01*
X140269655Y-53044023D01*
X140261043Y-53038269D01*
X140150611Y-52964481D01*
X140097598Y-52929059D01*
X139965242Y-52874235D01*
X139906423Y-52849871D01*
X139906417Y-52849869D01*
X139824572Y-52833589D01*
X139703465Y-52809500D01*
X139496535Y-52809500D01*
X139395520Y-52829592D01*
X139293582Y-52849869D01*
X139293576Y-52849871D01*
X139102403Y-52929058D01*
X138930345Y-53044022D01*
X138784022Y-53190345D01*
X138669058Y-53362403D01*
X138589871Y-53553576D01*
X138589869Y-53553582D01*
X138576658Y-53620000D01*
X138549500Y-53756535D01*
X138549500Y-53963465D01*
X138576290Y-54098150D01*
X138589869Y-54166417D01*
X138589871Y-54166423D01*
X138658981Y-54333268D01*
X138658981Y-54370771D01*
X138648359Y-54386668D01*
X137584148Y-55450880D01*
X137549500Y-55465232D01*
X137514852Y-55450880D01*
X137500500Y-55416232D01*
X137500500Y-53864767D01*
X137514852Y-53830119D01*
X138960119Y-52384852D01*
X138994767Y-52370500D01*
X140469745Y-52370500D01*
X140469748Y-52370500D01*
X140528231Y-52358867D01*
X140594552Y-52314552D01*
X140638867Y-52248231D01*
X140650500Y-52189748D01*
X140650500Y-50450252D01*
X143749500Y-50450252D01*
X143749500Y-52189748D01*
X143761133Y-52248231D01*
X143778882Y-52274795D01*
X143805447Y-52314552D01*
X143832012Y-52332301D01*
X143871769Y-52358867D01*
X143930252Y-52370500D01*
X143930255Y-52370500D01*
X145669745Y-52370500D01*
X145669748Y-52370500D01*
X145728231Y-52358867D01*
X145794552Y-52314552D01*
X145838867Y-52248231D01*
X145850500Y-52189748D01*
X145850500Y-50450252D01*
X145838867Y-50391769D01*
X145812301Y-50352012D01*
X145794552Y-50325447D01*
X145754795Y-50298882D01*
X145728231Y-50281133D01*
X145669748Y-50269500D01*
X143930252Y-50269500D01*
X143871769Y-50281133D01*
X143805447Y-50325447D01*
X143761133Y-50391769D01*
X143749500Y-50450252D01*
X140650500Y-50450252D01*
X140638867Y-50391769D01*
X140612301Y-50352012D01*
X140594552Y-50325447D01*
X140554795Y-50298882D01*
X140528231Y-50281133D01*
X140469748Y-50269500D01*
X138730252Y-50269500D01*
X138671769Y-50281133D01*
X138605447Y-50325447D01*
X138561133Y-50391769D01*
X138549500Y-50450252D01*
X138549500Y-50450255D01*
X138549500Y-51925233D01*
X138535148Y-51959881D01*
X136959541Y-53535488D01*
X136959540Y-53535488D01*
X136919979Y-53604008D01*
X136919979Y-53604010D01*
X136899500Y-53680436D01*
X136899500Y-68708309D01*
X136885148Y-68742957D01*
X134834541Y-70793564D01*
X134834540Y-70793564D01*
X134794979Y-70862084D01*
X134794979Y-70862086D01*
X134774500Y-70938512D01*
X134774500Y-74434563D01*
X134794979Y-74510989D01*
X134794979Y-74510991D01*
X134815471Y-74546483D01*
X134819585Y-74553608D01*
X134834540Y-74579511D01*
X135899540Y-75644511D01*
X135955489Y-75700460D01*
X135955492Y-75700461D01*
X135955495Y-75700464D01*
X135975407Y-75711960D01*
X135994928Y-75732874D01*
X136007690Y-75758979D01*
X136010014Y-75796410D01*
X135985190Y-75824521D01*
X135963669Y-75829500D01*
X132936331Y-75829500D01*
X132901683Y-75815148D01*
X132887331Y-75780500D01*
X132892310Y-75758979D01*
X132903788Y-75735500D01*
X132915573Y-75711393D01*
X132925500Y-75643260D01*
X132925500Y-75276740D01*
X132915573Y-75208607D01*
X132864198Y-75103517D01*
X132781483Y-75020802D01*
X132707226Y-74984500D01*
X132676396Y-74969428D01*
X132676394Y-74969427D01*
X132608262Y-74959500D01*
X132608260Y-74959500D01*
X130891740Y-74959500D01*
X130891738Y-74959500D01*
X130823605Y-74969427D01*
X130778326Y-74991561D01*
X130740895Y-74993883D01*
X130722159Y-74982187D01*
X129514852Y-73774880D01*
X129500500Y-73740232D01*
X129500500Y-70145323D01*
X129514852Y-70110675D01*
X129530748Y-70100053D01*
X129539988Y-70096225D01*
X129697598Y-70030941D01*
X129869655Y-69915977D01*
X130015977Y-69769655D01*
X130130941Y-69597598D01*
X130210130Y-69406420D01*
X130250500Y-69203465D01*
X130250500Y-68996535D01*
X130210130Y-68793580D01*
X130130941Y-68602402D01*
X130015977Y-68430345D01*
X129869655Y-68284023D01*
X129863399Y-68279843D01*
X129714628Y-68180438D01*
X129697598Y-68169059D01*
X129657740Y-68152549D01*
X129506423Y-68089871D01*
X129506417Y-68089869D01*
X129424572Y-68073589D01*
X129303465Y-68049500D01*
X129096535Y-68049500D01*
X128995520Y-68069592D01*
X128893582Y-68089869D01*
X128893576Y-68089871D01*
X128702403Y-68169058D01*
X128530345Y-68284022D01*
X128384148Y-68430220D01*
X128349500Y-68444572D01*
X128314852Y-68430220D01*
X128300500Y-68395572D01*
X128300500Y-67264428D01*
X128314852Y-67229780D01*
X128349500Y-67215428D01*
X128384148Y-67229780D01*
X128530345Y-67375977D01*
X128702402Y-67490941D01*
X128893580Y-67570130D01*
X129096535Y-67610500D01*
X129096538Y-67610500D01*
X129303462Y-67610500D01*
X129303465Y-67610500D01*
X129506420Y-67570130D01*
X129673270Y-67501018D01*
X129710772Y-67501018D01*
X129726669Y-67511640D01*
X130635148Y-68420119D01*
X130649500Y-68454767D01*
X130649500Y-70123995D01*
X130635148Y-70158643D01*
X129834541Y-70959250D01*
X129834540Y-70959250D01*
X129794979Y-71027770D01*
X129794979Y-71027772D01*
X129774500Y-71104198D01*
X129774500Y-73529562D01*
X129794979Y-73605988D01*
X129794979Y-73605990D01*
X129823263Y-73654978D01*
X129834536Y-73674504D01*
X129834538Y-73674506D01*
X129834540Y-73674510D01*
X129834543Y-73674513D01*
X130570032Y-74410002D01*
X130583872Y-74437582D01*
X130584427Y-74441394D01*
X130635799Y-74546478D01*
X130635801Y-74546481D01*
X130635802Y-74546483D01*
X130718517Y-74629198D01*
X130823607Y-74680573D01*
X130871884Y-74687606D01*
X130891738Y-74690500D01*
X130891740Y-74690500D01*
X132608262Y-74690500D01*
X132625590Y-74687974D01*
X132676393Y-74680573D01*
X132781483Y-74629198D01*
X132864198Y-74546483D01*
X132915573Y-74441393D01*
X132925500Y-74373260D01*
X132925500Y-74006740D01*
X132915573Y-73938607D01*
X132864198Y-73833517D01*
X132781483Y-73750802D01*
X132721669Y-73721561D01*
X132676396Y-73699428D01*
X132676394Y-73699427D01*
X132608262Y-73689500D01*
X132608260Y-73689500D01*
X130891740Y-73689500D01*
X130891738Y-73689500D01*
X130823605Y-73699427D01*
X130778326Y-73721561D01*
X130740895Y-73723883D01*
X130722159Y-73712187D01*
X130389852Y-73379880D01*
X130375500Y-73345232D01*
X130375500Y-72838767D01*
X130389852Y-72804119D01*
X130424500Y-72789767D01*
X130459148Y-72804119D01*
X130560148Y-72905119D01*
X130574500Y-72939767D01*
X130574500Y-73103261D01*
X130584427Y-73171394D01*
X130584428Y-73171396D01*
X130596649Y-73196394D01*
X130635802Y-73276483D01*
X130718517Y-73359198D01*
X130823607Y-73410573D01*
X130871884Y-73417606D01*
X130891738Y-73420500D01*
X130891740Y-73420500D01*
X132608262Y-73420500D01*
X132625590Y-73417974D01*
X132676393Y-73410573D01*
X132781483Y-73359198D01*
X132864198Y-73276483D01*
X132915573Y-73171393D01*
X132925500Y-73103260D01*
X132925500Y-72736740D01*
X132915573Y-72668607D01*
X132864198Y-72563517D01*
X132781483Y-72480802D01*
X132707226Y-72444500D01*
X132676396Y-72429428D01*
X132676394Y-72429427D01*
X132608262Y-72419500D01*
X132608260Y-72419500D01*
X130944767Y-72419500D01*
X130910119Y-72405148D01*
X130789852Y-72284881D01*
X130775500Y-72250233D01*
X130775500Y-72190220D01*
X130789852Y-72155572D01*
X130824500Y-72141220D01*
X130831558Y-72141731D01*
X130869100Y-72147201D01*
X130891738Y-72150500D01*
X130891740Y-72150500D01*
X132608262Y-72150500D01*
X132625590Y-72147974D01*
X132676393Y-72140573D01*
X132781483Y-72089198D01*
X132864198Y-72006483D01*
X132915573Y-71901393D01*
X132925500Y-71833260D01*
X132925500Y-71466740D01*
X132915573Y-71398607D01*
X132864198Y-71293517D01*
X132781483Y-71210802D01*
X132707226Y-71174500D01*
X132676396Y-71159428D01*
X132676394Y-71159427D01*
X132608262Y-71149500D01*
X132608260Y-71149500D01*
X132099500Y-71149500D01*
X132064852Y-71135148D01*
X132050500Y-71100500D01*
X132050500Y-68996535D01*
X133349500Y-68996535D01*
X133349500Y-69203465D01*
X133376290Y-69338150D01*
X133389869Y-69406417D01*
X133389871Y-69406423D01*
X133469056Y-69597591D01*
X133469059Y-69597598D01*
X133584023Y-69769655D01*
X133730345Y-69915977D01*
X133902402Y-70030941D01*
X134093580Y-70110130D01*
X134296535Y-70150500D01*
X134296538Y-70150500D01*
X134503462Y-70150500D01*
X134503465Y-70150500D01*
X134706420Y-70110130D01*
X134897598Y-70030941D01*
X135069655Y-69915977D01*
X135215977Y-69769655D01*
X135330941Y-69597598D01*
X135410130Y-69406420D01*
X135450500Y-69203465D01*
X135450500Y-68996535D01*
X135410130Y-68793580D01*
X135330941Y-68602402D01*
X135215977Y-68430345D01*
X135069655Y-68284023D01*
X135063399Y-68279843D01*
X134914628Y-68180438D01*
X134897598Y-68169059D01*
X134857740Y-68152549D01*
X134706423Y-68089871D01*
X134706417Y-68089869D01*
X134624572Y-68073589D01*
X134503465Y-68049500D01*
X134296535Y-68049500D01*
X134195520Y-68069592D01*
X134093582Y-68089869D01*
X134093576Y-68089871D01*
X133902403Y-68169058D01*
X133730345Y-68284022D01*
X133584022Y-68430345D01*
X133469058Y-68602403D01*
X133389871Y-68793576D01*
X133389869Y-68793582D01*
X133369592Y-68895520D01*
X133349500Y-68996535D01*
X132050500Y-68996535D01*
X132050500Y-66456535D01*
X133349500Y-66456535D01*
X133349500Y-66663465D01*
X133376290Y-66798150D01*
X133389869Y-66866417D01*
X133389871Y-66866423D01*
X133466749Y-67052021D01*
X133469059Y-67057598D01*
X133584023Y-67229655D01*
X133730345Y-67375977D01*
X133902402Y-67490941D01*
X134093580Y-67570130D01*
X134296535Y-67610500D01*
X134296538Y-67610500D01*
X134503462Y-67610500D01*
X134503465Y-67610500D01*
X134706420Y-67570130D01*
X134897598Y-67490941D01*
X135069655Y-67375977D01*
X135215977Y-67229655D01*
X135330941Y-67057598D01*
X135410130Y-66866420D01*
X135450500Y-66663465D01*
X135450500Y-66456535D01*
X135410130Y-66253580D01*
X135330941Y-66062402D01*
X135215977Y-65890345D01*
X135069655Y-65744023D01*
X135043030Y-65726233D01*
X134945223Y-65660881D01*
X134897598Y-65629059D01*
X134897596Y-65629058D01*
X134706423Y-65549871D01*
X134706417Y-65549869D01*
X134624572Y-65533589D01*
X134503465Y-65509500D01*
X134296535Y-65509500D01*
X134195520Y-65529592D01*
X134093582Y-65549869D01*
X134093576Y-65549871D01*
X133902403Y-65629058D01*
X133730345Y-65744022D01*
X133584022Y-65890345D01*
X133469058Y-66062403D01*
X133389871Y-66253576D01*
X133389869Y-66253582D01*
X133384591Y-66280119D01*
X133349500Y-66456535D01*
X132050500Y-66456535D01*
X132050500Y-63990436D01*
X132033451Y-63926811D01*
X132033451Y-63926810D01*
X132030698Y-63916535D01*
X133349500Y-63916535D01*
X133349500Y-64123465D01*
X133371656Y-64234852D01*
X133389869Y-64326417D01*
X133389871Y-64326423D01*
X133463636Y-64504507D01*
X133469059Y-64517598D01*
X133584023Y-64689655D01*
X133730345Y-64835977D01*
X133902402Y-64950941D01*
X134093580Y-65030130D01*
X134296535Y-65070500D01*
X134296538Y-65070500D01*
X134503462Y-65070500D01*
X134503465Y-65070500D01*
X134706420Y-65030130D01*
X134897598Y-64950941D01*
X135069655Y-64835977D01*
X135215977Y-64689655D01*
X135330941Y-64517598D01*
X135410130Y-64326420D01*
X135450500Y-64123465D01*
X135450500Y-63916535D01*
X135410130Y-63713580D01*
X135330941Y-63522402D01*
X135215977Y-63350345D01*
X135069655Y-63204023D01*
X135066033Y-63201603D01*
X134984207Y-63146929D01*
X134897598Y-63089059D01*
X134897596Y-63089058D01*
X134706423Y-63009871D01*
X134706417Y-63009869D01*
X134624572Y-62993589D01*
X134503465Y-62969500D01*
X134296535Y-62969500D01*
X134195520Y-62989592D01*
X134093582Y-63009869D01*
X134093576Y-63009871D01*
X133902403Y-63089058D01*
X133730345Y-63204022D01*
X133584022Y-63350345D01*
X133469058Y-63522403D01*
X133389871Y-63713576D01*
X133389869Y-63713582D01*
X133373577Y-63795489D01*
X133349500Y-63916535D01*
X132030698Y-63916535D01*
X132030022Y-63914012D01*
X132016411Y-63890438D01*
X132013299Y-63885047D01*
X131990460Y-63845489D01*
X130151640Y-62006669D01*
X130137288Y-61972021D01*
X130141018Y-61953269D01*
X130177962Y-61864079D01*
X130210130Y-61786420D01*
X130250500Y-61583465D01*
X130250500Y-61376535D01*
X133349500Y-61376535D01*
X133349500Y-61583465D01*
X133366882Y-61670850D01*
X133389869Y-61786417D01*
X133389871Y-61786423D01*
X133460636Y-61957264D01*
X133469059Y-61977598D01*
X133499500Y-62023156D01*
X133570582Y-62129540D01*
X133584023Y-62149655D01*
X133730345Y-62295977D01*
X133902402Y-62410941D01*
X134093580Y-62490130D01*
X134296535Y-62530500D01*
X134296538Y-62530500D01*
X134503462Y-62530500D01*
X134503465Y-62530500D01*
X134706420Y-62490130D01*
X134897598Y-62410941D01*
X135069655Y-62295977D01*
X135215977Y-62149655D01*
X135330941Y-61977598D01*
X135410130Y-61786420D01*
X135450500Y-61583465D01*
X135450500Y-61376535D01*
X135410130Y-61173580D01*
X135330941Y-60982402D01*
X135215977Y-60810345D01*
X135069655Y-60664023D01*
X134897598Y-60549059D01*
X134897596Y-60549058D01*
X134706423Y-60469871D01*
X134706417Y-60469869D01*
X134624572Y-60453589D01*
X134503465Y-60429500D01*
X134296535Y-60429500D01*
X134195520Y-60449592D01*
X134093582Y-60469869D01*
X134093576Y-60469871D01*
X133902403Y-60549058D01*
X133730345Y-60664022D01*
X133584022Y-60810345D01*
X133469058Y-60982403D01*
X133389871Y-61173576D01*
X133389869Y-61173582D01*
X133374778Y-61249451D01*
X133349500Y-61376535D01*
X130250500Y-61376535D01*
X130210130Y-61173580D01*
X130130941Y-60982402D01*
X130015977Y-60810345D01*
X129869655Y-60664023D01*
X129697598Y-60549059D01*
X129697596Y-60549058D01*
X129506423Y-60469871D01*
X129506417Y-60469869D01*
X129424572Y-60453589D01*
X129303465Y-60429500D01*
X129096535Y-60429500D01*
X128995520Y-60449592D01*
X128893582Y-60469869D01*
X128893576Y-60469871D01*
X128702403Y-60549058D01*
X128530345Y-60664022D01*
X128384148Y-60810220D01*
X128349500Y-60824572D01*
X128314852Y-60810220D01*
X128300500Y-60775572D01*
X128300500Y-60284766D01*
X128314851Y-60250119D01*
X128673330Y-59891639D01*
X128707977Y-59877288D01*
X128726728Y-59881018D01*
X128893572Y-59950127D01*
X128893574Y-59950127D01*
X128893580Y-59950130D01*
X129096535Y-59990500D01*
X129096538Y-59990500D01*
X129303462Y-59990500D01*
X129303465Y-59990500D01*
X129506420Y-59950130D01*
X129697598Y-59870941D01*
X129869655Y-59755977D01*
X130015977Y-59609655D01*
X130130941Y-59437598D01*
X130210130Y-59246420D01*
X130250500Y-59043465D01*
X130250500Y-58836535D01*
X133349500Y-58836535D01*
X133349500Y-59043465D01*
X133389870Y-59246420D01*
X133469059Y-59437598D01*
X133584023Y-59609655D01*
X133730345Y-59755977D01*
X133902402Y-59870941D01*
X134093580Y-59950130D01*
X134296535Y-59990500D01*
X134296538Y-59990500D01*
X134503462Y-59990500D01*
X134503465Y-59990500D01*
X134706420Y-59950130D01*
X134897598Y-59870941D01*
X135069655Y-59755977D01*
X135215977Y-59609655D01*
X135330941Y-59437598D01*
X135410130Y-59246420D01*
X135450500Y-59043465D01*
X135450500Y-58836535D01*
X135410130Y-58633580D01*
X135330941Y-58442402D01*
X135215977Y-58270345D01*
X135069655Y-58124023D01*
X135034083Y-58100255D01*
X134946552Y-58041769D01*
X134897598Y-58009059D01*
X134897596Y-58009058D01*
X134706423Y-57929871D01*
X134706417Y-57929869D01*
X134624572Y-57913589D01*
X134503465Y-57889500D01*
X134296535Y-57889500D01*
X134195520Y-57909592D01*
X134093582Y-57929869D01*
X134093576Y-57929871D01*
X133902403Y-58009058D01*
X133730345Y-58124022D01*
X133584022Y-58270345D01*
X133469058Y-58442403D01*
X133389871Y-58633576D01*
X133389869Y-58633582D01*
X133374494Y-58710881D01*
X133349500Y-58836535D01*
X130250500Y-58836535D01*
X130210130Y-58633580D01*
X130130941Y-58442402D01*
X130015977Y-58270345D01*
X129869655Y-58124023D01*
X129834083Y-58100255D01*
X129746552Y-58041769D01*
X129697598Y-58009059D01*
X129697596Y-58009058D01*
X129506423Y-57929871D01*
X129506417Y-57929869D01*
X129424572Y-57913589D01*
X129303465Y-57889500D01*
X129096535Y-57889500D01*
X128995520Y-57909592D01*
X128893582Y-57929869D01*
X128893576Y-57929871D01*
X128702403Y-58009058D01*
X128530345Y-58124022D01*
X128384022Y-58270345D01*
X128269058Y-58442403D01*
X128189871Y-58633576D01*
X128189869Y-58633582D01*
X128174494Y-58710881D01*
X128149500Y-58836535D01*
X128149500Y-59043465D01*
X128176290Y-59178150D01*
X128189869Y-59246417D01*
X128189871Y-59246423D01*
X128258981Y-59413268D01*
X128258981Y-59450771D01*
X128248359Y-59466668D01*
X127984148Y-59730880D01*
X127949500Y-59745232D01*
X127914852Y-59730880D01*
X127900500Y-59696232D01*
X127900500Y-58144766D01*
X127914851Y-58110119D01*
X128673330Y-57351639D01*
X128707977Y-57337288D01*
X128726728Y-57341018D01*
X128893572Y-57410127D01*
X128893574Y-57410127D01*
X128893580Y-57410130D01*
X129096535Y-57450500D01*
X129096538Y-57450500D01*
X129303462Y-57450500D01*
X129303465Y-57450500D01*
X129506420Y-57410130D01*
X129697598Y-57330941D01*
X129869655Y-57215977D01*
X130015977Y-57069655D01*
X130130941Y-56897598D01*
X130210130Y-56706420D01*
X130250500Y-56503465D01*
X130250500Y-56296535D01*
X133349500Y-56296535D01*
X133349500Y-56503465D01*
X133376290Y-56638150D01*
X133389869Y-56706417D01*
X133389871Y-56706423D01*
X133437243Y-56820789D01*
X133469059Y-56897598D01*
X133584023Y-57069655D01*
X133730345Y-57215977D01*
X133902402Y-57330941D01*
X134093580Y-57410130D01*
X134296535Y-57450500D01*
X134296538Y-57450500D01*
X134503462Y-57450500D01*
X134503465Y-57450500D01*
X134706420Y-57410130D01*
X134897598Y-57330941D01*
X135069655Y-57215977D01*
X135215977Y-57069655D01*
X135330941Y-56897598D01*
X135410130Y-56706420D01*
X135450500Y-56503465D01*
X135450500Y-56296535D01*
X135410130Y-56093580D01*
X135330941Y-55902402D01*
X135215977Y-55730345D01*
X135069655Y-55584023D01*
X134995581Y-55534529D01*
X134913972Y-55480000D01*
X134897598Y-55469059D01*
X134888359Y-55465232D01*
X134706423Y-55389871D01*
X134706417Y-55389869D01*
X134624572Y-55373589D01*
X134503465Y-55349500D01*
X134296535Y-55349500D01*
X134195520Y-55369592D01*
X134093582Y-55389869D01*
X134093576Y-55389871D01*
X133902403Y-55469058D01*
X133730345Y-55584022D01*
X133584022Y-55730345D01*
X133469058Y-55902403D01*
X133389871Y-56093576D01*
X133389869Y-56093582D01*
X133389281Y-56096539D01*
X133349500Y-56296535D01*
X130250500Y-56296535D01*
X130210130Y-56093580D01*
X130130941Y-55902402D01*
X130015977Y-55730345D01*
X129869655Y-55584023D01*
X129795581Y-55534529D01*
X129713972Y-55480000D01*
X129697598Y-55469059D01*
X129688359Y-55465232D01*
X129506423Y-55389871D01*
X129506417Y-55389869D01*
X129424572Y-55373589D01*
X129303465Y-55349500D01*
X129096535Y-55349500D01*
X128995520Y-55369592D01*
X128893582Y-55389869D01*
X128893576Y-55389871D01*
X128702403Y-55469058D01*
X128530345Y-55584022D01*
X128384022Y-55730345D01*
X128269058Y-55902403D01*
X128189871Y-56093576D01*
X128189869Y-56093582D01*
X128189281Y-56096539D01*
X128149500Y-56296535D01*
X128149500Y-56503465D01*
X128176290Y-56638150D01*
X128189869Y-56706417D01*
X128189871Y-56706423D01*
X128258981Y-56873268D01*
X128258981Y-56910771D01*
X128248359Y-56926668D01*
X127584148Y-57590880D01*
X127549500Y-57605232D01*
X127514852Y-57590880D01*
X127500500Y-57556232D01*
X127500500Y-56004766D01*
X127514851Y-55970119D01*
X128673330Y-54811639D01*
X128707977Y-54797288D01*
X128726728Y-54801018D01*
X128893572Y-54870127D01*
X128893574Y-54870127D01*
X128893580Y-54870130D01*
X129096535Y-54910500D01*
X129096538Y-54910500D01*
X129303462Y-54910500D01*
X129303465Y-54910500D01*
X129506420Y-54870130D01*
X129697598Y-54790941D01*
X129869655Y-54675977D01*
X130015977Y-54529655D01*
X130130941Y-54357598D01*
X130210130Y-54166420D01*
X130250500Y-53963465D01*
X130250500Y-53756535D01*
X133349500Y-53756535D01*
X133349500Y-53963465D01*
X133376290Y-54098150D01*
X133389869Y-54166417D01*
X133389871Y-54166423D01*
X133469058Y-54357596D01*
X133562079Y-54496814D01*
X133584023Y-54529655D01*
X133730345Y-54675977D01*
X133902402Y-54790941D01*
X134093580Y-54870130D01*
X134296535Y-54910500D01*
X134296538Y-54910500D01*
X134503462Y-54910500D01*
X134503465Y-54910500D01*
X134706420Y-54870130D01*
X134897598Y-54790941D01*
X135069655Y-54675977D01*
X135215977Y-54529655D01*
X135330941Y-54357598D01*
X135410130Y-54166420D01*
X135450500Y-53963465D01*
X135450500Y-53756535D01*
X135410130Y-53553580D01*
X135330941Y-53362402D01*
X135215977Y-53190345D01*
X135069655Y-53044023D01*
X135061043Y-53038269D01*
X134950611Y-52964481D01*
X134897598Y-52929059D01*
X134765242Y-52874235D01*
X134706423Y-52849871D01*
X134706417Y-52849869D01*
X134624572Y-52833589D01*
X134503465Y-52809500D01*
X134296535Y-52809500D01*
X134195520Y-52829592D01*
X134093582Y-52849869D01*
X134093576Y-52849871D01*
X133902403Y-52929058D01*
X133730345Y-53044022D01*
X133584022Y-53190345D01*
X133469058Y-53362403D01*
X133389871Y-53553576D01*
X133389869Y-53553582D01*
X133376658Y-53620000D01*
X133349500Y-53756535D01*
X130250500Y-53756535D01*
X130210130Y-53553580D01*
X130130941Y-53362402D01*
X130015977Y-53190345D01*
X129869655Y-53044023D01*
X129861043Y-53038269D01*
X129750611Y-52964481D01*
X129697598Y-52929059D01*
X129565242Y-52874235D01*
X129506423Y-52849871D01*
X129506417Y-52849869D01*
X129424572Y-52833589D01*
X129303465Y-52809500D01*
X129096535Y-52809500D01*
X128995520Y-52829592D01*
X128893582Y-52849869D01*
X128893576Y-52849871D01*
X128702403Y-52929058D01*
X128530345Y-53044022D01*
X128384022Y-53190345D01*
X128269058Y-53362403D01*
X128189871Y-53553576D01*
X128189869Y-53553582D01*
X128176658Y-53620000D01*
X128149500Y-53756535D01*
X128149500Y-53963465D01*
X128176290Y-54098150D01*
X128189869Y-54166417D01*
X128189871Y-54166423D01*
X128258981Y-54333268D01*
X128258981Y-54370771D01*
X128248359Y-54386668D01*
X127184148Y-55450880D01*
X127149500Y-55465232D01*
X127114852Y-55450880D01*
X127100500Y-55416232D01*
X127100500Y-53864767D01*
X127114852Y-53830119D01*
X128560119Y-52384852D01*
X128594767Y-52370500D01*
X130069745Y-52370500D01*
X130069748Y-52370500D01*
X130128231Y-52358867D01*
X130194552Y-52314552D01*
X130238867Y-52248231D01*
X130250500Y-52189748D01*
X130250500Y-50450252D01*
X133349500Y-50450252D01*
X133349500Y-52189748D01*
X133361133Y-52248231D01*
X133378882Y-52274795D01*
X133405447Y-52314552D01*
X133432012Y-52332301D01*
X133471769Y-52358867D01*
X133530252Y-52370500D01*
X133530255Y-52370500D01*
X135269745Y-52370500D01*
X135269748Y-52370500D01*
X135328231Y-52358867D01*
X135394552Y-52314552D01*
X135438867Y-52248231D01*
X135450500Y-52189748D01*
X135450500Y-50450252D01*
X135438867Y-50391769D01*
X135412301Y-50352012D01*
X135394552Y-50325447D01*
X135354795Y-50298882D01*
X135328231Y-50281133D01*
X135269748Y-50269500D01*
X133530252Y-50269500D01*
X133471769Y-50281133D01*
X133405447Y-50325447D01*
X133361133Y-50391769D01*
X133349500Y-50450252D01*
X130250500Y-50450252D01*
X130238867Y-50391769D01*
X130212301Y-50352012D01*
X130194552Y-50325447D01*
X130154795Y-50298882D01*
X130128231Y-50281133D01*
X130069748Y-50269500D01*
X128330252Y-50269500D01*
X128271769Y-50281133D01*
X128205447Y-50325447D01*
X128161133Y-50391769D01*
X128149500Y-50450252D01*
X128149500Y-50450255D01*
X128149500Y-51925233D01*
X128135148Y-51959881D01*
X126559541Y-53535488D01*
X126559540Y-53535488D01*
X126519979Y-53604008D01*
X126519979Y-53604010D01*
X126499500Y-53680436D01*
X126499500Y-68758309D01*
X126485148Y-68792957D01*
X124484541Y-70793564D01*
X124484540Y-70793564D01*
X124444979Y-70862084D01*
X124444979Y-70862086D01*
X124424500Y-70938512D01*
X124424500Y-74399562D01*
X124442408Y-74466396D01*
X124444979Y-74475988D01*
X124455667Y-74494500D01*
X124455668Y-74494501D01*
X124484537Y-74544506D01*
X124484542Y-74544512D01*
X125620032Y-75680002D01*
X125633872Y-75707582D01*
X125634427Y-75711394D01*
X125685799Y-75816478D01*
X125685801Y-75816481D01*
X125685802Y-75816483D01*
X125768517Y-75899198D01*
X125873607Y-75950573D01*
X125921884Y-75957606D01*
X125941738Y-75960500D01*
X125941740Y-75960500D01*
X127658262Y-75960500D01*
X127675590Y-75957974D01*
X127726393Y-75950573D01*
X127831483Y-75899198D01*
X127914198Y-75816483D01*
X127965573Y-75711393D01*
X127975500Y-75643260D01*
X127975500Y-75276740D01*
X127965573Y-75208607D01*
X127914198Y-75103517D01*
X127831483Y-75020802D01*
X127757226Y-74984500D01*
X127726396Y-74969428D01*
X127726394Y-74969427D01*
X127658262Y-74959500D01*
X127658260Y-74959500D01*
X125941740Y-74959500D01*
X125941738Y-74959500D01*
X125873605Y-74969427D01*
X125828326Y-74991561D01*
X125790895Y-74993883D01*
X125772159Y-74982187D01*
X125039852Y-74249880D01*
X125025500Y-74215232D01*
X125025500Y-73933766D01*
X125039852Y-73899118D01*
X125074500Y-73884766D01*
X125109148Y-73899118D01*
X125620032Y-74410002D01*
X125633872Y-74437582D01*
X125634427Y-74441394D01*
X125685799Y-74546478D01*
X125685801Y-74546481D01*
X125685802Y-74546483D01*
X125768517Y-74629198D01*
X125873607Y-74680573D01*
X125921884Y-74687606D01*
X125941738Y-74690500D01*
X125941740Y-74690500D01*
X127658262Y-74690500D01*
X127675590Y-74687974D01*
X127726393Y-74680573D01*
X127831483Y-74629198D01*
X127914198Y-74546483D01*
X127965573Y-74441393D01*
X127975500Y-74373260D01*
X127975500Y-74006740D01*
X127965573Y-73938607D01*
X127914198Y-73833517D01*
X127831483Y-73750802D01*
X127771669Y-73721561D01*
X127726396Y-73699428D01*
X127726394Y-73699427D01*
X127658262Y-73689500D01*
X127658260Y-73689500D01*
X125941740Y-73689500D01*
X125941738Y-73689500D01*
X125873605Y-73699427D01*
X125828326Y-73721561D01*
X125790895Y-73723883D01*
X125772159Y-73712187D01*
X125439852Y-73379880D01*
X125425500Y-73345232D01*
X125425500Y-72488767D01*
X125439852Y-72454119D01*
X125474500Y-72439767D01*
X125509148Y-72454119D01*
X125638980Y-72583951D01*
X125653332Y-72618599D01*
X125648353Y-72640119D01*
X125634427Y-72668604D01*
X125624500Y-72736738D01*
X125624500Y-73103261D01*
X125634427Y-73171394D01*
X125634428Y-73171396D01*
X125646649Y-73196394D01*
X125685802Y-73276483D01*
X125768517Y-73359198D01*
X125873607Y-73410573D01*
X125921884Y-73417606D01*
X125941738Y-73420500D01*
X125941740Y-73420500D01*
X127658262Y-73420500D01*
X127675590Y-73417974D01*
X127726393Y-73410573D01*
X127831483Y-73359198D01*
X127914198Y-73276483D01*
X127965573Y-73171393D01*
X127975500Y-73103260D01*
X127975500Y-72736740D01*
X127965573Y-72668607D01*
X127914198Y-72563517D01*
X127831483Y-72480802D01*
X127757226Y-72444500D01*
X127726396Y-72429428D01*
X127726394Y-72429427D01*
X127658262Y-72419500D01*
X127658260Y-72419500D01*
X126344767Y-72419500D01*
X126310119Y-72405148D01*
X126139119Y-72234148D01*
X126124767Y-72199500D01*
X126139119Y-72164852D01*
X126173767Y-72150500D01*
X127658262Y-72150500D01*
X127675590Y-72147974D01*
X127726393Y-72140573D01*
X127831483Y-72089198D01*
X127914198Y-72006483D01*
X127965573Y-71901393D01*
X127975500Y-71833260D01*
X127975500Y-71466740D01*
X127965573Y-71398607D01*
X127914198Y-71293517D01*
X127831483Y-71210802D01*
X127757226Y-71174500D01*
X127726396Y-71159428D01*
X127726394Y-71159427D01*
X127658262Y-71149500D01*
X127658260Y-71149500D01*
X127149500Y-71149500D01*
X127114852Y-71135148D01*
X127100500Y-71100500D01*
X127100500Y-70744900D01*
X127114852Y-70710252D01*
X128210196Y-69614908D01*
X128244844Y-69600556D01*
X128279492Y-69614908D01*
X128285586Y-69622333D01*
X128350510Y-69719500D01*
X128384023Y-69769655D01*
X128530345Y-69915977D01*
X128702402Y-70030941D01*
X128758325Y-70054105D01*
X128869252Y-70100053D01*
X128895770Y-70126572D01*
X128899500Y-70145323D01*
X128899500Y-73924562D01*
X128919979Y-74000988D01*
X128919979Y-74000990D01*
X128953760Y-74059499D01*
X128959536Y-74069504D01*
X128959538Y-74069506D01*
X128959540Y-74069510D01*
X128959543Y-74069513D01*
X130570032Y-75680002D01*
X130583872Y-75707582D01*
X130584427Y-75711394D01*
X130635799Y-75816478D01*
X130635801Y-75816481D01*
X130635802Y-75816483D01*
X130718517Y-75899198D01*
X130823607Y-75950573D01*
X130871884Y-75957606D01*
X130891738Y-75960500D01*
X130891740Y-75960500D01*
X131976233Y-75960500D01*
X132010881Y-75974852D01*
X132025233Y-76009500D01*
X132010881Y-76044148D01*
X131839881Y-76215148D01*
X131805233Y-76229500D01*
X130891738Y-76229500D01*
X130823605Y-76239427D01*
X130823603Y-76239428D01*
X130718519Y-76290801D01*
X130718515Y-76290803D01*
X130635803Y-76373515D01*
X130635801Y-76373519D01*
X130584428Y-76478603D01*
X130584427Y-76478605D01*
X130575747Y-76538184D01*
X130574500Y-76546740D01*
X130574500Y-76913260D01*
X130582834Y-76970460D01*
X130583268Y-76973435D01*
X130574062Y-77009790D01*
X130541845Y-77028988D01*
X130534780Y-77029500D01*
X128015220Y-77029500D01*
X127980572Y-77015148D01*
X127966220Y-76980500D01*
X127966732Y-76973435D01*
X127967166Y-76970460D01*
X127975500Y-76913260D01*
X127975500Y-76546740D01*
X127974253Y-76538184D01*
X127972606Y-76526884D01*
X127965573Y-76478607D01*
X127914198Y-76373517D01*
X127831483Y-76290802D01*
X127757226Y-76254500D01*
X127726396Y-76239428D01*
X127726394Y-76239427D01*
X127658262Y-76229500D01*
X127658260Y-76229500D01*
X125941740Y-76229500D01*
X125941738Y-76229500D01*
X125873605Y-76239427D01*
X125873603Y-76239428D01*
X125768519Y-76290801D01*
X125768515Y-76290803D01*
X125685803Y-76373515D01*
X125685801Y-76373519D01*
X125634428Y-76478603D01*
X125634427Y-76478605D01*
X125624500Y-76546738D01*
X125624500Y-76913261D01*
X125634427Y-76981394D01*
X125634428Y-76981396D01*
X125646649Y-77006394D01*
X125685802Y-77086483D01*
X125768517Y-77169198D01*
X125873607Y-77220573D01*
X125921884Y-77227606D01*
X125941738Y-77230500D01*
X125941740Y-77230500D01*
X126855233Y-77230500D01*
X126889881Y-77244852D01*
X127060881Y-77415852D01*
X127075233Y-77450500D01*
X127060881Y-77485148D01*
X127026233Y-77499500D01*
X125941738Y-77499500D01*
X125873605Y-77509427D01*
X125873603Y-77509428D01*
X125768519Y-77560801D01*
X125768515Y-77560803D01*
X125685803Y-77643515D01*
X125685801Y-77643519D01*
X125634428Y-77748603D01*
X125634427Y-77748605D01*
X125624500Y-77816738D01*
X125624500Y-78183261D01*
X125634427Y-78251394D01*
X125634428Y-78251396D01*
X125646649Y-78276394D01*
X125685802Y-78356483D01*
X125768517Y-78439198D01*
X125873607Y-78490573D01*
X125921884Y-78497606D01*
X125941738Y-78500500D01*
X125941740Y-78500500D01*
X126855233Y-78500500D01*
X126889881Y-78514852D01*
X127060881Y-78685852D01*
X127075233Y-78720500D01*
X127060881Y-78755148D01*
X127026233Y-78769500D01*
X125941738Y-78769500D01*
X125873605Y-78779427D01*
X125873603Y-78779428D01*
X125768519Y-78830801D01*
X125768515Y-78830803D01*
X125685802Y-78913516D01*
X125682755Y-78919750D01*
X125671867Y-78942021D01*
X125665662Y-78947500D01*
X125662495Y-78955148D01*
X125652151Y-78959432D01*
X125643758Y-78966845D01*
X125627847Y-78969500D01*
X125589818Y-78969500D01*
X125555170Y-78955148D01*
X125547383Y-78945001D01*
X125525500Y-78907098D01*
X125432314Y-78813912D01*
X125415889Y-78804429D01*
X125318188Y-78748020D01*
X125318184Y-78748019D01*
X125190895Y-78713912D01*
X125190892Y-78713912D01*
X125059108Y-78713912D01*
X125059105Y-78713912D01*
X124931815Y-78748019D01*
X124931811Y-78748020D01*
X124817685Y-78813912D01*
X124817685Y-78813913D01*
X124784148Y-78847450D01*
X124749500Y-78861802D01*
X124714852Y-78847450D01*
X124700500Y-78812802D01*
X124700500Y-76060436D01*
X124686851Y-76009500D01*
X124680021Y-75984011D01*
X124680020Y-75984009D01*
X124680020Y-75984008D01*
X124646998Y-75926814D01*
X124640460Y-75915489D01*
X124584511Y-75859540D01*
X121184511Y-72459540D01*
X121175655Y-72454427D01*
X121175654Y-72454426D01*
X121115990Y-72419979D01*
X121039564Y-72399500D01*
X121039562Y-72399500D01*
X99424767Y-72399500D01*
X99390119Y-72385148D01*
X96001506Y-68996535D01*
X117749500Y-68996535D01*
X117749500Y-69203465D01*
X117776290Y-69338150D01*
X117789869Y-69406417D01*
X117789871Y-69406423D01*
X117869056Y-69597591D01*
X117869059Y-69597598D01*
X117984023Y-69769655D01*
X118130345Y-69915977D01*
X118302402Y-70030941D01*
X118493580Y-70110130D01*
X118696535Y-70150500D01*
X118696538Y-70150500D01*
X118903462Y-70150500D01*
X118903465Y-70150500D01*
X119106420Y-70110130D01*
X119297598Y-70030941D01*
X119469655Y-69915977D01*
X119615977Y-69769655D01*
X119730941Y-69597598D01*
X119810130Y-69406420D01*
X119850500Y-69203465D01*
X119850500Y-68996535D01*
X122949500Y-68996535D01*
X122949500Y-69203465D01*
X122976290Y-69338150D01*
X122989869Y-69406417D01*
X122989871Y-69406423D01*
X123069056Y-69597591D01*
X123069059Y-69597598D01*
X123184023Y-69769655D01*
X123330345Y-69915977D01*
X123502402Y-70030941D01*
X123693580Y-70110130D01*
X123896535Y-70150500D01*
X123896538Y-70150500D01*
X124103462Y-70150500D01*
X124103465Y-70150500D01*
X124306420Y-70110130D01*
X124497598Y-70030941D01*
X124669655Y-69915977D01*
X124815977Y-69769655D01*
X124930941Y-69597598D01*
X125010130Y-69406420D01*
X125050500Y-69203465D01*
X125050500Y-68996535D01*
X125010130Y-68793580D01*
X124930941Y-68602402D01*
X124815977Y-68430345D01*
X124669655Y-68284023D01*
X124663399Y-68279843D01*
X124514628Y-68180438D01*
X124497598Y-68169059D01*
X124457740Y-68152549D01*
X124306423Y-68089871D01*
X124306417Y-68089869D01*
X124224572Y-68073589D01*
X124103465Y-68049500D01*
X123896535Y-68049500D01*
X123795520Y-68069592D01*
X123693582Y-68089869D01*
X123693576Y-68089871D01*
X123502403Y-68169058D01*
X123330345Y-68284022D01*
X123184022Y-68430345D01*
X123069058Y-68602403D01*
X122989871Y-68793576D01*
X122989869Y-68793582D01*
X122969592Y-68895520D01*
X122949500Y-68996535D01*
X119850500Y-68996535D01*
X119810130Y-68793580D01*
X119730941Y-68602402D01*
X119615977Y-68430345D01*
X119469655Y-68284023D01*
X119463399Y-68279843D01*
X119314628Y-68180438D01*
X119297598Y-68169059D01*
X119257740Y-68152549D01*
X119106423Y-68089871D01*
X119106417Y-68089869D01*
X119024572Y-68073589D01*
X118903465Y-68049500D01*
X118696535Y-68049500D01*
X118595520Y-68069592D01*
X118493582Y-68089869D01*
X118493576Y-68089871D01*
X118302403Y-68169058D01*
X118130345Y-68284022D01*
X117984022Y-68430345D01*
X117869058Y-68602403D01*
X117789871Y-68793576D01*
X117789869Y-68793582D01*
X117769592Y-68895520D01*
X117749500Y-68996535D01*
X96001506Y-68996535D01*
X85028880Y-58023909D01*
X88683151Y-58023909D01*
X88683151Y-58155700D01*
X88717258Y-58282989D01*
X88717259Y-58282993D01*
X88783151Y-58397119D01*
X88876337Y-58490305D01*
X88918108Y-58514422D01*
X88990462Y-58556196D01*
X88990464Y-58556196D01*
X88990465Y-58556197D01*
X89090858Y-58583097D01*
X89117755Y-58590304D01*
X89117756Y-58590305D01*
X89117759Y-58590305D01*
X89225038Y-58590305D01*
X89259686Y-58604657D01*
X93185148Y-62530119D01*
X93199500Y-62564767D01*
X93199500Y-63617390D01*
X93185148Y-63652038D01*
X93099501Y-63737685D01*
X93099500Y-63737685D01*
X93033608Y-63851811D01*
X93033607Y-63851815D01*
X92999500Y-63979104D01*
X92999500Y-64110895D01*
X93033607Y-64238184D01*
X93033608Y-64238188D01*
X93090004Y-64335866D01*
X93094899Y-64373048D01*
X93072070Y-64402800D01*
X93029115Y-64427601D01*
X93029112Y-64427603D01*
X92935930Y-64520786D01*
X92935929Y-64520786D01*
X92870037Y-64634912D01*
X92870036Y-64634916D01*
X92835929Y-64762205D01*
X92835929Y-64893996D01*
X92870036Y-65021285D01*
X92870037Y-65021289D01*
X92935927Y-65135411D01*
X92935929Y-65135415D01*
X93029115Y-65228601D01*
X93070886Y-65252718D01*
X93143240Y-65294492D01*
X93143242Y-65294492D01*
X93143243Y-65294493D01*
X93243636Y-65321393D01*
X93270533Y-65328600D01*
X93270534Y-65328601D01*
X93270537Y-65328601D01*
X93402324Y-65328601D01*
X93402324Y-65328600D01*
X93529615Y-65294493D01*
X93643743Y-65228601D01*
X93736929Y-65135415D01*
X93771096Y-65076233D01*
X93778874Y-65066096D01*
X93832359Y-65012612D01*
X93918587Y-64926384D01*
X99617000Y-64926384D01*
X99617000Y-65913616D01*
X99637235Y-66015346D01*
X99653526Y-66097248D01*
X99653529Y-66097258D01*
X99725175Y-66270225D01*
X99725176Y-66270227D01*
X99725178Y-66270231D01*
X99829198Y-66425908D01*
X99961592Y-66558302D01*
X100117269Y-66662322D01*
X100149223Y-66675557D01*
X100290241Y-66733970D01*
X100290243Y-66733970D01*
X100290249Y-66733973D01*
X100473884Y-66770500D01*
X100473887Y-66770500D01*
X100661113Y-66770500D01*
X100661116Y-66770500D01*
X100844751Y-66733973D01*
X101017731Y-66662322D01*
X101173408Y-66558302D01*
X101305802Y-66425908D01*
X101409822Y-66270231D01*
X101481473Y-66097251D01*
X101518000Y-65913616D01*
X101518000Y-64936276D01*
X102257500Y-64936276D01*
X102257500Y-65270000D01*
X102630055Y-65270000D01*
X102607500Y-65354174D01*
X102607500Y-65485826D01*
X102630055Y-65570000D01*
X102257500Y-65570000D01*
X102257500Y-65903723D01*
X102290162Y-66067924D01*
X102290166Y-66067939D01*
X102354239Y-66222624D01*
X102447261Y-66361843D01*
X102565656Y-66480238D01*
X102704877Y-66573261D01*
X102859563Y-66637334D01*
X102957500Y-66656814D01*
X102957500Y-65897445D01*
X103041674Y-65920000D01*
X103173326Y-65920000D01*
X103257500Y-65897445D01*
X103257500Y-66656814D01*
X103355436Y-66637334D01*
X103355437Y-66637334D01*
X103510122Y-66573261D01*
X103649343Y-66480238D01*
X103767738Y-66361843D01*
X103860760Y-66222624D01*
X103924833Y-66067939D01*
X103924837Y-66067924D01*
X103957499Y-65903723D01*
X103957500Y-65903716D01*
X103957500Y-65570000D01*
X103584945Y-65570000D01*
X103607500Y-65485826D01*
X103607500Y-65354174D01*
X103584945Y-65270000D01*
X103957500Y-65270000D01*
X103957500Y-64936283D01*
X103957499Y-64936276D01*
X103924837Y-64772075D01*
X103924833Y-64772060D01*
X103860760Y-64617375D01*
X103767738Y-64478156D01*
X103649343Y-64359761D01*
X103542822Y-64288587D01*
X103510124Y-64266739D01*
X103470321Y-64250252D01*
X104697000Y-64250252D01*
X104697000Y-66589748D01*
X104708633Y-66648231D01*
X104718050Y-66662324D01*
X104752947Y-66714552D01*
X104779512Y-66732301D01*
X104819269Y-66758867D01*
X104877752Y-66770500D01*
X104877755Y-66770500D01*
X106417245Y-66770500D01*
X106417248Y-66770500D01*
X106475731Y-66758867D01*
X106542052Y-66714552D01*
X106586367Y-66648231D01*
X106598000Y-66589748D01*
X106598000Y-66456535D01*
X117749500Y-66456535D01*
X117749500Y-66663465D01*
X117776290Y-66798150D01*
X117789869Y-66866417D01*
X117789871Y-66866423D01*
X117866749Y-67052021D01*
X117869059Y-67057598D01*
X117984023Y-67229655D01*
X118130345Y-67375977D01*
X118302402Y-67490941D01*
X118493580Y-67570130D01*
X118696535Y-67610500D01*
X118696538Y-67610500D01*
X118903462Y-67610500D01*
X118903465Y-67610500D01*
X119106420Y-67570130D01*
X119297598Y-67490941D01*
X119469655Y-67375977D01*
X119615977Y-67229655D01*
X119730941Y-67057598D01*
X119810130Y-66866420D01*
X119850500Y-66663465D01*
X119850500Y-66456535D01*
X122949500Y-66456535D01*
X122949500Y-66663465D01*
X122976290Y-66798150D01*
X122989869Y-66866417D01*
X122989871Y-66866423D01*
X123066749Y-67052021D01*
X123069059Y-67057598D01*
X123184023Y-67229655D01*
X123330345Y-67375977D01*
X123502402Y-67490941D01*
X123693580Y-67570130D01*
X123896535Y-67610500D01*
X123896538Y-67610500D01*
X124103462Y-67610500D01*
X124103465Y-67610500D01*
X124306420Y-67570130D01*
X124497598Y-67490941D01*
X124669655Y-67375977D01*
X124815977Y-67229655D01*
X124930941Y-67057598D01*
X125010130Y-66866420D01*
X125050500Y-66663465D01*
X125050500Y-66456535D01*
X125010130Y-66253580D01*
X124930941Y-66062402D01*
X124815977Y-65890345D01*
X124669655Y-65744023D01*
X124643030Y-65726233D01*
X124545223Y-65660881D01*
X124497598Y-65629059D01*
X124497596Y-65629058D01*
X124306423Y-65549871D01*
X124306417Y-65549869D01*
X124224572Y-65533589D01*
X124103465Y-65509500D01*
X123896535Y-65509500D01*
X123795520Y-65529592D01*
X123693582Y-65549869D01*
X123693576Y-65549871D01*
X123502403Y-65629058D01*
X123330345Y-65744022D01*
X123184022Y-65890345D01*
X123069058Y-66062403D01*
X122989871Y-66253576D01*
X122989869Y-66253582D01*
X122984591Y-66280119D01*
X122949500Y-66456535D01*
X119850500Y-66456535D01*
X119810130Y-66253580D01*
X119730941Y-66062402D01*
X119615977Y-65890345D01*
X119469655Y-65744023D01*
X119443030Y-65726233D01*
X119345223Y-65660881D01*
X119297598Y-65629059D01*
X119297596Y-65629058D01*
X119106423Y-65549871D01*
X119106417Y-65549869D01*
X119024572Y-65533589D01*
X118903465Y-65509500D01*
X118696535Y-65509500D01*
X118595520Y-65529592D01*
X118493582Y-65549869D01*
X118493576Y-65549871D01*
X118302403Y-65629058D01*
X118130345Y-65744022D01*
X117984022Y-65890345D01*
X117869058Y-66062403D01*
X117789871Y-66253576D01*
X117789869Y-66253582D01*
X117784591Y-66280119D01*
X117749500Y-66456535D01*
X106598000Y-66456535D01*
X106598000Y-64250252D01*
X106586367Y-64191769D01*
X106551855Y-64140119D01*
X106542052Y-64125447D01*
X106489179Y-64090119D01*
X106475731Y-64081133D01*
X106417248Y-64069500D01*
X104877752Y-64069500D01*
X104819269Y-64081133D01*
X104752947Y-64125447D01*
X104718050Y-64177675D01*
X104708633Y-64191769D01*
X104697000Y-64250252D01*
X103470321Y-64250252D01*
X103355434Y-64202664D01*
X103355429Y-64202663D01*
X103257500Y-64183183D01*
X103257500Y-64942554D01*
X103173326Y-64920000D01*
X103041674Y-64920000D01*
X102957500Y-64942554D01*
X102957500Y-64183183D01*
X102957499Y-64183183D01*
X102859570Y-64202663D01*
X102859565Y-64202664D01*
X102704875Y-64266739D01*
X102565656Y-64359761D01*
X102447261Y-64478156D01*
X102354239Y-64617375D01*
X102290166Y-64772060D01*
X102290162Y-64772075D01*
X102257500Y-64936276D01*
X101518000Y-64936276D01*
X101518000Y-64926384D01*
X101481473Y-64742749D01*
X101459532Y-64689780D01*
X101409824Y-64569774D01*
X101409822Y-64569769D01*
X101305802Y-64414092D01*
X101173408Y-64281698D01*
X101017731Y-64177678D01*
X101017727Y-64177676D01*
X101017725Y-64177675D01*
X100844758Y-64106029D01*
X100844748Y-64106026D01*
X100764775Y-64090119D01*
X100661116Y-64069500D01*
X100473884Y-64069500D01*
X100382486Y-64087680D01*
X100290251Y-64106026D01*
X100290241Y-64106029D01*
X100117274Y-64177675D01*
X100117270Y-64177677D01*
X100117269Y-64177678D01*
X100083832Y-64200020D01*
X99961592Y-64281697D01*
X99829197Y-64414092D01*
X99757907Y-64520786D01*
X99728597Y-64564653D01*
X99725175Y-64569774D01*
X99653529Y-64742741D01*
X99653526Y-64742751D01*
X99635180Y-64834986D01*
X99617000Y-64926384D01*
X93918587Y-64926384D01*
X94340460Y-64504511D01*
X94369106Y-64454894D01*
X94380021Y-64435989D01*
X94400500Y-64359562D01*
X94400500Y-63916535D01*
X117749500Y-63916535D01*
X117749500Y-64123465D01*
X117771656Y-64234852D01*
X117789869Y-64326417D01*
X117789871Y-64326423D01*
X117863636Y-64504507D01*
X117869059Y-64517598D01*
X117984023Y-64689655D01*
X118130345Y-64835977D01*
X118302402Y-64950941D01*
X118493580Y-65030130D01*
X118696535Y-65070500D01*
X118696538Y-65070500D01*
X118903462Y-65070500D01*
X118903465Y-65070500D01*
X119106420Y-65030130D01*
X119297598Y-64950941D01*
X119469655Y-64835977D01*
X119615977Y-64689655D01*
X119730941Y-64517598D01*
X119810130Y-64326420D01*
X119850500Y-64123465D01*
X119850500Y-63916535D01*
X122949500Y-63916535D01*
X122949500Y-64123465D01*
X122971656Y-64234852D01*
X122989869Y-64326417D01*
X122989871Y-64326423D01*
X123063636Y-64504507D01*
X123069059Y-64517598D01*
X123184023Y-64689655D01*
X123330345Y-64835977D01*
X123502402Y-64950941D01*
X123693580Y-65030130D01*
X123896535Y-65070500D01*
X123896538Y-65070500D01*
X124103462Y-65070500D01*
X124103465Y-65070500D01*
X124306420Y-65030130D01*
X124497598Y-64950941D01*
X124669655Y-64835977D01*
X124815977Y-64689655D01*
X124930941Y-64517598D01*
X125010130Y-64326420D01*
X125050500Y-64123465D01*
X125050500Y-63916535D01*
X125010130Y-63713580D01*
X124930941Y-63522402D01*
X124815977Y-63350345D01*
X124669655Y-63204023D01*
X124666033Y-63201603D01*
X124584207Y-63146929D01*
X124497598Y-63089059D01*
X124497596Y-63089058D01*
X124306423Y-63009871D01*
X124306417Y-63009869D01*
X124224572Y-62993589D01*
X124103465Y-62969500D01*
X123896535Y-62969500D01*
X123795520Y-62989592D01*
X123693582Y-63009869D01*
X123693576Y-63009871D01*
X123502403Y-63089058D01*
X123330345Y-63204022D01*
X123184022Y-63350345D01*
X123069058Y-63522403D01*
X122989871Y-63713576D01*
X122989869Y-63713582D01*
X122973577Y-63795489D01*
X122949500Y-63916535D01*
X119850500Y-63916535D01*
X119810130Y-63713580D01*
X119730941Y-63522402D01*
X119615977Y-63350345D01*
X119469655Y-63204023D01*
X119466033Y-63201603D01*
X119384207Y-63146929D01*
X119297598Y-63089059D01*
X119297596Y-63089058D01*
X119106423Y-63009871D01*
X119106417Y-63009869D01*
X119024572Y-62993589D01*
X118903465Y-62969500D01*
X118696535Y-62969500D01*
X118595520Y-62989592D01*
X118493582Y-63009869D01*
X118493576Y-63009871D01*
X118302403Y-63089058D01*
X118130345Y-63204022D01*
X117984022Y-63350345D01*
X117869058Y-63522403D01*
X117789871Y-63713576D01*
X117789869Y-63713582D01*
X117773577Y-63795489D01*
X117749500Y-63916535D01*
X94400500Y-63916535D01*
X94400500Y-62330438D01*
X94400500Y-62330436D01*
X94391266Y-62295977D01*
X94380021Y-62254011D01*
X94380020Y-62254009D01*
X94380020Y-62254008D01*
X94340459Y-62185488D01*
X93531506Y-61376535D01*
X117749500Y-61376535D01*
X117749500Y-61583465D01*
X117766882Y-61670850D01*
X117789869Y-61786417D01*
X117789871Y-61786423D01*
X117860636Y-61957264D01*
X117869059Y-61977598D01*
X117899500Y-62023156D01*
X117970582Y-62129540D01*
X117984023Y-62149655D01*
X118130345Y-62295977D01*
X118302402Y-62410941D01*
X118493580Y-62490130D01*
X118696535Y-62530500D01*
X118696538Y-62530500D01*
X118903462Y-62530500D01*
X118903465Y-62530500D01*
X119106420Y-62490130D01*
X119297598Y-62410941D01*
X119469655Y-62295977D01*
X119615977Y-62149655D01*
X119730941Y-61977598D01*
X119810130Y-61786420D01*
X119850500Y-61583465D01*
X119850500Y-61376535D01*
X122949500Y-61376535D01*
X122949500Y-61583465D01*
X122966882Y-61670850D01*
X122989869Y-61786417D01*
X122989871Y-61786423D01*
X123060636Y-61957264D01*
X123069059Y-61977598D01*
X123099500Y-62023156D01*
X123170582Y-62129540D01*
X123184023Y-62149655D01*
X123330345Y-62295977D01*
X123502402Y-62410941D01*
X123693580Y-62490130D01*
X123896535Y-62530500D01*
X123896538Y-62530500D01*
X124103462Y-62530500D01*
X124103465Y-62530500D01*
X124306420Y-62490130D01*
X124497598Y-62410941D01*
X124669655Y-62295977D01*
X124815977Y-62149655D01*
X124930941Y-61977598D01*
X125010130Y-61786420D01*
X125050500Y-61583465D01*
X125050500Y-61376535D01*
X125010130Y-61173580D01*
X124930941Y-60982402D01*
X124815977Y-60810345D01*
X124669655Y-60664023D01*
X124497598Y-60549059D01*
X124497596Y-60549058D01*
X124306423Y-60469871D01*
X124306417Y-60469869D01*
X124224572Y-60453589D01*
X124103465Y-60429500D01*
X123896535Y-60429500D01*
X123795520Y-60449592D01*
X123693582Y-60469869D01*
X123693576Y-60469871D01*
X123502403Y-60549058D01*
X123330345Y-60664022D01*
X123184022Y-60810345D01*
X123069058Y-60982403D01*
X122989871Y-61173576D01*
X122989869Y-61173582D01*
X122974778Y-61249451D01*
X122949500Y-61376535D01*
X119850500Y-61376535D01*
X119810130Y-61173580D01*
X119730941Y-60982402D01*
X119615977Y-60810345D01*
X119469655Y-60664023D01*
X119297598Y-60549059D01*
X119297596Y-60549058D01*
X119106423Y-60469871D01*
X119106417Y-60469869D01*
X119024572Y-60453589D01*
X118903465Y-60429500D01*
X118696535Y-60429500D01*
X118595520Y-60449592D01*
X118493582Y-60469869D01*
X118493576Y-60469871D01*
X118302403Y-60549058D01*
X118130345Y-60664022D01*
X117984022Y-60810345D01*
X117869058Y-60982403D01*
X117789871Y-61173576D01*
X117789869Y-61173582D01*
X117774778Y-61249451D01*
X117749500Y-61376535D01*
X93531506Y-61376535D01*
X90914852Y-58759881D01*
X90900500Y-58725233D01*
X90900500Y-58100252D01*
X108799500Y-58100252D01*
X108799500Y-60139748D01*
X108811133Y-60198231D01*
X108828882Y-60224795D01*
X108855447Y-60264552D01*
X108882012Y-60282301D01*
X108921769Y-60308867D01*
X108980252Y-60320500D01*
X108980255Y-60320500D01*
X113019745Y-60320500D01*
X113019748Y-60320500D01*
X113078231Y-60308867D01*
X113144552Y-60264552D01*
X113188867Y-60198231D01*
X113200500Y-60139748D01*
X113200500Y-58836535D01*
X117749500Y-58836535D01*
X117749500Y-59043465D01*
X117789870Y-59246420D01*
X117869059Y-59437598D01*
X117984023Y-59609655D01*
X118130345Y-59755977D01*
X118302402Y-59870941D01*
X118493580Y-59950130D01*
X118696535Y-59990500D01*
X118696538Y-59990500D01*
X118903462Y-59990500D01*
X118903465Y-59990500D01*
X119106420Y-59950130D01*
X119297598Y-59870941D01*
X119469655Y-59755977D01*
X119615977Y-59609655D01*
X119730941Y-59437598D01*
X119810130Y-59246420D01*
X119850500Y-59043465D01*
X119850500Y-58836535D01*
X122949500Y-58836535D01*
X122949500Y-59043465D01*
X122989870Y-59246420D01*
X123069059Y-59437598D01*
X123184023Y-59609655D01*
X123330345Y-59755977D01*
X123502402Y-59870941D01*
X123693580Y-59950130D01*
X123896535Y-59990500D01*
X123896538Y-59990500D01*
X124103462Y-59990500D01*
X124103465Y-59990500D01*
X124306420Y-59950130D01*
X124497598Y-59870941D01*
X124669655Y-59755977D01*
X124815977Y-59609655D01*
X124930941Y-59437598D01*
X125010130Y-59246420D01*
X125050500Y-59043465D01*
X125050500Y-58836535D01*
X125010130Y-58633580D01*
X124930941Y-58442402D01*
X124815977Y-58270345D01*
X124669655Y-58124023D01*
X124634083Y-58100255D01*
X124546552Y-58041769D01*
X124497598Y-58009059D01*
X124497596Y-58009058D01*
X124306423Y-57929871D01*
X124306417Y-57929869D01*
X124224572Y-57913589D01*
X124103465Y-57889500D01*
X123896535Y-57889500D01*
X123795520Y-57909592D01*
X123693582Y-57929869D01*
X123693576Y-57929871D01*
X123502403Y-58009058D01*
X123330345Y-58124022D01*
X123184022Y-58270345D01*
X123069058Y-58442403D01*
X122989871Y-58633576D01*
X122989869Y-58633582D01*
X122974494Y-58710881D01*
X122949500Y-58836535D01*
X119850500Y-58836535D01*
X119810130Y-58633580D01*
X119730941Y-58442402D01*
X119615977Y-58270345D01*
X119469655Y-58124023D01*
X119434083Y-58100255D01*
X119346552Y-58041769D01*
X119297598Y-58009059D01*
X119297596Y-58009058D01*
X119106423Y-57929871D01*
X119106417Y-57929869D01*
X119024572Y-57913589D01*
X118903465Y-57889500D01*
X118696535Y-57889500D01*
X118595520Y-57909592D01*
X118493582Y-57929869D01*
X118493576Y-57929871D01*
X118302403Y-58009058D01*
X118130345Y-58124022D01*
X117984022Y-58270345D01*
X117869058Y-58442403D01*
X117789871Y-58633576D01*
X117789869Y-58633582D01*
X117774494Y-58710881D01*
X117749500Y-58836535D01*
X113200500Y-58836535D01*
X113200500Y-58100252D01*
X113188867Y-58041769D01*
X113162301Y-58002012D01*
X113144552Y-57975447D01*
X113104795Y-57948882D01*
X113078231Y-57931133D01*
X113019748Y-57919500D01*
X108980252Y-57919500D01*
X108921769Y-57931133D01*
X108855447Y-57975447D01*
X108823066Y-58023910D01*
X108811133Y-58041769D01*
X108799500Y-58100252D01*
X90900500Y-58100252D01*
X90900500Y-56504230D01*
X92054500Y-56504230D01*
X92054500Y-56655769D01*
X92093718Y-56802133D01*
X92093719Y-56802137D01*
X92148835Y-56897598D01*
X92169485Y-56933365D01*
X92276635Y-57040515D01*
X92324666Y-57068246D01*
X92407862Y-57116280D01*
X92407864Y-57116280D01*
X92407865Y-57116281D01*
X92523303Y-57147212D01*
X92554230Y-57155499D01*
X92554231Y-57155500D01*
X92554234Y-57155500D01*
X92705769Y-57155500D01*
X92705769Y-57155499D01*
X92852135Y-57116281D01*
X92983365Y-57040515D01*
X93090515Y-56933365D01*
X93166281Y-56802135D01*
X93205499Y-56655769D01*
X93205500Y-56655769D01*
X93205500Y-56504231D01*
X93205499Y-56504230D01*
X93166281Y-56357866D01*
X93166280Y-56357862D01*
X93143628Y-56318628D01*
X93130872Y-56296535D01*
X117749500Y-56296535D01*
X117749500Y-56503465D01*
X117776290Y-56638150D01*
X117789869Y-56706417D01*
X117789871Y-56706423D01*
X117837243Y-56820789D01*
X117869059Y-56897598D01*
X117984023Y-57069655D01*
X118130345Y-57215977D01*
X118302402Y-57330941D01*
X118493580Y-57410130D01*
X118696535Y-57450500D01*
X118696538Y-57450500D01*
X118903462Y-57450500D01*
X118903465Y-57450500D01*
X119106420Y-57410130D01*
X119297598Y-57330941D01*
X119469655Y-57215977D01*
X119615977Y-57069655D01*
X119730941Y-56897598D01*
X119810130Y-56706420D01*
X119850500Y-56503465D01*
X119850500Y-56296535D01*
X122949500Y-56296535D01*
X122949500Y-56503465D01*
X122976290Y-56638150D01*
X122989869Y-56706417D01*
X122989871Y-56706423D01*
X123037243Y-56820789D01*
X123069059Y-56897598D01*
X123184023Y-57069655D01*
X123330345Y-57215977D01*
X123502402Y-57330941D01*
X123693580Y-57410130D01*
X123896535Y-57450500D01*
X123896538Y-57450500D01*
X124103462Y-57450500D01*
X124103465Y-57450500D01*
X124306420Y-57410130D01*
X124497598Y-57330941D01*
X124669655Y-57215977D01*
X124815977Y-57069655D01*
X124930941Y-56897598D01*
X125010130Y-56706420D01*
X125050500Y-56503465D01*
X125050500Y-56296535D01*
X125010130Y-56093580D01*
X124930941Y-55902402D01*
X124815977Y-55730345D01*
X124669655Y-55584023D01*
X124595581Y-55534529D01*
X124513972Y-55480000D01*
X124497598Y-55469059D01*
X124488359Y-55465232D01*
X124306423Y-55389871D01*
X124306417Y-55389869D01*
X124224572Y-55373589D01*
X124103465Y-55349500D01*
X123896535Y-55349500D01*
X123795520Y-55369592D01*
X123693582Y-55389869D01*
X123693576Y-55389871D01*
X123502403Y-55469058D01*
X123330345Y-55584022D01*
X123184022Y-55730345D01*
X123069058Y-55902403D01*
X122989871Y-56093576D01*
X122989869Y-56093582D01*
X122989281Y-56096539D01*
X122949500Y-56296535D01*
X119850500Y-56296535D01*
X119810130Y-56093580D01*
X119730941Y-55902402D01*
X119615977Y-55730345D01*
X119469655Y-55584023D01*
X119395581Y-55534529D01*
X119313972Y-55480000D01*
X119297598Y-55469059D01*
X119288359Y-55465232D01*
X119106423Y-55389871D01*
X119106417Y-55389869D01*
X119024572Y-55373589D01*
X118903465Y-55349500D01*
X118696535Y-55349500D01*
X118595520Y-55369592D01*
X118493582Y-55389869D01*
X118493576Y-55389871D01*
X118302403Y-55469058D01*
X118130345Y-55584022D01*
X117984022Y-55730345D01*
X117869058Y-55902403D01*
X117789871Y-56093576D01*
X117789869Y-56093582D01*
X117789281Y-56096539D01*
X117749500Y-56296535D01*
X93130872Y-56296535D01*
X93090514Y-56226634D01*
X93024352Y-56160472D01*
X93010000Y-56125824D01*
X93010000Y-55833554D01*
X93018386Y-55841940D01*
X93110272Y-55880000D01*
X93209728Y-55880000D01*
X93301614Y-55841940D01*
X93310000Y-55833554D01*
X93310000Y-56107445D01*
X93352993Y-56095924D01*
X93352995Y-56095924D01*
X93467007Y-56030098D01*
X93467008Y-56030098D01*
X93560098Y-55937008D01*
X93560098Y-55937007D01*
X93625924Y-55822995D01*
X93625926Y-55822989D01*
X93660000Y-55695828D01*
X93660000Y-55480000D01*
X93410000Y-55480000D01*
X93410000Y-55180000D01*
X93660000Y-55180000D01*
X93660000Y-54964171D01*
X93625926Y-54837010D01*
X93625924Y-54837004D01*
X93560098Y-54722992D01*
X93467007Y-54629901D01*
X93352995Y-54564075D01*
X93352991Y-54564074D01*
X93310000Y-54552553D01*
X93310000Y-54826446D01*
X93301614Y-54818060D01*
X93209728Y-54780000D01*
X93110272Y-54780000D01*
X93018386Y-54818060D01*
X93010000Y-54826446D01*
X93010000Y-54552553D01*
X92967008Y-54564074D01*
X92967004Y-54564075D01*
X92852992Y-54629901D01*
X92852992Y-54629902D01*
X92759902Y-54722992D01*
X92759901Y-54722992D01*
X92694075Y-54837004D01*
X92694073Y-54837010D01*
X92660000Y-54964171D01*
X92660000Y-55180000D01*
X92910000Y-55180000D01*
X92910000Y-55480000D01*
X92660000Y-55480000D01*
X92660000Y-55695828D01*
X92694073Y-55822989D01*
X92694075Y-55822995D01*
X92756845Y-55931714D01*
X92761740Y-55968896D01*
X92738910Y-55998649D01*
X92708024Y-56004796D01*
X92705772Y-56004500D01*
X92705766Y-56004500D01*
X92554234Y-56004500D01*
X92554231Y-56004500D01*
X92407866Y-56043718D01*
X92407862Y-56043719D01*
X92276634Y-56119485D01*
X92276634Y-56119486D01*
X92169486Y-56226634D01*
X92169485Y-56226634D01*
X92093719Y-56357862D01*
X92093718Y-56357866D01*
X92054500Y-56504230D01*
X90900500Y-56504230D01*
X90900500Y-54423380D01*
X90890662Y-54386668D01*
X90880021Y-54346955D01*
X90880020Y-54346953D01*
X90880020Y-54346952D01*
X90849599Y-54294263D01*
X90840460Y-54278433D01*
X90784511Y-54222484D01*
X90464852Y-53902825D01*
X90450500Y-53868177D01*
X90450500Y-53804105D01*
X90450499Y-53804104D01*
X90417363Y-53680438D01*
X90416392Y-53676814D01*
X90416391Y-53676813D01*
X90416391Y-53676811D01*
X90350499Y-53562685D01*
X90257314Y-53469500D01*
X90143188Y-53403608D01*
X90143184Y-53403607D01*
X90015895Y-53369500D01*
X90015892Y-53369500D01*
X89884108Y-53369500D01*
X89884105Y-53369500D01*
X89756815Y-53403607D01*
X89756811Y-53403608D01*
X89642685Y-53469500D01*
X89642685Y-53469501D01*
X89549501Y-53562685D01*
X89549500Y-53562685D01*
X89483608Y-53676811D01*
X89483607Y-53676815D01*
X89449500Y-53804104D01*
X89449500Y-53935895D01*
X89483607Y-54063184D01*
X89483608Y-54063188D01*
X89549500Y-54177314D01*
X89631801Y-54259615D01*
X89646153Y-54294263D01*
X89631802Y-54328911D01*
X89578026Y-54382687D01*
X89512135Y-54496811D01*
X89512134Y-54496815D01*
X89478027Y-54624104D01*
X89478027Y-54755895D01*
X89488901Y-54796478D01*
X89484006Y-54833660D01*
X89476219Y-54843808D01*
X89015489Y-55304540D01*
X88959541Y-55360488D01*
X88959540Y-55360488D01*
X88919979Y-55429008D01*
X88919979Y-55429010D01*
X88899500Y-55505436D01*
X88899500Y-57647641D01*
X88885148Y-57682289D01*
X88878761Y-57687192D01*
X88878883Y-57687351D01*
X88876335Y-57689305D01*
X88783152Y-57782489D01*
X88783151Y-57782490D01*
X88717259Y-57896616D01*
X88717258Y-57896620D01*
X88683151Y-58023909D01*
X85028880Y-58023909D01*
X81969142Y-54964171D01*
X84400000Y-54964171D01*
X84400000Y-55180000D01*
X84650000Y-55180000D01*
X84650000Y-55480000D01*
X84400000Y-55480000D01*
X84400000Y-55695828D01*
X84434073Y-55822989D01*
X84434075Y-55822995D01*
X84499901Y-55937007D01*
X84592992Y-56030098D01*
X84595540Y-56032053D01*
X84594780Y-56033042D01*
X84614979Y-56059356D01*
X84610091Y-56096539D01*
X84608393Y-56099270D01*
X84548450Y-56188982D01*
X84486224Y-56339208D01*
X84486222Y-56339217D01*
X84454500Y-56498691D01*
X84454500Y-56661308D01*
X84486222Y-56820782D01*
X84486224Y-56820791D01*
X84548450Y-56971017D01*
X84548452Y-56971021D01*
X84638792Y-57106225D01*
X84753775Y-57221208D01*
X84888979Y-57311548D01*
X84927701Y-57327587D01*
X85039208Y-57373775D01*
X85039209Y-57373775D01*
X85039211Y-57373776D01*
X85198695Y-57405500D01*
X85661305Y-57405500D01*
X85820789Y-57373776D01*
X85971021Y-57311548D01*
X86106225Y-57221208D01*
X86221208Y-57106225D01*
X86311548Y-56971021D01*
X86373776Y-56820789D01*
X86405500Y-56661305D01*
X86405500Y-56498695D01*
X86373776Y-56339211D01*
X86311548Y-56188979D01*
X86221208Y-56053775D01*
X86106225Y-55938792D01*
X86103555Y-55937008D01*
X86018236Y-55880000D01*
X85971021Y-55848452D01*
X85971018Y-55848450D01*
X85971017Y-55848450D01*
X85820791Y-55786224D01*
X85820782Y-55786222D01*
X85661308Y-55754500D01*
X85661305Y-55754500D01*
X85448137Y-55754500D01*
X85413489Y-55740148D01*
X85399137Y-55705500D01*
X85399978Y-55699065D01*
X85399581Y-55699013D01*
X85400000Y-55695829D01*
X85400000Y-55480000D01*
X85150000Y-55480000D01*
X85150000Y-55180000D01*
X85400000Y-55180000D01*
X85400000Y-54964171D01*
X85365926Y-54837010D01*
X85365924Y-54837004D01*
X85300098Y-54722992D01*
X85207007Y-54629901D01*
X85092995Y-54564075D01*
X85092991Y-54564074D01*
X85050000Y-54552553D01*
X85050000Y-54826446D01*
X85041614Y-54818060D01*
X84949728Y-54780000D01*
X84850272Y-54780000D01*
X84758386Y-54818060D01*
X84750000Y-54826446D01*
X84750000Y-54552553D01*
X84707008Y-54564074D01*
X84707004Y-54564075D01*
X84592992Y-54629901D01*
X84592992Y-54629902D01*
X84499902Y-54722992D01*
X84499901Y-54722992D01*
X84434075Y-54837004D01*
X84434073Y-54837010D01*
X84400000Y-54964171D01*
X81969142Y-54964171D01*
X78280490Y-51275519D01*
X105299500Y-51275519D01*
X105299500Y-52964480D01*
X105329059Y-53151115D01*
X105329060Y-53151118D01*
X105387453Y-53330833D01*
X105473236Y-53499193D01*
X105473239Y-53499197D01*
X105473240Y-53499199D01*
X105584310Y-53652073D01*
X105584312Y-53652075D01*
X105584315Y-53652079D01*
X105717920Y-53785684D01*
X105717923Y-53785686D01*
X105717927Y-53785690D01*
X105870801Y-53896760D01*
X105870803Y-53896761D01*
X105870806Y-53896763D01*
X105947602Y-53935892D01*
X106039168Y-53982547D01*
X106218882Y-54040940D01*
X106405519Y-54070500D01*
X106405520Y-54070500D01*
X106594480Y-54070500D01*
X106594481Y-54070500D01*
X106781118Y-54040940D01*
X106960832Y-53982547D01*
X107129199Y-53896760D01*
X107282073Y-53785690D01*
X107415690Y-53652073D01*
X107526760Y-53499199D01*
X107612547Y-53330832D01*
X107670940Y-53151118D01*
X107699626Y-52969999D01*
X109260045Y-52969999D01*
X109260046Y-52970000D01*
X109872555Y-52970000D01*
X109850000Y-53054174D01*
X109850000Y-53185826D01*
X109872555Y-53270000D01*
X109260046Y-53270000D01*
X109277085Y-53377581D01*
X109277086Y-53377584D01*
X109330589Y-53542251D01*
X109409197Y-53696527D01*
X109409199Y-53696530D01*
X109510968Y-53836603D01*
X109510972Y-53836608D01*
X109633392Y-53959028D01*
X109633396Y-53959031D01*
X109773469Y-54060800D01*
X109773472Y-54060802D01*
X109927748Y-54139410D01*
X110092415Y-54192913D01*
X110092418Y-54192914D01*
X110263429Y-54220000D01*
X110850000Y-54220000D01*
X110850000Y-53620000D01*
X111150000Y-53620000D01*
X111150000Y-54220000D01*
X111736571Y-54220000D01*
X111907581Y-54192914D01*
X111907584Y-54192913D01*
X112072251Y-54139410D01*
X112226527Y-54060802D01*
X112226530Y-54060800D01*
X112366603Y-53959031D01*
X112366608Y-53959028D01*
X112489028Y-53836608D01*
X112489031Y-53836603D01*
X112590800Y-53696530D01*
X112590802Y-53696527D01*
X112669410Y-53542251D01*
X112722913Y-53377584D01*
X112722914Y-53377581D01*
X112739954Y-53270000D01*
X112127445Y-53270000D01*
X112150000Y-53185826D01*
X112150000Y-53054174D01*
X112127445Y-52970000D01*
X112739954Y-52970000D01*
X112739954Y-52969999D01*
X112722914Y-52862418D01*
X112722913Y-52862415D01*
X112669410Y-52697748D01*
X112590802Y-52543472D01*
X112590800Y-52543469D01*
X112489031Y-52403396D01*
X112489028Y-52403392D01*
X112366608Y-52280972D01*
X112366603Y-52280968D01*
X112226530Y-52179199D01*
X112226527Y-52179197D01*
X112072251Y-52100589D01*
X111907584Y-52047086D01*
X111907581Y-52047085D01*
X111736571Y-52020000D01*
X111150000Y-52020000D01*
X111150000Y-52620000D01*
X110850000Y-52620000D01*
X110850000Y-52020000D01*
X110263429Y-52020000D01*
X110092418Y-52047085D01*
X110092415Y-52047086D01*
X109927748Y-52100589D01*
X109773472Y-52179197D01*
X109773469Y-52179199D01*
X109633396Y-52280968D01*
X109510968Y-52403396D01*
X109409199Y-52543469D01*
X109409197Y-52543472D01*
X109330589Y-52697748D01*
X109277086Y-52862415D01*
X109277085Y-52862418D01*
X109260045Y-52969999D01*
X107699626Y-52969999D01*
X107700500Y-52964481D01*
X107700500Y-51275519D01*
X114299500Y-51275519D01*
X114299500Y-52964480D01*
X114329059Y-53151115D01*
X114329060Y-53151118D01*
X114387453Y-53330833D01*
X114473236Y-53499193D01*
X114473239Y-53499197D01*
X114473240Y-53499199D01*
X114584310Y-53652073D01*
X114584312Y-53652075D01*
X114584315Y-53652079D01*
X114717920Y-53785684D01*
X114717923Y-53785686D01*
X114717927Y-53785690D01*
X114870801Y-53896760D01*
X114870803Y-53896761D01*
X114870806Y-53896763D01*
X114947602Y-53935892D01*
X115039168Y-53982547D01*
X115218882Y-54040940D01*
X115405519Y-54070500D01*
X115405520Y-54070500D01*
X115594480Y-54070500D01*
X115594481Y-54070500D01*
X115781118Y-54040940D01*
X115960832Y-53982547D01*
X116129199Y-53896760D01*
X116282073Y-53785690D01*
X116311228Y-53756535D01*
X117749500Y-53756535D01*
X117749500Y-53963465D01*
X117776290Y-54098150D01*
X117789869Y-54166417D01*
X117789871Y-54166423D01*
X117869058Y-54357596D01*
X117962079Y-54496814D01*
X117984023Y-54529655D01*
X118130345Y-54675977D01*
X118302402Y-54790941D01*
X118493580Y-54870130D01*
X118696535Y-54910500D01*
X118696538Y-54910500D01*
X118903462Y-54910500D01*
X118903465Y-54910500D01*
X119106420Y-54870130D01*
X119297598Y-54790941D01*
X119469655Y-54675977D01*
X119615977Y-54529655D01*
X119730941Y-54357598D01*
X119810130Y-54166420D01*
X119850500Y-53963465D01*
X119850500Y-53756535D01*
X122949500Y-53756535D01*
X122949500Y-53963465D01*
X122976290Y-54098150D01*
X122989869Y-54166417D01*
X122989871Y-54166423D01*
X123069058Y-54357596D01*
X123162079Y-54496814D01*
X123184023Y-54529655D01*
X123330345Y-54675977D01*
X123502402Y-54790941D01*
X123693580Y-54870130D01*
X123896535Y-54910500D01*
X123896538Y-54910500D01*
X124103462Y-54910500D01*
X124103465Y-54910500D01*
X124306420Y-54870130D01*
X124497598Y-54790941D01*
X124669655Y-54675977D01*
X124815977Y-54529655D01*
X124930941Y-54357598D01*
X125010130Y-54166420D01*
X125050500Y-53963465D01*
X125050500Y-53756535D01*
X125010130Y-53553580D01*
X124930941Y-53362402D01*
X124815977Y-53190345D01*
X124669655Y-53044023D01*
X124661043Y-53038269D01*
X124550611Y-52964481D01*
X124497598Y-52929059D01*
X124365242Y-52874235D01*
X124306423Y-52849871D01*
X124306417Y-52849869D01*
X124224572Y-52833589D01*
X124103465Y-52809500D01*
X123896535Y-52809500D01*
X123795520Y-52829592D01*
X123693582Y-52849869D01*
X123693576Y-52849871D01*
X123502403Y-52929058D01*
X123330345Y-53044022D01*
X123184022Y-53190345D01*
X123069058Y-53362403D01*
X122989871Y-53553576D01*
X122989869Y-53553582D01*
X122976658Y-53620000D01*
X122949500Y-53756535D01*
X119850500Y-53756535D01*
X119810130Y-53553580D01*
X119730941Y-53362402D01*
X119615977Y-53190345D01*
X119469655Y-53044023D01*
X119461043Y-53038269D01*
X119350611Y-52964481D01*
X119297598Y-52929059D01*
X119165242Y-52874235D01*
X119106423Y-52849871D01*
X119106417Y-52849869D01*
X119024572Y-52833589D01*
X118903465Y-52809500D01*
X118696535Y-52809500D01*
X118595520Y-52829592D01*
X118493582Y-52849869D01*
X118493576Y-52849871D01*
X118302403Y-52929058D01*
X118130345Y-53044022D01*
X117984022Y-53190345D01*
X117869058Y-53362403D01*
X117789871Y-53553576D01*
X117789869Y-53553582D01*
X117776658Y-53620000D01*
X117749500Y-53756535D01*
X116311228Y-53756535D01*
X116348284Y-53719480D01*
X116415684Y-53652079D01*
X116415690Y-53652073D01*
X116526760Y-53499199D01*
X116612547Y-53330832D01*
X116670940Y-53151118D01*
X116700500Y-52964481D01*
X116700500Y-51275519D01*
X116670940Y-51088882D01*
X116612547Y-50909168D01*
X116553866Y-50794000D01*
X116526763Y-50740806D01*
X116526761Y-50740803D01*
X116526760Y-50740801D01*
X116415690Y-50587927D01*
X116415686Y-50587923D01*
X116415684Y-50587920D01*
X116282079Y-50454315D01*
X116282080Y-50454315D01*
X116276488Y-50450252D01*
X117749500Y-50450252D01*
X117749500Y-52189748D01*
X117761133Y-52248231D01*
X117778882Y-52274795D01*
X117805447Y-52314552D01*
X117832012Y-52332301D01*
X117871769Y-52358867D01*
X117930252Y-52370500D01*
X117930255Y-52370500D01*
X119669745Y-52370500D01*
X119669748Y-52370500D01*
X119728231Y-52358867D01*
X119794552Y-52314552D01*
X119838867Y-52248231D01*
X119850500Y-52189748D01*
X119850500Y-50450252D01*
X122949500Y-50450252D01*
X122949500Y-52189748D01*
X122961133Y-52248231D01*
X122978882Y-52274795D01*
X123005447Y-52314552D01*
X123032012Y-52332301D01*
X123071769Y-52358867D01*
X123130252Y-52370500D01*
X123130255Y-52370500D01*
X124869745Y-52370500D01*
X124869748Y-52370500D01*
X124928231Y-52358867D01*
X124994552Y-52314552D01*
X125038867Y-52248231D01*
X125050500Y-52189748D01*
X125050500Y-50450252D01*
X125038867Y-50391769D01*
X125012301Y-50352012D01*
X124994552Y-50325447D01*
X124954795Y-50298882D01*
X124928231Y-50281133D01*
X124869748Y-50269500D01*
X123130252Y-50269500D01*
X123071769Y-50281133D01*
X123005447Y-50325447D01*
X122961133Y-50391769D01*
X122949500Y-50450252D01*
X119850500Y-50450252D01*
X119838867Y-50391769D01*
X119812301Y-50352012D01*
X119794552Y-50325447D01*
X119754795Y-50298882D01*
X119728231Y-50281133D01*
X119669748Y-50269500D01*
X117930252Y-50269500D01*
X117871769Y-50281133D01*
X117805447Y-50325447D01*
X117761133Y-50391769D01*
X117749500Y-50450252D01*
X116276488Y-50450252D01*
X116129193Y-50343236D01*
X115960833Y-50257453D01*
X115781118Y-50199060D01*
X115781115Y-50199059D01*
X115637744Y-50176352D01*
X115594481Y-50169500D01*
X115405519Y-50169500D01*
X115370397Y-50175062D01*
X115218884Y-50199059D01*
X115218881Y-50199060D01*
X115039166Y-50257453D01*
X114870806Y-50343236D01*
X114717920Y-50454315D01*
X114584315Y-50587920D01*
X114473236Y-50740806D01*
X114387453Y-50909166D01*
X114329060Y-51088881D01*
X114329059Y-51088884D01*
X114299500Y-51275519D01*
X107700500Y-51275519D01*
X107670940Y-51088882D01*
X107612547Y-50909168D01*
X107553866Y-50794000D01*
X107526763Y-50740806D01*
X107526761Y-50740803D01*
X107526760Y-50740801D01*
X107415690Y-50587927D01*
X107415686Y-50587923D01*
X107415684Y-50587920D01*
X107282079Y-50454315D01*
X107282080Y-50454315D01*
X107129193Y-50343236D01*
X106960833Y-50257453D01*
X106781118Y-50199060D01*
X106781115Y-50199059D01*
X106637744Y-50176352D01*
X106594481Y-50169500D01*
X106405519Y-50169500D01*
X106370397Y-50175062D01*
X106218884Y-50199059D01*
X106218881Y-50199060D01*
X106039166Y-50257453D01*
X105870806Y-50343236D01*
X105717920Y-50454315D01*
X105584315Y-50587920D01*
X105473236Y-50740806D01*
X105387453Y-50909166D01*
X105329060Y-51088881D01*
X105329059Y-51088884D01*
X105299500Y-51275519D01*
X78280490Y-51275519D01*
X77184513Y-50179542D01*
X77184507Y-50179537D01*
X77173722Y-50173311D01*
X77167121Y-50169500D01*
X77160449Y-50165648D01*
X77115991Y-50139979D01*
X77115987Y-50139978D01*
X77039564Y-50119500D01*
X77039562Y-50119500D01*
X68760438Y-50119500D01*
X68760436Y-50119500D01*
X68684012Y-50139978D01*
X68684008Y-50139979D01*
X68632879Y-50169500D01*
X68628531Y-50172010D01*
X68615492Y-50179537D01*
X68615486Y-50179542D01*
X68289880Y-50505148D01*
X68255232Y-50519500D01*
X68134105Y-50519500D01*
X68006815Y-50553607D01*
X68006811Y-50553608D01*
X67892685Y-50619500D01*
X67892685Y-50619501D01*
X67799501Y-50712685D01*
X67799500Y-50712685D01*
X67733608Y-50826811D01*
X67733607Y-50826815D01*
X67699500Y-50954104D01*
X67699500Y-51085895D01*
X67733607Y-51213184D01*
X67733608Y-51213188D01*
X67769596Y-51275519D01*
X67799500Y-51327314D01*
X67892686Y-51420500D01*
X67899500Y-51424434D01*
X68006811Y-51486391D01*
X68006813Y-51486391D01*
X68006814Y-51486392D01*
X68107207Y-51513292D01*
X68134104Y-51520499D01*
X68134105Y-51520500D01*
X68134108Y-51520500D01*
X68265895Y-51520500D01*
X68265895Y-51520499D01*
X68393186Y-51486392D01*
X68507314Y-51420500D01*
X68600500Y-51327314D01*
X68666392Y-51213186D01*
X68700499Y-51085895D01*
X68700500Y-51085895D01*
X68700500Y-50964766D01*
X68714852Y-50930118D01*
X68910119Y-50734852D01*
X68944767Y-50720500D01*
X70710118Y-50720500D01*
X70744766Y-50734852D01*
X70759118Y-50769500D01*
X70752553Y-50794000D01*
X70733608Y-50826811D01*
X70733607Y-50826815D01*
X70699500Y-50954104D01*
X70699500Y-51085895D01*
X70733607Y-51213184D01*
X70733608Y-51213188D01*
X70799500Y-51327314D01*
X70885148Y-51412962D01*
X70899500Y-51447610D01*
X70899500Y-52711033D01*
X70919978Y-52787457D01*
X70919979Y-52787461D01*
X70935415Y-52814195D01*
X70959540Y-52855981D01*
X79091890Y-60988331D01*
X79106242Y-61022979D01*
X79091890Y-61057627D01*
X79069925Y-61070309D01*
X78995048Y-61090373D01*
X78995046Y-61090373D01*
X78880920Y-61156265D01*
X78880920Y-61156266D01*
X78787736Y-61249450D01*
X78787735Y-61249450D01*
X78721843Y-61363576D01*
X78721842Y-61363580D01*
X78687735Y-61490869D01*
X78687735Y-61622660D01*
X78721842Y-61749949D01*
X78721843Y-61749953D01*
X78787735Y-61864079D01*
X78880921Y-61957265D01*
X78906479Y-61972021D01*
X78995046Y-62023156D01*
X78995048Y-62023156D01*
X78995049Y-62023157D01*
X79095442Y-62050057D01*
X79122339Y-62057264D01*
X79122340Y-62057265D01*
X79122343Y-62057265D01*
X79191998Y-62057265D01*
X79226646Y-62071617D01*
X80302663Y-63147634D01*
X80305196Y-63153749D01*
X80310450Y-63157781D01*
X80312120Y-63170465D01*
X80317015Y-63182282D01*
X80315346Y-63194963D01*
X80313567Y-63201603D01*
X80290737Y-63231357D01*
X80253555Y-63236253D01*
X80253553Y-63236251D01*
X80191036Y-63219500D01*
X80191033Y-63219500D01*
X76344767Y-63219500D01*
X76310119Y-63205148D01*
X64214852Y-51109881D01*
X64200500Y-51075233D01*
X64200500Y-50954105D01*
X64200499Y-50954104D01*
X64166392Y-50826815D01*
X64166391Y-50826811D01*
X64116732Y-50740801D01*
X64100500Y-50712686D01*
X64007314Y-50619500D01*
X64004016Y-50617596D01*
X63893188Y-50553608D01*
X63893184Y-50553607D01*
X63765895Y-50519500D01*
X63765892Y-50519500D01*
X63634108Y-50519500D01*
X63634105Y-50519500D01*
X63506815Y-50553607D01*
X63506811Y-50553608D01*
X63392685Y-50619500D01*
X63392685Y-50619501D01*
X63299501Y-50712685D01*
X63299500Y-50712685D01*
X63233608Y-50826811D01*
X63233607Y-50826815D01*
X63199500Y-50954104D01*
X63199500Y-51085895D01*
X63233607Y-51213184D01*
X63233608Y-51213188D01*
X63269596Y-51275519D01*
X63299500Y-51327314D01*
X63392686Y-51420500D01*
X63399500Y-51424434D01*
X63506811Y-51486391D01*
X63506813Y-51486391D01*
X63506814Y-51486392D01*
X63607207Y-51513292D01*
X63634104Y-51520499D01*
X63634105Y-51520500D01*
X63755233Y-51520500D01*
X63789881Y-51534852D01*
X75790881Y-63535852D01*
X75805233Y-63570500D01*
X75790881Y-63605148D01*
X75756233Y-63619500D01*
X75244767Y-63619500D01*
X75210119Y-63605148D01*
X62714852Y-51109881D01*
X62700500Y-51075233D01*
X62700500Y-50954105D01*
X62700499Y-50954104D01*
X62666392Y-50826815D01*
X62666391Y-50826811D01*
X62616732Y-50740801D01*
X62600500Y-50712686D01*
X62507314Y-50619500D01*
X62504016Y-50617596D01*
X62393188Y-50553608D01*
X62393184Y-50553607D01*
X62265895Y-50519500D01*
X62265892Y-50519500D01*
X62134108Y-50519500D01*
X62134105Y-50519500D01*
X62006815Y-50553607D01*
X62006811Y-50553608D01*
X61892685Y-50619500D01*
X61892685Y-50619501D01*
X61799501Y-50712685D01*
X61799500Y-50712685D01*
X61733608Y-50826811D01*
X61733607Y-50826815D01*
X61699500Y-50954104D01*
X61699500Y-51085895D01*
X61733607Y-51213184D01*
X61733608Y-51213188D01*
X61769596Y-51275519D01*
X61799500Y-51327314D01*
X61892686Y-51420500D01*
X61899500Y-51424434D01*
X62006811Y-51486391D01*
X62006813Y-51486391D01*
X62006814Y-51486392D01*
X62107207Y-51513292D01*
X62134104Y-51520499D01*
X62134105Y-51520500D01*
X62255233Y-51520500D01*
X62289881Y-51534852D01*
X74859540Y-64104511D01*
X74915489Y-64160460D01*
X74984011Y-64200021D01*
X75019478Y-64209524D01*
X75060436Y-64220500D01*
X75060438Y-64220500D01*
X79555233Y-64220500D01*
X79589881Y-64234852D01*
X85991851Y-70636822D01*
X86006203Y-70671470D01*
X85991851Y-70706118D01*
X85969886Y-70718800D01*
X85933285Y-70728608D01*
X85933283Y-70728608D01*
X85819157Y-70794500D01*
X85819157Y-70794501D01*
X85725973Y-70887685D01*
X85725972Y-70887685D01*
X85721748Y-70895002D01*
X85691994Y-70917831D01*
X85679314Y-70919500D01*
X71135435Y-70919500D01*
X71059013Y-70939977D01*
X71059010Y-70939978D01*
X70990488Y-70979540D01*
X66564880Y-75405148D01*
X66530232Y-75419500D01*
X66409105Y-75419500D01*
X66281815Y-75453607D01*
X66281811Y-75453608D01*
X66167685Y-75519500D01*
X66167685Y-75519501D01*
X66074501Y-75612685D01*
X66074500Y-75612685D01*
X66008608Y-75726811D01*
X66008607Y-75726815D01*
X65974500Y-75854104D01*
X65974500Y-75985895D01*
X66008607Y-76113184D01*
X66008608Y-76113188D01*
X66064572Y-76210119D01*
X66074500Y-76227314D01*
X66167686Y-76320500D01*
X66204208Y-76341586D01*
X66281811Y-76386391D01*
X66281813Y-76386391D01*
X66281814Y-76386392D01*
X66332048Y-76399852D01*
X66409104Y-76420499D01*
X66409105Y-76420500D01*
X66409108Y-76420500D01*
X66540895Y-76420500D01*
X66540895Y-76420499D01*
X66668186Y-76386392D01*
X66782314Y-76320500D01*
X66875500Y-76227314D01*
X66941392Y-76113186D01*
X66975499Y-75985895D01*
X66975500Y-75985895D01*
X66975500Y-75864766D01*
X66989852Y-75830118D01*
X71285119Y-71534852D01*
X71319767Y-71520500D01*
X85723862Y-71520500D01*
X85758510Y-71534852D01*
X85819158Y-71595500D01*
X85860929Y-71619617D01*
X85933283Y-71661391D01*
X85933285Y-71661391D01*
X85933286Y-71661392D01*
X86033679Y-71688292D01*
X86060576Y-71695499D01*
X86060577Y-71695500D01*
X86060580Y-71695500D01*
X86192367Y-71695500D01*
X86192367Y-71695499D01*
X86319658Y-71661392D01*
X86433786Y-71595500D01*
X86526972Y-71502314D01*
X86592864Y-71388186D01*
X86602671Y-71351582D01*
X86625499Y-71321833D01*
X86662681Y-71316936D01*
X86684648Y-71329619D01*
X89934540Y-74579511D01*
X89990489Y-74635460D01*
X90059011Y-74675021D01*
X90094478Y-74684524D01*
X90135436Y-74695500D01*
X90135438Y-74695500D01*
X91890143Y-74695500D01*
X91924791Y-74709852D01*
X91939143Y-74744500D01*
X91932578Y-74769000D01*
X91913633Y-74801811D01*
X91913632Y-74801815D01*
X91879525Y-74929104D01*
X91879525Y-75060895D01*
X91913632Y-75188184D01*
X91913633Y-75188188D01*
X91964760Y-75276740D01*
X91979525Y-75302314D01*
X92072711Y-75395500D01*
X92089422Y-75405148D01*
X92186836Y-75461391D01*
X92186838Y-75461391D01*
X92186839Y-75461392D01*
X92280137Y-75486391D01*
X92314129Y-75495499D01*
X92314130Y-75495500D01*
X92314133Y-75495500D01*
X92445920Y-75495500D01*
X92445920Y-75495499D01*
X92573211Y-75461392D01*
X92687339Y-75395500D01*
X92722987Y-75359852D01*
X92757635Y-75345500D01*
X93987340Y-75345500D01*
X94021988Y-75359852D01*
X94082636Y-75420500D01*
X94124407Y-75444617D01*
X94196761Y-75486391D01*
X94196763Y-75486391D01*
X94196764Y-75486392D01*
X94297157Y-75513292D01*
X94324054Y-75520499D01*
X94324055Y-75520500D01*
X94324058Y-75520500D01*
X94455845Y-75520500D01*
X94455845Y-75520499D01*
X94583136Y-75486392D01*
X94697264Y-75420500D01*
X94790450Y-75327314D01*
X94856342Y-75213186D01*
X94890449Y-75085895D01*
X94890450Y-75085895D01*
X94890450Y-74954105D01*
X94890449Y-74954104D01*
X94856342Y-74826815D01*
X94856341Y-74826811D01*
X94822963Y-74769000D01*
X94818068Y-74731818D01*
X94840898Y-74702065D01*
X94865398Y-74695500D01*
X114530233Y-74695500D01*
X114564881Y-74709852D01*
X116825489Y-76970460D01*
X116844431Y-76981396D01*
X116887731Y-77006396D01*
X116894012Y-77010022D01*
X116907321Y-77013588D01*
X116943079Y-77023170D01*
X116972832Y-77046000D01*
X116977727Y-77083182D01*
X116954897Y-77112935D01*
X116930397Y-77119500D01*
X68627610Y-77119500D01*
X68592962Y-77105148D01*
X68507314Y-77019500D01*
X68393188Y-76953608D01*
X68393184Y-76953607D01*
X68265895Y-76919500D01*
X68265892Y-76919500D01*
X68134108Y-76919500D01*
X68134105Y-76919500D01*
X68006815Y-76953607D01*
X68006811Y-76953608D01*
X67892685Y-77019500D01*
X67892685Y-77019501D01*
X67799501Y-77112685D01*
X67799500Y-77112685D01*
X67733608Y-77226811D01*
X67733607Y-77226815D01*
X67699500Y-77354104D01*
X67699500Y-77485895D01*
X67733607Y-77613184D01*
X67733608Y-77613188D01*
X67788992Y-77709114D01*
X67799500Y-77727314D01*
X67892686Y-77820500D01*
X67903624Y-77826815D01*
X68006811Y-77886391D01*
X68006813Y-77886391D01*
X68006814Y-77886392D01*
X68107207Y-77913292D01*
X68134104Y-77920499D01*
X68134105Y-77920500D01*
X68134108Y-77920500D01*
X68265895Y-77920500D01*
X68265895Y-77920499D01*
X68393186Y-77886392D01*
X68507314Y-77820500D01*
X68592962Y-77734852D01*
X68627610Y-77720500D01*
X69210118Y-77720500D01*
X69244766Y-77734852D01*
X69259118Y-77769500D01*
X69252553Y-77794000D01*
X69233608Y-77826811D01*
X69233607Y-77826815D01*
X69199500Y-77954104D01*
X69199500Y-78085895D01*
X69233607Y-78213184D01*
X69233608Y-78213188D01*
X69295265Y-78319979D01*
X69299500Y-78327314D01*
X69392686Y-78420500D01*
X69425072Y-78439198D01*
X69506811Y-78486391D01*
X69506813Y-78486391D01*
X69506814Y-78486392D01*
X69607207Y-78513292D01*
X69634104Y-78520499D01*
X69634105Y-78520500D01*
X69634108Y-78520500D01*
X69765895Y-78520500D01*
X69765895Y-78520499D01*
X69893186Y-78486392D01*
X69899784Y-78482583D01*
X69925485Y-78467744D01*
X70007314Y-78420500D01*
X70092962Y-78334852D01*
X70127610Y-78320500D01*
X75118121Y-78320500D01*
X75152769Y-78334852D01*
X75167121Y-78369500D01*
X75152769Y-78404148D01*
X75140035Y-78413327D01*
X75001523Y-78482583D01*
X74807283Y-78609720D01*
X74629053Y-78758466D01*
X74469226Y-78926822D01*
X74469220Y-78926829D01*
X74400739Y-79018180D01*
X74398346Y-79021126D01*
X74300263Y-79132782D01*
X74294847Y-79138064D01*
X74182185Y-79232089D01*
X74176020Y-79236473D01*
X74050248Y-79312023D01*
X74043481Y-79315407D01*
X73907559Y-79370703D01*
X73900352Y-79373004D01*
X73757553Y-79406714D01*
X73750078Y-79407879D01*
X73608193Y-79418865D01*
X73602403Y-79419314D01*
X73601886Y-79419354D01*
X73598103Y-79419500D01*
X56502145Y-79419500D01*
X56497874Y-79419314D01*
X56330704Y-79404688D01*
X56322293Y-79403204D01*
X56162292Y-79360332D01*
X56154266Y-79357411D01*
X56007781Y-79289104D01*
X56004130Y-79287401D01*
X55996740Y-79283134D01*
X55861046Y-79188120D01*
X55854503Y-79182630D01*
X55737369Y-79065496D01*
X55731879Y-79058953D01*
X55725607Y-79049996D01*
X55636863Y-78923256D01*
X55632600Y-78915873D01*
X55562587Y-78765731D01*
X55559667Y-78757707D01*
X55558569Y-78753608D01*
X55516793Y-78597699D01*
X55515312Y-78589301D01*
X55502180Y-78439198D01*
X55500686Y-78422124D01*
X55500500Y-78417854D01*
X55500500Y-78229000D01*
X55514852Y-78194352D01*
X55549500Y-78180000D01*
X61100000Y-78180000D01*
X61100000Y-50180000D01*
X55549500Y-50180000D01*
X55514852Y-50165648D01*
X55500500Y-50131000D01*
X55500500Y-49922145D01*
X55500686Y-49917875D01*
X55502955Y-49891940D01*
X55515312Y-49750696D01*
X55516793Y-49742302D01*
X55559668Y-49582287D01*
X55562585Y-49574272D01*
X55632602Y-49424121D01*
X55636859Y-49416748D01*
X55731884Y-49281039D01*
X55737363Y-49274509D01*
X55854509Y-49157363D01*
X55861039Y-49151884D01*
X55996748Y-49056859D01*
X56004121Y-49052602D01*
X56154272Y-48982585D01*
X56162287Y-48979668D01*
X56322302Y-48936793D01*
X56330696Y-48935312D01*
X56481683Y-48922102D01*
X56497875Y-48920686D01*
X56502145Y-48920500D01*
X56565892Y-48920500D01*
X84001242Y-48920500D01*
X84035890Y-48934852D01*
G37*
%TD.AperFunction*%
%TA.AperFunction,Conductor*%
G36*
X81035140Y-63786552D02*
G01*
X81039253Y-63787001D01*
X81042130Y-63790582D01*
X81050352Y-63795323D01*
X88159540Y-70904511D01*
X88215489Y-70960460D01*
X88284011Y-71000021D01*
X88319478Y-71009524D01*
X88360436Y-71020500D01*
X88360438Y-71020500D01*
X88439562Y-71020500D01*
X94602883Y-71020500D01*
X94637531Y-71034852D01*
X94645318Y-71045000D01*
X94691897Y-71125677D01*
X94785083Y-71218863D01*
X94814422Y-71235802D01*
X94899208Y-71284754D01*
X94899210Y-71284754D01*
X94899211Y-71284755D01*
X94999604Y-71311655D01*
X95026501Y-71318862D01*
X95026502Y-71318863D01*
X95026505Y-71318863D01*
X95158292Y-71318863D01*
X95158292Y-71318862D01*
X95285583Y-71284755D01*
X95399711Y-71218863D01*
X95492897Y-71125677D01*
X95558789Y-71011549D01*
X95592896Y-70884258D01*
X95592897Y-70884258D01*
X95592897Y-70752468D01*
X95592896Y-70752467D01*
X95580477Y-70706118D01*
X95558789Y-70625177D01*
X95558788Y-70625176D01*
X95558788Y-70625174D01*
X95492896Y-70511048D01*
X95399711Y-70417863D01*
X95285585Y-70351971D01*
X95285581Y-70351970D01*
X95158292Y-70317863D01*
X95158289Y-70317863D01*
X95026505Y-70317863D01*
X95026502Y-70317863D01*
X94899212Y-70351970D01*
X94899208Y-70351971D01*
X94793619Y-70412935D01*
X94769119Y-70419500D01*
X93689882Y-70419500D01*
X93655234Y-70405148D01*
X93640882Y-70370500D01*
X93647447Y-70346000D01*
X93666391Y-70313188D01*
X93666391Y-70313187D01*
X93666392Y-70313186D01*
X93700499Y-70185895D01*
X93700500Y-70185895D01*
X93700500Y-70054105D01*
X93700499Y-70054104D01*
X93666392Y-69926815D01*
X93666391Y-69926811D01*
X93600499Y-69812685D01*
X93514852Y-69727038D01*
X93500500Y-69692390D01*
X93500500Y-67780436D01*
X93492821Y-67751781D01*
X93485143Y-67723125D01*
X93485142Y-67723123D01*
X93482784Y-67714320D01*
X93480022Y-67704012D01*
X93440460Y-67635489D01*
X92714852Y-66909881D01*
X92700500Y-66875233D01*
X92700500Y-66754105D01*
X92700499Y-66754104D01*
X92671464Y-66645743D01*
X92676359Y-66608561D01*
X92706112Y-66585731D01*
X92743294Y-66590626D01*
X92753442Y-66598413D01*
X99039540Y-72884511D01*
X99095489Y-72940460D01*
X99164011Y-72980021D01*
X99199478Y-72989524D01*
X99240436Y-73000500D01*
X99240438Y-73000500D01*
X120855233Y-73000500D01*
X120889881Y-73014852D01*
X124085148Y-76210119D01*
X124099500Y-76244767D01*
X124099500Y-79459563D01*
X124119979Y-79535989D01*
X124119979Y-79535991D01*
X124149825Y-79587685D01*
X124149826Y-79587686D01*
X124159540Y-79604511D01*
X124609540Y-80054511D01*
X124665489Y-80110460D01*
X124734011Y-80150021D01*
X124769478Y-80159524D01*
X124810436Y-80170500D01*
X125729320Y-80170500D01*
X125763968Y-80184852D01*
X125778320Y-80219500D01*
X125770062Y-80246723D01*
X125739503Y-80292457D01*
X125725000Y-80365370D01*
X125725000Y-80390000D01*
X127875000Y-80390000D01*
X127875000Y-80365376D01*
X127874999Y-80365370D01*
X127860495Y-80292456D01*
X127860495Y-80292455D01*
X127828554Y-80244650D01*
X127821238Y-80207868D01*
X127842074Y-80176686D01*
X127856614Y-80170098D01*
X127870161Y-80166468D01*
X127931541Y-80150021D01*
X128000063Y-80110460D01*
X128056012Y-80054511D01*
X129195671Y-78914852D01*
X129230319Y-78900500D01*
X130563669Y-78900500D01*
X130572956Y-78904347D01*
X130583008Y-78904478D01*
X130589595Y-78911239D01*
X130598317Y-78914852D01*
X130602163Y-78924138D01*
X130609179Y-78931339D01*
X130608844Y-78940265D01*
X130612669Y-78949500D01*
X130608691Y-78968839D01*
X130608213Y-78969950D01*
X130584427Y-79018607D01*
X130582945Y-79028775D01*
X130580406Y-79034687D01*
X130575138Y-79039818D01*
X130570032Y-79049996D01*
X130040489Y-79579541D01*
X129984541Y-79635489D01*
X129984540Y-79635489D01*
X129944979Y-79704009D01*
X129944979Y-79704011D01*
X129924500Y-79780437D01*
X129924500Y-81373354D01*
X129910148Y-81408002D01*
X129880078Y-81422140D01*
X129877801Y-81422353D01*
X129877800Y-81422353D01*
X129749623Y-81467204D01*
X129749614Y-81467208D01*
X129640349Y-81547849D01*
X129559708Y-81657114D01*
X129559704Y-81657123D01*
X129514853Y-81785300D01*
X129514853Y-81785301D01*
X129512000Y-81815724D01*
X129512000Y-82824275D01*
X129514853Y-82854698D01*
X129514853Y-82854699D01*
X129559704Y-82982876D01*
X129559708Y-82982885D01*
X129640349Y-83092150D01*
X129749614Y-83172791D01*
X129749617Y-83172792D01*
X129749618Y-83172793D01*
X129749620Y-83172793D01*
X129749623Y-83172795D01*
X129757751Y-83175639D01*
X129877801Y-83217646D01*
X129908234Y-83220500D01*
X129908244Y-83220500D01*
X130541756Y-83220500D01*
X130541766Y-83220500D01*
X130572199Y-83217646D01*
X130700382Y-83172793D01*
X130740946Y-83142856D01*
X130809650Y-83092150D01*
X130890291Y-82982885D01*
X130890291Y-82982884D01*
X130890293Y-82982882D01*
X130935146Y-82854699D01*
X130938000Y-82824266D01*
X130938000Y-81815734D01*
X130935146Y-81785301D01*
X130892634Y-81663809D01*
X130890295Y-81657123D01*
X130890291Y-81657114D01*
X130809650Y-81547849D01*
X130700385Y-81467208D01*
X130700376Y-81467204D01*
X130572199Y-81422353D01*
X130569922Y-81422140D01*
X130536766Y-81404614D01*
X130525500Y-81373354D01*
X130525500Y-80882655D01*
X130539852Y-80848007D01*
X130574500Y-80833655D01*
X130609148Y-80848007D01*
X130618521Y-80861134D01*
X130635802Y-80896483D01*
X130718517Y-80979198D01*
X130823607Y-81030573D01*
X130871884Y-81037606D01*
X130891738Y-81040500D01*
X130891740Y-81040500D01*
X131375500Y-81040500D01*
X131410148Y-81054852D01*
X131424500Y-81089500D01*
X131424500Y-82894877D01*
X131410148Y-82929525D01*
X130884525Y-83455148D01*
X130849877Y-83469500D01*
X123430122Y-83469500D01*
X123395474Y-83455148D01*
X122743548Y-82803221D01*
X127787501Y-82803221D01*
X127797411Y-82871248D01*
X127797411Y-82871249D01*
X127848712Y-82976186D01*
X127848715Y-82976190D01*
X127931309Y-83058784D01*
X127931313Y-83058786D01*
X128036251Y-83110087D01*
X128104279Y-83119999D01*
X128249999Y-83119999D01*
X128550000Y-83119999D01*
X128695721Y-83119999D01*
X128763748Y-83110088D01*
X128763749Y-83110088D01*
X128868686Y-83058787D01*
X128868690Y-83058784D01*
X128951284Y-82976190D01*
X128951286Y-82976186D01*
X129002587Y-82871249D01*
X129002587Y-82871248D01*
X129012500Y-82803220D01*
X129012500Y-82470000D01*
X128550000Y-82470000D01*
X128550000Y-83119999D01*
X128249999Y-83119999D01*
X128250000Y-83119998D01*
X128250000Y-82470000D01*
X127787501Y-82470000D01*
X127787501Y-82803221D01*
X122743548Y-82803221D01*
X122424679Y-82484352D01*
X121777106Y-81836779D01*
X127787500Y-81836779D01*
X127787500Y-82170000D01*
X128250000Y-82170000D01*
X128550000Y-82170000D01*
X129012499Y-82170000D01*
X129012499Y-81836778D01*
X129002588Y-81768751D01*
X129002588Y-81768750D01*
X128951287Y-81663813D01*
X128951284Y-81663809D01*
X128868690Y-81581215D01*
X128868686Y-81581213D01*
X128763748Y-81529912D01*
X128695721Y-81520000D01*
X128550000Y-81520000D01*
X128550000Y-82170000D01*
X128250000Y-82170000D01*
X128250000Y-81520000D01*
X128104278Y-81520000D01*
X128036251Y-81529911D01*
X128036250Y-81529911D01*
X127931313Y-81581212D01*
X127931309Y-81581215D01*
X127848715Y-81663809D01*
X127848713Y-81663813D01*
X127797412Y-81768750D01*
X127797412Y-81768751D01*
X127787500Y-81836779D01*
X121777106Y-81836779D01*
X120654956Y-80714629D01*
X125725000Y-80714629D01*
X125739503Y-80787542D01*
X125794759Y-80870240D01*
X125877457Y-80925496D01*
X125950370Y-80939999D01*
X125950376Y-80940000D01*
X126650000Y-80940000D01*
X126950000Y-80940000D01*
X127649624Y-80940000D01*
X127649629Y-80939999D01*
X127722542Y-80925496D01*
X127805240Y-80870240D01*
X127860496Y-80787542D01*
X127874999Y-80714629D01*
X127875000Y-80714624D01*
X127875000Y-80690000D01*
X126950000Y-80690000D01*
X126950000Y-80940000D01*
X126650000Y-80940000D01*
X126650000Y-80690000D01*
X125725000Y-80690000D01*
X125725000Y-80714629D01*
X120654956Y-80714629D01*
X120564852Y-80624525D01*
X120550500Y-80589877D01*
X120550500Y-80504105D01*
X120550499Y-80504104D01*
X120528104Y-80420526D01*
X120516392Y-80376814D01*
X120516391Y-80376813D01*
X120516391Y-80376811D01*
X120467687Y-80292455D01*
X120450500Y-80262686D01*
X120357314Y-80169500D01*
X120243188Y-80103608D01*
X120243184Y-80103607D01*
X120115895Y-80069500D01*
X120115892Y-80069500D01*
X119984108Y-80069500D01*
X119984105Y-80069500D01*
X119856815Y-80103607D01*
X119856811Y-80103608D01*
X119742685Y-80169500D01*
X119742685Y-80169501D01*
X119649501Y-80262685D01*
X119649500Y-80262685D01*
X119583608Y-80376811D01*
X119583607Y-80376815D01*
X119549500Y-80504104D01*
X119549500Y-80530678D01*
X119535148Y-80565326D01*
X119500500Y-80579678D01*
X119465852Y-80565326D01*
X119465351Y-80564818D01*
X118523862Y-79595500D01*
X117873645Y-78926063D01*
X117871149Y-78923288D01*
X117814939Y-78855803D01*
X117804274Y-78842998D01*
X117804269Y-78842994D01*
X117804267Y-78842991D01*
X117621009Y-78671956D01*
X117620990Y-78671941D01*
X117417809Y-78525114D01*
X117417807Y-78525113D01*
X117211944Y-78412487D01*
X117188436Y-78383267D01*
X117192475Y-78345982D01*
X117221695Y-78322474D01*
X117235462Y-78320500D01*
X118172390Y-78320500D01*
X118207038Y-78334852D01*
X118292686Y-78420500D01*
X118325072Y-78439198D01*
X118406811Y-78486391D01*
X118406813Y-78486391D01*
X118406814Y-78486392D01*
X118507207Y-78513292D01*
X118534104Y-78520499D01*
X118534105Y-78520500D01*
X118534108Y-78520500D01*
X118665895Y-78520500D01*
X118665895Y-78520499D01*
X118793186Y-78486392D01*
X118799784Y-78482583D01*
X118825485Y-78467744D01*
X118907314Y-78420500D01*
X119000500Y-78327314D01*
X119066392Y-78213186D01*
X119100499Y-78085895D01*
X119100500Y-78085895D01*
X119100500Y-77954105D01*
X119100499Y-77954104D01*
X119066392Y-77826815D01*
X119066391Y-77826811D01*
X119014326Y-77736633D01*
X119000500Y-77712686D01*
X118907314Y-77619500D01*
X118793188Y-77553608D01*
X118793184Y-77553607D01*
X118665895Y-77519500D01*
X118665892Y-77519500D01*
X118549500Y-77519500D01*
X118514852Y-77505148D01*
X118500500Y-77470500D01*
X118500500Y-77354105D01*
X118500499Y-77354104D01*
X118471225Y-77244852D01*
X118466392Y-77226814D01*
X118466391Y-77226813D01*
X118466391Y-77226811D01*
X118424617Y-77154457D01*
X118400500Y-77112686D01*
X118400499Y-77112685D01*
X118398544Y-77110137D01*
X118399876Y-77109114D01*
X118387610Y-77079500D01*
X118401962Y-77044852D01*
X118436610Y-77030500D01*
X122696017Y-77030500D01*
X122730665Y-77044852D01*
X122817686Y-77131873D01*
X122859457Y-77155990D01*
X122931811Y-77197764D01*
X122931813Y-77197764D01*
X122931814Y-77197765D01*
X123032207Y-77224665D01*
X123059104Y-77231872D01*
X123059105Y-77231873D01*
X123059108Y-77231873D01*
X123190895Y-77231873D01*
X123190895Y-77231872D01*
X123318186Y-77197765D01*
X123432314Y-77131873D01*
X123525500Y-77038687D01*
X123591392Y-76924559D01*
X123625499Y-76797268D01*
X123625500Y-76797268D01*
X123625500Y-76665478D01*
X123625499Y-76665477D01*
X123591392Y-76538188D01*
X123591391Y-76538184D01*
X123529514Y-76431012D01*
X123525500Y-76424059D01*
X123432314Y-76330873D01*
X123318188Y-76264981D01*
X123318184Y-76264980D01*
X123190895Y-76230873D01*
X123190892Y-76230873D01*
X123059108Y-76230873D01*
X123059105Y-76230873D01*
X122931815Y-76264980D01*
X122931811Y-76264981D01*
X122817685Y-76330873D01*
X122733410Y-76415148D01*
X122698762Y-76429500D01*
X118084108Y-76429500D01*
X118049460Y-76415148D01*
X118035108Y-76380500D01*
X118041673Y-76356000D01*
X118062169Y-76320500D01*
X118066392Y-76313186D01*
X118100499Y-76185895D01*
X118100500Y-76185895D01*
X118100500Y-76054105D01*
X118100499Y-76054104D01*
X118085962Y-75999852D01*
X118066392Y-75926814D01*
X118066391Y-75926813D01*
X118066391Y-75926811D01*
X118020027Y-75846507D01*
X118000500Y-75812686D01*
X117907314Y-75719500D01*
X117897748Y-75713977D01*
X117793188Y-75653608D01*
X117793184Y-75653607D01*
X117665895Y-75619500D01*
X117665892Y-75619500D01*
X117544767Y-75619500D01*
X117510119Y-75605148D01*
X115659511Y-73754540D01*
X115590990Y-73714979D01*
X115514564Y-73694500D01*
X115514562Y-73694500D01*
X90771238Y-73694500D01*
X90736590Y-73680148D01*
X80934619Y-63878177D01*
X80929920Y-63866833D01*
X80922231Y-63857262D01*
X80923007Y-63850144D01*
X80920267Y-63843529D01*
X80924965Y-63832185D01*
X80926297Y-63819980D01*
X80931816Y-63815646D01*
X80934619Y-63808881D01*
X80955534Y-63796493D01*
X80956059Y-63796339D01*
X80993186Y-63786392D01*
X80996311Y-63784587D01*
X81001971Y-63782935D01*
X81015166Y-63784374D01*
X81028329Y-63782625D01*
X81035140Y-63786552D01*
G37*
%TD.AperFunction*%
%TA.AperFunction,Conductor*%
G36*
X146362495Y-79609852D02*
G01*
X146371865Y-79622975D01*
X146385802Y-79651483D01*
X146468517Y-79734198D01*
X146573607Y-79785573D01*
X146621884Y-79792606D01*
X146641738Y-79795500D01*
X148350500Y-79795500D01*
X148385148Y-79809852D01*
X148399500Y-79844500D01*
X148399500Y-79965895D01*
X148433607Y-80093184D01*
X148433608Y-80093188D01*
X148437272Y-80099533D01*
X148442167Y-80136715D01*
X148419337Y-80166468D01*
X148385278Y-80172092D01*
X148349622Y-80165000D01*
X147650000Y-80165000D01*
X147650000Y-80415000D01*
X148575000Y-80415000D01*
X148575000Y-80390376D01*
X148574999Y-80390370D01*
X148573607Y-80383370D01*
X148580923Y-80346588D01*
X148612106Y-80325753D01*
X148646164Y-80331375D01*
X148672513Y-80346588D01*
X148706812Y-80366391D01*
X148706814Y-80366392D01*
X148768670Y-80382966D01*
X148798423Y-80405796D01*
X148803318Y-80442978D01*
X148790636Y-80464944D01*
X148554933Y-80700648D01*
X148520285Y-80715000D01*
X146425000Y-80715000D01*
X146425000Y-80739627D01*
X146438191Y-80805940D01*
X146430875Y-80842723D01*
X146399693Y-80863558D01*
X146390133Y-80864500D01*
X145825319Y-80864500D01*
X145790671Y-80850148D01*
X145330893Y-80390370D01*
X146425000Y-80390370D01*
X146425000Y-80415000D01*
X147350000Y-80415000D01*
X147350000Y-80165000D01*
X146650370Y-80165000D01*
X146577457Y-80179503D01*
X146494759Y-80234759D01*
X146439503Y-80317457D01*
X146425000Y-80390370D01*
X145330893Y-80390370D01*
X144714478Y-79773955D01*
X144700126Y-79739307D01*
X144714478Y-79704659D01*
X144749126Y-79690307D01*
X144761808Y-79691977D01*
X144821605Y-79708000D01*
X144821608Y-79708000D01*
X144953395Y-79708000D01*
X144953395Y-79707999D01*
X145080686Y-79673892D01*
X145194814Y-79608000D01*
X145194818Y-79607995D01*
X145197363Y-79606044D01*
X145198518Y-79607550D01*
X145227610Y-79595500D01*
X146327847Y-79595500D01*
X146362495Y-79609852D01*
G37*
%TD.AperFunction*%
%TA.AperFunction,Conductor*%
G36*
X136012495Y-79584852D02*
G01*
X136021865Y-79597975D01*
X136035802Y-79626483D01*
X136118517Y-79709198D01*
X136223607Y-79760573D01*
X136271884Y-79767606D01*
X136291738Y-79770500D01*
X137951346Y-79770500D01*
X137985994Y-79784852D01*
X138000346Y-79819500D01*
X137999484Y-79825864D01*
X137999919Y-79825922D01*
X137999500Y-79829106D01*
X137999500Y-79960895D01*
X138030964Y-80078318D01*
X138026069Y-80115500D01*
X137996316Y-80138330D01*
X137983634Y-80140000D01*
X137300000Y-80140000D01*
X137300000Y-80390000D01*
X138225000Y-80390000D01*
X138231383Y-80383616D01*
X138239352Y-80364379D01*
X138274000Y-80350027D01*
X138298499Y-80356591D01*
X138306814Y-80361392D01*
X138392330Y-80384306D01*
X138422083Y-80407136D01*
X138426978Y-80444318D01*
X138414296Y-80466284D01*
X138204933Y-80675648D01*
X138170285Y-80690000D01*
X136075000Y-80690000D01*
X136075000Y-80714627D01*
X136088191Y-80780940D01*
X136080875Y-80817723D01*
X136049693Y-80838558D01*
X136040133Y-80839500D01*
X135450319Y-80839500D01*
X135415671Y-80825148D01*
X134955893Y-80365370D01*
X136075000Y-80365370D01*
X136075000Y-80390000D01*
X137000000Y-80390000D01*
X137000000Y-80140000D01*
X136300370Y-80140000D01*
X136227457Y-80154503D01*
X136144759Y-80209759D01*
X136089503Y-80292457D01*
X136075000Y-80365370D01*
X134955893Y-80365370D01*
X134394432Y-79803909D01*
X134380080Y-79769261D01*
X134394432Y-79734613D01*
X134429080Y-79720261D01*
X134432727Y-79720500D01*
X134434108Y-79720500D01*
X134565895Y-79720500D01*
X134565895Y-79720499D01*
X134693186Y-79686392D01*
X134807314Y-79620500D01*
X134842962Y-79584852D01*
X134877610Y-79570500D01*
X135977847Y-79570500D01*
X136012495Y-79584852D01*
G37*
%TD.AperFunction*%
%TA.AperFunction,Conductor*%
G36*
X149040808Y-69539142D02*
G01*
X149051430Y-69555038D01*
X149068474Y-69596187D01*
X149069059Y-69597598D01*
X149184023Y-69769655D01*
X149330345Y-69915977D01*
X149502402Y-70030941D01*
X149558325Y-70054105D01*
X149669252Y-70100053D01*
X149695770Y-70126572D01*
X149699500Y-70145323D01*
X149699500Y-74049562D01*
X149718243Y-74119512D01*
X149719979Y-74125988D01*
X149739510Y-74159816D01*
X149759537Y-74194506D01*
X149759542Y-74194512D01*
X151265882Y-75700852D01*
X151280234Y-75735500D01*
X151265882Y-75770148D01*
X151231234Y-75784500D01*
X148715220Y-75784500D01*
X148680572Y-75770148D01*
X148666220Y-75735500D01*
X148666732Y-75728435D01*
X148666969Y-75726815D01*
X148675500Y-75668260D01*
X148675500Y-75301740D01*
X148665573Y-75233607D01*
X148614198Y-75128517D01*
X148531483Y-75045802D01*
X148462757Y-75012204D01*
X148426396Y-74994428D01*
X148426394Y-74994427D01*
X148358262Y-74984500D01*
X148358260Y-74984500D01*
X146641740Y-74984500D01*
X146641738Y-74984500D01*
X146573605Y-74994427D01*
X146573600Y-74994429D01*
X146518067Y-75021577D01*
X146480636Y-75023901D01*
X146461899Y-75012204D01*
X145739852Y-74290157D01*
X145725500Y-74255509D01*
X145725500Y-73958766D01*
X145739852Y-73924118D01*
X145774500Y-73909766D01*
X145809148Y-73924118D01*
X146320032Y-74435002D01*
X146333872Y-74462582D01*
X146334427Y-74466394D01*
X146385799Y-74571478D01*
X146385801Y-74571481D01*
X146385802Y-74571483D01*
X146468517Y-74654198D01*
X146573607Y-74705573D01*
X146621884Y-74712606D01*
X146641738Y-74715500D01*
X146641740Y-74715500D01*
X148358262Y-74715500D01*
X148375590Y-74712974D01*
X148426393Y-74705573D01*
X148531483Y-74654198D01*
X148614198Y-74571483D01*
X148665573Y-74466393D01*
X148675310Y-74399562D01*
X148675500Y-74398261D01*
X148675500Y-74031738D01*
X148667169Y-73974562D01*
X148665573Y-73963607D01*
X148614198Y-73858517D01*
X148531483Y-73775802D01*
X148458723Y-73740232D01*
X148426396Y-73724428D01*
X148426394Y-73724427D01*
X148358262Y-73714500D01*
X148358260Y-73714500D01*
X146641740Y-73714500D01*
X146641738Y-73714500D01*
X146573605Y-73724427D01*
X146528326Y-73746561D01*
X146490895Y-73748883D01*
X146472159Y-73737187D01*
X146139852Y-73404880D01*
X146125500Y-73370232D01*
X146125500Y-72459319D01*
X146139852Y-72424671D01*
X146174500Y-72410319D01*
X146209148Y-72424671D01*
X146356857Y-72572380D01*
X146371209Y-72607028D01*
X146366231Y-72628548D01*
X146334427Y-72693605D01*
X146324500Y-72761738D01*
X146324500Y-73128261D01*
X146330785Y-73171394D01*
X146334427Y-73196393D01*
X146385802Y-73301483D01*
X146468517Y-73384198D01*
X146573607Y-73435573D01*
X146621884Y-73442606D01*
X146641738Y-73445500D01*
X146641740Y-73445500D01*
X148358262Y-73445500D01*
X148375590Y-73442974D01*
X148426393Y-73435573D01*
X148531483Y-73384198D01*
X148614198Y-73301483D01*
X148665573Y-73196393D01*
X148675500Y-73128260D01*
X148675500Y-72761740D01*
X148665573Y-72693607D01*
X148614198Y-72588517D01*
X148531483Y-72505802D01*
X148478938Y-72480114D01*
X148426396Y-72454428D01*
X148426394Y-72454427D01*
X148358262Y-72444500D01*
X148358260Y-72444500D01*
X147099215Y-72444500D01*
X147064567Y-72430148D01*
X146893567Y-72259148D01*
X146879215Y-72224500D01*
X146893567Y-72189852D01*
X146928215Y-72175500D01*
X148358262Y-72175500D01*
X148375590Y-72172974D01*
X148426393Y-72165573D01*
X148531483Y-72114198D01*
X148614198Y-72031483D01*
X148665573Y-71926393D01*
X148675500Y-71858260D01*
X148675500Y-71491740D01*
X148665573Y-71423607D01*
X148614198Y-71318517D01*
X148531483Y-71235802D01*
X148478938Y-71210114D01*
X148426396Y-71184428D01*
X148426394Y-71184427D01*
X148358262Y-71174500D01*
X148358260Y-71174500D01*
X147849500Y-71174500D01*
X147814852Y-71160148D01*
X147800500Y-71125500D01*
X147800500Y-70730451D01*
X147814851Y-70695804D01*
X148971513Y-69539141D01*
X149006160Y-69524790D01*
X149040808Y-69539142D01*
G37*
%TD.AperFunction*%
%TA.AperFunction,Conductor*%
G36*
X76889881Y-50734852D02*
G01*
X92421586Y-66266557D01*
X92435938Y-66301205D01*
X92421586Y-66335853D01*
X92386938Y-66350205D01*
X92374256Y-66348535D01*
X92265895Y-66319500D01*
X92265892Y-66319500D01*
X92134108Y-66319500D01*
X92134105Y-66319500D01*
X92006815Y-66353607D01*
X92006811Y-66353608D01*
X91892685Y-66419500D01*
X91892685Y-66419501D01*
X91799501Y-66512685D01*
X91799500Y-66512685D01*
X91733608Y-66626811D01*
X91733607Y-66626815D01*
X91699500Y-66754104D01*
X91699500Y-66885895D01*
X91733607Y-67013184D01*
X91733608Y-67013188D01*
X91799500Y-67127314D01*
X91892686Y-67220500D01*
X91934457Y-67244617D01*
X92006811Y-67286391D01*
X92006813Y-67286391D01*
X92006814Y-67286392D01*
X92107207Y-67313292D01*
X92134104Y-67320499D01*
X92134105Y-67320500D01*
X92255233Y-67320500D01*
X92289881Y-67334852D01*
X92885148Y-67930119D01*
X92899500Y-67964767D01*
X92899500Y-69692390D01*
X92885148Y-69727038D01*
X92799501Y-69812685D01*
X92799500Y-69812685D01*
X92733608Y-69926811D01*
X92733607Y-69926815D01*
X92699500Y-70054104D01*
X92699500Y-70185895D01*
X92733607Y-70313184D01*
X92733608Y-70313188D01*
X92752553Y-70346000D01*
X92757448Y-70383182D01*
X92734618Y-70412935D01*
X92710118Y-70419500D01*
X89989882Y-70419500D01*
X89955234Y-70405148D01*
X89940882Y-70370500D01*
X89947447Y-70346000D01*
X89966391Y-70313188D01*
X89966391Y-70313187D01*
X89966392Y-70313186D01*
X90000499Y-70185895D01*
X90000500Y-70185895D01*
X90000500Y-70054105D01*
X90000499Y-70054104D01*
X89966392Y-69926815D01*
X89966391Y-69926811D01*
X89900499Y-69812685D01*
X89807314Y-69719500D01*
X89693188Y-69653608D01*
X89693184Y-69653607D01*
X89565895Y-69619500D01*
X89565892Y-69619500D01*
X89444767Y-69619500D01*
X89410119Y-69605148D01*
X89214852Y-69409881D01*
X89200500Y-69375233D01*
X89200500Y-68180435D01*
X89200499Y-68180434D01*
X89196172Y-68164286D01*
X89180022Y-68104012D01*
X89171856Y-68089869D01*
X89148549Y-68049500D01*
X89140460Y-68035489D01*
X88097335Y-66992364D01*
X88082983Y-66957716D01*
X88084653Y-66945033D01*
X88100500Y-66885893D01*
X88100500Y-66754105D01*
X88100499Y-66754104D01*
X88089901Y-66714552D01*
X88066392Y-66626814D01*
X88066391Y-66626813D01*
X88066391Y-66626811D01*
X88000499Y-66512685D01*
X87907314Y-66419500D01*
X87793188Y-66353608D01*
X87793184Y-66353607D01*
X87665895Y-66319500D01*
X87665892Y-66319500D01*
X87534108Y-66319500D01*
X87534105Y-66319500D01*
X87406815Y-66353607D01*
X87406811Y-66353608D01*
X87292685Y-66419500D01*
X87292685Y-66419501D01*
X87199501Y-66512685D01*
X87199500Y-66512685D01*
X87133608Y-66626811D01*
X87133607Y-66626815D01*
X87099500Y-66754104D01*
X87099500Y-66854939D01*
X87085148Y-66889587D01*
X87050500Y-66903939D01*
X87015852Y-66889587D01*
X73014852Y-52888587D01*
X73000500Y-52853939D01*
X73000500Y-51447610D01*
X73014852Y-51412962D01*
X73100499Y-51327315D01*
X73100500Y-51327314D01*
X73166392Y-51213186D01*
X73200499Y-51085895D01*
X73200500Y-51085895D01*
X73200500Y-50954105D01*
X73200499Y-50954104D01*
X73166392Y-50826815D01*
X73166391Y-50826811D01*
X73147447Y-50794000D01*
X73142552Y-50756818D01*
X73165382Y-50727065D01*
X73189882Y-50720500D01*
X76855233Y-50720500D01*
X76889881Y-50734852D01*
G37*
%TD.AperFunction*%
%TD*%
M02*
