%TF.GenerationSoftware,KiCad,Pcbnew,10.0.4*%
%TF.CreationDate,2026-06-26T15:47:44-04:00*%
%TF.ProjectId,CountdownTimerController_V1.0,436f756e-7464-46f7-976e-54696d657243,rev?*%
%TF.SameCoordinates,Original*%
%TF.FileFunction,Soldermask,Bot*%
%TF.FilePolarity,Negative*%
%FSLAX46Y46*%
G04 Gerber Fmt 4.6, Leading zero omitted, Abs format (unit mm)*
G04 Created by KiCad (PCBNEW 10.0.4) date 2026-06-26 15:47:44*
%MOMM*%
%LPD*%
G01*
G04 APERTURE LIST*
G04 Aperture macros list*
%AMRoundRect*
0 Rectangle with rounded corners*
0 $1 Rounding radius*
0 $2 $3 $4 $5 $6 $7 $8 $9 X,Y pos of 4 corners*
0 Add a 4 corners polygon primitive as box body*
4,1,4,$2,$3,$4,$5,$6,$7,$8,$9,$2,$3,0*
0 Add four circle primitives for the rounded corners*
1,1,$1+$1,$2,$3*
1,1,$1+$1,$4,$5*
1,1,$1+$1,$6,$7*
1,1,$1+$1,$8,$9*
0 Add four rect primitives between the rounded corners*
20,1,$1+$1,$2,$3,$4,$5,0*
20,1,$1+$1,$4,$5,$6,$7,0*
20,1,$1+$1,$6,$7,$8,$9,0*
20,1,$1+$1,$8,$9,$2,$3,0*%
G04 Aperture macros list end*
%ADD10R,1.700000X1.700000*%
%ADD11C,1.700000*%
%ADD12RoundRect,0.250000X-0.262500X-0.450000X0.262500X-0.450000X0.262500X0.450000X-0.262500X0.450000X0*%
%ADD13RoundRect,0.150000X-0.825000X-0.150000X0.825000X-0.150000X0.825000X0.150000X-0.825000X0.150000X0*%
%ADD14C,0.650000*%
%ADD15O,0.950000X0.650000*%
%ADD16O,0.800000X1.400000*%
%ADD17C,1.600000*%
%ADD18R,4.000000X2.000000*%
%ADD19O,3.300000X2.000000*%
%ADD20O,2.000000X3.500000*%
%ADD21R,1.500000X2.300000*%
%ADD22O,1.500000X2.300000*%
G04 APERTURE END LIST*
D10*
%TO.C,J3*%
X118800000Y-51320000D03*
D11*
X118800000Y-53860000D03*
X118800000Y-56400000D03*
X118800000Y-58940000D03*
X118800000Y-61480000D03*
X118800000Y-64020000D03*
X118800000Y-66560000D03*
X118800000Y-69100000D03*
%TD*%
D10*
%TO.C,J5*%
X129200000Y-51320000D03*
D11*
X129200000Y-53860000D03*
X129200000Y-56400000D03*
X129200000Y-58940000D03*
X129200000Y-61480000D03*
X129200000Y-64020000D03*
X129200000Y-66560000D03*
X129200000Y-69100000D03*
%TD*%
%TO.C,J6*%
X134400000Y-69100000D03*
X134400000Y-66560000D03*
X134400000Y-64020000D03*
X134400000Y-61480000D03*
X134400000Y-58940000D03*
X134400000Y-56400000D03*
X134400000Y-53860000D03*
D10*
X134400000Y-51320000D03*
%TD*%
D11*
%TO.C,J4*%
X124000000Y-69100000D03*
X124000000Y-66560000D03*
X124000000Y-64020000D03*
X124000000Y-61480000D03*
X124000000Y-58940000D03*
X124000000Y-56400000D03*
X124000000Y-53860000D03*
D10*
X124000000Y-51320000D03*
%TD*%
D11*
%TO.C,J8*%
X144800000Y-69100000D03*
X144800000Y-66560000D03*
X144800000Y-64020000D03*
X144800000Y-61480000D03*
X144800000Y-58940000D03*
X144800000Y-56400000D03*
X144800000Y-53860000D03*
D10*
X144800000Y-51320000D03*
%TD*%
D11*
%TO.C,J7*%
X139600000Y-69100000D03*
X139600000Y-66560000D03*
X139600000Y-64020000D03*
X139600000Y-61480000D03*
X139600000Y-58940000D03*
X139600000Y-56400000D03*
X139600000Y-53860000D03*
D10*
X139600000Y-51320000D03*
%TD*%
D11*
%TO.C,J10*%
X155200000Y-69100000D03*
X155200000Y-66560000D03*
X155200000Y-64020000D03*
X155200000Y-61480000D03*
X155200000Y-58940000D03*
X155200000Y-56400000D03*
X155200000Y-53860000D03*
D10*
X155200000Y-51320000D03*
%TD*%
D11*
%TO.C,J9*%
X150000000Y-69100000D03*
X150000000Y-66560000D03*
X150000000Y-64020000D03*
X150000000Y-61480000D03*
X150000000Y-58940000D03*
X150000000Y-56400000D03*
X150000000Y-53860000D03*
D10*
X150000000Y-51320000D03*
%TD*%
D12*
%TO.C,R19*%
X130225000Y-82320000D03*
X128400000Y-82320000D03*
%TD*%
%TO.C,R21*%
X140500000Y-82320000D03*
X138675000Y-82320000D03*
%TD*%
%TO.C,R23*%
X149100000Y-82320000D03*
X150925000Y-82320000D03*
%TD*%
D13*
%TO.C,U5*%
X137150000Y-80540000D03*
X137150000Y-79270000D03*
X137150000Y-78000000D03*
X137150000Y-76730000D03*
X137150000Y-75460000D03*
X137150000Y-74190000D03*
X137150000Y-72920000D03*
X137150000Y-71650000D03*
X142100000Y-71650000D03*
X142100000Y-72920000D03*
X142100000Y-74190000D03*
X142100000Y-75460000D03*
X142100000Y-76730000D03*
X142100000Y-78000000D03*
X142100000Y-79270000D03*
X142100000Y-80540000D03*
%TD*%
%TO.C,U7*%
X152450000Y-80565000D03*
X152450000Y-79295000D03*
X152450000Y-78025000D03*
X152450000Y-76755000D03*
X152450000Y-75485000D03*
X152450000Y-74215000D03*
X152450000Y-72945000D03*
X152450000Y-71675000D03*
X147500000Y-71675000D03*
X147500000Y-72945000D03*
X147500000Y-74215000D03*
X147500000Y-75485000D03*
X147500000Y-76755000D03*
X147500000Y-78025000D03*
X147500000Y-79295000D03*
X147500000Y-80565000D03*
%TD*%
%TO.C,U3*%
X131750000Y-80540000D03*
X131750000Y-79270000D03*
X131750000Y-78000000D03*
X131750000Y-76730000D03*
X131750000Y-75460000D03*
X131750000Y-74190000D03*
X131750000Y-72920000D03*
X131750000Y-71650000D03*
X126800000Y-71650000D03*
X126800000Y-72920000D03*
X126800000Y-74190000D03*
X126800000Y-75460000D03*
X126800000Y-76730000D03*
X126800000Y-78000000D03*
X126800000Y-79270000D03*
X126800000Y-80540000D03*
%TD*%
D14*
%TO.C,J1*%
X92630000Y-56580000D03*
D15*
X85430000Y-56580000D03*
D16*
X93520000Y-49380000D03*
X93160000Y-55330000D03*
X84900000Y-55330000D03*
X84540000Y-49380000D03*
%TD*%
D17*
%TO.C,J2*%
X111000000Y-50120000D03*
D18*
X111000000Y-59120000D03*
D19*
X111000000Y-53120000D03*
D20*
X115500000Y-52120000D03*
X106500000Y-52120000D03*
%TD*%
D21*
%TO.C,DCDC1*%
X105647500Y-65420000D03*
D22*
X103107500Y-65420000D03*
X100567500Y-65420000D03*
%TD*%
M02*
