%TF.GenerationSoftware,KiCad,Pcbnew,10.0.4*%
%TF.CreationDate,2026-06-26T15:47:44-04:00*%
%TF.ProjectId,CountdownTimerController_V1.0,436f756e-7464-46f7-976e-54696d657243,rev?*%
%TF.SameCoordinates,Original*%
%TF.FileFunction,Legend,Top*%
%TF.FilePolarity,Positive*%
%FSLAX46Y46*%
G04 Gerber Fmt 4.6, Leading zero omitted, Abs format (unit mm)*
G04 Created by KiCad (PCBNEW 10.0.4) date 2026-06-26 15:47:44*
%MOMM*%
%LPD*%
G01*
G04 APERTURE LIST*
%ADD10C,0.150000*%
%ADD11C,0.000000*%
%ADD12C,0.120000*%
G04 APERTURE END LIST*
D10*
X101265350Y-76039866D02*
X101232017Y-76073200D01*
X101232017Y-76073200D02*
X101132017Y-76106533D01*
X101132017Y-76106533D02*
X101065350Y-76106533D01*
X101065350Y-76106533D02*
X100965350Y-76073200D01*
X100965350Y-76073200D02*
X100898684Y-76006533D01*
X100898684Y-76006533D02*
X100865350Y-75939866D01*
X100865350Y-75939866D02*
X100832017Y-75806533D01*
X100832017Y-75806533D02*
X100832017Y-75706533D01*
X100832017Y-75706533D02*
X100865350Y-75573200D01*
X100865350Y-75573200D02*
X100898684Y-75506533D01*
X100898684Y-75506533D02*
X100965350Y-75439866D01*
X100965350Y-75439866D02*
X101065350Y-75406533D01*
X101065350Y-75406533D02*
X101132017Y-75406533D01*
X101132017Y-75406533D02*
X101232017Y-75439866D01*
X101232017Y-75439866D02*
X101265350Y-75473200D01*
X101665350Y-76106533D02*
X101598684Y-76073200D01*
X101598684Y-76073200D02*
X101565350Y-76039866D01*
X101565350Y-76039866D02*
X101532017Y-75973200D01*
X101532017Y-75973200D02*
X101532017Y-75773200D01*
X101532017Y-75773200D02*
X101565350Y-75706533D01*
X101565350Y-75706533D02*
X101598684Y-75673200D01*
X101598684Y-75673200D02*
X101665350Y-75639866D01*
X101665350Y-75639866D02*
X101765350Y-75639866D01*
X101765350Y-75639866D02*
X101832017Y-75673200D01*
X101832017Y-75673200D02*
X101865350Y-75706533D01*
X101865350Y-75706533D02*
X101898684Y-75773200D01*
X101898684Y-75773200D02*
X101898684Y-75973200D01*
X101898684Y-75973200D02*
X101865350Y-76039866D01*
X101865350Y-76039866D02*
X101832017Y-76073200D01*
X101832017Y-76073200D02*
X101765350Y-76106533D01*
X101765350Y-76106533D02*
X101665350Y-76106533D01*
X102498683Y-75639866D02*
X102498683Y-76106533D01*
X102198683Y-75639866D02*
X102198683Y-76006533D01*
X102198683Y-76006533D02*
X102232017Y-76073200D01*
X102232017Y-76073200D02*
X102298683Y-76106533D01*
X102298683Y-76106533D02*
X102398683Y-76106533D01*
X102398683Y-76106533D02*
X102465350Y-76073200D01*
X102465350Y-76073200D02*
X102498683Y-76039866D01*
X102832016Y-75639866D02*
X102832016Y-76106533D01*
X102832016Y-75706533D02*
X102865350Y-75673200D01*
X102865350Y-75673200D02*
X102932016Y-75639866D01*
X102932016Y-75639866D02*
X103032016Y-75639866D01*
X103032016Y-75639866D02*
X103098683Y-75673200D01*
X103098683Y-75673200D02*
X103132016Y-75739866D01*
X103132016Y-75739866D02*
X103132016Y-76106533D01*
X103365349Y-75639866D02*
X103632016Y-75639866D01*
X103465349Y-75406533D02*
X103465349Y-76006533D01*
X103465349Y-76006533D02*
X103498683Y-76073200D01*
X103498683Y-76073200D02*
X103565349Y-76106533D01*
X103565349Y-76106533D02*
X103632016Y-76106533D01*
X104165349Y-76106533D02*
X104165349Y-75406533D01*
X104165349Y-76073200D02*
X104098683Y-76106533D01*
X104098683Y-76106533D02*
X103965349Y-76106533D01*
X103965349Y-76106533D02*
X103898683Y-76073200D01*
X103898683Y-76073200D02*
X103865349Y-76039866D01*
X103865349Y-76039866D02*
X103832016Y-75973200D01*
X103832016Y-75973200D02*
X103832016Y-75773200D01*
X103832016Y-75773200D02*
X103865349Y-75706533D01*
X103865349Y-75706533D02*
X103898683Y-75673200D01*
X103898683Y-75673200D02*
X103965349Y-75639866D01*
X103965349Y-75639866D02*
X104098683Y-75639866D01*
X104098683Y-75639866D02*
X104165349Y-75673200D01*
X104598682Y-76106533D02*
X104532016Y-76073200D01*
X104532016Y-76073200D02*
X104498682Y-76039866D01*
X104498682Y-76039866D02*
X104465349Y-75973200D01*
X104465349Y-75973200D02*
X104465349Y-75773200D01*
X104465349Y-75773200D02*
X104498682Y-75706533D01*
X104498682Y-75706533D02*
X104532016Y-75673200D01*
X104532016Y-75673200D02*
X104598682Y-75639866D01*
X104598682Y-75639866D02*
X104698682Y-75639866D01*
X104698682Y-75639866D02*
X104765349Y-75673200D01*
X104765349Y-75673200D02*
X104798682Y-75706533D01*
X104798682Y-75706533D02*
X104832016Y-75773200D01*
X104832016Y-75773200D02*
X104832016Y-75973200D01*
X104832016Y-75973200D02*
X104798682Y-76039866D01*
X104798682Y-76039866D02*
X104765349Y-76073200D01*
X104765349Y-76073200D02*
X104698682Y-76106533D01*
X104698682Y-76106533D02*
X104598682Y-76106533D01*
X105065349Y-75639866D02*
X105198682Y-76106533D01*
X105198682Y-76106533D02*
X105332015Y-75773200D01*
X105332015Y-75773200D02*
X105465349Y-76106533D01*
X105465349Y-76106533D02*
X105598682Y-75639866D01*
X105865348Y-75639866D02*
X105865348Y-76106533D01*
X105865348Y-75706533D02*
X105898682Y-75673200D01*
X105898682Y-75673200D02*
X105965348Y-75639866D01*
X105965348Y-75639866D02*
X106065348Y-75639866D01*
X106065348Y-75639866D02*
X106132015Y-75673200D01*
X106132015Y-75673200D02*
X106165348Y-75739866D01*
X106165348Y-75739866D02*
X106165348Y-76106533D01*
X106398681Y-75406533D02*
X106798681Y-75406533D01*
X106598681Y-76106533D02*
X106598681Y-75406533D01*
X107032014Y-76106533D02*
X107032014Y-75639866D01*
X107032014Y-75406533D02*
X106998681Y-75439866D01*
X106998681Y-75439866D02*
X107032014Y-75473200D01*
X107032014Y-75473200D02*
X107065348Y-75439866D01*
X107065348Y-75439866D02*
X107032014Y-75406533D01*
X107032014Y-75406533D02*
X107032014Y-75473200D01*
X107365347Y-76106533D02*
X107365347Y-75639866D01*
X107365347Y-75706533D02*
X107398681Y-75673200D01*
X107398681Y-75673200D02*
X107465347Y-75639866D01*
X107465347Y-75639866D02*
X107565347Y-75639866D01*
X107565347Y-75639866D02*
X107632014Y-75673200D01*
X107632014Y-75673200D02*
X107665347Y-75739866D01*
X107665347Y-75739866D02*
X107665347Y-76106533D01*
X107665347Y-75739866D02*
X107698681Y-75673200D01*
X107698681Y-75673200D02*
X107765347Y-75639866D01*
X107765347Y-75639866D02*
X107865347Y-75639866D01*
X107865347Y-75639866D02*
X107932014Y-75673200D01*
X107932014Y-75673200D02*
X107965347Y-75739866D01*
X107965347Y-75739866D02*
X107965347Y-76106533D01*
X108565347Y-76073200D02*
X108498680Y-76106533D01*
X108498680Y-76106533D02*
X108365347Y-76106533D01*
X108365347Y-76106533D02*
X108298680Y-76073200D01*
X108298680Y-76073200D02*
X108265347Y-76006533D01*
X108265347Y-76006533D02*
X108265347Y-75739866D01*
X108265347Y-75739866D02*
X108298680Y-75673200D01*
X108298680Y-75673200D02*
X108365347Y-75639866D01*
X108365347Y-75639866D02*
X108498680Y-75639866D01*
X108498680Y-75639866D02*
X108565347Y-75673200D01*
X108565347Y-75673200D02*
X108598680Y-75739866D01*
X108598680Y-75739866D02*
X108598680Y-75806533D01*
X108598680Y-75806533D02*
X108265347Y-75873200D01*
X108898680Y-76106533D02*
X108898680Y-75639866D01*
X108898680Y-75773200D02*
X108932014Y-75706533D01*
X108932014Y-75706533D02*
X108965347Y-75673200D01*
X108965347Y-75673200D02*
X109032014Y-75639866D01*
X109032014Y-75639866D02*
X109098680Y-75639866D01*
X109165347Y-76173200D02*
X109698680Y-76173200D01*
X109765346Y-75406533D02*
X109998680Y-76106533D01*
X109998680Y-76106533D02*
X110232013Y-75406533D01*
X110832013Y-76106533D02*
X110432013Y-76106533D01*
X110632013Y-76106533D02*
X110632013Y-75406533D01*
X110632013Y-75406533D02*
X110565346Y-75506533D01*
X110565346Y-75506533D02*
X110498680Y-75573200D01*
X110498680Y-75573200D02*
X110432013Y-75606533D01*
X111132013Y-76039866D02*
X111165347Y-76073200D01*
X111165347Y-76073200D02*
X111132013Y-76106533D01*
X111132013Y-76106533D02*
X111098680Y-76073200D01*
X111098680Y-76073200D02*
X111132013Y-76039866D01*
X111132013Y-76039866D02*
X111132013Y-76106533D01*
X111598680Y-75406533D02*
X111665346Y-75406533D01*
X111665346Y-75406533D02*
X111732013Y-75439866D01*
X111732013Y-75439866D02*
X111765346Y-75473200D01*
X111765346Y-75473200D02*
X111798680Y-75539866D01*
X111798680Y-75539866D02*
X111832013Y-75673200D01*
X111832013Y-75673200D02*
X111832013Y-75839866D01*
X111832013Y-75839866D02*
X111798680Y-75973200D01*
X111798680Y-75973200D02*
X111765346Y-76039866D01*
X111765346Y-76039866D02*
X111732013Y-76073200D01*
X111732013Y-76073200D02*
X111665346Y-76106533D01*
X111665346Y-76106533D02*
X111598680Y-76106533D01*
X111598680Y-76106533D02*
X111532013Y-76073200D01*
X111532013Y-76073200D02*
X111498680Y-76039866D01*
X111498680Y-76039866D02*
X111465346Y-75973200D01*
X111465346Y-75973200D02*
X111432013Y-75839866D01*
X111432013Y-75839866D02*
X111432013Y-75673200D01*
X111432013Y-75673200D02*
X111465346Y-75539866D01*
X111465346Y-75539866D02*
X111498680Y-75473200D01*
X111498680Y-75473200D02*
X111532013Y-75439866D01*
X111532013Y-75439866D02*
X111598680Y-75406533D01*
X100865350Y-77406533D02*
X100865350Y-76706533D01*
X101265350Y-77406533D02*
X100965350Y-77006533D01*
X101265350Y-76706533D02*
X100865350Y-77106533D01*
X101665350Y-77406533D02*
X101598684Y-77373200D01*
X101598684Y-77373200D02*
X101565350Y-77339866D01*
X101565350Y-77339866D02*
X101532017Y-77273200D01*
X101532017Y-77273200D02*
X101532017Y-77073200D01*
X101532017Y-77073200D02*
X101565350Y-77006533D01*
X101565350Y-77006533D02*
X101598684Y-76973200D01*
X101598684Y-76973200D02*
X101665350Y-76939866D01*
X101665350Y-76939866D02*
X101765350Y-76939866D01*
X101765350Y-76939866D02*
X101832017Y-76973200D01*
X101832017Y-76973200D02*
X101865350Y-77006533D01*
X101865350Y-77006533D02*
X101898684Y-77073200D01*
X101898684Y-77073200D02*
X101898684Y-77273200D01*
X101898684Y-77273200D02*
X101865350Y-77339866D01*
X101865350Y-77339866D02*
X101832017Y-77373200D01*
X101832017Y-77373200D02*
X101765350Y-77406533D01*
X101765350Y-77406533D02*
X101665350Y-77406533D01*
X102165350Y-77373200D02*
X102232017Y-77406533D01*
X102232017Y-77406533D02*
X102365350Y-77406533D01*
X102365350Y-77406533D02*
X102432017Y-77373200D01*
X102432017Y-77373200D02*
X102465350Y-77306533D01*
X102465350Y-77306533D02*
X102465350Y-77273200D01*
X102465350Y-77273200D02*
X102432017Y-77206533D01*
X102432017Y-77206533D02*
X102365350Y-77173200D01*
X102365350Y-77173200D02*
X102265350Y-77173200D01*
X102265350Y-77173200D02*
X102198683Y-77139866D01*
X102198683Y-77139866D02*
X102165350Y-77073200D01*
X102165350Y-77073200D02*
X102165350Y-77039866D01*
X102165350Y-77039866D02*
X102198683Y-76973200D01*
X102198683Y-76973200D02*
X102265350Y-76939866D01*
X102265350Y-76939866D02*
X102365350Y-76939866D01*
X102365350Y-76939866D02*
X102432017Y-76973200D01*
X102665350Y-76939866D02*
X102932017Y-76939866D01*
X102765350Y-76706533D02*
X102765350Y-77306533D01*
X102765350Y-77306533D02*
X102798684Y-77373200D01*
X102798684Y-77373200D02*
X102865350Y-77406533D01*
X102865350Y-77406533D02*
X102932017Y-77406533D01*
X103465350Y-77406533D02*
X103465350Y-77039866D01*
X103465350Y-77039866D02*
X103432017Y-76973200D01*
X103432017Y-76973200D02*
X103365350Y-76939866D01*
X103365350Y-76939866D02*
X103232017Y-76939866D01*
X103232017Y-76939866D02*
X103165350Y-76973200D01*
X103465350Y-77373200D02*
X103398684Y-77406533D01*
X103398684Y-77406533D02*
X103232017Y-77406533D01*
X103232017Y-77406533D02*
X103165350Y-77373200D01*
X103165350Y-77373200D02*
X103132017Y-77306533D01*
X103132017Y-77306533D02*
X103132017Y-77239866D01*
X103132017Y-77239866D02*
X103165350Y-77173200D01*
X103165350Y-77173200D02*
X103232017Y-77139866D01*
X103232017Y-77139866D02*
X103398684Y-77139866D01*
X103398684Y-77139866D02*
X103465350Y-77106533D01*
X104298683Y-77373200D02*
X104398683Y-77406533D01*
X104398683Y-77406533D02*
X104565350Y-77406533D01*
X104565350Y-77406533D02*
X104632016Y-77373200D01*
X104632016Y-77373200D02*
X104665350Y-77339866D01*
X104665350Y-77339866D02*
X104698683Y-77273200D01*
X104698683Y-77273200D02*
X104698683Y-77206533D01*
X104698683Y-77206533D02*
X104665350Y-77139866D01*
X104665350Y-77139866D02*
X104632016Y-77106533D01*
X104632016Y-77106533D02*
X104565350Y-77073200D01*
X104565350Y-77073200D02*
X104432016Y-77039866D01*
X104432016Y-77039866D02*
X104365350Y-77006533D01*
X104365350Y-77006533D02*
X104332016Y-76973200D01*
X104332016Y-76973200D02*
X104298683Y-76906533D01*
X104298683Y-76906533D02*
X104298683Y-76839866D01*
X104298683Y-76839866D02*
X104332016Y-76773200D01*
X104332016Y-76773200D02*
X104365350Y-76739866D01*
X104365350Y-76739866D02*
X104432016Y-76706533D01*
X104432016Y-76706533D02*
X104598683Y-76706533D01*
X104598683Y-76706533D02*
X104698683Y-76739866D01*
X105265350Y-77373200D02*
X105198683Y-77406533D01*
X105198683Y-77406533D02*
X105065350Y-77406533D01*
X105065350Y-77406533D02*
X104998683Y-77373200D01*
X104998683Y-77373200D02*
X104965350Y-77306533D01*
X104965350Y-77306533D02*
X104965350Y-77039866D01*
X104965350Y-77039866D02*
X104998683Y-76973200D01*
X104998683Y-76973200D02*
X105065350Y-76939866D01*
X105065350Y-76939866D02*
X105198683Y-76939866D01*
X105198683Y-76939866D02*
X105265350Y-76973200D01*
X105265350Y-76973200D02*
X105298683Y-77039866D01*
X105298683Y-77039866D02*
X105298683Y-77106533D01*
X105298683Y-77106533D02*
X104965350Y-77173200D01*
X105598683Y-77406533D02*
X105598683Y-76939866D01*
X105598683Y-77073200D02*
X105632017Y-77006533D01*
X105632017Y-77006533D02*
X105665350Y-76973200D01*
X105665350Y-76973200D02*
X105732017Y-76939866D01*
X105732017Y-76939866D02*
X105798683Y-76939866D01*
X106332016Y-76939866D02*
X106332016Y-77506533D01*
X106332016Y-77506533D02*
X106298683Y-77573200D01*
X106298683Y-77573200D02*
X106265350Y-77606533D01*
X106265350Y-77606533D02*
X106198683Y-77639866D01*
X106198683Y-77639866D02*
X106098683Y-77639866D01*
X106098683Y-77639866D02*
X106032016Y-77606533D01*
X106332016Y-77373200D02*
X106265350Y-77406533D01*
X106265350Y-77406533D02*
X106132016Y-77406533D01*
X106132016Y-77406533D02*
X106065350Y-77373200D01*
X106065350Y-77373200D02*
X106032016Y-77339866D01*
X106032016Y-77339866D02*
X105998683Y-77273200D01*
X105998683Y-77273200D02*
X105998683Y-77073200D01*
X105998683Y-77073200D02*
X106032016Y-77006533D01*
X106032016Y-77006533D02*
X106065350Y-76973200D01*
X106065350Y-76973200D02*
X106132016Y-76939866D01*
X106132016Y-76939866D02*
X106265350Y-76939866D01*
X106265350Y-76939866D02*
X106332016Y-76973200D01*
X106965349Y-77406533D02*
X106965349Y-77039866D01*
X106965349Y-77039866D02*
X106932016Y-76973200D01*
X106932016Y-76973200D02*
X106865349Y-76939866D01*
X106865349Y-76939866D02*
X106732016Y-76939866D01*
X106732016Y-76939866D02*
X106665349Y-76973200D01*
X106965349Y-77373200D02*
X106898683Y-77406533D01*
X106898683Y-77406533D02*
X106732016Y-77406533D01*
X106732016Y-77406533D02*
X106665349Y-77373200D01*
X106665349Y-77373200D02*
X106632016Y-77306533D01*
X106632016Y-77306533D02*
X106632016Y-77239866D01*
X106632016Y-77239866D02*
X106665349Y-77173200D01*
X106665349Y-77173200D02*
X106732016Y-77139866D01*
X106732016Y-77139866D02*
X106898683Y-77139866D01*
X106898683Y-77139866D02*
X106965349Y-77106533D01*
X107298682Y-77406533D02*
X107298682Y-76706533D01*
X107365349Y-77139866D02*
X107565349Y-77406533D01*
X107565349Y-76939866D02*
X107298682Y-77206533D01*
X107865349Y-77406533D02*
X107865349Y-76939866D01*
X107865349Y-76706533D02*
X107832016Y-76739866D01*
X107832016Y-76739866D02*
X107865349Y-76773200D01*
X107865349Y-76773200D02*
X107898683Y-76739866D01*
X107898683Y-76739866D02*
X107865349Y-76706533D01*
X107865349Y-76706533D02*
X107865349Y-76773200D01*
X108165349Y-77373200D02*
X108232016Y-77406533D01*
X108232016Y-77406533D02*
X108365349Y-77406533D01*
X108365349Y-77406533D02*
X108432016Y-77373200D01*
X108432016Y-77373200D02*
X108465349Y-77306533D01*
X108465349Y-77306533D02*
X108465349Y-77273200D01*
X108465349Y-77273200D02*
X108432016Y-77206533D01*
X108432016Y-77206533D02*
X108365349Y-77173200D01*
X108365349Y-77173200D02*
X108265349Y-77173200D01*
X108265349Y-77173200D02*
X108198682Y-77139866D01*
X108198682Y-77139866D02*
X108165349Y-77073200D01*
X108165349Y-77073200D02*
X108165349Y-77039866D01*
X108165349Y-77039866D02*
X108198682Y-76973200D01*
X108198682Y-76973200D02*
X108265349Y-76939866D01*
X108265349Y-76939866D02*
X108365349Y-76939866D01*
X108365349Y-76939866D02*
X108432016Y-76973200D01*
X76606533Y-56834649D02*
X76273200Y-57067982D01*
X76606533Y-57234649D02*
X75906533Y-57234649D01*
X75906533Y-57234649D02*
X75906533Y-56967982D01*
X75906533Y-56967982D02*
X75939866Y-56901316D01*
X75939866Y-56901316D02*
X75973200Y-56867982D01*
X75973200Y-56867982D02*
X76039866Y-56834649D01*
X76039866Y-56834649D02*
X76139866Y-56834649D01*
X76139866Y-56834649D02*
X76206533Y-56867982D01*
X76206533Y-56867982D02*
X76239866Y-56901316D01*
X76239866Y-56901316D02*
X76273200Y-56967982D01*
X76273200Y-56967982D02*
X76273200Y-57234649D01*
X76239866Y-56534649D02*
X76239866Y-56301316D01*
X76606533Y-56201316D02*
X76606533Y-56534649D01*
X76606533Y-56534649D02*
X75906533Y-56534649D01*
X75906533Y-56534649D02*
X75906533Y-56201316D01*
X76573200Y-55934649D02*
X76606533Y-55834649D01*
X76606533Y-55834649D02*
X76606533Y-55667983D01*
X76606533Y-55667983D02*
X76573200Y-55601316D01*
X76573200Y-55601316D02*
X76539866Y-55567983D01*
X76539866Y-55567983D02*
X76473200Y-55534649D01*
X76473200Y-55534649D02*
X76406533Y-55534649D01*
X76406533Y-55534649D02*
X76339866Y-55567983D01*
X76339866Y-55567983D02*
X76306533Y-55601316D01*
X76306533Y-55601316D02*
X76273200Y-55667983D01*
X76273200Y-55667983D02*
X76239866Y-55801316D01*
X76239866Y-55801316D02*
X76206533Y-55867983D01*
X76206533Y-55867983D02*
X76173200Y-55901316D01*
X76173200Y-55901316D02*
X76106533Y-55934649D01*
X76106533Y-55934649D02*
X76039866Y-55934649D01*
X76039866Y-55934649D02*
X75973200Y-55901316D01*
X75973200Y-55901316D02*
X75939866Y-55867983D01*
X75939866Y-55867983D02*
X75906533Y-55801316D01*
X75906533Y-55801316D02*
X75906533Y-55634649D01*
X75906533Y-55634649D02*
X75939866Y-55534649D01*
X76239866Y-55234649D02*
X76239866Y-55001316D01*
X76606533Y-54901316D02*
X76606533Y-55234649D01*
X76606533Y-55234649D02*
X75906533Y-55234649D01*
X75906533Y-55234649D02*
X75906533Y-54901316D01*
X75906533Y-54701316D02*
X75906533Y-54301316D01*
X76606533Y-54501316D02*
X75906533Y-54501316D01*
X76339866Y-63101316D02*
X76373200Y-63001316D01*
X76373200Y-63001316D02*
X76406533Y-62967982D01*
X76406533Y-62967982D02*
X76473200Y-62934649D01*
X76473200Y-62934649D02*
X76573200Y-62934649D01*
X76573200Y-62934649D02*
X76639866Y-62967982D01*
X76639866Y-62967982D02*
X76673200Y-63001316D01*
X76673200Y-63001316D02*
X76706533Y-63067982D01*
X76706533Y-63067982D02*
X76706533Y-63334649D01*
X76706533Y-63334649D02*
X76006533Y-63334649D01*
X76006533Y-63334649D02*
X76006533Y-63101316D01*
X76006533Y-63101316D02*
X76039866Y-63034649D01*
X76039866Y-63034649D02*
X76073200Y-63001316D01*
X76073200Y-63001316D02*
X76139866Y-62967982D01*
X76139866Y-62967982D02*
X76206533Y-62967982D01*
X76206533Y-62967982D02*
X76273200Y-63001316D01*
X76273200Y-63001316D02*
X76306533Y-63034649D01*
X76306533Y-63034649D02*
X76339866Y-63101316D01*
X76339866Y-63101316D02*
X76339866Y-63334649D01*
X76006533Y-62501316D02*
X76006533Y-62367982D01*
X76006533Y-62367982D02*
X76039866Y-62301316D01*
X76039866Y-62301316D02*
X76106533Y-62234649D01*
X76106533Y-62234649D02*
X76239866Y-62201316D01*
X76239866Y-62201316D02*
X76473200Y-62201316D01*
X76473200Y-62201316D02*
X76606533Y-62234649D01*
X76606533Y-62234649D02*
X76673200Y-62301316D01*
X76673200Y-62301316D02*
X76706533Y-62367982D01*
X76706533Y-62367982D02*
X76706533Y-62501316D01*
X76706533Y-62501316D02*
X76673200Y-62567982D01*
X76673200Y-62567982D02*
X76606533Y-62634649D01*
X76606533Y-62634649D02*
X76473200Y-62667982D01*
X76473200Y-62667982D02*
X76239866Y-62667982D01*
X76239866Y-62667982D02*
X76106533Y-62634649D01*
X76106533Y-62634649D02*
X76039866Y-62567982D01*
X76039866Y-62567982D02*
X76006533Y-62501316D01*
X76006533Y-61767983D02*
X76006533Y-61634649D01*
X76006533Y-61634649D02*
X76039866Y-61567983D01*
X76039866Y-61567983D02*
X76106533Y-61501316D01*
X76106533Y-61501316D02*
X76239866Y-61467983D01*
X76239866Y-61467983D02*
X76473200Y-61467983D01*
X76473200Y-61467983D02*
X76606533Y-61501316D01*
X76606533Y-61501316D02*
X76673200Y-61567983D01*
X76673200Y-61567983D02*
X76706533Y-61634649D01*
X76706533Y-61634649D02*
X76706533Y-61767983D01*
X76706533Y-61767983D02*
X76673200Y-61834649D01*
X76673200Y-61834649D02*
X76606533Y-61901316D01*
X76606533Y-61901316D02*
X76473200Y-61934649D01*
X76473200Y-61934649D02*
X76239866Y-61934649D01*
X76239866Y-61934649D02*
X76106533Y-61901316D01*
X76106533Y-61901316D02*
X76039866Y-61834649D01*
X76039866Y-61834649D02*
X76006533Y-61767983D01*
X76006533Y-61267983D02*
X76006533Y-60867983D01*
X76706533Y-61067983D02*
X76006533Y-61067983D01*
X123649999Y-84016033D02*
X123416666Y-83682700D01*
X123249999Y-84016033D02*
X123249999Y-83316033D01*
X123249999Y-83316033D02*
X123516666Y-83316033D01*
X123516666Y-83316033D02*
X123583333Y-83349366D01*
X123583333Y-83349366D02*
X123616666Y-83382700D01*
X123616666Y-83382700D02*
X123649999Y-83449366D01*
X123649999Y-83449366D02*
X123649999Y-83549366D01*
X123649999Y-83549366D02*
X123616666Y-83616033D01*
X123616666Y-83616033D02*
X123583333Y-83649366D01*
X123583333Y-83649366D02*
X123516666Y-83682700D01*
X123516666Y-83682700D02*
X123249999Y-83682700D01*
X124316666Y-84016033D02*
X123916666Y-84016033D01*
X124116666Y-84016033D02*
X124116666Y-83316033D01*
X124116666Y-83316033D02*
X124049999Y-83416033D01*
X124049999Y-83416033D02*
X123983333Y-83482700D01*
X123983333Y-83482700D02*
X123916666Y-83516033D01*
X124716666Y-83616033D02*
X124650000Y-83582700D01*
X124650000Y-83582700D02*
X124616666Y-83549366D01*
X124616666Y-83549366D02*
X124583333Y-83482700D01*
X124583333Y-83482700D02*
X124583333Y-83449366D01*
X124583333Y-83449366D02*
X124616666Y-83382700D01*
X124616666Y-83382700D02*
X124650000Y-83349366D01*
X124650000Y-83349366D02*
X124716666Y-83316033D01*
X124716666Y-83316033D02*
X124850000Y-83316033D01*
X124850000Y-83316033D02*
X124916666Y-83349366D01*
X124916666Y-83349366D02*
X124950000Y-83382700D01*
X124950000Y-83382700D02*
X124983333Y-83449366D01*
X124983333Y-83449366D02*
X124983333Y-83482700D01*
X124983333Y-83482700D02*
X124950000Y-83549366D01*
X124950000Y-83549366D02*
X124916666Y-83582700D01*
X124916666Y-83582700D02*
X124850000Y-83616033D01*
X124850000Y-83616033D02*
X124716666Y-83616033D01*
X124716666Y-83616033D02*
X124650000Y-83649366D01*
X124650000Y-83649366D02*
X124616666Y-83682700D01*
X124616666Y-83682700D02*
X124583333Y-83749366D01*
X124583333Y-83749366D02*
X124583333Y-83882700D01*
X124583333Y-83882700D02*
X124616666Y-83949366D01*
X124616666Y-83949366D02*
X124650000Y-83982700D01*
X124650000Y-83982700D02*
X124716666Y-84016033D01*
X124716666Y-84016033D02*
X124850000Y-84016033D01*
X124850000Y-84016033D02*
X124916666Y-83982700D01*
X124916666Y-83982700D02*
X124950000Y-83949366D01*
X124950000Y-83949366D02*
X124983333Y-83882700D01*
X124983333Y-83882700D02*
X124983333Y-83749366D01*
X124983333Y-83749366D02*
X124950000Y-83682700D01*
X124950000Y-83682700D02*
X124916666Y-83649366D01*
X124916666Y-83649366D02*
X124850000Y-83616033D01*
X118866666Y-75736033D02*
X118866666Y-76302700D01*
X118866666Y-76302700D02*
X118900000Y-76369366D01*
X118900000Y-76369366D02*
X118933333Y-76402700D01*
X118933333Y-76402700D02*
X119000000Y-76436033D01*
X119000000Y-76436033D02*
X119133333Y-76436033D01*
X119133333Y-76436033D02*
X119200000Y-76402700D01*
X119200000Y-76402700D02*
X119233333Y-76369366D01*
X119233333Y-76369366D02*
X119266666Y-76302700D01*
X119266666Y-76302700D02*
X119266666Y-75736033D01*
X119566666Y-75802700D02*
X119599999Y-75769366D01*
X119599999Y-75769366D02*
X119666666Y-75736033D01*
X119666666Y-75736033D02*
X119833333Y-75736033D01*
X119833333Y-75736033D02*
X119899999Y-75769366D01*
X119899999Y-75769366D02*
X119933333Y-75802700D01*
X119933333Y-75802700D02*
X119966666Y-75869366D01*
X119966666Y-75869366D02*
X119966666Y-75936033D01*
X119966666Y-75936033D02*
X119933333Y-76036033D01*
X119933333Y-76036033D02*
X119533333Y-76436033D01*
X119533333Y-76436033D02*
X119966666Y-76436033D01*
X65516033Y-50750000D02*
X65182700Y-50983333D01*
X65516033Y-51150000D02*
X64816033Y-51150000D01*
X64816033Y-51150000D02*
X64816033Y-50883333D01*
X64816033Y-50883333D02*
X64849366Y-50816667D01*
X64849366Y-50816667D02*
X64882700Y-50783333D01*
X64882700Y-50783333D02*
X64949366Y-50750000D01*
X64949366Y-50750000D02*
X65049366Y-50750000D01*
X65049366Y-50750000D02*
X65116033Y-50783333D01*
X65116033Y-50783333D02*
X65149366Y-50816667D01*
X65149366Y-50816667D02*
X65182700Y-50883333D01*
X65182700Y-50883333D02*
X65182700Y-51150000D01*
X64882700Y-50483333D02*
X64849366Y-50450000D01*
X64849366Y-50450000D02*
X64816033Y-50383333D01*
X64816033Y-50383333D02*
X64816033Y-50216667D01*
X64816033Y-50216667D02*
X64849366Y-50150000D01*
X64849366Y-50150000D02*
X64882700Y-50116667D01*
X64882700Y-50116667D02*
X64949366Y-50083333D01*
X64949366Y-50083333D02*
X65016033Y-50083333D01*
X65016033Y-50083333D02*
X65116033Y-50116667D01*
X65116033Y-50116667D02*
X65516033Y-50516667D01*
X65516033Y-50516667D02*
X65516033Y-50083333D01*
X64816033Y-49450000D02*
X64816033Y-49783333D01*
X64816033Y-49783333D02*
X65149366Y-49816666D01*
X65149366Y-49816666D02*
X65116033Y-49783333D01*
X65116033Y-49783333D02*
X65082700Y-49716666D01*
X65082700Y-49716666D02*
X65082700Y-49550000D01*
X65082700Y-49550000D02*
X65116033Y-49483333D01*
X65116033Y-49483333D02*
X65149366Y-49450000D01*
X65149366Y-49450000D02*
X65216033Y-49416666D01*
X65216033Y-49416666D02*
X65382700Y-49416666D01*
X65382700Y-49416666D02*
X65449366Y-49450000D01*
X65449366Y-49450000D02*
X65482700Y-49483333D01*
X65482700Y-49483333D02*
X65516033Y-49550000D01*
X65516033Y-49550000D02*
X65516033Y-49716666D01*
X65516033Y-49716666D02*
X65482700Y-49783333D01*
X65482700Y-49783333D02*
X65449366Y-49816666D01*
X144349999Y-84016033D02*
X144116666Y-83682700D01*
X143949999Y-84016033D02*
X143949999Y-83316033D01*
X143949999Y-83316033D02*
X144216666Y-83316033D01*
X144216666Y-83316033D02*
X144283333Y-83349366D01*
X144283333Y-83349366D02*
X144316666Y-83382700D01*
X144316666Y-83382700D02*
X144349999Y-83449366D01*
X144349999Y-83449366D02*
X144349999Y-83549366D01*
X144349999Y-83549366D02*
X144316666Y-83616033D01*
X144316666Y-83616033D02*
X144283333Y-83649366D01*
X144283333Y-83649366D02*
X144216666Y-83682700D01*
X144216666Y-83682700D02*
X143949999Y-83682700D01*
X144616666Y-83382700D02*
X144649999Y-83349366D01*
X144649999Y-83349366D02*
X144716666Y-83316033D01*
X144716666Y-83316033D02*
X144883333Y-83316033D01*
X144883333Y-83316033D02*
X144949999Y-83349366D01*
X144949999Y-83349366D02*
X144983333Y-83382700D01*
X144983333Y-83382700D02*
X145016666Y-83449366D01*
X145016666Y-83449366D02*
X145016666Y-83516033D01*
X145016666Y-83516033D02*
X144983333Y-83616033D01*
X144983333Y-83616033D02*
X144583333Y-84016033D01*
X144583333Y-84016033D02*
X145016666Y-84016033D01*
X145283333Y-83382700D02*
X145316666Y-83349366D01*
X145316666Y-83349366D02*
X145383333Y-83316033D01*
X145383333Y-83316033D02*
X145550000Y-83316033D01*
X145550000Y-83316033D02*
X145616666Y-83349366D01*
X145616666Y-83349366D02*
X145650000Y-83382700D01*
X145650000Y-83382700D02*
X145683333Y-83449366D01*
X145683333Y-83449366D02*
X145683333Y-83516033D01*
X145683333Y-83516033D02*
X145650000Y-83616033D01*
X145650000Y-83616033D02*
X145250000Y-84016033D01*
X145250000Y-84016033D02*
X145683333Y-84016033D01*
X154762499Y-84016033D02*
X154529166Y-83682700D01*
X154362499Y-84016033D02*
X154362499Y-83316033D01*
X154362499Y-83316033D02*
X154629166Y-83316033D01*
X154629166Y-83316033D02*
X154695833Y-83349366D01*
X154695833Y-83349366D02*
X154729166Y-83382700D01*
X154729166Y-83382700D02*
X154762499Y-83449366D01*
X154762499Y-83449366D02*
X154762499Y-83549366D01*
X154762499Y-83549366D02*
X154729166Y-83616033D01*
X154729166Y-83616033D02*
X154695833Y-83649366D01*
X154695833Y-83649366D02*
X154629166Y-83682700D01*
X154629166Y-83682700D02*
X154362499Y-83682700D01*
X155029166Y-83382700D02*
X155062499Y-83349366D01*
X155062499Y-83349366D02*
X155129166Y-83316033D01*
X155129166Y-83316033D02*
X155295833Y-83316033D01*
X155295833Y-83316033D02*
X155362499Y-83349366D01*
X155362499Y-83349366D02*
X155395833Y-83382700D01*
X155395833Y-83382700D02*
X155429166Y-83449366D01*
X155429166Y-83449366D02*
X155429166Y-83516033D01*
X155429166Y-83516033D02*
X155395833Y-83616033D01*
X155395833Y-83616033D02*
X154995833Y-84016033D01*
X154995833Y-84016033D02*
X155429166Y-84016033D01*
X156029166Y-83549366D02*
X156029166Y-84016033D01*
X155862500Y-83282700D02*
X155695833Y-83782700D01*
X155695833Y-83782700D02*
X156129166Y-83782700D01*
X133962499Y-84016033D02*
X133729166Y-83682700D01*
X133562499Y-84016033D02*
X133562499Y-83316033D01*
X133562499Y-83316033D02*
X133829166Y-83316033D01*
X133829166Y-83316033D02*
X133895833Y-83349366D01*
X133895833Y-83349366D02*
X133929166Y-83382700D01*
X133929166Y-83382700D02*
X133962499Y-83449366D01*
X133962499Y-83449366D02*
X133962499Y-83549366D01*
X133962499Y-83549366D02*
X133929166Y-83616033D01*
X133929166Y-83616033D02*
X133895833Y-83649366D01*
X133895833Y-83649366D02*
X133829166Y-83682700D01*
X133829166Y-83682700D02*
X133562499Y-83682700D01*
X134229166Y-83382700D02*
X134262499Y-83349366D01*
X134262499Y-83349366D02*
X134329166Y-83316033D01*
X134329166Y-83316033D02*
X134495833Y-83316033D01*
X134495833Y-83316033D02*
X134562499Y-83349366D01*
X134562499Y-83349366D02*
X134595833Y-83382700D01*
X134595833Y-83382700D02*
X134629166Y-83449366D01*
X134629166Y-83449366D02*
X134629166Y-83516033D01*
X134629166Y-83516033D02*
X134595833Y-83616033D01*
X134595833Y-83616033D02*
X134195833Y-84016033D01*
X134195833Y-84016033D02*
X134629166Y-84016033D01*
X135062500Y-83316033D02*
X135129166Y-83316033D01*
X135129166Y-83316033D02*
X135195833Y-83349366D01*
X135195833Y-83349366D02*
X135229166Y-83382700D01*
X135229166Y-83382700D02*
X135262500Y-83449366D01*
X135262500Y-83449366D02*
X135295833Y-83582700D01*
X135295833Y-83582700D02*
X135295833Y-83749366D01*
X135295833Y-83749366D02*
X135262500Y-83882700D01*
X135262500Y-83882700D02*
X135229166Y-83949366D01*
X135229166Y-83949366D02*
X135195833Y-83982700D01*
X135195833Y-83982700D02*
X135129166Y-84016033D01*
X135129166Y-84016033D02*
X135062500Y-84016033D01*
X135062500Y-84016033D02*
X134995833Y-83982700D01*
X134995833Y-83982700D02*
X134962500Y-83949366D01*
X134962500Y-83949366D02*
X134929166Y-83882700D01*
X134929166Y-83882700D02*
X134895833Y-83749366D01*
X134895833Y-83749366D02*
X134895833Y-83582700D01*
X134895833Y-83582700D02*
X134929166Y-83449366D01*
X134929166Y-83449366D02*
X134962500Y-83382700D01*
X134962500Y-83382700D02*
X134995833Y-83349366D01*
X134995833Y-83349366D02*
X135062500Y-83316033D01*
X129166666Y-75736033D02*
X129166666Y-76302700D01*
X129166666Y-76302700D02*
X129200000Y-76369366D01*
X129200000Y-76369366D02*
X129233333Y-76402700D01*
X129233333Y-76402700D02*
X129300000Y-76436033D01*
X129300000Y-76436033D02*
X129433333Y-76436033D01*
X129433333Y-76436033D02*
X129500000Y-76402700D01*
X129500000Y-76402700D02*
X129533333Y-76369366D01*
X129533333Y-76369366D02*
X129566666Y-76302700D01*
X129566666Y-76302700D02*
X129566666Y-75736033D01*
X130199999Y-75969366D02*
X130199999Y-76436033D01*
X130033333Y-75702700D02*
X129866666Y-76202700D01*
X129866666Y-76202700D02*
X130299999Y-76202700D01*
X139566666Y-75736033D02*
X139566666Y-76302700D01*
X139566666Y-76302700D02*
X139600000Y-76369366D01*
X139600000Y-76369366D02*
X139633333Y-76402700D01*
X139633333Y-76402700D02*
X139700000Y-76436033D01*
X139700000Y-76436033D02*
X139833333Y-76436033D01*
X139833333Y-76436033D02*
X139900000Y-76402700D01*
X139900000Y-76402700D02*
X139933333Y-76369366D01*
X139933333Y-76369366D02*
X139966666Y-76302700D01*
X139966666Y-76302700D02*
X139966666Y-75736033D01*
X140599999Y-75736033D02*
X140466666Y-75736033D01*
X140466666Y-75736033D02*
X140399999Y-75769366D01*
X140399999Y-75769366D02*
X140366666Y-75802700D01*
X140366666Y-75802700D02*
X140299999Y-75902700D01*
X140299999Y-75902700D02*
X140266666Y-76036033D01*
X140266666Y-76036033D02*
X140266666Y-76302700D01*
X140266666Y-76302700D02*
X140299999Y-76369366D01*
X140299999Y-76369366D02*
X140333333Y-76402700D01*
X140333333Y-76402700D02*
X140399999Y-76436033D01*
X140399999Y-76436033D02*
X140533333Y-76436033D01*
X140533333Y-76436033D02*
X140599999Y-76402700D01*
X140599999Y-76402700D02*
X140633333Y-76369366D01*
X140633333Y-76369366D02*
X140666666Y-76302700D01*
X140666666Y-76302700D02*
X140666666Y-76136033D01*
X140666666Y-76136033D02*
X140633333Y-76069366D01*
X140633333Y-76069366D02*
X140599999Y-76036033D01*
X140599999Y-76036033D02*
X140533333Y-76002700D01*
X140533333Y-76002700D02*
X140399999Y-76002700D01*
X140399999Y-76002700D02*
X140333333Y-76036033D01*
X140333333Y-76036033D02*
X140299999Y-76069366D01*
X140299999Y-76069366D02*
X140266666Y-76136033D01*
X149966666Y-75736033D02*
X149966666Y-76302700D01*
X149966666Y-76302700D02*
X150000000Y-76369366D01*
X150000000Y-76369366D02*
X150033333Y-76402700D01*
X150033333Y-76402700D02*
X150100000Y-76436033D01*
X150100000Y-76436033D02*
X150233333Y-76436033D01*
X150233333Y-76436033D02*
X150300000Y-76402700D01*
X150300000Y-76402700D02*
X150333333Y-76369366D01*
X150333333Y-76369366D02*
X150366666Y-76302700D01*
X150366666Y-76302700D02*
X150366666Y-75736033D01*
X150799999Y-76036033D02*
X150733333Y-76002700D01*
X150733333Y-76002700D02*
X150699999Y-75969366D01*
X150699999Y-75969366D02*
X150666666Y-75902700D01*
X150666666Y-75902700D02*
X150666666Y-75869366D01*
X150666666Y-75869366D02*
X150699999Y-75802700D01*
X150699999Y-75802700D02*
X150733333Y-75769366D01*
X150733333Y-75769366D02*
X150799999Y-75736033D01*
X150799999Y-75736033D02*
X150933333Y-75736033D01*
X150933333Y-75736033D02*
X150999999Y-75769366D01*
X150999999Y-75769366D02*
X151033333Y-75802700D01*
X151033333Y-75802700D02*
X151066666Y-75869366D01*
X151066666Y-75869366D02*
X151066666Y-75902700D01*
X151066666Y-75902700D02*
X151033333Y-75969366D01*
X151033333Y-75969366D02*
X150999999Y-76002700D01*
X150999999Y-76002700D02*
X150933333Y-76036033D01*
X150933333Y-76036033D02*
X150799999Y-76036033D01*
X150799999Y-76036033D02*
X150733333Y-76069366D01*
X150733333Y-76069366D02*
X150699999Y-76102700D01*
X150699999Y-76102700D02*
X150666666Y-76169366D01*
X150666666Y-76169366D02*
X150666666Y-76302700D01*
X150666666Y-76302700D02*
X150699999Y-76369366D01*
X150699999Y-76369366D02*
X150733333Y-76402700D01*
X150733333Y-76402700D02*
X150799999Y-76436033D01*
X150799999Y-76436033D02*
X150933333Y-76436033D01*
X150933333Y-76436033D02*
X150999999Y-76402700D01*
X150999999Y-76402700D02*
X151033333Y-76369366D01*
X151033333Y-76369366D02*
X151066666Y-76302700D01*
X151066666Y-76302700D02*
X151066666Y-76169366D01*
X151066666Y-76169366D02*
X151033333Y-76102700D01*
X151033333Y-76102700D02*
X150999999Y-76069366D01*
X150999999Y-76069366D02*
X150933333Y-76036033D01*
X112449366Y-62328333D02*
X112449366Y-62561666D01*
X112816033Y-62561666D02*
X112116033Y-62561666D01*
X112116033Y-62561666D02*
X112116033Y-62228333D01*
X112816033Y-61594999D02*
X112816033Y-61994999D01*
X112816033Y-61794999D02*
X112116033Y-61794999D01*
X112116033Y-61794999D02*
X112216033Y-61861666D01*
X112216033Y-61861666D02*
X112282700Y-61928333D01*
X112282700Y-61928333D02*
X112316033Y-61994999D01*
X94383333Y-66036033D02*
X94150000Y-65702700D01*
X93983333Y-66036033D02*
X93983333Y-65336033D01*
X93983333Y-65336033D02*
X94250000Y-65336033D01*
X94250000Y-65336033D02*
X94316667Y-65369366D01*
X94316667Y-65369366D02*
X94350000Y-65402700D01*
X94350000Y-65402700D02*
X94383333Y-65469366D01*
X94383333Y-65469366D02*
X94383333Y-65569366D01*
X94383333Y-65569366D02*
X94350000Y-65636033D01*
X94350000Y-65636033D02*
X94316667Y-65669366D01*
X94316667Y-65669366D02*
X94250000Y-65702700D01*
X94250000Y-65702700D02*
X93983333Y-65702700D01*
X94616667Y-65336033D02*
X95050000Y-65336033D01*
X95050000Y-65336033D02*
X94816667Y-65602700D01*
X94816667Y-65602700D02*
X94916667Y-65602700D01*
X94916667Y-65602700D02*
X94983333Y-65636033D01*
X94983333Y-65636033D02*
X95016667Y-65669366D01*
X95016667Y-65669366D02*
X95050000Y-65736033D01*
X95050000Y-65736033D02*
X95050000Y-65902700D01*
X95050000Y-65902700D02*
X95016667Y-65969366D01*
X95016667Y-65969366D02*
X94983333Y-66002700D01*
X94983333Y-66002700D02*
X94916667Y-66036033D01*
X94916667Y-66036033D02*
X94716667Y-66036033D01*
X94716667Y-66036033D02*
X94650000Y-66002700D01*
X94650000Y-66002700D02*
X94616667Y-65969366D01*
X94795833Y-72902700D02*
X94729166Y-72869366D01*
X94729166Y-72869366D02*
X94662500Y-72802700D01*
X94662500Y-72802700D02*
X94562500Y-72702700D01*
X94562500Y-72702700D02*
X94495833Y-72669366D01*
X94495833Y-72669366D02*
X94429166Y-72669366D01*
X94462500Y-72836033D02*
X94395833Y-72802700D01*
X94395833Y-72802700D02*
X94329166Y-72736033D01*
X94329166Y-72736033D02*
X94295833Y-72602700D01*
X94295833Y-72602700D02*
X94295833Y-72369366D01*
X94295833Y-72369366D02*
X94329166Y-72236033D01*
X94329166Y-72236033D02*
X94395833Y-72169366D01*
X94395833Y-72169366D02*
X94462500Y-72136033D01*
X94462500Y-72136033D02*
X94595833Y-72136033D01*
X94595833Y-72136033D02*
X94662500Y-72169366D01*
X94662500Y-72169366D02*
X94729166Y-72236033D01*
X94729166Y-72236033D02*
X94762500Y-72369366D01*
X94762500Y-72369366D02*
X94762500Y-72602700D01*
X94762500Y-72602700D02*
X94729166Y-72736033D01*
X94729166Y-72736033D02*
X94662500Y-72802700D01*
X94662500Y-72802700D02*
X94595833Y-72836033D01*
X94595833Y-72836033D02*
X94462500Y-72836033D01*
X95029166Y-72202700D02*
X95062499Y-72169366D01*
X95062499Y-72169366D02*
X95129166Y-72136033D01*
X95129166Y-72136033D02*
X95295833Y-72136033D01*
X95295833Y-72136033D02*
X95362499Y-72169366D01*
X95362499Y-72169366D02*
X95395833Y-72202700D01*
X95395833Y-72202700D02*
X95429166Y-72269366D01*
X95429166Y-72269366D02*
X95429166Y-72336033D01*
X95429166Y-72336033D02*
X95395833Y-72436033D01*
X95395833Y-72436033D02*
X94995833Y-72836033D01*
X94995833Y-72836033D02*
X95429166Y-72836033D01*
X103516033Y-58436666D02*
X102816033Y-58436666D01*
X102816033Y-58436666D02*
X102816033Y-58269999D01*
X102816033Y-58269999D02*
X102849366Y-58169999D01*
X102849366Y-58169999D02*
X102916033Y-58103333D01*
X102916033Y-58103333D02*
X102982700Y-58069999D01*
X102982700Y-58069999D02*
X103116033Y-58036666D01*
X103116033Y-58036666D02*
X103216033Y-58036666D01*
X103216033Y-58036666D02*
X103349366Y-58069999D01*
X103349366Y-58069999D02*
X103416033Y-58103333D01*
X103416033Y-58103333D02*
X103482700Y-58169999D01*
X103482700Y-58169999D02*
X103516033Y-58269999D01*
X103516033Y-58269999D02*
X103516033Y-58436666D01*
X102882700Y-57769999D02*
X102849366Y-57736666D01*
X102849366Y-57736666D02*
X102816033Y-57669999D01*
X102816033Y-57669999D02*
X102816033Y-57503333D01*
X102816033Y-57503333D02*
X102849366Y-57436666D01*
X102849366Y-57436666D02*
X102882700Y-57403333D01*
X102882700Y-57403333D02*
X102949366Y-57369999D01*
X102949366Y-57369999D02*
X103016033Y-57369999D01*
X103016033Y-57369999D02*
X103116033Y-57403333D01*
X103116033Y-57403333D02*
X103516033Y-57803333D01*
X103516033Y-57803333D02*
X103516033Y-57369999D01*
X87795833Y-72902700D02*
X87729166Y-72869366D01*
X87729166Y-72869366D02*
X87662500Y-72802700D01*
X87662500Y-72802700D02*
X87562500Y-72702700D01*
X87562500Y-72702700D02*
X87495833Y-72669366D01*
X87495833Y-72669366D02*
X87429166Y-72669366D01*
X87462500Y-72836033D02*
X87395833Y-72802700D01*
X87395833Y-72802700D02*
X87329166Y-72736033D01*
X87329166Y-72736033D02*
X87295833Y-72602700D01*
X87295833Y-72602700D02*
X87295833Y-72369366D01*
X87295833Y-72369366D02*
X87329166Y-72236033D01*
X87329166Y-72236033D02*
X87395833Y-72169366D01*
X87395833Y-72169366D02*
X87462500Y-72136033D01*
X87462500Y-72136033D02*
X87595833Y-72136033D01*
X87595833Y-72136033D02*
X87662500Y-72169366D01*
X87662500Y-72169366D02*
X87729166Y-72236033D01*
X87729166Y-72236033D02*
X87762500Y-72369366D01*
X87762500Y-72369366D02*
X87762500Y-72602700D01*
X87762500Y-72602700D02*
X87729166Y-72736033D01*
X87729166Y-72736033D02*
X87662500Y-72802700D01*
X87662500Y-72802700D02*
X87595833Y-72836033D01*
X87595833Y-72836033D02*
X87462500Y-72836033D01*
X88429166Y-72836033D02*
X88029166Y-72836033D01*
X88229166Y-72836033D02*
X88229166Y-72136033D01*
X88229166Y-72136033D02*
X88162499Y-72236033D01*
X88162499Y-72236033D02*
X88095833Y-72302700D01*
X88095833Y-72302700D02*
X88029166Y-72336033D01*
X82866666Y-50536033D02*
X82866666Y-51036033D01*
X82866666Y-51036033D02*
X82833333Y-51136033D01*
X82833333Y-51136033D02*
X82766666Y-51202700D01*
X82766666Y-51202700D02*
X82666666Y-51236033D01*
X82666666Y-51236033D02*
X82600000Y-51236033D01*
X83566666Y-51236033D02*
X83166666Y-51236033D01*
X83366666Y-51236033D02*
X83366666Y-50536033D01*
X83366666Y-50536033D02*
X83299999Y-50636033D01*
X83299999Y-50636033D02*
X83233333Y-50702700D01*
X83233333Y-50702700D02*
X83166666Y-50736033D01*
X63016033Y-78216666D02*
X62682700Y-78449999D01*
X63016033Y-78616666D02*
X62316033Y-78616666D01*
X62316033Y-78616666D02*
X62316033Y-78349999D01*
X62316033Y-78349999D02*
X62349366Y-78283333D01*
X62349366Y-78283333D02*
X62382700Y-78249999D01*
X62382700Y-78249999D02*
X62449366Y-78216666D01*
X62449366Y-78216666D02*
X62549366Y-78216666D01*
X62549366Y-78216666D02*
X62616033Y-78249999D01*
X62616033Y-78249999D02*
X62649366Y-78283333D01*
X62649366Y-78283333D02*
X62682700Y-78349999D01*
X62682700Y-78349999D02*
X62682700Y-78616666D01*
X63016033Y-77549999D02*
X63016033Y-77949999D01*
X63016033Y-77749999D02*
X62316033Y-77749999D01*
X62316033Y-77749999D02*
X62416033Y-77816666D01*
X62416033Y-77816666D02*
X62482700Y-77883333D01*
X62482700Y-77883333D02*
X62516033Y-77949999D01*
X94383333Y-64636033D02*
X94150000Y-64302700D01*
X93983333Y-64636033D02*
X93983333Y-63936033D01*
X93983333Y-63936033D02*
X94250000Y-63936033D01*
X94250000Y-63936033D02*
X94316667Y-63969366D01*
X94316667Y-63969366D02*
X94350000Y-64002700D01*
X94350000Y-64002700D02*
X94383333Y-64069366D01*
X94383333Y-64069366D02*
X94383333Y-64169366D01*
X94383333Y-64169366D02*
X94350000Y-64236033D01*
X94350000Y-64236033D02*
X94316667Y-64269366D01*
X94316667Y-64269366D02*
X94250000Y-64302700D01*
X94250000Y-64302700D02*
X93983333Y-64302700D01*
X94616667Y-63936033D02*
X95083333Y-63936033D01*
X95083333Y-63936033D02*
X94783333Y-64636033D01*
X74516033Y-50750000D02*
X74182700Y-50983333D01*
X74516033Y-51150000D02*
X73816033Y-51150000D01*
X73816033Y-51150000D02*
X73816033Y-50883333D01*
X73816033Y-50883333D02*
X73849366Y-50816667D01*
X73849366Y-50816667D02*
X73882700Y-50783333D01*
X73882700Y-50783333D02*
X73949366Y-50750000D01*
X73949366Y-50750000D02*
X74049366Y-50750000D01*
X74049366Y-50750000D02*
X74116033Y-50783333D01*
X74116033Y-50783333D02*
X74149366Y-50816667D01*
X74149366Y-50816667D02*
X74182700Y-50883333D01*
X74182700Y-50883333D02*
X74182700Y-51150000D01*
X74516033Y-50083333D02*
X74516033Y-50483333D01*
X74516033Y-50283333D02*
X73816033Y-50283333D01*
X73816033Y-50283333D02*
X73916033Y-50350000D01*
X73916033Y-50350000D02*
X73982700Y-50416667D01*
X73982700Y-50416667D02*
X74016033Y-50483333D01*
X73816033Y-49850000D02*
X73816033Y-49416666D01*
X73816033Y-49416666D02*
X74082700Y-49650000D01*
X74082700Y-49650000D02*
X74082700Y-49550000D01*
X74082700Y-49550000D02*
X74116033Y-49483333D01*
X74116033Y-49483333D02*
X74149366Y-49450000D01*
X74149366Y-49450000D02*
X74216033Y-49416666D01*
X74216033Y-49416666D02*
X74382700Y-49416666D01*
X74382700Y-49416666D02*
X74449366Y-49450000D01*
X74449366Y-49450000D02*
X74482700Y-49483333D01*
X74482700Y-49483333D02*
X74516033Y-49550000D01*
X74516033Y-49550000D02*
X74516033Y-49750000D01*
X74516033Y-49750000D02*
X74482700Y-49816666D01*
X74482700Y-49816666D02*
X74449366Y-49850000D01*
X73016033Y-78550000D02*
X72682700Y-78783333D01*
X73016033Y-78950000D02*
X72316033Y-78950000D01*
X72316033Y-78950000D02*
X72316033Y-78683333D01*
X72316033Y-78683333D02*
X72349366Y-78616667D01*
X72349366Y-78616667D02*
X72382700Y-78583333D01*
X72382700Y-78583333D02*
X72449366Y-78550000D01*
X72449366Y-78550000D02*
X72549366Y-78550000D01*
X72549366Y-78550000D02*
X72616033Y-78583333D01*
X72616033Y-78583333D02*
X72649366Y-78616667D01*
X72649366Y-78616667D02*
X72682700Y-78683333D01*
X72682700Y-78683333D02*
X72682700Y-78950000D01*
X73016033Y-77883333D02*
X73016033Y-78283333D01*
X73016033Y-78083333D02*
X72316033Y-78083333D01*
X72316033Y-78083333D02*
X72416033Y-78150000D01*
X72416033Y-78150000D02*
X72482700Y-78216667D01*
X72482700Y-78216667D02*
X72516033Y-78283333D01*
X72382700Y-77616666D02*
X72349366Y-77583333D01*
X72349366Y-77583333D02*
X72316033Y-77516666D01*
X72316033Y-77516666D02*
X72316033Y-77350000D01*
X72316033Y-77350000D02*
X72349366Y-77283333D01*
X72349366Y-77283333D02*
X72382700Y-77250000D01*
X72382700Y-77250000D02*
X72449366Y-77216666D01*
X72449366Y-77216666D02*
X72516033Y-77216666D01*
X72516033Y-77216666D02*
X72616033Y-77250000D01*
X72616033Y-77250000D02*
X73016033Y-77650000D01*
X73016033Y-77650000D02*
X73016033Y-77216666D01*
X97616033Y-60170000D02*
X97282700Y-60403333D01*
X97616033Y-60570000D02*
X96916033Y-60570000D01*
X96916033Y-60570000D02*
X96916033Y-60303333D01*
X96916033Y-60303333D02*
X96949366Y-60236667D01*
X96949366Y-60236667D02*
X96982700Y-60203333D01*
X96982700Y-60203333D02*
X97049366Y-60170000D01*
X97049366Y-60170000D02*
X97149366Y-60170000D01*
X97149366Y-60170000D02*
X97216033Y-60203333D01*
X97216033Y-60203333D02*
X97249366Y-60236667D01*
X97249366Y-60236667D02*
X97282700Y-60303333D01*
X97282700Y-60303333D02*
X97282700Y-60570000D01*
X97616033Y-59503333D02*
X97616033Y-59903333D01*
X97616033Y-59703333D02*
X96916033Y-59703333D01*
X96916033Y-59703333D02*
X97016033Y-59770000D01*
X97016033Y-59770000D02*
X97082700Y-59836667D01*
X97082700Y-59836667D02*
X97116033Y-59903333D01*
X96916033Y-59070000D02*
X96916033Y-59003333D01*
X96916033Y-59003333D02*
X96949366Y-58936666D01*
X96949366Y-58936666D02*
X96982700Y-58903333D01*
X96982700Y-58903333D02*
X97049366Y-58870000D01*
X97049366Y-58870000D02*
X97182700Y-58836666D01*
X97182700Y-58836666D02*
X97349366Y-58836666D01*
X97349366Y-58836666D02*
X97482700Y-58870000D01*
X97482700Y-58870000D02*
X97549366Y-58903333D01*
X97549366Y-58903333D02*
X97582700Y-58936666D01*
X97582700Y-58936666D02*
X97616033Y-59003333D01*
X97616033Y-59003333D02*
X97616033Y-59070000D01*
X97616033Y-59070000D02*
X97582700Y-59136666D01*
X97582700Y-59136666D02*
X97549366Y-59170000D01*
X97549366Y-59170000D02*
X97482700Y-59203333D01*
X97482700Y-59203333D02*
X97349366Y-59236666D01*
X97349366Y-59236666D02*
X97182700Y-59236666D01*
X97182700Y-59236666D02*
X97049366Y-59203333D01*
X97049366Y-59203333D02*
X96982700Y-59170000D01*
X96982700Y-59170000D02*
X96949366Y-59136666D01*
X96949366Y-59136666D02*
X96916033Y-59070000D01*
X71516033Y-78550000D02*
X71182700Y-78783333D01*
X71516033Y-78950000D02*
X70816033Y-78950000D01*
X70816033Y-78950000D02*
X70816033Y-78683333D01*
X70816033Y-78683333D02*
X70849366Y-78616667D01*
X70849366Y-78616667D02*
X70882700Y-78583333D01*
X70882700Y-78583333D02*
X70949366Y-78550000D01*
X70949366Y-78550000D02*
X71049366Y-78550000D01*
X71049366Y-78550000D02*
X71116033Y-78583333D01*
X71116033Y-78583333D02*
X71149366Y-78616667D01*
X71149366Y-78616667D02*
X71182700Y-78683333D01*
X71182700Y-78683333D02*
X71182700Y-78950000D01*
X71516033Y-77883333D02*
X71516033Y-78283333D01*
X71516033Y-78083333D02*
X70816033Y-78083333D01*
X70816033Y-78083333D02*
X70916033Y-78150000D01*
X70916033Y-78150000D02*
X70982700Y-78216667D01*
X70982700Y-78216667D02*
X71016033Y-78283333D01*
X71516033Y-77216666D02*
X71516033Y-77616666D01*
X71516033Y-77416666D02*
X70816033Y-77416666D01*
X70816033Y-77416666D02*
X70916033Y-77483333D01*
X70916033Y-77483333D02*
X70982700Y-77550000D01*
X70982700Y-77550000D02*
X71016033Y-77616666D01*
X90949999Y-72836033D02*
X90716666Y-72502700D01*
X90549999Y-72836033D02*
X90549999Y-72136033D01*
X90549999Y-72136033D02*
X90816666Y-72136033D01*
X90816666Y-72136033D02*
X90883333Y-72169366D01*
X90883333Y-72169366D02*
X90916666Y-72202700D01*
X90916666Y-72202700D02*
X90949999Y-72269366D01*
X90949999Y-72269366D02*
X90949999Y-72369366D01*
X90949999Y-72369366D02*
X90916666Y-72436033D01*
X90916666Y-72436033D02*
X90883333Y-72469366D01*
X90883333Y-72469366D02*
X90816666Y-72502700D01*
X90816666Y-72502700D02*
X90549999Y-72502700D01*
X91616666Y-72836033D02*
X91216666Y-72836033D01*
X91416666Y-72836033D02*
X91416666Y-72136033D01*
X91416666Y-72136033D02*
X91349999Y-72236033D01*
X91349999Y-72236033D02*
X91283333Y-72302700D01*
X91283333Y-72302700D02*
X91216666Y-72336033D01*
X91850000Y-72136033D02*
X92316666Y-72136033D01*
X92316666Y-72136033D02*
X92016666Y-72836033D01*
X90949999Y-74136033D02*
X90716666Y-73802700D01*
X90549999Y-74136033D02*
X90549999Y-73436033D01*
X90549999Y-73436033D02*
X90816666Y-73436033D01*
X90816666Y-73436033D02*
X90883333Y-73469366D01*
X90883333Y-73469366D02*
X90916666Y-73502700D01*
X90916666Y-73502700D02*
X90949999Y-73569366D01*
X90949999Y-73569366D02*
X90949999Y-73669366D01*
X90949999Y-73669366D02*
X90916666Y-73736033D01*
X90916666Y-73736033D02*
X90883333Y-73769366D01*
X90883333Y-73769366D02*
X90816666Y-73802700D01*
X90816666Y-73802700D02*
X90549999Y-73802700D01*
X91616666Y-74136033D02*
X91216666Y-74136033D01*
X91416666Y-74136033D02*
X91416666Y-73436033D01*
X91416666Y-73436033D02*
X91349999Y-73536033D01*
X91349999Y-73536033D02*
X91283333Y-73602700D01*
X91283333Y-73602700D02*
X91216666Y-73636033D01*
X92216666Y-73436033D02*
X92083333Y-73436033D01*
X92083333Y-73436033D02*
X92016666Y-73469366D01*
X92016666Y-73469366D02*
X91983333Y-73502700D01*
X91983333Y-73502700D02*
X91916666Y-73602700D01*
X91916666Y-73602700D02*
X91883333Y-73736033D01*
X91883333Y-73736033D02*
X91883333Y-74002700D01*
X91883333Y-74002700D02*
X91916666Y-74069366D01*
X91916666Y-74069366D02*
X91950000Y-74102700D01*
X91950000Y-74102700D02*
X92016666Y-74136033D01*
X92016666Y-74136033D02*
X92150000Y-74136033D01*
X92150000Y-74136033D02*
X92216666Y-74102700D01*
X92216666Y-74102700D02*
X92250000Y-74069366D01*
X92250000Y-74069366D02*
X92283333Y-74002700D01*
X92283333Y-74002700D02*
X92283333Y-73836033D01*
X92283333Y-73836033D02*
X92250000Y-73769366D01*
X92250000Y-73769366D02*
X92216666Y-73736033D01*
X92216666Y-73736033D02*
X92150000Y-73702700D01*
X92150000Y-73702700D02*
X92016666Y-73702700D01*
X92016666Y-73702700D02*
X91950000Y-73736033D01*
X91950000Y-73736033D02*
X91916666Y-73769366D01*
X91916666Y-73769366D02*
X91883333Y-73836033D01*
X88816033Y-60220000D02*
X88482700Y-60453333D01*
X88816033Y-60620000D02*
X88116033Y-60620000D01*
X88116033Y-60620000D02*
X88116033Y-60353333D01*
X88116033Y-60353333D02*
X88149366Y-60286667D01*
X88149366Y-60286667D02*
X88182700Y-60253333D01*
X88182700Y-60253333D02*
X88249366Y-60220000D01*
X88249366Y-60220000D02*
X88349366Y-60220000D01*
X88349366Y-60220000D02*
X88416033Y-60253333D01*
X88416033Y-60253333D02*
X88449366Y-60286667D01*
X88449366Y-60286667D02*
X88482700Y-60353333D01*
X88482700Y-60353333D02*
X88482700Y-60620000D01*
X88816033Y-59553333D02*
X88816033Y-59953333D01*
X88816033Y-59753333D02*
X88116033Y-59753333D01*
X88116033Y-59753333D02*
X88216033Y-59820000D01*
X88216033Y-59820000D02*
X88282700Y-59886667D01*
X88282700Y-59886667D02*
X88316033Y-59953333D01*
X88349366Y-58953333D02*
X88816033Y-58953333D01*
X88082700Y-59120000D02*
X88582700Y-59286666D01*
X88582700Y-59286666D02*
X88582700Y-58853333D01*
X64783333Y-79649366D02*
X64750000Y-79682700D01*
X64750000Y-79682700D02*
X64650000Y-79716033D01*
X64650000Y-79716033D02*
X64583333Y-79716033D01*
X64583333Y-79716033D02*
X64483333Y-79682700D01*
X64483333Y-79682700D02*
X64416667Y-79616033D01*
X64416667Y-79616033D02*
X64383333Y-79549366D01*
X64383333Y-79549366D02*
X64350000Y-79416033D01*
X64350000Y-79416033D02*
X64350000Y-79316033D01*
X64350000Y-79316033D02*
X64383333Y-79182700D01*
X64383333Y-79182700D02*
X64416667Y-79116033D01*
X64416667Y-79116033D02*
X64483333Y-79049366D01*
X64483333Y-79049366D02*
X64583333Y-79016033D01*
X64583333Y-79016033D02*
X64650000Y-79016033D01*
X64650000Y-79016033D02*
X64750000Y-79049366D01*
X64750000Y-79049366D02*
X64783333Y-79082700D01*
X65050000Y-79082700D02*
X65083333Y-79049366D01*
X65083333Y-79049366D02*
X65150000Y-79016033D01*
X65150000Y-79016033D02*
X65316667Y-79016033D01*
X65316667Y-79016033D02*
X65383333Y-79049366D01*
X65383333Y-79049366D02*
X65416667Y-79082700D01*
X65416667Y-79082700D02*
X65450000Y-79149366D01*
X65450000Y-79149366D02*
X65450000Y-79216033D01*
X65450000Y-79216033D02*
X65416667Y-79316033D01*
X65416667Y-79316033D02*
X65016667Y-79716033D01*
X65016667Y-79716033D02*
X65450000Y-79716033D01*
X68516033Y-77916666D02*
X68182700Y-78149999D01*
X68516033Y-78316666D02*
X67816033Y-78316666D01*
X67816033Y-78316666D02*
X67816033Y-78049999D01*
X67816033Y-78049999D02*
X67849366Y-77983333D01*
X67849366Y-77983333D02*
X67882700Y-77949999D01*
X67882700Y-77949999D02*
X67949366Y-77916666D01*
X67949366Y-77916666D02*
X68049366Y-77916666D01*
X68049366Y-77916666D02*
X68116033Y-77949999D01*
X68116033Y-77949999D02*
X68149366Y-77983333D01*
X68149366Y-77983333D02*
X68182700Y-78049999D01*
X68182700Y-78049999D02*
X68182700Y-78316666D01*
X68116033Y-77516666D02*
X68082700Y-77583333D01*
X68082700Y-77583333D02*
X68049366Y-77616666D01*
X68049366Y-77616666D02*
X67982700Y-77649999D01*
X67982700Y-77649999D02*
X67949366Y-77649999D01*
X67949366Y-77649999D02*
X67882700Y-77616666D01*
X67882700Y-77616666D02*
X67849366Y-77583333D01*
X67849366Y-77583333D02*
X67816033Y-77516666D01*
X67816033Y-77516666D02*
X67816033Y-77383333D01*
X67816033Y-77383333D02*
X67849366Y-77316666D01*
X67849366Y-77316666D02*
X67882700Y-77283333D01*
X67882700Y-77283333D02*
X67949366Y-77249999D01*
X67949366Y-77249999D02*
X67982700Y-77249999D01*
X67982700Y-77249999D02*
X68049366Y-77283333D01*
X68049366Y-77283333D02*
X68082700Y-77316666D01*
X68082700Y-77316666D02*
X68116033Y-77383333D01*
X68116033Y-77383333D02*
X68116033Y-77516666D01*
X68116033Y-77516666D02*
X68149366Y-77583333D01*
X68149366Y-77583333D02*
X68182700Y-77616666D01*
X68182700Y-77616666D02*
X68249366Y-77649999D01*
X68249366Y-77649999D02*
X68382700Y-77649999D01*
X68382700Y-77649999D02*
X68449366Y-77616666D01*
X68449366Y-77616666D02*
X68482700Y-77583333D01*
X68482700Y-77583333D02*
X68516033Y-77516666D01*
X68516033Y-77516666D02*
X68516033Y-77383333D01*
X68516033Y-77383333D02*
X68482700Y-77316666D01*
X68482700Y-77316666D02*
X68449366Y-77283333D01*
X68449366Y-77283333D02*
X68382700Y-77249999D01*
X68382700Y-77249999D02*
X68249366Y-77249999D01*
X68249366Y-77249999D02*
X68182700Y-77283333D01*
X68182700Y-77283333D02*
X68149366Y-77316666D01*
X68149366Y-77316666D02*
X68116033Y-77383333D01*
X64016033Y-50716666D02*
X63682700Y-50949999D01*
X64016033Y-51116666D02*
X63316033Y-51116666D01*
X63316033Y-51116666D02*
X63316033Y-50849999D01*
X63316033Y-50849999D02*
X63349366Y-50783333D01*
X63349366Y-50783333D02*
X63382700Y-50749999D01*
X63382700Y-50749999D02*
X63449366Y-50716666D01*
X63449366Y-50716666D02*
X63549366Y-50716666D01*
X63549366Y-50716666D02*
X63616033Y-50749999D01*
X63616033Y-50749999D02*
X63649366Y-50783333D01*
X63649366Y-50783333D02*
X63682700Y-50849999D01*
X63682700Y-50849999D02*
X63682700Y-51116666D01*
X63316033Y-50083333D02*
X63316033Y-50416666D01*
X63316033Y-50416666D02*
X63649366Y-50449999D01*
X63649366Y-50449999D02*
X63616033Y-50416666D01*
X63616033Y-50416666D02*
X63582700Y-50349999D01*
X63582700Y-50349999D02*
X63582700Y-50183333D01*
X63582700Y-50183333D02*
X63616033Y-50116666D01*
X63616033Y-50116666D02*
X63649366Y-50083333D01*
X63649366Y-50083333D02*
X63716033Y-50049999D01*
X63716033Y-50049999D02*
X63882700Y-50049999D01*
X63882700Y-50049999D02*
X63949366Y-50083333D01*
X63949366Y-50083333D02*
X63982700Y-50116666D01*
X63982700Y-50116666D02*
X64016033Y-50183333D01*
X64016033Y-50183333D02*
X64016033Y-50349999D01*
X64016033Y-50349999D02*
X63982700Y-50416666D01*
X63982700Y-50416666D02*
X63949366Y-50449999D01*
X62516033Y-50716666D02*
X62182700Y-50949999D01*
X62516033Y-51116666D02*
X61816033Y-51116666D01*
X61816033Y-51116666D02*
X61816033Y-50849999D01*
X61816033Y-50849999D02*
X61849366Y-50783333D01*
X61849366Y-50783333D02*
X61882700Y-50749999D01*
X61882700Y-50749999D02*
X61949366Y-50716666D01*
X61949366Y-50716666D02*
X62049366Y-50716666D01*
X62049366Y-50716666D02*
X62116033Y-50749999D01*
X62116033Y-50749999D02*
X62149366Y-50783333D01*
X62149366Y-50783333D02*
X62182700Y-50849999D01*
X62182700Y-50849999D02*
X62182700Y-51116666D01*
X61882700Y-50449999D02*
X61849366Y-50416666D01*
X61849366Y-50416666D02*
X61816033Y-50349999D01*
X61816033Y-50349999D02*
X61816033Y-50183333D01*
X61816033Y-50183333D02*
X61849366Y-50116666D01*
X61849366Y-50116666D02*
X61882700Y-50083333D01*
X61882700Y-50083333D02*
X61949366Y-50049999D01*
X61949366Y-50049999D02*
X62016033Y-50049999D01*
X62016033Y-50049999D02*
X62116033Y-50083333D01*
X62116033Y-50083333D02*
X62516033Y-50483333D01*
X62516033Y-50483333D02*
X62516033Y-50049999D01*
X77832700Y-56953333D02*
X77866033Y-56853333D01*
X77866033Y-56853333D02*
X77866033Y-56686667D01*
X77866033Y-56686667D02*
X77832700Y-56620000D01*
X77832700Y-56620000D02*
X77799366Y-56586667D01*
X77799366Y-56586667D02*
X77732700Y-56553333D01*
X77732700Y-56553333D02*
X77666033Y-56553333D01*
X77666033Y-56553333D02*
X77599366Y-56586667D01*
X77599366Y-56586667D02*
X77566033Y-56620000D01*
X77566033Y-56620000D02*
X77532700Y-56686667D01*
X77532700Y-56686667D02*
X77499366Y-56820000D01*
X77499366Y-56820000D02*
X77466033Y-56886667D01*
X77466033Y-56886667D02*
X77432700Y-56920000D01*
X77432700Y-56920000D02*
X77366033Y-56953333D01*
X77366033Y-56953333D02*
X77299366Y-56953333D01*
X77299366Y-56953333D02*
X77232700Y-56920000D01*
X77232700Y-56920000D02*
X77199366Y-56886667D01*
X77199366Y-56886667D02*
X77166033Y-56820000D01*
X77166033Y-56820000D02*
X77166033Y-56653333D01*
X77166033Y-56653333D02*
X77199366Y-56553333D01*
X77166033Y-56320000D02*
X77866033Y-56153333D01*
X77866033Y-56153333D02*
X77366033Y-56020000D01*
X77366033Y-56020000D02*
X77866033Y-55886666D01*
X77866033Y-55886666D02*
X77166033Y-55720000D01*
X77232700Y-55486666D02*
X77199366Y-55453333D01*
X77199366Y-55453333D02*
X77166033Y-55386666D01*
X77166033Y-55386666D02*
X77166033Y-55220000D01*
X77166033Y-55220000D02*
X77199366Y-55153333D01*
X77199366Y-55153333D02*
X77232700Y-55120000D01*
X77232700Y-55120000D02*
X77299366Y-55086666D01*
X77299366Y-55086666D02*
X77366033Y-55086666D01*
X77366033Y-55086666D02*
X77466033Y-55120000D01*
X77466033Y-55120000D02*
X77866033Y-55520000D01*
X77866033Y-55520000D02*
X77866033Y-55086666D01*
X77832700Y-63053333D02*
X77866033Y-62953333D01*
X77866033Y-62953333D02*
X77866033Y-62786667D01*
X77866033Y-62786667D02*
X77832700Y-62720000D01*
X77832700Y-62720000D02*
X77799366Y-62686667D01*
X77799366Y-62686667D02*
X77732700Y-62653333D01*
X77732700Y-62653333D02*
X77666033Y-62653333D01*
X77666033Y-62653333D02*
X77599366Y-62686667D01*
X77599366Y-62686667D02*
X77566033Y-62720000D01*
X77566033Y-62720000D02*
X77532700Y-62786667D01*
X77532700Y-62786667D02*
X77499366Y-62920000D01*
X77499366Y-62920000D02*
X77466033Y-62986667D01*
X77466033Y-62986667D02*
X77432700Y-63020000D01*
X77432700Y-63020000D02*
X77366033Y-63053333D01*
X77366033Y-63053333D02*
X77299366Y-63053333D01*
X77299366Y-63053333D02*
X77232700Y-63020000D01*
X77232700Y-63020000D02*
X77199366Y-62986667D01*
X77199366Y-62986667D02*
X77166033Y-62920000D01*
X77166033Y-62920000D02*
X77166033Y-62753333D01*
X77166033Y-62753333D02*
X77199366Y-62653333D01*
X77166033Y-62420000D02*
X77866033Y-62253333D01*
X77866033Y-62253333D02*
X77366033Y-62120000D01*
X77366033Y-62120000D02*
X77866033Y-61986666D01*
X77866033Y-61986666D02*
X77166033Y-61820000D01*
X77866033Y-61186666D02*
X77866033Y-61586666D01*
X77866033Y-61386666D02*
X77166033Y-61386666D01*
X77166033Y-61386666D02*
X77266033Y-61453333D01*
X77266033Y-61453333D02*
X77332700Y-61520000D01*
X77332700Y-61520000D02*
X77366033Y-61586666D01*
X82808333Y-76469366D02*
X82775000Y-76502700D01*
X82775000Y-76502700D02*
X82675000Y-76536033D01*
X82675000Y-76536033D02*
X82608333Y-76536033D01*
X82608333Y-76536033D02*
X82508333Y-76502700D01*
X82508333Y-76502700D02*
X82441667Y-76436033D01*
X82441667Y-76436033D02*
X82408333Y-76369366D01*
X82408333Y-76369366D02*
X82375000Y-76236033D01*
X82375000Y-76236033D02*
X82375000Y-76136033D01*
X82375000Y-76136033D02*
X82408333Y-76002700D01*
X82408333Y-76002700D02*
X82441667Y-75936033D01*
X82441667Y-75936033D02*
X82508333Y-75869366D01*
X82508333Y-75869366D02*
X82608333Y-75836033D01*
X82608333Y-75836033D02*
X82675000Y-75836033D01*
X82675000Y-75836033D02*
X82775000Y-75869366D01*
X82775000Y-75869366D02*
X82808333Y-75902700D01*
X83408333Y-76069366D02*
X83408333Y-76536033D01*
X83241667Y-75802700D02*
X83075000Y-76302700D01*
X83075000Y-76302700D02*
X83508333Y-76302700D01*
X98849366Y-60336666D02*
X98882700Y-60369999D01*
X98882700Y-60369999D02*
X98916033Y-60469999D01*
X98916033Y-60469999D02*
X98916033Y-60536666D01*
X98916033Y-60536666D02*
X98882700Y-60636666D01*
X98882700Y-60636666D02*
X98816033Y-60703333D01*
X98816033Y-60703333D02*
X98749366Y-60736666D01*
X98749366Y-60736666D02*
X98616033Y-60769999D01*
X98616033Y-60769999D02*
X98516033Y-60769999D01*
X98516033Y-60769999D02*
X98382700Y-60736666D01*
X98382700Y-60736666D02*
X98316033Y-60703333D01*
X98316033Y-60703333D02*
X98249366Y-60636666D01*
X98249366Y-60636666D02*
X98216033Y-60536666D01*
X98216033Y-60536666D02*
X98216033Y-60469999D01*
X98216033Y-60469999D02*
X98249366Y-60369999D01*
X98249366Y-60369999D02*
X98282700Y-60336666D01*
X98216033Y-59703333D02*
X98216033Y-60036666D01*
X98216033Y-60036666D02*
X98549366Y-60069999D01*
X98549366Y-60069999D02*
X98516033Y-60036666D01*
X98516033Y-60036666D02*
X98482700Y-59969999D01*
X98482700Y-59969999D02*
X98482700Y-59803333D01*
X98482700Y-59803333D02*
X98516033Y-59736666D01*
X98516033Y-59736666D02*
X98549366Y-59703333D01*
X98549366Y-59703333D02*
X98616033Y-59669999D01*
X98616033Y-59669999D02*
X98782700Y-59669999D01*
X98782700Y-59669999D02*
X98849366Y-59703333D01*
X98849366Y-59703333D02*
X98882700Y-59736666D01*
X98882700Y-59736666D02*
X98916033Y-59803333D01*
X98916033Y-59803333D02*
X98916033Y-59969999D01*
X98916033Y-59969999D02*
X98882700Y-60036666D01*
X98882700Y-60036666D02*
X98849366Y-60069999D01*
X61949366Y-78216666D02*
X61982700Y-78249999D01*
X61982700Y-78249999D02*
X62016033Y-78349999D01*
X62016033Y-78349999D02*
X62016033Y-78416666D01*
X62016033Y-78416666D02*
X61982700Y-78516666D01*
X61982700Y-78516666D02*
X61916033Y-78583333D01*
X61916033Y-78583333D02*
X61849366Y-78616666D01*
X61849366Y-78616666D02*
X61716033Y-78649999D01*
X61716033Y-78649999D02*
X61616033Y-78649999D01*
X61616033Y-78649999D02*
X61482700Y-78616666D01*
X61482700Y-78616666D02*
X61416033Y-78583333D01*
X61416033Y-78583333D02*
X61349366Y-78516666D01*
X61349366Y-78516666D02*
X61316033Y-78416666D01*
X61316033Y-78416666D02*
X61316033Y-78349999D01*
X61316033Y-78349999D02*
X61349366Y-78249999D01*
X61349366Y-78249999D02*
X61382700Y-78216666D01*
X62016033Y-77883333D02*
X62016033Y-77749999D01*
X62016033Y-77749999D02*
X61982700Y-77683333D01*
X61982700Y-77683333D02*
X61949366Y-77649999D01*
X61949366Y-77649999D02*
X61849366Y-77583333D01*
X61849366Y-77583333D02*
X61716033Y-77549999D01*
X61716033Y-77549999D02*
X61449366Y-77549999D01*
X61449366Y-77549999D02*
X61382700Y-77583333D01*
X61382700Y-77583333D02*
X61349366Y-77616666D01*
X61349366Y-77616666D02*
X61316033Y-77683333D01*
X61316033Y-77683333D02*
X61316033Y-77816666D01*
X61316033Y-77816666D02*
X61349366Y-77883333D01*
X61349366Y-77883333D02*
X61382700Y-77916666D01*
X61382700Y-77916666D02*
X61449366Y-77949999D01*
X61449366Y-77949999D02*
X61616033Y-77949999D01*
X61616033Y-77949999D02*
X61682700Y-77916666D01*
X61682700Y-77916666D02*
X61716033Y-77883333D01*
X61716033Y-77883333D02*
X61749366Y-77816666D01*
X61749366Y-77816666D02*
X61749366Y-77683333D01*
X61749366Y-77683333D02*
X61716033Y-77616666D01*
X61716033Y-77616666D02*
X61682700Y-77583333D01*
X61682700Y-77583333D02*
X61616033Y-77549999D01*
X79808333Y-76469366D02*
X79775000Y-76502700D01*
X79775000Y-76502700D02*
X79675000Y-76536033D01*
X79675000Y-76536033D02*
X79608333Y-76536033D01*
X79608333Y-76536033D02*
X79508333Y-76502700D01*
X79508333Y-76502700D02*
X79441667Y-76436033D01*
X79441667Y-76436033D02*
X79408333Y-76369366D01*
X79408333Y-76369366D02*
X79375000Y-76236033D01*
X79375000Y-76236033D02*
X79375000Y-76136033D01*
X79375000Y-76136033D02*
X79408333Y-76002700D01*
X79408333Y-76002700D02*
X79441667Y-75936033D01*
X79441667Y-75936033D02*
X79508333Y-75869366D01*
X79508333Y-75869366D02*
X79608333Y-75836033D01*
X79608333Y-75836033D02*
X79675000Y-75836033D01*
X79675000Y-75836033D02*
X79775000Y-75869366D01*
X79775000Y-75869366D02*
X79808333Y-75902700D01*
X80041667Y-75836033D02*
X80475000Y-75836033D01*
X80475000Y-75836033D02*
X80241667Y-76102700D01*
X80241667Y-76102700D02*
X80341667Y-76102700D01*
X80341667Y-76102700D02*
X80408333Y-76136033D01*
X80408333Y-76136033D02*
X80441667Y-76169366D01*
X80441667Y-76169366D02*
X80475000Y-76236033D01*
X80475000Y-76236033D02*
X80475000Y-76402700D01*
X80475000Y-76402700D02*
X80441667Y-76469366D01*
X80441667Y-76469366D02*
X80408333Y-76502700D01*
X80408333Y-76502700D02*
X80341667Y-76536033D01*
X80341667Y-76536033D02*
X80141667Y-76536033D01*
X80141667Y-76536033D02*
X80075000Y-76502700D01*
X80075000Y-76502700D02*
X80041667Y-76469366D01*
X97283333Y-62569366D02*
X97250000Y-62602700D01*
X97250000Y-62602700D02*
X97150000Y-62636033D01*
X97150000Y-62636033D02*
X97083333Y-62636033D01*
X97083333Y-62636033D02*
X96983333Y-62602700D01*
X96983333Y-62602700D02*
X96916667Y-62536033D01*
X96916667Y-62536033D02*
X96883333Y-62469366D01*
X96883333Y-62469366D02*
X96850000Y-62336033D01*
X96850000Y-62336033D02*
X96850000Y-62236033D01*
X96850000Y-62236033D02*
X96883333Y-62102700D01*
X96883333Y-62102700D02*
X96916667Y-62036033D01*
X96916667Y-62036033D02*
X96983333Y-61969366D01*
X96983333Y-61969366D02*
X97083333Y-61936033D01*
X97083333Y-61936033D02*
X97150000Y-61936033D01*
X97150000Y-61936033D02*
X97250000Y-61969366D01*
X97250000Y-61969366D02*
X97283333Y-62002700D01*
X97950000Y-62636033D02*
X97550000Y-62636033D01*
X97750000Y-62636033D02*
X97750000Y-61936033D01*
X97750000Y-61936033D02*
X97683333Y-62036033D01*
X97683333Y-62036033D02*
X97616667Y-62102700D01*
X97616667Y-62102700D02*
X97550000Y-62136033D01*
X107383333Y-62469366D02*
X107350000Y-62502700D01*
X107350000Y-62502700D02*
X107250000Y-62536033D01*
X107250000Y-62536033D02*
X107183333Y-62536033D01*
X107183333Y-62536033D02*
X107083333Y-62502700D01*
X107083333Y-62502700D02*
X107016667Y-62436033D01*
X107016667Y-62436033D02*
X106983333Y-62369366D01*
X106983333Y-62369366D02*
X106950000Y-62236033D01*
X106950000Y-62236033D02*
X106950000Y-62136033D01*
X106950000Y-62136033D02*
X106983333Y-62002700D01*
X106983333Y-62002700D02*
X107016667Y-61936033D01*
X107016667Y-61936033D02*
X107083333Y-61869366D01*
X107083333Y-61869366D02*
X107183333Y-61836033D01*
X107183333Y-61836033D02*
X107250000Y-61836033D01*
X107250000Y-61836033D02*
X107350000Y-61869366D01*
X107350000Y-61869366D02*
X107383333Y-61902700D01*
X107983333Y-61836033D02*
X107850000Y-61836033D01*
X107850000Y-61836033D02*
X107783333Y-61869366D01*
X107783333Y-61869366D02*
X107750000Y-61902700D01*
X107750000Y-61902700D02*
X107683333Y-62002700D01*
X107683333Y-62002700D02*
X107650000Y-62136033D01*
X107650000Y-62136033D02*
X107650000Y-62402700D01*
X107650000Y-62402700D02*
X107683333Y-62469366D01*
X107683333Y-62469366D02*
X107716667Y-62502700D01*
X107716667Y-62502700D02*
X107783333Y-62536033D01*
X107783333Y-62536033D02*
X107916667Y-62536033D01*
X107916667Y-62536033D02*
X107983333Y-62502700D01*
X107983333Y-62502700D02*
X108016667Y-62469366D01*
X108016667Y-62469366D02*
X108050000Y-62402700D01*
X108050000Y-62402700D02*
X108050000Y-62236033D01*
X108050000Y-62236033D02*
X108016667Y-62169366D01*
X108016667Y-62169366D02*
X107983333Y-62136033D01*
X107983333Y-62136033D02*
X107916667Y-62102700D01*
X107916667Y-62102700D02*
X107783333Y-62102700D01*
X107783333Y-62102700D02*
X107716667Y-62136033D01*
X107716667Y-62136033D02*
X107683333Y-62169366D01*
X107683333Y-62169366D02*
X107650000Y-62236033D01*
X101233333Y-60689366D02*
X101200000Y-60722700D01*
X101200000Y-60722700D02*
X101100000Y-60756033D01*
X101100000Y-60756033D02*
X101033333Y-60756033D01*
X101033333Y-60756033D02*
X100933333Y-60722700D01*
X100933333Y-60722700D02*
X100866667Y-60656033D01*
X100866667Y-60656033D02*
X100833333Y-60589366D01*
X100833333Y-60589366D02*
X100800000Y-60456033D01*
X100800000Y-60456033D02*
X100800000Y-60356033D01*
X100800000Y-60356033D02*
X100833333Y-60222700D01*
X100833333Y-60222700D02*
X100866667Y-60156033D01*
X100866667Y-60156033D02*
X100933333Y-60089366D01*
X100933333Y-60089366D02*
X101033333Y-60056033D01*
X101033333Y-60056033D02*
X101100000Y-60056033D01*
X101100000Y-60056033D02*
X101200000Y-60089366D01*
X101200000Y-60089366D02*
X101233333Y-60122700D01*
X101466667Y-60056033D02*
X101933333Y-60056033D01*
X101933333Y-60056033D02*
X101633333Y-60756033D01*
X60949366Y-78216666D02*
X60982700Y-78249999D01*
X60982700Y-78249999D02*
X61016033Y-78349999D01*
X61016033Y-78349999D02*
X61016033Y-78416666D01*
X61016033Y-78416666D02*
X60982700Y-78516666D01*
X60982700Y-78516666D02*
X60916033Y-78583333D01*
X60916033Y-78583333D02*
X60849366Y-78616666D01*
X60849366Y-78616666D02*
X60716033Y-78649999D01*
X60716033Y-78649999D02*
X60616033Y-78649999D01*
X60616033Y-78649999D02*
X60482700Y-78616666D01*
X60482700Y-78616666D02*
X60416033Y-78583333D01*
X60416033Y-78583333D02*
X60349366Y-78516666D01*
X60349366Y-78516666D02*
X60316033Y-78416666D01*
X60316033Y-78416666D02*
X60316033Y-78349999D01*
X60316033Y-78349999D02*
X60349366Y-78249999D01*
X60349366Y-78249999D02*
X60382700Y-78216666D01*
X60616033Y-77816666D02*
X60582700Y-77883333D01*
X60582700Y-77883333D02*
X60549366Y-77916666D01*
X60549366Y-77916666D02*
X60482700Y-77949999D01*
X60482700Y-77949999D02*
X60449366Y-77949999D01*
X60449366Y-77949999D02*
X60382700Y-77916666D01*
X60382700Y-77916666D02*
X60349366Y-77883333D01*
X60349366Y-77883333D02*
X60316033Y-77816666D01*
X60316033Y-77816666D02*
X60316033Y-77683333D01*
X60316033Y-77683333D02*
X60349366Y-77616666D01*
X60349366Y-77616666D02*
X60382700Y-77583333D01*
X60382700Y-77583333D02*
X60449366Y-77549999D01*
X60449366Y-77549999D02*
X60482700Y-77549999D01*
X60482700Y-77549999D02*
X60549366Y-77583333D01*
X60549366Y-77583333D02*
X60582700Y-77616666D01*
X60582700Y-77616666D02*
X60616033Y-77683333D01*
X60616033Y-77683333D02*
X60616033Y-77816666D01*
X60616033Y-77816666D02*
X60649366Y-77883333D01*
X60649366Y-77883333D02*
X60682700Y-77916666D01*
X60682700Y-77916666D02*
X60749366Y-77949999D01*
X60749366Y-77949999D02*
X60882700Y-77949999D01*
X60882700Y-77949999D02*
X60949366Y-77916666D01*
X60949366Y-77916666D02*
X60982700Y-77883333D01*
X60982700Y-77883333D02*
X61016033Y-77816666D01*
X61016033Y-77816666D02*
X61016033Y-77683333D01*
X61016033Y-77683333D02*
X60982700Y-77616666D01*
X60982700Y-77616666D02*
X60949366Y-77583333D01*
X60949366Y-77583333D02*
X60882700Y-77549999D01*
X60882700Y-77549999D02*
X60749366Y-77549999D01*
X60749366Y-77549999D02*
X60682700Y-77583333D01*
X60682700Y-77583333D02*
X60649366Y-77616666D01*
X60649366Y-77616666D02*
X60616033Y-77683333D01*
X104666666Y-59516033D02*
X104666666Y-60016033D01*
X104666666Y-60016033D02*
X104633333Y-60116033D01*
X104633333Y-60116033D02*
X104566666Y-60182700D01*
X104566666Y-60182700D02*
X104466666Y-60216033D01*
X104466666Y-60216033D02*
X104400000Y-60216033D01*
X104966666Y-59582700D02*
X104999999Y-59549366D01*
X104999999Y-59549366D02*
X105066666Y-59516033D01*
X105066666Y-59516033D02*
X105233333Y-59516033D01*
X105233333Y-59516033D02*
X105299999Y-59549366D01*
X105299999Y-59549366D02*
X105333333Y-59582700D01*
X105333333Y-59582700D02*
X105366666Y-59649366D01*
X105366666Y-59649366D02*
X105366666Y-59716033D01*
X105366666Y-59716033D02*
X105333333Y-59816033D01*
X105333333Y-59816033D02*
X104933333Y-60216033D01*
X104933333Y-60216033D02*
X105366666Y-60216033D01*
X101540833Y-73296033D02*
X101540833Y-72596033D01*
X101540833Y-72596033D02*
X101707500Y-72596033D01*
X101707500Y-72596033D02*
X101807500Y-72629366D01*
X101807500Y-72629366D02*
X101874167Y-72696033D01*
X101874167Y-72696033D02*
X101907500Y-72762700D01*
X101907500Y-72762700D02*
X101940833Y-72896033D01*
X101940833Y-72896033D02*
X101940833Y-72996033D01*
X101940833Y-72996033D02*
X101907500Y-73129366D01*
X101907500Y-73129366D02*
X101874167Y-73196033D01*
X101874167Y-73196033D02*
X101807500Y-73262700D01*
X101807500Y-73262700D02*
X101707500Y-73296033D01*
X101707500Y-73296033D02*
X101540833Y-73296033D01*
X102640833Y-73229366D02*
X102607500Y-73262700D01*
X102607500Y-73262700D02*
X102507500Y-73296033D01*
X102507500Y-73296033D02*
X102440833Y-73296033D01*
X102440833Y-73296033D02*
X102340833Y-73262700D01*
X102340833Y-73262700D02*
X102274167Y-73196033D01*
X102274167Y-73196033D02*
X102240833Y-73129366D01*
X102240833Y-73129366D02*
X102207500Y-72996033D01*
X102207500Y-72996033D02*
X102207500Y-72896033D01*
X102207500Y-72896033D02*
X102240833Y-72762700D01*
X102240833Y-72762700D02*
X102274167Y-72696033D01*
X102274167Y-72696033D02*
X102340833Y-72629366D01*
X102340833Y-72629366D02*
X102440833Y-72596033D01*
X102440833Y-72596033D02*
X102507500Y-72596033D01*
X102507500Y-72596033D02*
X102607500Y-72629366D01*
X102607500Y-72629366D02*
X102640833Y-72662700D01*
X102940833Y-73296033D02*
X102940833Y-72596033D01*
X102940833Y-72596033D02*
X103107500Y-72596033D01*
X103107500Y-72596033D02*
X103207500Y-72629366D01*
X103207500Y-72629366D02*
X103274167Y-72696033D01*
X103274167Y-72696033D02*
X103307500Y-72762700D01*
X103307500Y-72762700D02*
X103340833Y-72896033D01*
X103340833Y-72896033D02*
X103340833Y-72996033D01*
X103340833Y-72996033D02*
X103307500Y-73129366D01*
X103307500Y-73129366D02*
X103274167Y-73196033D01*
X103274167Y-73196033D02*
X103207500Y-73262700D01*
X103207500Y-73262700D02*
X103107500Y-73296033D01*
X103107500Y-73296033D02*
X102940833Y-73296033D01*
X104040833Y-73229366D02*
X104007500Y-73262700D01*
X104007500Y-73262700D02*
X103907500Y-73296033D01*
X103907500Y-73296033D02*
X103840833Y-73296033D01*
X103840833Y-73296033D02*
X103740833Y-73262700D01*
X103740833Y-73262700D02*
X103674167Y-73196033D01*
X103674167Y-73196033D02*
X103640833Y-73129366D01*
X103640833Y-73129366D02*
X103607500Y-72996033D01*
X103607500Y-72996033D02*
X103607500Y-72896033D01*
X103607500Y-72896033D02*
X103640833Y-72762700D01*
X103640833Y-72762700D02*
X103674167Y-72696033D01*
X103674167Y-72696033D02*
X103740833Y-72629366D01*
X103740833Y-72629366D02*
X103840833Y-72596033D01*
X103840833Y-72596033D02*
X103907500Y-72596033D01*
X103907500Y-72596033D02*
X104007500Y-72629366D01*
X104007500Y-72629366D02*
X104040833Y-72662700D01*
X104707500Y-73296033D02*
X104307500Y-73296033D01*
X104507500Y-73296033D02*
X104507500Y-72596033D01*
X104507500Y-72596033D02*
X104440833Y-72696033D01*
X104440833Y-72696033D02*
X104374167Y-72762700D01*
X104374167Y-72762700D02*
X104307500Y-72796033D01*
X100116033Y-58436666D02*
X99416033Y-58436666D01*
X99416033Y-58436666D02*
X99416033Y-58269999D01*
X99416033Y-58269999D02*
X99449366Y-58169999D01*
X99449366Y-58169999D02*
X99516033Y-58103333D01*
X99516033Y-58103333D02*
X99582700Y-58069999D01*
X99582700Y-58069999D02*
X99716033Y-58036666D01*
X99716033Y-58036666D02*
X99816033Y-58036666D01*
X99816033Y-58036666D02*
X99949366Y-58069999D01*
X99949366Y-58069999D02*
X100016033Y-58103333D01*
X100016033Y-58103333D02*
X100082700Y-58169999D01*
X100082700Y-58169999D02*
X100116033Y-58269999D01*
X100116033Y-58269999D02*
X100116033Y-58436666D01*
X99416033Y-57803333D02*
X99416033Y-57369999D01*
X99416033Y-57369999D02*
X99682700Y-57603333D01*
X99682700Y-57603333D02*
X99682700Y-57503333D01*
X99682700Y-57503333D02*
X99716033Y-57436666D01*
X99716033Y-57436666D02*
X99749366Y-57403333D01*
X99749366Y-57403333D02*
X99816033Y-57369999D01*
X99816033Y-57369999D02*
X99982700Y-57369999D01*
X99982700Y-57369999D02*
X100049366Y-57403333D01*
X100049366Y-57403333D02*
X100082700Y-57436666D01*
X100082700Y-57436666D02*
X100116033Y-57503333D01*
X100116033Y-57503333D02*
X100116033Y-57703333D01*
X100116033Y-57703333D02*
X100082700Y-57769999D01*
X100082700Y-57769999D02*
X100049366Y-57803333D01*
X95683333Y-57936033D02*
X95683333Y-57236033D01*
X95683333Y-57236033D02*
X95850000Y-57236033D01*
X95850000Y-57236033D02*
X95950000Y-57269366D01*
X95950000Y-57269366D02*
X96016667Y-57336033D01*
X96016667Y-57336033D02*
X96050000Y-57402700D01*
X96050000Y-57402700D02*
X96083333Y-57536033D01*
X96083333Y-57536033D02*
X96083333Y-57636033D01*
X96083333Y-57636033D02*
X96050000Y-57769366D01*
X96050000Y-57769366D02*
X96016667Y-57836033D01*
X96016667Y-57836033D02*
X95950000Y-57902700D01*
X95950000Y-57902700D02*
X95850000Y-57936033D01*
X95850000Y-57936033D02*
X95683333Y-57936033D01*
X96683333Y-57469366D02*
X96683333Y-57936033D01*
X96516667Y-57202700D02*
X96350000Y-57702700D01*
X96350000Y-57702700D02*
X96783333Y-57702700D01*
X85016033Y-64436666D02*
X84316033Y-64436666D01*
X84316033Y-64436666D02*
X84316033Y-64269999D01*
X84316033Y-64269999D02*
X84349366Y-64169999D01*
X84349366Y-64169999D02*
X84416033Y-64103333D01*
X84416033Y-64103333D02*
X84482700Y-64069999D01*
X84482700Y-64069999D02*
X84616033Y-64036666D01*
X84616033Y-64036666D02*
X84716033Y-64036666D01*
X84716033Y-64036666D02*
X84849366Y-64069999D01*
X84849366Y-64069999D02*
X84916033Y-64103333D01*
X84916033Y-64103333D02*
X84982700Y-64169999D01*
X84982700Y-64169999D02*
X85016033Y-64269999D01*
X85016033Y-64269999D02*
X85016033Y-64436666D01*
X85016033Y-63369999D02*
X85016033Y-63769999D01*
X85016033Y-63569999D02*
X84316033Y-63569999D01*
X84316033Y-63569999D02*
X84416033Y-63636666D01*
X84416033Y-63636666D02*
X84482700Y-63703333D01*
X84482700Y-63703333D02*
X84516033Y-63769999D01*
X85266666Y-65636033D02*
X85266666Y-66202700D01*
X85266666Y-66202700D02*
X85300000Y-66269366D01*
X85300000Y-66269366D02*
X85333333Y-66302700D01*
X85333333Y-66302700D02*
X85400000Y-66336033D01*
X85400000Y-66336033D02*
X85533333Y-66336033D01*
X85533333Y-66336033D02*
X85600000Y-66302700D01*
X85600000Y-66302700D02*
X85633333Y-66269366D01*
X85633333Y-66269366D02*
X85666666Y-66202700D01*
X85666666Y-66202700D02*
X85666666Y-65636033D01*
X86366666Y-66336033D02*
X85966666Y-66336033D01*
X86166666Y-66336033D02*
X86166666Y-65636033D01*
X86166666Y-65636033D02*
X86099999Y-65736033D01*
X86099999Y-65736033D02*
X86033333Y-65802700D01*
X86033333Y-65802700D02*
X85966666Y-65836033D01*
X80616667Y-66236033D02*
X80283333Y-66236033D01*
X80283333Y-66236033D02*
X80283333Y-65536033D01*
X80850000Y-66236033D02*
X80850000Y-65536033D01*
X80850000Y-65536033D02*
X81016667Y-65536033D01*
X81016667Y-65536033D02*
X81116667Y-65569366D01*
X81116667Y-65569366D02*
X81183334Y-65636033D01*
X81183334Y-65636033D02*
X81216667Y-65702700D01*
X81216667Y-65702700D02*
X81250000Y-65836033D01*
X81250000Y-65836033D02*
X81250000Y-65936033D01*
X81250000Y-65936033D02*
X81216667Y-66069366D01*
X81216667Y-66069366D02*
X81183334Y-66136033D01*
X81183334Y-66136033D02*
X81116667Y-66202700D01*
X81116667Y-66202700D02*
X81016667Y-66236033D01*
X81016667Y-66236033D02*
X80850000Y-66236033D01*
X81683334Y-65536033D02*
X81816667Y-65536033D01*
X81816667Y-65536033D02*
X81883334Y-65569366D01*
X81883334Y-65569366D02*
X81950000Y-65636033D01*
X81950000Y-65636033D02*
X81983334Y-65769366D01*
X81983334Y-65769366D02*
X81983334Y-66002700D01*
X81983334Y-66002700D02*
X81950000Y-66136033D01*
X81950000Y-66136033D02*
X81883334Y-66202700D01*
X81883334Y-66202700D02*
X81816667Y-66236033D01*
X81816667Y-66236033D02*
X81683334Y-66236033D01*
X81683334Y-66236033D02*
X81616667Y-66202700D01*
X81616667Y-66202700D02*
X81550000Y-66136033D01*
X81550000Y-66136033D02*
X81516667Y-66002700D01*
X81516667Y-66002700D02*
X81516667Y-65769366D01*
X81516667Y-65769366D02*
X81550000Y-65636033D01*
X81550000Y-65636033D02*
X81616667Y-65569366D01*
X81616667Y-65569366D02*
X81683334Y-65536033D01*
X82650000Y-66236033D02*
X82250000Y-66236033D01*
X82450000Y-66236033D02*
X82450000Y-65536033D01*
X82450000Y-65536033D02*
X82383333Y-65636033D01*
X82383333Y-65636033D02*
X82316667Y-65702700D01*
X82316667Y-65702700D02*
X82250000Y-65736033D01*
X76516033Y-72703333D02*
X75816033Y-72703333D01*
X75816033Y-72703333D02*
X76316033Y-72470000D01*
X76316033Y-72470000D02*
X75816033Y-72236666D01*
X75816033Y-72236666D02*
X76516033Y-72236666D01*
X76449366Y-71503333D02*
X76482700Y-71536666D01*
X76482700Y-71536666D02*
X76516033Y-71636666D01*
X76516033Y-71636666D02*
X76516033Y-71703333D01*
X76516033Y-71703333D02*
X76482700Y-71803333D01*
X76482700Y-71803333D02*
X76416033Y-71870000D01*
X76416033Y-71870000D02*
X76349366Y-71903333D01*
X76349366Y-71903333D02*
X76216033Y-71936666D01*
X76216033Y-71936666D02*
X76116033Y-71936666D01*
X76116033Y-71936666D02*
X75982700Y-71903333D01*
X75982700Y-71903333D02*
X75916033Y-71870000D01*
X75916033Y-71870000D02*
X75849366Y-71803333D01*
X75849366Y-71803333D02*
X75816033Y-71703333D01*
X75816033Y-71703333D02*
X75816033Y-71636666D01*
X75816033Y-71636666D02*
X75849366Y-71536666D01*
X75849366Y-71536666D02*
X75882700Y-71503333D01*
X75816033Y-71203333D02*
X76382700Y-71203333D01*
X76382700Y-71203333D02*
X76449366Y-71170000D01*
X76449366Y-71170000D02*
X76482700Y-71136666D01*
X76482700Y-71136666D02*
X76516033Y-71070000D01*
X76516033Y-71070000D02*
X76516033Y-70936666D01*
X76516033Y-70936666D02*
X76482700Y-70870000D01*
X76482700Y-70870000D02*
X76449366Y-70836666D01*
X76449366Y-70836666D02*
X76382700Y-70803333D01*
X76382700Y-70803333D02*
X75816033Y-70803333D01*
X76516033Y-70103333D02*
X76516033Y-70503333D01*
X76516033Y-70303333D02*
X75816033Y-70303333D01*
X75816033Y-70303333D02*
X75916033Y-70370000D01*
X75916033Y-70370000D02*
X75982700Y-70436667D01*
X75982700Y-70436667D02*
X76016033Y-70503333D01*
X71516033Y-50716666D02*
X71182700Y-50949999D01*
X71516033Y-51116666D02*
X70816033Y-51116666D01*
X70816033Y-51116666D02*
X70816033Y-50849999D01*
X70816033Y-50849999D02*
X70849366Y-50783333D01*
X70849366Y-50783333D02*
X70882700Y-50749999D01*
X70882700Y-50749999D02*
X70949366Y-50716666D01*
X70949366Y-50716666D02*
X71049366Y-50716666D01*
X71049366Y-50716666D02*
X71116033Y-50749999D01*
X71116033Y-50749999D02*
X71149366Y-50783333D01*
X71149366Y-50783333D02*
X71182700Y-50849999D01*
X71182700Y-50849999D02*
X71182700Y-51116666D01*
X71049366Y-50116666D02*
X71516033Y-50116666D01*
X70782700Y-50283333D02*
X71282700Y-50449999D01*
X71282700Y-50449999D02*
X71282700Y-50016666D01*
X73016033Y-50716666D02*
X72682700Y-50949999D01*
X73016033Y-51116666D02*
X72316033Y-51116666D01*
X72316033Y-51116666D02*
X72316033Y-50849999D01*
X72316033Y-50849999D02*
X72349366Y-50783333D01*
X72349366Y-50783333D02*
X72382700Y-50749999D01*
X72382700Y-50749999D02*
X72449366Y-50716666D01*
X72449366Y-50716666D02*
X72549366Y-50716666D01*
X72549366Y-50716666D02*
X72616033Y-50749999D01*
X72616033Y-50749999D02*
X72649366Y-50783333D01*
X72649366Y-50783333D02*
X72682700Y-50849999D01*
X72682700Y-50849999D02*
X72682700Y-51116666D01*
X72316033Y-50116666D02*
X72316033Y-50249999D01*
X72316033Y-50249999D02*
X72349366Y-50316666D01*
X72349366Y-50316666D02*
X72382700Y-50349999D01*
X72382700Y-50349999D02*
X72482700Y-50416666D01*
X72482700Y-50416666D02*
X72616033Y-50449999D01*
X72616033Y-50449999D02*
X72882700Y-50449999D01*
X72882700Y-50449999D02*
X72949366Y-50416666D01*
X72949366Y-50416666D02*
X72982700Y-50383333D01*
X72982700Y-50383333D02*
X73016033Y-50316666D01*
X73016033Y-50316666D02*
X73016033Y-50183333D01*
X73016033Y-50183333D02*
X72982700Y-50116666D01*
X72982700Y-50116666D02*
X72949366Y-50083333D01*
X72949366Y-50083333D02*
X72882700Y-50049999D01*
X72882700Y-50049999D02*
X72716033Y-50049999D01*
X72716033Y-50049999D02*
X72649366Y-50083333D01*
X72649366Y-50083333D02*
X72616033Y-50116666D01*
X72616033Y-50116666D02*
X72582700Y-50183333D01*
X72582700Y-50183333D02*
X72582700Y-50316666D01*
X72582700Y-50316666D02*
X72616033Y-50383333D01*
X72616033Y-50383333D02*
X72649366Y-50416666D01*
X72649366Y-50416666D02*
X72716033Y-50449999D01*
X70116033Y-77916666D02*
X69782700Y-78149999D01*
X70116033Y-78316666D02*
X69416033Y-78316666D01*
X69416033Y-78316666D02*
X69416033Y-78049999D01*
X69416033Y-78049999D02*
X69449366Y-77983333D01*
X69449366Y-77983333D02*
X69482700Y-77949999D01*
X69482700Y-77949999D02*
X69549366Y-77916666D01*
X69549366Y-77916666D02*
X69649366Y-77916666D01*
X69649366Y-77916666D02*
X69716033Y-77949999D01*
X69716033Y-77949999D02*
X69749366Y-77983333D01*
X69749366Y-77983333D02*
X69782700Y-78049999D01*
X69782700Y-78049999D02*
X69782700Y-78316666D01*
X70116033Y-77583333D02*
X70116033Y-77449999D01*
X70116033Y-77449999D02*
X70082700Y-77383333D01*
X70082700Y-77383333D02*
X70049366Y-77349999D01*
X70049366Y-77349999D02*
X69949366Y-77283333D01*
X69949366Y-77283333D02*
X69816033Y-77249999D01*
X69816033Y-77249999D02*
X69549366Y-77249999D01*
X69549366Y-77249999D02*
X69482700Y-77283333D01*
X69482700Y-77283333D02*
X69449366Y-77316666D01*
X69449366Y-77316666D02*
X69416033Y-77383333D01*
X69416033Y-77383333D02*
X69416033Y-77516666D01*
X69416033Y-77516666D02*
X69449366Y-77583333D01*
X69449366Y-77583333D02*
X69482700Y-77616666D01*
X69482700Y-77616666D02*
X69549366Y-77649999D01*
X69549366Y-77649999D02*
X69716033Y-77649999D01*
X69716033Y-77649999D02*
X69782700Y-77616666D01*
X69782700Y-77616666D02*
X69816033Y-77583333D01*
X69816033Y-77583333D02*
X69849366Y-77516666D01*
X69849366Y-77516666D02*
X69849366Y-77383333D01*
X69849366Y-77383333D02*
X69816033Y-77316666D01*
X69816033Y-77316666D02*
X69782700Y-77283333D01*
X69782700Y-77283333D02*
X69716033Y-77249999D01*
X68516033Y-50750000D02*
X68182700Y-50983333D01*
X68516033Y-51150000D02*
X67816033Y-51150000D01*
X67816033Y-51150000D02*
X67816033Y-50883333D01*
X67816033Y-50883333D02*
X67849366Y-50816667D01*
X67849366Y-50816667D02*
X67882700Y-50783333D01*
X67882700Y-50783333D02*
X67949366Y-50750000D01*
X67949366Y-50750000D02*
X68049366Y-50750000D01*
X68049366Y-50750000D02*
X68116033Y-50783333D01*
X68116033Y-50783333D02*
X68149366Y-50816667D01*
X68149366Y-50816667D02*
X68182700Y-50883333D01*
X68182700Y-50883333D02*
X68182700Y-51150000D01*
X68516033Y-50083333D02*
X68516033Y-50483333D01*
X68516033Y-50283333D02*
X67816033Y-50283333D01*
X67816033Y-50283333D02*
X67916033Y-50350000D01*
X67916033Y-50350000D02*
X67982700Y-50416667D01*
X67982700Y-50416667D02*
X68016033Y-50483333D01*
X67816033Y-49450000D02*
X67816033Y-49783333D01*
X67816033Y-49783333D02*
X68149366Y-49816666D01*
X68149366Y-49816666D02*
X68116033Y-49783333D01*
X68116033Y-49783333D02*
X68082700Y-49716666D01*
X68082700Y-49716666D02*
X68082700Y-49550000D01*
X68082700Y-49550000D02*
X68116033Y-49483333D01*
X68116033Y-49483333D02*
X68149366Y-49450000D01*
X68149366Y-49450000D02*
X68216033Y-49416666D01*
X68216033Y-49416666D02*
X68382700Y-49416666D01*
X68382700Y-49416666D02*
X68449366Y-49450000D01*
X68449366Y-49450000D02*
X68482700Y-49483333D01*
X68482700Y-49483333D02*
X68516033Y-49550000D01*
X68516033Y-49550000D02*
X68516033Y-49716666D01*
X68516033Y-49716666D02*
X68482700Y-49783333D01*
X68482700Y-49783333D02*
X68449366Y-49816666D01*
D11*
%TO.C,G\u002A\u002A\u002A*%
G36*
X96597425Y-76801608D02*
G01*
X96633769Y-76803539D01*
X96642653Y-76805411D01*
X96637744Y-76847793D01*
X96625247Y-76915833D01*
X96607272Y-77000650D01*
X96585929Y-77093358D01*
X96563329Y-77185074D01*
X96541582Y-77266915D01*
X96522799Y-77329996D01*
X96510048Y-77363633D01*
X96453214Y-77437381D01*
X96372140Y-77489837D01*
X96273484Y-77518989D01*
X96163902Y-77522824D01*
X96055519Y-77501112D01*
X96005942Y-77483263D01*
X95974653Y-77468167D01*
X95969032Y-77462493D01*
X95977770Y-77441431D01*
X95999545Y-77402409D01*
X96007621Y-77389099D01*
X96039946Y-77347318D01*
X96067858Y-77336815D01*
X96075900Y-77339083D01*
X96111548Y-77348524D01*
X96166280Y-77357649D01*
X96189965Y-77360518D01*
X96248162Y-77362982D01*
X96286108Y-77352333D01*
X96312868Y-77331002D01*
X96343268Y-77294091D01*
X96350993Y-77270389D01*
X96335718Y-77265550D01*
X96316178Y-77273624D01*
X96243798Y-77293583D01*
X96164284Y-77286369D01*
X96092306Y-77253978D01*
X96075766Y-77240907D01*
X96039807Y-77202735D01*
X96020624Y-77161147D01*
X96011524Y-77100685D01*
X96010737Y-77090692D01*
X96010575Y-77074164D01*
X96212191Y-77074164D01*
X96233037Y-77110488D01*
X96269981Y-77128106D01*
X96313767Y-77123330D01*
X96355140Y-77092474D01*
X96363380Y-77081243D01*
X96382581Y-77031456D01*
X96368980Y-76995248D01*
X96324741Y-76976030D01*
X96295227Y-76973834D01*
X96249545Y-76979713D01*
X96224959Y-77003269D01*
X96216696Y-77022818D01*
X96212191Y-77074164D01*
X96010575Y-77074164D01*
X96010039Y-77019398D01*
X96022789Y-76966503D01*
X96040683Y-76932700D01*
X96099536Y-76866021D01*
X96173645Y-76821415D01*
X96254271Y-76801204D01*
X96332680Y-76807712D01*
X96394461Y-76838597D01*
X96442437Y-76876334D01*
X96442437Y-76838597D01*
X96446438Y-76816837D01*
X96464243Y-76805502D01*
X96504557Y-76801310D01*
X96542580Y-76800859D01*
X96597425Y-76801608D01*
G37*
G36*
X87625270Y-77351648D02*
G01*
X87598070Y-77392616D01*
X86305307Y-77397288D01*
X86046773Y-77398099D01*
X85822521Y-77398512D01*
X85630419Y-77398498D01*
X85468336Y-77398028D01*
X85334139Y-77397071D01*
X85225696Y-77395600D01*
X85140876Y-77393582D01*
X85077547Y-77390990D01*
X85033576Y-77387794D01*
X85006833Y-77383963D01*
X84995184Y-77379468D01*
X84994841Y-77379080D01*
X84970197Y-77343484D01*
X84964125Y-77333440D01*
X84968185Y-77329013D01*
X84987135Y-77325163D01*
X85023026Y-77321854D01*
X85077908Y-77319053D01*
X85153830Y-77316723D01*
X85252843Y-77314831D01*
X85376997Y-77313341D01*
X85528341Y-77312219D01*
X85708925Y-77311429D01*
X85920799Y-77310937D01*
X86166014Y-77310707D01*
X86301791Y-77310680D01*
X87652470Y-77310680D01*
X87625270Y-77351648D01*
G37*
G36*
X89022117Y-76655259D02*
G01*
X89095060Y-76656896D01*
X89141672Y-76662278D01*
X89166993Y-76673575D01*
X89176063Y-76692960D01*
X89173923Y-76722603D01*
X89166110Y-76762168D01*
X89154730Y-76819067D01*
X88993135Y-76819067D01*
X88831540Y-76819067D01*
X88831540Y-76882795D01*
X88831540Y-76946522D01*
X88961272Y-76946522D01*
X89091003Y-76946522D01*
X89079623Y-77003422D01*
X89071506Y-77051536D01*
X89068243Y-77085358D01*
X89059181Y-77098568D01*
X89028214Y-77106438D01*
X88969672Y-77109956D01*
X88924647Y-77110393D01*
X88781050Y-77110393D01*
X88765328Y-77215089D01*
X88749605Y-77319784D01*
X88644910Y-77325245D01*
X88581116Y-77325987D01*
X88547893Y-77319178D01*
X88539783Y-77307037D01*
X88542895Y-77282120D01*
X88551795Y-77227744D01*
X88565384Y-77150207D01*
X88582561Y-77055808D01*
X88598733Y-76969282D01*
X88658115Y-76655196D01*
X88917803Y-76655196D01*
X89022117Y-76655259D01*
G37*
G36*
X89563053Y-76812421D02*
G01*
X89644012Y-76847292D01*
X89697405Y-76905753D01*
X89723554Y-76988084D01*
X89726510Y-77038436D01*
X89711679Y-77143931D01*
X89669323Y-77225682D01*
X89599929Y-77283217D01*
X89503982Y-77316067D01*
X89432808Y-77323774D01*
X89365152Y-77323852D01*
X89308013Y-77319337D01*
X89277634Y-77312470D01*
X89240436Y-77288264D01*
X89198957Y-77250928D01*
X89195698Y-77247477D01*
X89162864Y-77188922D01*
X89148046Y-77112124D01*
X89149264Y-77083932D01*
X89348372Y-77083932D01*
X89360909Y-77130167D01*
X89392831Y-77158633D01*
X89437049Y-77163291D01*
X89486473Y-77138100D01*
X89490143Y-77134883D01*
X89516128Y-77092200D01*
X89522026Y-77039932D01*
X89507069Y-76994623D01*
X89497130Y-76983770D01*
X89451668Y-76966368D01*
X89404188Y-76979106D01*
X89366292Y-77018351D01*
X89362309Y-77025969D01*
X89348372Y-77083932D01*
X89149264Y-77083932D01*
X89151566Y-77030670D01*
X89173746Y-76958146D01*
X89188268Y-76934202D01*
X89260852Y-76858559D01*
X89345445Y-76815286D01*
X89449022Y-76800885D01*
X89454205Y-76800859D01*
X89563053Y-76812421D01*
G37*
G36*
X90008246Y-76802649D02*
G01*
X90036204Y-76809396D01*
X90041396Y-76823168D01*
X90039878Y-76828085D01*
X90036533Y-76844699D01*
X90051241Y-76842979D01*
X90081418Y-76828197D01*
X90132340Y-76808517D01*
X90175819Y-76800972D01*
X90203948Y-76804870D01*
X90211672Y-76823919D01*
X90206323Y-76860035D01*
X90192064Y-76924950D01*
X90178687Y-76961815D01*
X90161045Y-76978495D01*
X90133993Y-76982852D01*
X90125895Y-76982938D01*
X90079171Y-76992223D01*
X90043260Y-77023232D01*
X90014869Y-77080693D01*
X89990709Y-77169337D01*
X89988270Y-77180713D01*
X89974826Y-77245610D01*
X89964948Y-77295187D01*
X89960510Y-77319990D01*
X89960429Y-77320974D01*
X89943956Y-77325309D01*
X89901465Y-77328184D01*
X89860286Y-77328888D01*
X89794857Y-77325207D01*
X89763582Y-77313931D01*
X89760242Y-77306128D01*
X89763575Y-77280514D01*
X89772623Y-77226624D01*
X89786074Y-77151912D01*
X89802615Y-77063836D01*
X89805762Y-77047437D01*
X89822579Y-76959698D01*
X89836582Y-76885921D01*
X89846492Y-76832893D01*
X89851031Y-76807402D01*
X89851182Y-76806182D01*
X89867651Y-76803259D01*
X89910111Y-76801326D01*
X89950754Y-76800859D01*
X90008246Y-76802649D01*
G37*
G36*
X91007512Y-76805982D02*
G01*
X91062110Y-76829422D01*
X91070647Y-76836812D01*
X91099921Y-76874634D01*
X91115776Y-76920508D01*
X91118792Y-76981575D01*
X91109553Y-77064977D01*
X91095595Y-77143085D01*
X91061093Y-77319784D01*
X90955324Y-77325290D01*
X90896233Y-77327199D01*
X90865808Y-77323588D01*
X90856455Y-77312313D01*
X90858579Y-77297979D01*
X90866266Y-77263899D01*
X90877626Y-77206552D01*
X90889775Y-77140709D01*
X90900640Y-77072170D01*
X90902883Y-77029658D01*
X90896235Y-77003757D01*
X90885514Y-76989825D01*
X90852094Y-76968485D01*
X90822429Y-76976828D01*
X90795486Y-77016477D01*
X90770231Y-77089054D01*
X90745631Y-77196180D01*
X90741979Y-77215089D01*
X90720423Y-77328888D01*
X90620266Y-77328888D01*
X90520109Y-77328888D01*
X90531774Y-77260608D01*
X90540577Y-77202299D01*
X90550151Y-77128934D01*
X90554916Y-77088041D01*
X90559959Y-77027615D01*
X90557040Y-76993588D01*
X90544439Y-76976482D01*
X90533693Y-76971205D01*
X90495855Y-76973893D01*
X90462122Y-77011024D01*
X90433703Y-77080740D01*
X90417194Y-77150161D01*
X90401654Y-77231232D01*
X90388791Y-77283185D01*
X90373499Y-77312476D01*
X90350672Y-77325562D01*
X90315205Y-77328899D01*
X90275866Y-77328888D01*
X90218593Y-77327826D01*
X90189724Y-77322259D01*
X90181263Y-77308612D01*
X90184158Y-77287920D01*
X90190989Y-77254618D01*
X90202835Y-77194070D01*
X90218040Y-77114831D01*
X90234951Y-77025454D01*
X90235242Y-77023906D01*
X90277143Y-76800859D01*
X90373697Y-76800859D01*
X90428679Y-76804090D01*
X90463295Y-76812512D01*
X90470250Y-76819708D01*
X90481396Y-76829256D01*
X90505469Y-76819708D01*
X90564660Y-76802372D01*
X90633081Y-76802238D01*
X90694854Y-76817985D01*
X90725900Y-76838015D01*
X90763056Y-76875170D01*
X90810291Y-76838015D01*
X90867524Y-76810344D01*
X90937957Y-76799645D01*
X91007512Y-76805982D01*
G37*
G36*
X91720841Y-76800859D02*
G01*
X91778131Y-76801965D01*
X91806880Y-76807520D01*
X91814947Y-76820882D01*
X91811726Y-76839691D01*
X91804631Y-76872073D01*
X91792733Y-76931883D01*
X91777668Y-77010705D01*
X91761070Y-77100124D01*
X91760415Y-77103705D01*
X91719258Y-77328888D01*
X91624300Y-77328888D01*
X91566443Y-77325131D01*
X91529843Y-77315195D01*
X91522403Y-77308069D01*
X91508184Y-77296356D01*
X91476562Y-77308069D01*
X91416370Y-77326404D01*
X91347627Y-77327750D01*
X91285743Y-77313155D01*
X91253652Y-77292935D01*
X91225333Y-77256868D01*
X91209393Y-77213343D01*
X91205211Y-77155233D01*
X91212169Y-77075408D01*
X91226735Y-76983136D01*
X91258752Y-76800859D01*
X91367166Y-76800859D01*
X91429074Y-76802801D01*
X91460458Y-76809572D01*
X91467049Y-76822585D01*
X91466195Y-76825315D01*
X91458826Y-76854177D01*
X91447871Y-76908278D01*
X91435474Y-76976894D01*
X91433190Y-76990348D01*
X91422007Y-77062732D01*
X91418419Y-77107544D01*
X91422574Y-77132856D01*
X91434620Y-77146742D01*
X91436074Y-77147693D01*
X91470002Y-77162977D01*
X91498474Y-77153798D01*
X91523358Y-77131550D01*
X91544271Y-77096445D01*
X91565057Y-77038739D01*
X91579020Y-76981335D01*
X91594644Y-76899790D01*
X91607520Y-76847393D01*
X91622695Y-76817721D01*
X91645218Y-76804351D01*
X91680137Y-76800858D01*
X91720841Y-76800859D01*
G37*
G36*
X92113981Y-76850931D02*
G01*
X92094773Y-76951888D01*
X92075810Y-77052431D01*
X92059348Y-77140548D01*
X92048148Y-77201433D01*
X92026705Y-77319784D01*
X91919789Y-77325316D01*
X91860378Y-77327352D01*
X91829578Y-77324015D01*
X91819709Y-77312971D01*
X91822080Y-77295643D01*
X91828327Y-77266873D01*
X91839965Y-77208822D01*
X91855721Y-77128007D01*
X91874324Y-77030949D01*
X91891598Y-76939609D01*
X91951910Y-76618780D01*
X92055141Y-76618780D01*
X92158372Y-76618780D01*
X92113981Y-76850931D01*
G37*
G36*
X92463285Y-76801218D02*
G01*
X92517022Y-76815473D01*
X92546079Y-76837485D01*
X92560603Y-76845620D01*
X92570156Y-76829698D01*
X92587678Y-76811916D01*
X92627650Y-76802947D01*
X92684060Y-76800859D01*
X92742004Y-76801927D01*
X92771359Y-76807314D01*
X92779939Y-76820292D01*
X92776744Y-76839691D01*
X92769649Y-76872073D01*
X92757751Y-76931883D01*
X92742685Y-77010705D01*
X92726088Y-77100124D01*
X92725433Y-77103705D01*
X92684276Y-77328888D01*
X92589318Y-77328888D01*
X92526072Y-77324530D01*
X92490791Y-77312311D01*
X92486015Y-77306128D01*
X92473856Y-77292499D01*
X92453544Y-77306128D01*
X92408719Y-77326647D01*
X92347311Y-77329157D01*
X92283547Y-77315059D01*
X92231653Y-77285757D01*
X92229784Y-77284066D01*
X92171894Y-77207719D01*
X92147193Y-77118700D01*
X92150205Y-77085873D01*
X92360020Y-77085873D01*
X92366608Y-77133981D01*
X92371352Y-77144185D01*
X92401033Y-77162146D01*
X92445489Y-77162166D01*
X92488392Y-77145240D01*
X92499129Y-77136405D01*
X92521698Y-77093761D01*
X92526439Y-77040455D01*
X92512525Y-76994797D01*
X92505892Y-76986580D01*
X92464550Y-76966994D01*
X92415961Y-76970143D01*
X92383126Y-76990780D01*
X92366052Y-77031279D01*
X92360020Y-77085873D01*
X92150205Y-77085873D01*
X92156210Y-77020439D01*
X92179306Y-76955626D01*
X92216952Y-76888217D01*
X92262809Y-76844812D01*
X92330112Y-76813351D01*
X92338740Y-76810325D01*
X92399454Y-76798925D01*
X92463285Y-76801218D01*
G37*
G36*
X93492811Y-76657802D02*
G01*
X93573804Y-76666869D01*
X93634393Y-76684271D01*
X93682438Y-76711881D01*
X93706423Y-76732153D01*
X93745502Y-76791739D01*
X93759542Y-76866200D01*
X93750208Y-76945654D01*
X93719169Y-77020219D01*
X93668090Y-77080013D01*
X93645050Y-77096059D01*
X93583339Y-77132469D01*
X93639529Y-77230679D01*
X93695718Y-77328888D01*
X93580583Y-77328835D01*
X93465447Y-77328783D01*
X93419928Y-77242348D01*
X93382677Y-77182713D01*
X93352106Y-77158755D01*
X93327589Y-77170472D01*
X93308499Y-77217865D01*
X93303077Y-77242401D01*
X93286369Y-77328888D01*
X93180173Y-77328888D01*
X93121455Y-77325950D01*
X93083474Y-77318187D01*
X93073978Y-77310192D01*
X93077341Y-77286230D01*
X93086475Y-77233969D01*
X93099952Y-77160805D01*
X93116341Y-77074135D01*
X93134210Y-76981357D01*
X93136108Y-76971667D01*
X93351852Y-76971667D01*
X93368055Y-76980265D01*
X93409571Y-76980710D01*
X93431674Y-76979448D01*
X93486273Y-76973440D01*
X93516211Y-76960233D01*
X93533235Y-76933451D01*
X93537519Y-76921992D01*
X93546426Y-76880988D01*
X93533053Y-76854678D01*
X93520728Y-76844608D01*
X93475747Y-76825046D01*
X93435002Y-76819067D01*
X93395139Y-76826950D01*
X93375935Y-76857774D01*
X93373062Y-76869139D01*
X93361350Y-76919126D01*
X93352944Y-76952136D01*
X93351852Y-76971667D01*
X93136108Y-76971667D01*
X93152131Y-76889868D01*
X93168672Y-76807063D01*
X93182404Y-76740342D01*
X93191897Y-76697099D01*
X93194466Y-76687060D01*
X93203325Y-76672258D01*
X93223877Y-76662826D01*
X93262933Y-76657616D01*
X93327307Y-76655480D01*
X93383553Y-76655196D01*
X93492811Y-76657802D01*
G37*
G36*
X94136807Y-76810313D02*
G01*
X94187455Y-76823616D01*
X94215327Y-76821938D01*
X94218040Y-76818562D01*
X94238056Y-76808830D01*
X94283250Y-76802400D01*
X94324709Y-76800859D01*
X94381877Y-76801928D01*
X94410648Y-76807524D01*
X94419027Y-76821237D01*
X94416127Y-76841827D01*
X94409296Y-76875129D01*
X94397450Y-76935677D01*
X94382245Y-77014917D01*
X94365334Y-77104293D01*
X94365044Y-77105841D01*
X94323142Y-77328888D01*
X94226589Y-77328888D01*
X94171606Y-77325657D01*
X94136990Y-77317236D01*
X94130035Y-77310040D01*
X94118889Y-77300491D01*
X94094816Y-77310040D01*
X94034392Y-77326220D01*
X93961649Y-77323804D01*
X93895102Y-77303575D01*
X93890988Y-77301422D01*
X93853539Y-77266306D01*
X93818217Y-77209785D01*
X93792623Y-77146458D01*
X93784187Y-77096369D01*
X93788859Y-77066168D01*
X94003483Y-77066168D01*
X94003682Y-77115788D01*
X94012289Y-77149788D01*
X94014718Y-77152878D01*
X94049500Y-77165946D01*
X94096013Y-77161672D01*
X94135910Y-77143245D01*
X94147602Y-77129798D01*
X94166665Y-77068773D01*
X94159716Y-77015261D01*
X94130006Y-76977768D01*
X94084515Y-76964730D01*
X94042731Y-76974591D01*
X94024429Y-76986580D01*
X94010723Y-77017556D01*
X94003483Y-77066168D01*
X93788859Y-77066168D01*
X93799393Y-76998078D01*
X93840620Y-76914446D01*
X93902291Y-76849998D01*
X93978829Y-76809260D01*
X94064654Y-76796756D01*
X94136807Y-76810313D01*
G37*
G36*
X94840759Y-76806910D02*
G01*
X94922778Y-76833543D01*
X94984596Y-76885460D01*
X94987419Y-76888981D01*
X95024214Y-76935758D01*
X94939532Y-76978794D01*
X94888460Y-77003110D01*
X94857725Y-77010906D01*
X94835969Y-77003599D01*
X94823303Y-76993280D01*
X94773854Y-76968398D01*
X94723721Y-76973618D01*
X94682514Y-77004110D01*
X94659843Y-77055046D01*
X94658064Y-77076322D01*
X94672513Y-77128134D01*
X94708825Y-77159213D01*
X94756448Y-77165421D01*
X94804828Y-77142616D01*
X94811443Y-77136491D01*
X94832283Y-77120723D01*
X94856095Y-77121050D01*
X94894800Y-77138935D01*
X94912884Y-77148946D01*
X94956530Y-77175514D01*
X94973164Y-77194908D01*
X94968378Y-77216166D01*
X94961509Y-77227543D01*
X94910232Y-77276494D01*
X94835662Y-77310407D01*
X94748378Y-77327617D01*
X94658957Y-77326457D01*
X94577979Y-77305261D01*
X94552273Y-77292005D01*
X94496039Y-77239452D01*
X94455684Y-77167078D01*
X94439965Y-77090775D01*
X94439969Y-77088218D01*
X94453836Y-77021106D01*
X94488732Y-76947708D01*
X94536296Y-76883247D01*
X94568264Y-76854600D01*
X94640685Y-76819932D01*
X94734299Y-76804139D01*
X94840759Y-76806910D01*
G37*
G36*
X95267044Y-76803545D02*
G01*
X95284342Y-76814567D01*
X95291316Y-76838857D01*
X95288872Y-76881524D01*
X95277915Y-76947678D01*
X95259351Y-77042431D01*
X95249464Y-77092186D01*
X95232519Y-77178151D01*
X95218477Y-77249985D01*
X95208672Y-77300808D01*
X95204442Y-77323744D01*
X95204370Y-77324336D01*
X95187836Y-77326806D01*
X95145174Y-77328459D01*
X95101881Y-77328888D01*
X94999462Y-77328888D01*
X95011325Y-77269712D01*
X95019509Y-77227821D01*
X95032480Y-77160220D01*
X95048310Y-77076993D01*
X95061784Y-77005698D01*
X95100378Y-76800859D01*
X95197859Y-76800859D01*
X95238518Y-76800679D01*
X95267044Y-76803545D01*
G37*
G36*
X95836891Y-76812227D02*
G01*
X95858717Y-76822456D01*
X95896401Y-76859445D01*
X95916961Y-76915600D01*
X95920937Y-76995060D01*
X95908868Y-77101964D01*
X95900918Y-77146809D01*
X95868066Y-77319784D01*
X95761563Y-77325311D01*
X95702322Y-77327583D01*
X95671620Y-77324540D01*
X95661658Y-77313236D01*
X95664638Y-77290729D01*
X95665073Y-77288895D01*
X95690999Y-77171069D01*
X95704787Y-77084538D01*
X95706742Y-77026375D01*
X95697169Y-76993651D01*
X95696026Y-76992178D01*
X95659064Y-76965220D01*
X95623484Y-76973471D01*
X95590296Y-77015725D01*
X95560511Y-77090777D01*
X95538475Y-77180195D01*
X95508652Y-77328888D01*
X95411100Y-77328888D01*
X95353462Y-77326910D01*
X95323910Y-77319180D01*
X95314242Y-77303009D01*
X95313973Y-77297024D01*
X95317547Y-77267644D01*
X95326991Y-77210576D01*
X95340904Y-77133813D01*
X95357886Y-77045350D01*
X95359423Y-77037562D01*
X95376368Y-76951596D01*
X95390411Y-76879763D01*
X95400215Y-76828939D01*
X95404446Y-76806003D01*
X95404517Y-76805411D01*
X95421042Y-76802929D01*
X95463632Y-76801276D01*
X95505805Y-76800859D01*
X95564696Y-76803760D01*
X95594096Y-76811898D01*
X95595770Y-76819067D01*
X95592937Y-76835701D01*
X95618271Y-76830141D01*
X95645229Y-76816959D01*
X95702321Y-76800866D01*
X95772608Y-76799453D01*
X95836891Y-76812227D01*
G37*
G36*
X97600913Y-76712096D02*
G01*
X97592797Y-76760210D01*
X97589533Y-76794031D01*
X97577670Y-76809725D01*
X97538647Y-76817558D01*
X97491338Y-76819067D01*
X97426282Y-76823312D01*
X97389840Y-76835304D01*
X97384518Y-76841827D01*
X97378164Y-76867578D01*
X97366987Y-76921619D01*
X97352489Y-76996379D01*
X97336174Y-77084284D01*
X97333916Y-77096737D01*
X97291937Y-77328888D01*
X97185825Y-77328888D01*
X97129144Y-77326642D01*
X97090643Y-77320820D01*
X97079713Y-77314461D01*
X97082985Y-77292102D01*
X97091938Y-77241134D01*
X97105280Y-77168688D01*
X97121715Y-77081898D01*
X97125133Y-77064103D01*
X97141953Y-76976447D01*
X97155972Y-76902837D01*
X97165911Y-76850031D01*
X97170491Y-76824789D01*
X97170653Y-76823619D01*
X97154323Y-76821022D01*
X97112465Y-76819374D01*
X97079713Y-76819067D01*
X97024252Y-76817058D01*
X96996346Y-76805483D01*
X96989798Y-76776021D01*
X96998411Y-76720351D01*
X97000053Y-76712096D01*
X97011433Y-76655196D01*
X97311863Y-76655196D01*
X97612293Y-76655196D01*
X97600913Y-76712096D01*
G37*
G36*
X97915676Y-76800429D02*
G01*
X97997297Y-76838893D01*
X98052518Y-76901601D01*
X98079055Y-76985512D01*
X98081146Y-77020751D01*
X98081146Y-77110393D01*
X97899067Y-77110393D01*
X97803705Y-77112596D01*
X97743734Y-77119424D01*
X97718382Y-77131214D01*
X97726878Y-77148297D01*
X97763792Y-77168915D01*
X97811176Y-77181065D01*
X97863675Y-77170115D01*
X97868487Y-77168332D01*
X97908177Y-77157543D01*
X97937328Y-77165024D01*
X97964842Y-77196137D01*
X97992371Y-77242941D01*
X97992656Y-77272003D01*
X97964234Y-77296096D01*
X97914603Y-77314155D01*
X97851264Y-77325117D01*
X97781714Y-77327919D01*
X97713452Y-77321497D01*
X97653977Y-77304787D01*
X97632626Y-77293964D01*
X97563290Y-77237256D01*
X97526047Y-77168385D01*
X97516702Y-77095438D01*
X97533032Y-76994368D01*
X97534505Y-76991591D01*
X97735196Y-76991591D01*
X97746868Y-77010912D01*
X97785898Y-77018840D01*
X97806953Y-77019354D01*
X97855170Y-77015472D01*
X97885733Y-77005828D01*
X97889056Y-77002614D01*
X97885172Y-76980659D01*
X97865717Y-76951146D01*
X97842558Y-76930456D01*
X97835225Y-76928315D01*
X97798568Y-76937741D01*
X97760809Y-76959565D01*
X97737253Y-76984105D01*
X97735196Y-76991591D01*
X97534505Y-76991591D01*
X97578316Y-76909024D01*
X97646993Y-76843516D01*
X97733501Y-76801957D01*
X97832281Y-76788458D01*
X97915676Y-76800429D01*
G37*
G36*
X98470284Y-76810313D02*
G01*
X98520932Y-76823616D01*
X98548804Y-76821938D01*
X98551517Y-76818562D01*
X98571532Y-76808830D01*
X98616727Y-76802400D01*
X98658186Y-76800859D01*
X98715354Y-76801928D01*
X98744124Y-76807524D01*
X98752504Y-76821237D01*
X98749604Y-76841827D01*
X98742773Y-76875129D01*
X98730927Y-76935677D01*
X98715721Y-77014917D01*
X98698811Y-77104293D01*
X98698520Y-77105841D01*
X98656619Y-77328888D01*
X98560065Y-77328888D01*
X98505083Y-77325657D01*
X98470467Y-77317236D01*
X98463512Y-77310040D01*
X98452366Y-77300491D01*
X98428293Y-77310040D01*
X98367868Y-77326220D01*
X98295126Y-77323804D01*
X98228579Y-77303575D01*
X98224464Y-77301422D01*
X98187016Y-77266306D01*
X98151694Y-77209785D01*
X98126100Y-77146458D01*
X98117664Y-77096369D01*
X98122336Y-77066168D01*
X98336960Y-77066168D01*
X98337159Y-77115788D01*
X98345766Y-77149788D01*
X98348195Y-77152878D01*
X98382976Y-77165946D01*
X98429489Y-77161672D01*
X98469387Y-77143245D01*
X98481079Y-77129798D01*
X98500142Y-77068773D01*
X98493193Y-77015261D01*
X98463483Y-76977768D01*
X98417992Y-76964730D01*
X98376208Y-76974591D01*
X98357906Y-76986580D01*
X98344200Y-77017556D01*
X98336960Y-77066168D01*
X98122336Y-77066168D01*
X98132869Y-76998078D01*
X98174097Y-76914446D01*
X98235768Y-76849998D01*
X98312305Y-76809260D01*
X98398130Y-76796756D01*
X98470284Y-76810313D01*
G37*
G36*
X99585770Y-76809045D02*
G01*
X99638216Y-76838181D01*
X99641758Y-76841827D01*
X99673576Y-76884181D01*
X99690299Y-76930398D01*
X99692990Y-76989403D01*
X99682715Y-77070123D01*
X99674347Y-77114892D01*
X99656591Y-77205114D01*
X99642926Y-77265710D01*
X99629275Y-77302539D01*
X99611561Y-77321462D01*
X99585707Y-77328339D01*
X99547635Y-77329032D01*
X99525472Y-77328888D01*
X99468224Y-77327845D01*
X99439440Y-77322332D01*
X99431178Y-77308776D01*
X99434443Y-77287920D01*
X99461174Y-77162649D01*
X99473104Y-77070298D01*
X99470260Y-77010529D01*
X99459243Y-76987640D01*
X99428733Y-76970862D01*
X99395787Y-76980972D01*
X99373321Y-77002403D01*
X99353622Y-77043810D01*
X99335165Y-77109979D01*
X99316423Y-77205694D01*
X99308134Y-77255635D01*
X99296420Y-77328888D01*
X99191757Y-77328888D01*
X99087094Y-77328888D01*
X99111509Y-77215089D01*
X99124802Y-77144071D01*
X99133931Y-77078085D01*
X99136564Y-77041542D01*
X99127782Y-76992225D01*
X99104475Y-76970264D01*
X99073244Y-76973354D01*
X99040695Y-76999192D01*
X99013431Y-77045475D01*
X99001022Y-77088824D01*
X98989272Y-77149870D01*
X98974872Y-77221020D01*
X98970399Y-77242401D01*
X98952107Y-77328888D01*
X98853473Y-77328888D01*
X98799093Y-77326718D01*
X98763269Y-77321127D01*
X98754838Y-77315880D01*
X98758059Y-77294178D01*
X98766900Y-77243549D01*
X98780130Y-77170835D01*
X98796518Y-77082872D01*
X98802371Y-77051865D01*
X98849904Y-76800859D01*
X98948034Y-76800859D01*
X99003728Y-76804045D01*
X99038871Y-76812375D01*
X99046164Y-76819708D01*
X99057310Y-76829256D01*
X99081383Y-76819708D01*
X99140574Y-76802372D01*
X99208995Y-76802238D01*
X99270768Y-76817985D01*
X99301814Y-76838015D01*
X99338970Y-76875170D01*
X99386205Y-76838015D01*
X99446116Y-76808758D01*
X99517187Y-76799170D01*
X99585770Y-76809045D01*
G37*
G36*
X86268781Y-77261093D02*
G01*
X86282523Y-77264663D01*
X86263934Y-77267275D01*
X86217094Y-77268421D01*
X86209605Y-77268436D01*
X86159582Y-77267504D01*
X86137309Y-77265045D01*
X86146868Y-77261565D01*
X86150429Y-77261093D01*
X86214276Y-77258080D01*
X86268781Y-77261093D01*
G37*
G36*
X86544477Y-74898678D02*
G01*
X86760359Y-74948809D01*
X86967616Y-75026200D01*
X87158421Y-75128855D01*
X87217314Y-75168557D01*
X87328899Y-75258868D01*
X87443246Y-75370018D01*
X87550253Y-75491037D01*
X87639813Y-75610954D01*
X87672151Y-75662350D01*
X87761788Y-75843649D01*
X87830039Y-76040889D01*
X87874861Y-76244767D01*
X87894206Y-76445981D01*
X87886049Y-76635071D01*
X87871256Y-76734071D01*
X87852585Y-76831069D01*
X87832006Y-76917921D01*
X87811489Y-76986482D01*
X87793002Y-77028608D01*
X87789834Y-77033010D01*
X87775234Y-77039813D01*
X87741886Y-77045236D01*
X87686793Y-77049397D01*
X87606961Y-77052413D01*
X87499392Y-77054402D01*
X87361091Y-77055480D01*
X87208809Y-77055770D01*
X87069907Y-77056228D01*
X86943484Y-77057524D01*
X86833927Y-77059545D01*
X86745622Y-77062175D01*
X86682957Y-77065300D01*
X86650318Y-77068804D01*
X86646594Y-77070498D01*
X86636607Y-77095027D01*
X86619657Y-77120569D01*
X86612837Y-77123403D01*
X86619601Y-77098379D01*
X86638435Y-77050776D01*
X86642164Y-77042114D01*
X86691609Y-76928315D01*
X87224442Y-76928315D01*
X87757275Y-76928315D01*
X87757275Y-76854419D01*
X87753581Y-76778813D01*
X87743749Y-76693440D01*
X87729658Y-76609062D01*
X87713187Y-76536444D01*
X87696213Y-76486348D01*
X87691529Y-76477669D01*
X87676114Y-76458193D01*
X87654741Y-76446086D01*
X87619295Y-76439622D01*
X87561659Y-76437077D01*
X87498827Y-76436702D01*
X87412826Y-76438238D01*
X87355018Y-76443695D01*
X87317275Y-76454339D01*
X87294722Y-76468565D01*
X87269163Y-76489623D01*
X87268451Y-76486419D01*
X87283552Y-76466529D01*
X87321187Y-76432043D01*
X87346966Y-76417231D01*
X87348415Y-76410488D01*
X87316184Y-76406340D01*
X87252933Y-76404999D01*
X87202075Y-76405612D01*
X87020137Y-76409390D01*
X87010893Y-76461267D01*
X87004933Y-76487189D01*
X86996849Y-76491868D01*
X86982446Y-76471663D01*
X86957528Y-76422931D01*
X86950710Y-76409026D01*
X86923285Y-76357045D01*
X86901416Y-76323002D01*
X86890343Y-76314339D01*
X86892887Y-76334191D01*
X86908733Y-76376912D01*
X86933054Y-76430307D01*
X86967119Y-76511818D01*
X86978670Y-76569940D01*
X86967761Y-76602970D01*
X86934445Y-76609205D01*
X86927546Y-76607731D01*
X86899359Y-76603687D01*
X86886677Y-76616390D01*
X86883375Y-76654490D01*
X86883297Y-76670221D01*
X86886017Y-76718071D01*
X86898885Y-76741084D01*
X86928962Y-76750708D01*
X86933368Y-76751402D01*
X86963980Y-76756654D01*
X86961408Y-76759488D01*
X86924264Y-76761715D01*
X86865089Y-76764444D01*
X86865089Y-76525196D01*
X86864497Y-76425473D01*
X86862217Y-76355896D01*
X86857492Y-76310210D01*
X86849565Y-76282158D01*
X86837679Y-76265483D01*
X86833225Y-76261761D01*
X86802992Y-76242102D01*
X86789914Y-76236994D01*
X86773847Y-76252856D01*
X86756203Y-76295951D01*
X86739881Y-76357376D01*
X86727859Y-76427598D01*
X86710549Y-76529421D01*
X86684577Y-76637829D01*
X86653365Y-76741043D01*
X86620334Y-76827283D01*
X86600008Y-76867807D01*
X86556197Y-76934914D01*
X86512271Y-76979028D01*
X86459058Y-77004741D01*
X86387383Y-77016647D01*
X86297285Y-77019354D01*
X86189254Y-77015143D01*
X86109732Y-77001158D01*
X86051646Y-76975365D01*
X86008483Y-76936412D01*
X86006442Y-76927457D01*
X86028830Y-76937784D01*
X86053317Y-76953419D01*
X86091487Y-76976744D01*
X86128845Y-76990984D01*
X86176069Y-76998320D01*
X86243838Y-77000931D01*
X86287119Y-77001146D01*
X86450592Y-77001146D01*
X86518488Y-76932867D01*
X86577324Y-76856142D01*
X86627047Y-76752237D01*
X86668865Y-76618094D01*
X86699992Y-76473117D01*
X86715869Y-76393518D01*
X86732259Y-76324047D01*
X86746624Y-76274977D01*
X86752384Y-76261056D01*
X86762034Y-76233510D01*
X86751973Y-76209833D01*
X86716951Y-76179006D01*
X86711170Y-76174569D01*
X86665341Y-76141579D01*
X86636287Y-76129836D01*
X86612657Y-76137459D01*
X86591645Y-76154774D01*
X86566935Y-76171454D01*
X86538902Y-76170650D01*
X86499171Y-76155487D01*
X86465599Y-76138436D01*
X86457418Y-76128692D01*
X86461160Y-76127880D01*
X86495589Y-76135438D01*
X86522554Y-76147203D01*
X86557084Y-76156829D01*
X86588584Y-76138472D01*
X86594177Y-76133053D01*
X86606446Y-76119201D01*
X86613491Y-76103130D01*
X86614469Y-76079260D01*
X86608542Y-76042014D01*
X86594868Y-75985813D01*
X86572606Y-75905079D01*
X86545566Y-75810426D01*
X86518506Y-75713577D01*
X86496375Y-75629346D01*
X86480640Y-75563748D01*
X86472771Y-75522800D01*
X86472746Y-75512007D01*
X86481164Y-75517697D01*
X86482723Y-75532377D01*
X86486555Y-75545082D01*
X86501877Y-75553699D01*
X86534432Y-75558993D01*
X86589964Y-75561729D01*
X86674213Y-75562674D01*
X86710322Y-75562723D01*
X86808918Y-75564125D01*
X86882241Y-75568122D01*
X86926338Y-75574396D01*
X86937920Y-75580931D01*
X86920433Y-75588940D01*
X86870768Y-75594860D01*
X86793125Y-75598341D01*
X86720786Y-75599139D01*
X86503653Y-75599139D01*
X86532545Y-75703834D01*
X86551009Y-75764216D01*
X86568765Y-75811686D01*
X86578933Y-75831289D01*
X86607965Y-75844169D01*
X86671611Y-75851723D01*
X86764581Y-75854049D01*
X86932733Y-75854049D01*
X86944431Y-75965968D01*
X86950985Y-76042382D01*
X86955230Y-76118174D01*
X86956128Y-76157150D01*
X86961045Y-76209442D01*
X86973214Y-76234053D01*
X86988761Y-76228089D01*
X87002966Y-76192127D01*
X87006160Y-76158713D01*
X87007664Y-76095533D01*
X87007651Y-76009187D01*
X87006298Y-75906277D01*
X87003778Y-75793404D01*
X87000269Y-75677170D01*
X86995944Y-75564175D01*
X86990979Y-75461022D01*
X86985550Y-75374311D01*
X86979831Y-75310643D01*
X86979496Y-75307813D01*
X86969867Y-75247066D01*
X86959516Y-75214120D01*
X86950502Y-75212221D01*
X86932388Y-75221859D01*
X86890124Y-75228645D01*
X86820169Y-75232862D01*
X86718979Y-75234787D01*
X86662501Y-75234981D01*
X86389230Y-75234981D01*
X86400970Y-75275949D01*
X86403187Y-75293803D01*
X86390139Y-75280299D01*
X86375153Y-75257741D01*
X86329892Y-75210969D01*
X86277872Y-75199500D01*
X86222243Y-75223593D01*
X86199673Y-75243258D01*
X86167912Y-75269371D01*
X86155195Y-75265465D01*
X86154981Y-75262356D01*
X86148460Y-75252191D01*
X86125777Y-75244605D01*
X86082252Y-75239081D01*
X86013202Y-75235101D01*
X85913949Y-75232149D01*
X85874183Y-75231320D01*
X85593385Y-75225877D01*
X85582536Y-75316917D01*
X85577736Y-75371846D01*
X85573133Y-75451014D01*
X85568867Y-75548119D01*
X85565082Y-75656860D01*
X85561918Y-75770934D01*
X85559518Y-75884040D01*
X85558021Y-75989876D01*
X85557572Y-76082140D01*
X85558310Y-76154531D01*
X85560378Y-76200746D01*
X85562388Y-76213488D01*
X85576820Y-76231399D01*
X85591260Y-76219056D01*
X85602781Y-76182500D01*
X85608456Y-76127775D01*
X85608624Y-76118064D01*
X85611216Y-76054829D01*
X85617251Y-75979930D01*
X85620543Y-75949641D01*
X85632025Y-75854049D01*
X85798822Y-75854049D01*
X85895177Y-75851285D01*
X85960177Y-75843187D01*
X85990149Y-75831289D01*
X86007722Y-75818460D01*
X86005593Y-75834618D01*
X86004844Y-75836801D01*
X85994955Y-75868498D01*
X85979052Y-75922723D01*
X85963171Y-75978546D01*
X85931332Y-76092022D01*
X85974877Y-76141328D01*
X85998279Y-76169084D01*
X85996905Y-76171851D01*
X85980573Y-76158901D01*
X85949320Y-76135505D01*
X85924148Y-76130644D01*
X85892859Y-76145823D01*
X85853703Y-76174569D01*
X85815341Y-76207497D01*
X85802967Y-76232135D01*
X85810873Y-76258064D01*
X85822008Y-76290577D01*
X85819611Y-76304737D01*
X85809178Y-76302547D01*
X85808753Y-76298625D01*
X85799640Y-76269911D01*
X85791656Y-76255347D01*
X85775361Y-76239701D01*
X85753248Y-76249120D01*
X85737312Y-76262721D01*
X85721755Y-76279787D01*
X85711185Y-76302251D01*
X85704656Y-76336878D01*
X85701219Y-76390434D01*
X85699925Y-76469684D01*
X85699784Y-76530563D01*
X85699784Y-76764444D01*
X85622401Y-76761383D01*
X85545017Y-76758322D01*
X85613297Y-76751180D01*
X85656989Y-76744322D01*
X85676429Y-76728420D01*
X85681424Y-76691932D01*
X85681576Y-76670858D01*
X85680021Y-76624477D01*
X85670163Y-76605787D01*
X85644218Y-76606067D01*
X85626953Y-76609677D01*
X85588772Y-76614711D01*
X85574254Y-76602202D01*
X85572333Y-76579259D01*
X85580773Y-76540866D01*
X85602641Y-76484844D01*
X85626234Y-76436702D01*
X85654628Y-76381766D01*
X85674427Y-76339312D01*
X85680854Y-76320673D01*
X85674072Y-76311643D01*
X85655380Y-76327574D01*
X85630503Y-76361566D01*
X85605171Y-76406721D01*
X85599637Y-76418502D01*
X85578743Y-76462437D01*
X85565795Y-76476885D01*
X85554246Y-76465768D01*
X85546265Y-76450471D01*
X85533871Y-76431197D01*
X85514779Y-76418850D01*
X85481315Y-76411655D01*
X85425806Y-76407840D01*
X85353346Y-76405884D01*
X85274908Y-76405075D01*
X85229678Y-76406801D01*
X85214516Y-76411433D01*
X85226280Y-76419343D01*
X85229365Y-76420535D01*
X85269137Y-76443887D01*
X85289324Y-76468540D01*
X85294726Y-76487670D01*
X85282917Y-76481806D01*
X85266697Y-76467545D01*
X85241019Y-76451916D01*
X85200939Y-76442371D01*
X85138675Y-76437713D01*
X85066046Y-76436702D01*
X84986389Y-76437437D01*
X84935021Y-76440794D01*
X84903826Y-76448499D01*
X84884690Y-76462275D01*
X84873344Y-76477669D01*
X84856586Y-76519311D01*
X84839784Y-76586548D01*
X84824818Y-76668609D01*
X84813570Y-76754724D01*
X84807920Y-76834122D01*
X84807598Y-76854148D01*
X84807598Y-76927773D01*
X85346767Y-76932596D01*
X85885936Y-76937418D01*
X85921620Y-77033097D01*
X85954222Y-77101727D01*
X85996454Y-77167291D01*
X86017325Y-77192416D01*
X86050500Y-77232303D01*
X86060775Y-77253979D01*
X86049173Y-77253498D01*
X86016716Y-77226916D01*
X86010074Y-77220396D01*
X85979203Y-77181436D01*
X85945814Y-77127868D01*
X85936872Y-77111149D01*
X85899331Y-77037562D01*
X85354970Y-77037562D01*
X84810610Y-77037562D01*
X84782013Y-76960178D01*
X84734876Y-76792263D01*
X84708585Y-76606131D01*
X84704359Y-76414244D01*
X84715472Y-76280967D01*
X84764500Y-76041047D01*
X84844884Y-75817606D01*
X84954533Y-75612720D01*
X85091358Y-75428463D01*
X85253269Y-75266912D01*
X85438174Y-75130142D01*
X85643985Y-75020229D01*
X85868611Y-74939247D01*
X86109961Y-74889272D01*
X86118142Y-74888181D01*
X86327796Y-74877803D01*
X86544477Y-74898678D01*
G37*
G36*
X86556933Y-77205985D02*
G01*
X86523295Y-77239016D01*
X86497560Y-77255600D01*
X86494723Y-77256056D01*
X86482850Y-77252763D01*
X86484241Y-77251505D01*
X86501830Y-77237980D01*
X86536042Y-77210075D01*
X86546451Y-77201433D01*
X86601075Y-77155913D01*
X86556933Y-77205985D01*
G37*
G36*
X85970089Y-76862848D02*
G01*
X85989483Y-76879774D01*
X85991110Y-76883869D01*
X85982469Y-76891353D01*
X85964479Y-76874584D01*
X85962060Y-76870878D01*
X85959914Y-76858418D01*
X85970089Y-76862848D01*
G37*
G36*
X85954695Y-76828171D02*
G01*
X85945591Y-76837275D01*
X85936487Y-76828171D01*
X85945591Y-76819067D01*
X85954695Y-76828171D01*
G37*
G36*
X85930417Y-76770513D02*
G01*
X85932597Y-76792121D01*
X85930417Y-76794790D01*
X85919593Y-76792291D01*
X85918279Y-76782651D01*
X85924941Y-76767664D01*
X85930417Y-76770513D01*
G37*
G36*
X85312388Y-76619267D02*
G01*
X85314660Y-76658090D01*
X85314690Y-76658840D01*
X85317419Y-76726211D01*
X85422114Y-76732780D01*
X85526809Y-76739350D01*
X85421542Y-76742793D01*
X85354858Y-76741896D01*
X85317989Y-76732969D01*
X85306385Y-76720462D01*
X85301607Y-76684042D01*
X85304229Y-76643078D01*
X85309337Y-76614905D01*
X85312388Y-76619267D01*
G37*
G36*
X85918279Y-76737132D02*
G01*
X85909175Y-76746236D01*
X85900071Y-76737132D01*
X85909175Y-76728028D01*
X85918279Y-76737132D01*
G37*
G36*
X87262601Y-76612280D02*
G01*
X87261618Y-76681724D01*
X87249900Y-76722148D01*
X87221387Y-76740651D01*
X87170016Y-76744328D01*
X87150374Y-76743652D01*
X87117705Y-76741537D01*
X87116837Y-76738362D01*
X87149640Y-76732439D01*
X87165519Y-76729996D01*
X87238351Y-76718924D01*
X87248946Y-76609677D01*
X87259541Y-76500429D01*
X87262601Y-76612280D01*
G37*
G36*
X95299503Y-76547029D02*
G01*
X95301505Y-76547923D01*
X95338317Y-76573359D01*
X95354927Y-76598558D01*
X95353272Y-76643340D01*
X95336627Y-76693275D01*
X95311819Y-76729015D01*
X95307857Y-76731930D01*
X95262873Y-76744839D01*
X95206113Y-76743010D01*
X95156616Y-76728085D01*
X95141873Y-76717623D01*
X95115458Y-76671480D01*
X95118345Y-76623674D01*
X95144365Y-76580765D01*
X95187346Y-76549314D01*
X95241115Y-76535882D01*
X95299503Y-76547029D01*
G37*
G36*
X85900071Y-76682508D02*
G01*
X85890967Y-76691612D01*
X85881863Y-76682508D01*
X85890967Y-76673404D01*
X85900071Y-76682508D01*
G37*
G36*
X85875794Y-76606642D02*
G01*
X85877973Y-76628250D01*
X85875794Y-76630919D01*
X85864969Y-76628420D01*
X85863655Y-76618780D01*
X85870317Y-76603793D01*
X85875794Y-76606642D01*
G37*
G36*
X85857885Y-76524327D02*
G01*
X85860056Y-76552784D01*
X85856448Y-76559226D01*
X85848172Y-76553795D01*
X85846885Y-76535328D01*
X85851331Y-76515899D01*
X85857885Y-76524327D01*
G37*
G36*
X90895499Y-75932843D02*
G01*
X90948832Y-75947475D01*
X90986718Y-75967122D01*
X90998279Y-75984427D01*
X91006188Y-76001056D01*
X91022866Y-75993332D01*
X91037739Y-75967756D01*
X91040053Y-75958745D01*
X91043253Y-75959464D01*
X91046250Y-75991203D01*
X91048721Y-76048564D01*
X91050344Y-76126151D01*
X91050423Y-76132624D01*
X91049217Y-76251520D01*
X91041489Y-76339059D01*
X91025789Y-76399945D01*
X91000668Y-76438883D01*
X90964674Y-76460577D01*
X90947876Y-76465270D01*
X90904698Y-76474811D01*
X90879928Y-76480408D01*
X90850988Y-76480303D01*
X90804154Y-76474447D01*
X90797374Y-76473289D01*
X90727048Y-76454990D01*
X90692592Y-76431247D01*
X90688745Y-76418348D01*
X90703319Y-76414112D01*
X90739551Y-76423685D01*
X90751888Y-76428527D01*
X90838581Y-76451843D01*
X90913367Y-76447325D01*
X90971202Y-76417297D01*
X91007042Y-76364084D01*
X91016487Y-76306603D01*
X91016487Y-76233772D01*
X90968511Y-76271509D01*
X90902453Y-76303075D01*
X90827991Y-76307768D01*
X90756323Y-76287748D01*
X90698646Y-76245172D01*
X90678275Y-76215566D01*
X90654456Y-76136776D01*
X90654739Y-76133522D01*
X90689755Y-76133522D01*
X90705530Y-76195497D01*
X90729713Y-76231423D01*
X90793874Y-76269862D01*
X90864901Y-76280026D01*
X90932077Y-76262288D01*
X90980415Y-76222738D01*
X91013446Y-76154982D01*
X91014792Y-76083466D01*
X90985329Y-76018305D01*
X90960466Y-75992227D01*
X90891177Y-75954331D01*
X90818953Y-75949755D01*
X90751824Y-75977719D01*
X90712084Y-76016342D01*
X90691486Y-76068262D01*
X90689755Y-76133522D01*
X90654739Y-76133522D01*
X90661025Y-76061343D01*
X90693947Y-75996544D01*
X90749188Y-75949657D01*
X90822712Y-75927959D01*
X90838103Y-75927286D01*
X90895499Y-75932843D01*
G37*
G36*
X98360981Y-75927777D02*
G01*
X98363521Y-75930068D01*
X98359398Y-75948521D01*
X98342772Y-75992924D01*
X98316730Y-76056316D01*
X98284359Y-76131736D01*
X98248747Y-76212226D01*
X98212981Y-76290825D01*
X98180148Y-76360573D01*
X98153335Y-76414510D01*
X98135631Y-76445675D01*
X98133600Y-76448390D01*
X98090635Y-76474458D01*
X98030564Y-76478927D01*
X98017419Y-76476845D01*
X97973369Y-76463066D01*
X97962627Y-76450044D01*
X97984757Y-76443846D01*
X98019576Y-76446818D01*
X98070350Y-76451739D01*
X98100650Y-76442625D01*
X98124272Y-76416387D01*
X98142332Y-76386172D01*
X98150338Y-76355670D01*
X98147034Y-76317998D01*
X98131164Y-76266275D01*
X98101474Y-76193618D01*
X98071137Y-76125153D01*
X98038951Y-76050214D01*
X98014938Y-75987764D01*
X98001665Y-75944954D01*
X98000798Y-75929304D01*
X98017481Y-75930779D01*
X98020405Y-75935985D01*
X98047669Y-76001743D01*
X98079740Y-76072984D01*
X98112780Y-76141951D01*
X98142955Y-76200887D01*
X98166429Y-76242034D01*
X98179364Y-76257637D01*
X98179469Y-76257637D01*
X98193225Y-76241721D01*
X98217216Y-76199598D01*
X98247472Y-76138589D01*
X98266431Y-76097201D01*
X98302262Y-76017384D01*
X98326603Y-75965748D01*
X98342484Y-75937078D01*
X98352934Y-75926159D01*
X98360981Y-75927777D01*
G37*
G36*
X85838956Y-76383846D02*
G01*
X85839857Y-76386976D01*
X85842523Y-76426639D01*
X85839183Y-76441600D01*
X85833205Y-76442205D01*
X85830764Y-76413702D01*
X85830789Y-76409390D01*
X85833415Y-76381150D01*
X85838956Y-76383846D01*
G37*
G36*
X89709077Y-75929460D02*
G01*
X89773616Y-75947077D01*
X89799093Y-75962691D01*
X89828007Y-75989860D01*
X89826191Y-75997557D01*
X89793696Y-75985771D01*
X89762783Y-75970988D01*
X89689164Y-75951069D01*
X89622381Y-75963341D01*
X89568508Y-76003585D01*
X89533624Y-76067584D01*
X89523440Y-76137108D01*
X89528749Y-76194124D01*
X89550223Y-76234147D01*
X89579461Y-76262108D01*
X89645954Y-76300093D01*
X89713042Y-76306548D01*
X89770318Y-76282514D01*
X89811267Y-76257922D01*
X89830929Y-76262411D01*
X89832974Y-76273760D01*
X89818002Y-76290794D01*
X89782093Y-76312790D01*
X89738760Y-76332904D01*
X89701515Y-76344291D01*
X89692448Y-76344950D01*
X89667337Y-76337777D01*
X89625572Y-76321309D01*
X89622039Y-76319781D01*
X89553235Y-76273738D01*
X89505825Y-76209438D01*
X89487079Y-76136941D01*
X89487024Y-76132912D01*
X89498313Y-76061221D01*
X89527792Y-75995895D01*
X89568883Y-75950620D01*
X89577055Y-75945628D01*
X89637765Y-75928532D01*
X89709077Y-75929460D01*
G37*
G36*
X92649395Y-75792339D02*
G01*
X92698535Y-75805027D01*
X92730616Y-75821071D01*
X92736195Y-75837358D01*
X92713309Y-75843871D01*
X92691704Y-75835891D01*
X92635741Y-75819494D01*
X92567748Y-75817534D01*
X92503009Y-75828840D01*
X92456808Y-75852237D01*
X92454910Y-75854049D01*
X92421169Y-75902793D01*
X92422122Y-75947547D01*
X92458218Y-75988909D01*
X92529907Y-76027475D01*
X92605638Y-76054413D01*
X92686935Y-76084927D01*
X92736656Y-76118775D01*
X92759608Y-76160852D01*
X92761014Y-76212755D01*
X92738496Y-76262237D01*
X92689602Y-76304911D01*
X92624331Y-76332284D01*
X92618781Y-76333541D01*
X92575164Y-76333379D01*
X92515460Y-76322092D01*
X92483424Y-76312570D01*
X92430911Y-76290795D01*
X92394812Y-76268589D01*
X92385811Y-76257662D01*
X92389182Y-76245810D01*
X92416006Y-76253715D01*
X92439232Y-76265087D01*
X92515545Y-76292303D01*
X92589950Y-76297820D01*
X92654952Y-76283625D01*
X92703059Y-76251706D01*
X92726777Y-76204050D01*
X92728028Y-76188493D01*
X92711997Y-76144445D01*
X92662978Y-76106278D01*
X92579580Y-76073045D01*
X92544027Y-76062933D01*
X92471250Y-76039460D01*
X92426272Y-76011819D01*
X92400564Y-75973326D01*
X92391049Y-75943099D01*
X92394476Y-75887890D01*
X92427664Y-75838552D01*
X92483979Y-75802070D01*
X92539303Y-75787083D01*
X92593038Y-75785520D01*
X92649395Y-75792339D01*
G37*
G36*
X89130386Y-75798375D02*
G01*
X89135227Y-75845652D01*
X89138828Y-75916755D01*
X89140809Y-76005390D01*
X89141075Y-76054336D01*
X89139896Y-76165639D01*
X89136500Y-76250288D01*
X89131094Y-76305169D01*
X89123884Y-76327171D01*
X89122867Y-76327454D01*
X89115020Y-76309911D01*
X89109173Y-76259862D01*
X89105630Y-76181178D01*
X89104659Y-76096214D01*
X89103441Y-76000462D01*
X89099976Y-75930602D01*
X89094542Y-75890209D01*
X89087916Y-75882272D01*
X89072358Y-75904458D01*
X89043353Y-75950956D01*
X89005411Y-76014396D01*
X88973033Y-76069996D01*
X88931797Y-76139622D01*
X88896235Y-76196007D01*
X88870669Y-76232522D01*
X88860325Y-76242971D01*
X88845928Y-76229205D01*
X88818097Y-76189942D01*
X88781079Y-76131520D01*
X88746144Y-76072544D01*
X88704103Y-76000569D01*
X88667537Y-75939854D01*
X88640910Y-75897700D01*
X88629788Y-75882272D01*
X88622764Y-75891828D01*
X88617447Y-75934198D01*
X88614116Y-76005807D01*
X88613046Y-76096214D01*
X88611664Y-76195871D01*
X88607724Y-76270128D01*
X88601528Y-76315116D01*
X88594838Y-76327454D01*
X88587432Y-76309778D01*
X88581796Y-76258810D01*
X88578134Y-76177640D01*
X88576652Y-76069359D01*
X88576630Y-76052819D01*
X88577522Y-75938854D01*
X88580348Y-75858401D01*
X88585330Y-75808595D01*
X88592691Y-75786573D01*
X88597467Y-75785129D01*
X88614130Y-75802811D01*
X88644275Y-75845916D01*
X88683680Y-75908042D01*
X88728123Y-75982791D01*
X88729857Y-75985798D01*
X88773646Y-76061201D01*
X88811285Y-76124816D01*
X88838863Y-76170115D01*
X88852468Y-76190570D01*
X88852666Y-76190779D01*
X88865347Y-76180175D01*
X88892235Y-76143255D01*
X88929695Y-76085445D01*
X88974090Y-76012171D01*
X88986105Y-75991626D01*
X89032297Y-75914079D01*
X89073025Y-75849414D01*
X89104450Y-75803462D01*
X89122730Y-75782056D01*
X89124681Y-75781218D01*
X89130386Y-75798375D01*
G37*
G36*
X89349577Y-75944291D02*
G01*
X89355589Y-75993421D01*
X89358974Y-76069617D01*
X89359569Y-76127168D01*
X89357986Y-76217538D01*
X89353520Y-76283671D01*
X89346593Y-76320912D01*
X89341361Y-76327454D01*
X89333146Y-76310044D01*
X89327134Y-76260914D01*
X89323748Y-76184718D01*
X89323153Y-76127168D01*
X89324736Y-76036797D01*
X89329202Y-75970664D01*
X89336129Y-75933423D01*
X89341361Y-75926881D01*
X89349577Y-75944291D01*
G37*
G36*
X89978637Y-75753906D02*
G01*
X89988338Y-75776807D01*
X89994943Y-75824742D01*
X89996845Y-75874364D01*
X89996845Y-75983569D01*
X90037312Y-75955225D01*
X90089664Y-75934711D01*
X90157704Y-75927455D01*
X90222861Y-75934371D01*
X90251037Y-75944704D01*
X90280125Y-75973764D01*
X90304066Y-76019125D01*
X90304464Y-76020253D01*
X90314747Y-76065916D01*
X90321309Y-76126811D01*
X90324088Y-76193123D01*
X90323024Y-76255040D01*
X90318055Y-76302748D01*
X90309121Y-76326434D01*
X90306379Y-76327454D01*
X90297376Y-76310411D01*
X90291045Y-76263847D01*
X90288237Y-76194612D01*
X90288171Y-76180964D01*
X90287086Y-76105937D01*
X90282192Y-76057159D01*
X90271032Y-76024490D01*
X90251147Y-75997787D01*
X90241314Y-75987616D01*
X90201325Y-75955885D01*
X90159348Y-75947954D01*
X90127515Y-75951474D01*
X90069266Y-75968001D01*
X90030466Y-75999392D01*
X90007807Y-76051526D01*
X89997981Y-76130286D01*
X89996845Y-76183808D01*
X89994688Y-76255215D01*
X89988810Y-76305306D01*
X89980099Y-76327067D01*
X89978637Y-76327454D01*
X89971391Y-76309736D01*
X89965835Y-76258477D01*
X89962146Y-76176520D01*
X89960500Y-76066709D01*
X89960429Y-76035054D01*
X89961513Y-75914278D01*
X89964717Y-75826363D01*
X89969970Y-75772414D01*
X89977200Y-75753537D01*
X89978637Y-75753906D01*
G37*
G36*
X90514881Y-75944291D02*
G01*
X90520893Y-75993421D01*
X90524279Y-76069617D01*
X90524874Y-76127168D01*
X90523291Y-76217538D01*
X90518825Y-76283671D01*
X90511898Y-76320912D01*
X90506666Y-76327454D01*
X90498450Y-76310044D01*
X90492438Y-76260914D01*
X90489053Y-76184718D01*
X90488458Y-76127168D01*
X90490041Y-76036797D01*
X90494507Y-75970664D01*
X90501434Y-75933423D01*
X90506666Y-75926881D01*
X90514881Y-75944291D01*
G37*
G36*
X91435262Y-75940462D02*
G01*
X91462284Y-75952324D01*
X91483364Y-75968059D01*
X91496617Y-75987075D01*
X91503719Y-76017317D01*
X91506345Y-76066730D01*
X91506173Y-76143260D01*
X91505987Y-76159451D01*
X91504340Y-76230481D01*
X91501574Y-76281385D01*
X91498122Y-76306121D01*
X91495548Y-76304694D01*
X91482950Y-76278198D01*
X91460616Y-76278832D01*
X91427236Y-76300722D01*
X91374166Y-76323074D01*
X91310766Y-76326233D01*
X91253068Y-76310924D01*
X91226423Y-76291642D01*
X91200942Y-76244071D01*
X91198263Y-76218207D01*
X91216773Y-76218207D01*
X91231463Y-76249744D01*
X91266202Y-76282636D01*
X91306993Y-76305317D01*
X91326925Y-76309246D01*
X91369906Y-76300970D01*
X91415758Y-76282608D01*
X91467180Y-76242572D01*
X91488484Y-76186959D01*
X91489892Y-76162094D01*
X91485097Y-76141846D01*
X91465030Y-76131299D01*
X91421171Y-76127482D01*
X91389748Y-76127168D01*
X91320794Y-76131364D01*
X91275922Y-76146011D01*
X91253189Y-76163583D01*
X91226456Y-76196192D01*
X91216773Y-76218207D01*
X91198263Y-76218207D01*
X91195306Y-76189659D01*
X91210708Y-76144815D01*
X91215368Y-76139458D01*
X91243553Y-76127232D01*
X91296399Y-76116152D01*
X91358756Y-76108960D01*
X91423451Y-76103312D01*
X91459510Y-76096182D01*
X91474654Y-76084030D01*
X91476604Y-76063319D01*
X91475816Y-76055306D01*
X91459480Y-76006208D01*
X91439501Y-75976122D01*
X91406767Y-75954802D01*
X91357685Y-75949795D01*
X91285849Y-75961032D01*
X91234981Y-75973929D01*
X91205032Y-75979795D01*
X91204740Y-75970646D01*
X91211150Y-75963204D01*
X91249779Y-75942705D01*
X91309497Y-75931671D01*
X91376070Y-75930718D01*
X91435262Y-75940462D01*
G37*
G36*
X91957544Y-75935487D02*
G01*
X91981905Y-75945303D01*
X92009175Y-75974222D01*
X92032158Y-76021822D01*
X92035230Y-76031790D01*
X92045538Y-76085190D01*
X92051723Y-76149890D01*
X92053755Y-76216167D01*
X92051604Y-76274294D01*
X92045241Y-76314544D01*
X92036128Y-76327454D01*
X92026766Y-76310628D01*
X92020304Y-76265594D01*
X92017920Y-76201184D01*
X92011639Y-76092550D01*
X91991698Y-76015967D01*
X91956457Y-75969110D01*
X91904273Y-75949653D01*
X91842890Y-75953377D01*
X91788869Y-75973905D01*
X91750310Y-76015147D01*
X91724591Y-76081837D01*
X91709090Y-76178711D01*
X91707319Y-76198073D01*
X91702418Y-76253920D01*
X91699108Y-76282116D01*
X91697068Y-76280750D01*
X91695978Y-76247906D01*
X91695514Y-76181671D01*
X91695406Y-76127168D01*
X91695920Y-76049559D01*
X91697519Y-75991990D01*
X91699956Y-75959872D01*
X91702984Y-75958618D01*
X91703067Y-75959040D01*
X91710996Y-76000302D01*
X91757667Y-75963592D01*
X91815517Y-75936689D01*
X91888180Y-75926828D01*
X91957544Y-75935487D01*
G37*
G36*
X92927282Y-75872257D02*
G01*
X92943373Y-75904420D01*
X92977743Y-75921796D01*
X93010990Y-75928156D01*
X93083082Y-75938536D01*
X93010250Y-75946364D01*
X92937419Y-75954193D01*
X92932030Y-76088119D01*
X92933400Y-76187681D01*
X92947670Y-76255062D01*
X92976026Y-76292563D01*
X93019656Y-76302483D01*
X93041035Y-76299380D01*
X93078995Y-76294711D01*
X93085639Y-76304830D01*
X93084285Y-76307299D01*
X93056908Y-76322484D01*
X93011406Y-76326855D01*
X92964305Y-76320796D01*
X92932130Y-76304692D01*
X92931306Y-76303746D01*
X92921898Y-76275709D01*
X92913594Y-76221094D01*
X92907718Y-76149742D01*
X92906316Y-76117891D01*
X92903237Y-76040510D01*
X92898705Y-75991972D01*
X92890510Y-75964715D01*
X92876438Y-75951174D01*
X92855483Y-75944092D01*
X92809963Y-75932440D01*
X92855483Y-75925108D01*
X92894989Y-75905266D01*
X92908334Y-75872257D01*
X92915666Y-75826737D01*
X92927282Y-75872257D01*
G37*
G36*
X93358825Y-75928524D02*
G01*
X93415029Y-75939902D01*
X93455722Y-75962684D01*
X93456343Y-75963297D01*
X93473849Y-75985496D01*
X93484506Y-76014957D01*
X93489740Y-76060190D01*
X93490976Y-76129706D01*
X93490647Y-76168135D01*
X93488944Y-76236966D01*
X93486077Y-76285311D01*
X93482514Y-76307059D01*
X93480208Y-76304694D01*
X93467610Y-76278198D01*
X93445275Y-76278832D01*
X93411896Y-76300722D01*
X93357695Y-76323162D01*
X93291758Y-76326214D01*
X93230616Y-76310637D01*
X93201433Y-76291039D01*
X93174153Y-76251401D01*
X93165017Y-76218207D01*
X93169916Y-76201695D01*
X93205335Y-76201695D01*
X93210261Y-76246869D01*
X93241900Y-76280902D01*
X93304041Y-76306799D01*
X93365558Y-76296527D01*
X93422674Y-76254678D01*
X93463665Y-76204463D01*
X93471308Y-76168037D01*
X93445090Y-76144241D01*
X93384498Y-76131918D01*
X93367695Y-76130699D01*
X93298608Y-76131139D01*
X93253946Y-76143539D01*
X93235858Y-76156281D01*
X93205335Y-76201695D01*
X93169916Y-76201695D01*
X93180943Y-76164528D01*
X93227937Y-76128478D01*
X93304823Y-76110764D01*
X93347096Y-76108960D01*
X93407569Y-76108219D01*
X93440209Y-76103192D01*
X93453599Y-76089666D01*
X93456323Y-76063432D01*
X93456343Y-76055369D01*
X93441303Y-75999402D01*
X93401051Y-75962579D01*
X93342893Y-75947644D01*
X93274135Y-75957346D01*
X93236945Y-75972868D01*
X93201113Y-75986770D01*
X93183577Y-75984494D01*
X93183225Y-75982613D01*
X93199308Y-75955596D01*
X93240747Y-75937094D01*
X93297325Y-75927829D01*
X93358825Y-75928524D01*
G37*
G36*
X93706855Y-75851389D02*
G01*
X93711254Y-75880262D01*
X93716723Y-75910422D01*
X93739952Y-75925416D01*
X93779533Y-75931825D01*
X93847813Y-75938967D01*
X93779533Y-75942028D01*
X93711254Y-75945089D01*
X93711254Y-76108319D01*
X93712256Y-76188208D01*
X93716200Y-76239325D01*
X93724492Y-76269284D01*
X93738539Y-76285696D01*
X93744726Y-76289463D01*
X93788770Y-76299370D01*
X93820405Y-76296340D01*
X93849746Y-76293121D01*
X93849585Y-76306378D01*
X93820437Y-76323601D01*
X93774478Y-76326063D01*
X93727805Y-76314594D01*
X93703450Y-76298842D01*
X93688480Y-76273655D01*
X93679473Y-76230046D01*
X93675378Y-76161039D01*
X93674838Y-76108926D01*
X93674266Y-76031754D01*
X93671355Y-75983592D01*
X93664313Y-75957036D01*
X93651346Y-75944682D01*
X93633870Y-75939731D01*
X93592902Y-75931840D01*
X93633870Y-75929360D01*
X93665783Y-75917718D01*
X93674836Y-75882206D01*
X93674838Y-75881361D01*
X93681071Y-75847143D01*
X93693046Y-75835841D01*
X93706855Y-75851389D01*
G37*
G36*
X94180482Y-75931523D02*
G01*
X94241871Y-75968494D01*
X94285397Y-76035335D01*
X94303093Y-76086200D01*
X94306984Y-76104737D01*
X94301998Y-76116621D01*
X94281931Y-76123329D01*
X94240578Y-76126342D01*
X94171735Y-76127138D01*
X94131262Y-76127168D01*
X94039555Y-76128570D01*
X93980909Y-76134465D01*
X93952024Y-76147379D01*
X93949599Y-76169841D01*
X93970332Y-76204380D01*
X93993276Y-76232857D01*
X94049079Y-76280580D01*
X94112939Y-76296241D01*
X94191836Y-76281459D01*
X94196248Y-76279968D01*
X94249296Y-76264154D01*
X94270273Y-76264448D01*
X94259831Y-76280984D01*
X94248816Y-76290682D01*
X94203918Y-76310808D01*
X94140605Y-76320544D01*
X94075655Y-76318862D01*
X94025845Y-76304737D01*
X94025183Y-76304358D01*
X93968764Y-76257720D01*
X93936942Y-76194354D01*
X93926943Y-76107804D01*
X93927475Y-76087321D01*
X93953184Y-76087321D01*
X93958709Y-76099353D01*
X93980346Y-76105818D01*
X94024567Y-76108443D01*
X94097841Y-76108958D01*
X94110600Y-76108960D01*
X94190256Y-76108008D01*
X94239968Y-76104407D01*
X94266175Y-76097037D01*
X94275319Y-76084777D01*
X94275698Y-76080247D01*
X94260382Y-76040002D01*
X94222133Y-75997709D01*
X94172497Y-75963033D01*
X94123020Y-75945642D01*
X94114243Y-75945089D01*
X94053979Y-75960993D01*
X93998487Y-76001635D01*
X93961312Y-76056408D01*
X93957305Y-76067992D01*
X93953184Y-76087321D01*
X93927475Y-76087321D01*
X93927733Y-76077383D01*
X93940823Y-76038131D01*
X93970806Y-75991432D01*
X93980319Y-75980104D01*
X94029122Y-75938195D01*
X94083588Y-75922411D01*
X94097726Y-75921612D01*
X94180482Y-75931523D01*
G37*
G36*
X95067032Y-75798556D02*
G01*
X95073114Y-75847184D01*
X95076388Y-75922022D01*
X95076817Y-75967849D01*
X95071146Y-76096303D01*
X95052914Y-76193050D01*
X95020228Y-76261202D01*
X94971196Y-76303869D01*
X94903924Y-76324164D01*
X94858351Y-76326917D01*
X94799917Y-76320225D01*
X94749103Y-76304173D01*
X94702858Y-76269464D01*
X94670445Y-76215834D01*
X94650333Y-76138571D01*
X94640993Y-76032965D01*
X94639884Y-75967849D01*
X94641563Y-75881775D01*
X94646297Y-75819362D01*
X94653594Y-75785689D01*
X94658064Y-75781218D01*
X94666297Y-75798621D01*
X94672317Y-75847702D01*
X94675693Y-75923766D01*
X94676272Y-75980107D01*
X94676815Y-76068684D01*
X94679473Y-76129180D01*
X94685786Y-76169926D01*
X94697294Y-76199251D01*
X94715538Y-76225487D01*
X94723410Y-76235018D01*
X94758726Y-76270347D01*
X94796351Y-76286769D01*
X94852520Y-76291022D01*
X94858351Y-76291039D01*
X94916723Y-76287473D01*
X94955242Y-76272283D01*
X94990142Y-76238729D01*
X94993291Y-76235018D01*
X95014131Y-76207957D01*
X95027721Y-76180592D01*
X95035599Y-76144592D01*
X95039308Y-76091629D01*
X95040388Y-76013370D01*
X95040429Y-75980107D01*
X95042023Y-75890172D01*
X95046516Y-75824416D01*
X95053479Y-75787534D01*
X95058637Y-75781218D01*
X95067032Y-75798556D01*
G37*
G36*
X95288757Y-75937616D02*
G01*
X95297245Y-75972269D01*
X95300831Y-76034508D01*
X95299872Y-76128002D01*
X95298554Y-76168135D01*
X95293303Y-76254752D01*
X95286040Y-76306265D01*
X95277902Y-76323849D01*
X95270024Y-76308680D01*
X95263545Y-76261932D01*
X95259602Y-76184782D01*
X95258924Y-76127168D01*
X95260288Y-76046687D01*
X95263985Y-75981646D01*
X95269427Y-75939392D01*
X95275009Y-75926881D01*
X95288757Y-75937616D01*
G37*
G36*
X95528902Y-75940186D02*
G01*
X95570993Y-75961676D01*
X95591808Y-75982124D01*
X95605200Y-76008344D01*
X95613285Y-76048925D01*
X95618179Y-76112460D01*
X95620341Y-76161963D01*
X95621784Y-76251720D01*
X95617782Y-76306465D01*
X95608251Y-76327203D01*
X95606685Y-76327454D01*
X95595582Y-76309747D01*
X95588806Y-76258183D01*
X95586666Y-76180964D01*
X95585516Y-76105603D01*
X95580504Y-76056599D01*
X95569286Y-76023926D01*
X95549517Y-75997557D01*
X95541974Y-75989781D01*
X95489442Y-75953319D01*
X95432073Y-75948838D01*
X95367267Y-75972868D01*
X95327325Y-75989027D01*
X95314278Y-75985128D01*
X95331043Y-75963925D01*
X95345411Y-75952227D01*
X95396500Y-75932001D01*
X95463177Y-75928218D01*
X95528902Y-75940186D01*
G37*
G36*
X95813376Y-75944291D02*
G01*
X95819388Y-75993421D01*
X95822774Y-76069617D01*
X95823368Y-76127168D01*
X95821786Y-76217538D01*
X95817319Y-76283671D01*
X95810392Y-76320912D01*
X95805161Y-76327454D01*
X95796945Y-76310044D01*
X95790933Y-76260914D01*
X95787547Y-76184718D01*
X95786953Y-76127168D01*
X95788535Y-76036797D01*
X95793002Y-75970664D01*
X95799929Y-75933423D01*
X95805161Y-75926881D01*
X95813376Y-75944291D01*
G37*
G36*
X96294800Y-75943619D02*
G01*
X96282002Y-75983423D01*
X96258310Y-76043955D01*
X96225960Y-76119074D01*
X96225250Y-76120662D01*
X96189172Y-76198069D01*
X96156556Y-76262307D01*
X96131065Y-76306517D01*
X96116686Y-76323756D01*
X96096931Y-76313403D01*
X96074652Y-76279032D01*
X96070552Y-76269882D01*
X96050946Y-76224512D01*
X96021683Y-76158556D01*
X95988322Y-76084513D01*
X95980178Y-76066610D01*
X95953577Y-76003967D01*
X95937456Y-75957126D01*
X95934022Y-75933024D01*
X95937161Y-75931430D01*
X95953336Y-75950322D01*
X95979231Y-75995312D01*
X96010722Y-76058819D01*
X96031956Y-76105787D01*
X96063668Y-76176059D01*
X96090824Y-76231751D01*
X96109832Y-76265742D01*
X96116200Y-76272831D01*
X96127846Y-76257261D01*
X96150164Y-76215273D01*
X96179551Y-76153948D01*
X96201710Y-76104863D01*
X96234679Y-76033523D01*
X96264112Y-75975913D01*
X96286035Y-75939493D01*
X96294464Y-75930685D01*
X96294800Y-75943619D01*
G37*
G36*
X96615499Y-75934848D02*
G01*
X96679139Y-75975880D01*
X96721048Y-76032255D01*
X96733763Y-76085699D01*
X96732055Y-76104920D01*
X96722393Y-76117044D01*
X96697964Y-76123704D01*
X96651958Y-76126532D01*
X96577563Y-76127162D01*
X96560788Y-76127168D01*
X96480206Y-76127786D01*
X96429327Y-76130529D01*
X96401447Y-76136730D01*
X96389859Y-76147723D01*
X96387813Y-76161566D01*
X96404066Y-76217747D01*
X96447305Y-76260859D01*
X96509246Y-76286902D01*
X96581607Y-76291877D01*
X96634324Y-76280580D01*
X96686764Y-76265226D01*
X96709805Y-76264159D01*
X96701638Y-76276252D01*
X96663527Y-76298800D01*
X96577159Y-76324180D01*
X96487919Y-76316440D01*
X96465311Y-76308722D01*
X96420580Y-76274945D01*
X96381449Y-76218995D01*
X96356350Y-76155004D01*
X96351533Y-76118064D01*
X96360230Y-76074871D01*
X96386145Y-76074871D01*
X96400240Y-76094930D01*
X96445717Y-76105434D01*
X96524781Y-76108892D01*
X96542580Y-76108960D01*
X96618031Y-76108205D01*
X96664137Y-76104896D01*
X96687959Y-76097463D01*
X96696553Y-76084338D01*
X96697347Y-76074561D01*
X96680656Y-76022187D01*
X96636645Y-75978790D01*
X96574408Y-75952910D01*
X96566184Y-75951394D01*
X96518223Y-75948259D01*
X96481959Y-75962122D01*
X96443281Y-75996066D01*
X96401227Y-76042753D01*
X96386145Y-76074871D01*
X96360230Y-76074871D01*
X96367228Y-76040115D01*
X96409295Y-75977720D01*
X96470203Y-75936102D01*
X96542426Y-75920487D01*
X96615499Y-75934848D01*
G37*
G36*
X96893807Y-75942260D02*
G01*
X96897634Y-75966471D01*
X96897634Y-76006060D01*
X96939775Y-75966471D01*
X96983743Y-75938432D01*
X97026262Y-75928366D01*
X97052765Y-75930616D01*
X97050128Y-75937596D01*
X97016143Y-75953707D01*
X97012827Y-75955161D01*
X96957670Y-75987262D01*
X96922582Y-76030536D01*
X96903835Y-76092750D01*
X96897700Y-76181665D01*
X96897634Y-76194947D01*
X96895311Y-76262243D01*
X96889052Y-76308971D01*
X96879915Y-76327413D01*
X96879426Y-76327454D01*
X96871210Y-76310044D01*
X96865198Y-76260914D01*
X96861813Y-76184718D01*
X96861218Y-76127168D01*
X96862801Y-76036797D01*
X96867267Y-75970664D01*
X96874194Y-75933423D01*
X96879426Y-75926881D01*
X96893807Y-75942260D01*
G37*
G36*
X97329519Y-75928493D02*
G01*
X97377143Y-75937204D01*
X97404579Y-75954094D01*
X97407454Y-75963309D01*
X97391894Y-75968129D01*
X97352786Y-75963264D01*
X97333625Y-75958893D01*
X97260601Y-75950367D01*
X97206057Y-75964174D01*
X97175431Y-75998125D01*
X97170752Y-76024404D01*
X97179836Y-76067556D01*
X97211264Y-76096213D01*
X97271299Y-76115370D01*
X97289103Y-76118831D01*
X97344197Y-76131355D01*
X97387772Y-76145615D01*
X97393799Y-76148413D01*
X97418251Y-76178994D01*
X97424946Y-76226198D01*
X97413553Y-76274673D01*
X97397050Y-76298842D01*
X97359423Y-76316706D01*
X97300113Y-76325502D01*
X97232843Y-76324667D01*
X97171340Y-76313640D01*
X97157096Y-76308679D01*
X97121257Y-76289348D01*
X97116922Y-76276307D01*
X97139305Y-76272844D01*
X97183618Y-76282250D01*
X97191683Y-76284913D01*
X97270891Y-76301088D01*
X97337268Y-76293170D01*
X97383447Y-76262449D01*
X97391822Y-76249811D01*
X97401821Y-76217684D01*
X97385830Y-76190956D01*
X97371445Y-76178459D01*
X97329278Y-76153804D01*
X97295605Y-76145375D01*
X97255641Y-76138495D01*
X97204052Y-76121664D01*
X97197479Y-76118993D01*
X97154137Y-76095301D01*
X97136613Y-76065486D01*
X97134336Y-76038090D01*
X97149841Y-75980977D01*
X97174803Y-75955225D01*
X97217420Y-75937124D01*
X97272635Y-75928340D01*
X97329519Y-75928493D01*
G37*
G36*
X97579541Y-75944291D02*
G01*
X97585553Y-75993421D01*
X97588939Y-76069617D01*
X97589533Y-76127168D01*
X97587951Y-76217538D01*
X97583484Y-76283671D01*
X97576557Y-76320912D01*
X97571325Y-76327454D01*
X97563110Y-76310044D01*
X97557098Y-76260914D01*
X97553712Y-76184718D01*
X97553118Y-76127168D01*
X97554700Y-76036797D01*
X97559167Y-75970664D01*
X97566094Y-75933423D01*
X97571325Y-75926881D01*
X97579541Y-75944291D01*
G37*
G36*
X97785421Y-75851389D02*
G01*
X97789820Y-75880262D01*
X97795289Y-75910422D01*
X97818518Y-75925416D01*
X97858100Y-75931825D01*
X97926379Y-75938967D01*
X97858100Y-75942028D01*
X97789820Y-75945089D01*
X97789820Y-76098555D01*
X97793153Y-76192878D01*
X97804829Y-76255621D01*
X97827364Y-76291153D01*
X97863275Y-76303841D01*
X97905872Y-76299990D01*
X97940916Y-76295050D01*
X97943971Y-76301155D01*
X97935483Y-76307863D01*
X97882325Y-76326646D01*
X97826313Y-76319653D01*
X97783230Y-76289028D01*
X97781749Y-76286987D01*
X97765046Y-76246795D01*
X97755896Y-76181658D01*
X97753404Y-76097071D01*
X97752729Y-76023299D01*
X97749365Y-75978223D01*
X97741302Y-75954128D01*
X97726533Y-75943299D01*
X97712437Y-75939731D01*
X97671469Y-75931840D01*
X97712437Y-75929360D01*
X97744349Y-75917718D01*
X97753402Y-75882206D01*
X97753404Y-75881361D01*
X97759637Y-75847143D01*
X97771612Y-75835841D01*
X97785421Y-75851389D01*
G37*
G36*
X86045734Y-76154479D02*
G01*
X86036630Y-76163583D01*
X86027526Y-76154479D01*
X86036630Y-76145375D01*
X86045734Y-76154479D01*
G37*
G36*
X86094288Y-76133237D02*
G01*
X86091789Y-76144061D01*
X86082150Y-76145375D01*
X86067163Y-76138713D01*
X86070011Y-76133237D01*
X86091620Y-76131058D01*
X86094288Y-76133237D01*
G37*
G36*
X89356397Y-75777585D02*
G01*
X89359569Y-75790322D01*
X89348478Y-75815399D01*
X89323296Y-75810879D01*
X89317084Y-75805495D01*
X89305486Y-75778845D01*
X89324437Y-75763620D01*
X89332257Y-75763010D01*
X89356397Y-75777585D01*
G37*
G36*
X90521701Y-75777585D02*
G01*
X90524874Y-75790322D01*
X90513783Y-75815399D01*
X90488601Y-75810879D01*
X90482389Y-75805495D01*
X90470791Y-75778845D01*
X90489742Y-75763620D01*
X90497562Y-75763010D01*
X90521701Y-75777585D01*
G37*
G36*
X95823665Y-75772297D02*
G01*
X95833355Y-75793266D01*
X95819655Y-75813651D01*
X95805161Y-75817634D01*
X95781419Y-75804524D01*
X95778626Y-75800684D01*
X95779809Y-75779099D01*
X95801698Y-75767568D01*
X95823665Y-75772297D01*
G37*
G36*
X97586361Y-75777585D02*
G01*
X97589533Y-75790322D01*
X97578442Y-75815399D01*
X97553261Y-75810879D01*
X97547048Y-75805495D01*
X97535450Y-75778845D01*
X97554401Y-75763620D01*
X97562221Y-75763010D01*
X97586361Y-75777585D01*
G37*
G36*
X86021756Y-75759596D02*
G01*
X86023927Y-75788053D01*
X86020319Y-75794494D01*
X86012043Y-75789064D01*
X86010756Y-75770596D01*
X86015202Y-75751168D01*
X86021756Y-75759596D01*
G37*
G36*
X86039665Y-75696248D02*
G01*
X86041844Y-75717856D01*
X86039665Y-75720525D01*
X86028840Y-75718025D01*
X86027526Y-75708386D01*
X86034188Y-75693399D01*
X86039665Y-75696248D01*
G37*
G36*
X86058172Y-75632141D02*
G01*
X86060343Y-75660597D01*
X86056735Y-75667039D01*
X86048459Y-75661609D01*
X86047171Y-75643141D01*
X86051618Y-75623713D01*
X86058172Y-75632141D01*
G37*
G36*
X86097098Y-75500508D02*
G01*
X86092016Y-75526307D01*
X86084756Y-75566038D01*
X86082398Y-75585483D01*
X86065485Y-75591822D01*
X86020613Y-75596183D01*
X85956180Y-75598650D01*
X85880583Y-75599306D01*
X85802221Y-75598236D01*
X85729492Y-75595523D01*
X85670794Y-75591252D01*
X85634525Y-75585507D01*
X85626953Y-75580931D01*
X85644448Y-75572945D01*
X85694169Y-75567035D01*
X85771965Y-75563545D01*
X85846034Y-75562723D01*
X85938639Y-75562373D01*
X86001408Y-75560567D01*
X86040924Y-75556166D01*
X86063764Y-75548036D01*
X86076508Y-75535040D01*
X86083250Y-75521755D01*
X86095996Y-75494377D01*
X86097098Y-75500508D01*
G37*
G36*
X86443494Y-75396059D02*
G01*
X86454111Y-75427465D01*
X86460530Y-75465572D01*
X86458484Y-75483784D01*
X86449121Y-75474477D01*
X86438504Y-75443071D01*
X86432085Y-75404964D01*
X86434131Y-75386752D01*
X86443494Y-75396059D01*
G37*
G36*
X86112796Y-75431854D02*
G01*
X86114966Y-75460311D01*
X86111358Y-75466752D01*
X86103083Y-75461322D01*
X86101795Y-75442855D01*
X86106242Y-75423426D01*
X86112796Y-75431854D01*
G37*
G36*
X86130704Y-75368506D02*
G01*
X86132883Y-75390114D01*
X86130704Y-75392783D01*
X86119880Y-75390283D01*
X86118566Y-75380644D01*
X86125228Y-75365657D01*
X86130704Y-75368506D01*
G37*
G36*
X86422030Y-75332090D02*
G01*
X86424209Y-75353698D01*
X86422030Y-75356367D01*
X86411206Y-75353868D01*
X86409892Y-75344229D01*
X86416554Y-75329241D01*
X86422030Y-75332090D01*
G37*
G36*
X86148912Y-75313882D02*
G01*
X86151091Y-75335491D01*
X86148912Y-75338159D01*
X86138087Y-75335660D01*
X86136773Y-75326021D01*
X86143435Y-75311033D01*
X86148912Y-75313882D01*
G37*
%TO.C,R18*%
D12*
X124327064Y-83055000D02*
X123872936Y-83055000D01*
X124327064Y-81585000D02*
X123872936Y-81585000D01*
%TO.C,U2*%
X126185000Y-81180000D02*
X122065000Y-81180000D01*
X126185000Y-81125000D02*
X126185000Y-81180000D01*
X126185000Y-71060000D02*
X126185000Y-71115000D01*
X122065000Y-81180000D02*
X122065000Y-81125000D01*
X122065000Y-71115000D02*
X122065000Y-71060000D01*
X122065000Y-71060000D02*
X126185000Y-71060000D01*
X126725000Y-81130000D02*
X126965000Y-81460000D01*
X126485000Y-81460000D01*
X126725000Y-81130000D01*
G36*
X126965000Y-81460000D02*
G01*
X126485000Y-81460000D01*
X126725000Y-81130000D01*
X126965000Y-81460000D01*
G37*
%TO.C,R25*%
X65722500Y-52557742D02*
X65722500Y-53032258D01*
X64677500Y-52557742D02*
X64677500Y-53032258D01*
%TO.C,R22*%
X145027064Y-81585000D02*
X144572936Y-81585000D01*
X145027064Y-83055000D02*
X144572936Y-83055000D01*
%TO.C,R24*%
X155439564Y-81585000D02*
X154985436Y-81585000D01*
X155439564Y-83055000D02*
X154985436Y-83055000D01*
%TO.C,R20*%
X134639564Y-81585000D02*
X134185436Y-81585000D01*
X134639564Y-83055000D02*
X134185436Y-83055000D01*
%TO.C,U4*%
X137025000Y-81130000D02*
X137265000Y-81460000D01*
X136785000Y-81460000D01*
X137025000Y-81130000D01*
G36*
X137265000Y-81460000D02*
G01*
X136785000Y-81460000D01*
X137025000Y-81130000D01*
X137265000Y-81460000D01*
G37*
X132365000Y-71060000D02*
X136485000Y-71060000D01*
X132365000Y-71115000D02*
X132365000Y-71060000D01*
X132365000Y-81180000D02*
X132365000Y-81125000D01*
X136485000Y-71060000D02*
X136485000Y-71115000D01*
X136485000Y-81125000D02*
X136485000Y-81180000D01*
X136485000Y-81180000D02*
X132365000Y-81180000D01*
%TO.C,U6*%
X147425000Y-81135000D02*
X147665000Y-81465000D01*
X147185000Y-81465000D01*
X147425000Y-81135000D01*
G36*
X147665000Y-81465000D02*
G01*
X147185000Y-81465000D01*
X147425000Y-81135000D01*
X147665000Y-81465000D01*
G37*
X142765000Y-71065000D02*
X146885000Y-71065000D01*
X142765000Y-71120000D02*
X142765000Y-71065000D01*
X142765000Y-81185000D02*
X142765000Y-81130000D01*
X146885000Y-71065000D02*
X146885000Y-71120000D01*
X146885000Y-81130000D02*
X146885000Y-81185000D01*
X146885000Y-81185000D02*
X142765000Y-81185000D01*
%TO.C,U8*%
X157800000Y-81130000D02*
X158040000Y-81460000D01*
X157560000Y-81460000D01*
X157800000Y-81130000D01*
G36*
X158040000Y-81460000D02*
G01*
X157560000Y-81460000D01*
X157800000Y-81130000D01*
X158040000Y-81460000D01*
G37*
X153140000Y-71060000D02*
X157260000Y-71060000D01*
X153140000Y-71115000D02*
X153140000Y-71060000D01*
X153140000Y-81180000D02*
X153140000Y-81125000D01*
X157260000Y-71060000D02*
X157260000Y-71115000D01*
X157260000Y-81125000D02*
X157260000Y-81180000D01*
X157260000Y-81180000D02*
X153140000Y-81180000D01*
%TO.C,F1*%
X111510000Y-61944721D02*
X111510000Y-62270279D01*
X110490000Y-61944721D02*
X110490000Y-62270279D01*
%TO.C,R3*%
X92412258Y-59997500D02*
X91937742Y-59997500D01*
X92412258Y-61042500D02*
X91937742Y-61042500D01*
%TO.C,Q2*%
X93500000Y-69740000D02*
X93740000Y-70070000D01*
X93260000Y-70070000D01*
X93500000Y-69740000D01*
G36*
X93740000Y-70070000D02*
G01*
X93260000Y-70070000D01*
X93500000Y-69740000D01*
X93740000Y-70070000D01*
G37*
X95560000Y-71680000D02*
X94040000Y-71680000D01*
X95560000Y-70680000D02*
X95560000Y-71680000D01*
X95560000Y-68560000D02*
X95560000Y-69560000D01*
X94040000Y-71680000D02*
X94040000Y-71630000D01*
X94040000Y-70510000D02*
X94040000Y-69730000D01*
X94040000Y-68610000D02*
X94040000Y-68560000D01*
X94040000Y-68560000D02*
X95560000Y-68560000D01*
%TO.C,D2*%
X104850000Y-56830000D02*
X104850000Y-51320000D01*
X101550000Y-56830000D02*
X101550000Y-51320000D01*
X101550000Y-56830000D02*
X104850000Y-56830000D01*
%TO.C,Q1*%
X89162500Y-70500000D02*
X88922500Y-70170000D01*
X89402500Y-70170000D01*
X89162500Y-70500000D01*
G36*
X89162500Y-70500000D02*
G01*
X88922500Y-70170000D01*
X89402500Y-70170000D01*
X89162500Y-70500000D01*
G37*
X87102500Y-68560000D02*
X88622500Y-68560000D01*
X87102500Y-69560000D02*
X87102500Y-68560000D01*
X87102500Y-71680000D02*
X87102500Y-70680000D01*
X88622500Y-68560000D02*
X88622500Y-68610000D01*
X88622500Y-69730000D02*
X88622500Y-70510000D01*
X88622500Y-71630000D02*
X88622500Y-71680000D01*
X88622500Y-71680000D02*
X87102500Y-71680000D01*
%TO.C,J1*%
X93780000Y-57590000D02*
X93780000Y-50330000D01*
X93780000Y-57590000D02*
X92280000Y-57590000D01*
X85780000Y-57590000D02*
X84280000Y-57590000D01*
X84280000Y-57590000D02*
X84280000Y-50330000D01*
%TO.C,R1*%
X65177500Y-75707742D02*
X65177500Y-76182258D01*
X66222500Y-75707742D02*
X66222500Y-76182258D01*
%TO.C,R7*%
X91937742Y-59542500D02*
X92412258Y-59542500D01*
X91937742Y-58497500D02*
X92412258Y-58497500D01*
%TO.C,R13*%
X73677500Y-52557742D02*
X73677500Y-53032258D01*
X74722500Y-52557742D02*
X74722500Y-53032258D01*
%TO.C,R12*%
X72177500Y-75832258D02*
X72177500Y-75357742D01*
X73222500Y-75832258D02*
X73222500Y-75357742D01*
%TO.C,R10*%
X93877500Y-60057258D02*
X93877500Y-59582742D01*
X94922500Y-60057258D02*
X94922500Y-59582742D01*
%TO.C,R11*%
X70677500Y-75832258D02*
X70677500Y-75357742D01*
X71722500Y-75832258D02*
X71722500Y-75357742D01*
%TO.C,R17*%
X91100242Y-69742500D02*
X91574758Y-69742500D01*
X91100242Y-68697500D02*
X91574758Y-68697500D01*
%TO.C,R16*%
X91574758Y-70497500D02*
X91100242Y-70497500D01*
X91574758Y-71542500D02*
X91100242Y-71542500D01*
%TO.C,R14*%
X90422500Y-60032258D02*
X90422500Y-59557742D01*
X89377500Y-60032258D02*
X89377500Y-59557742D01*
%TO.C,C2*%
X64759420Y-78730000D02*
X65040580Y-78730000D01*
X64759420Y-77710000D02*
X65040580Y-77710000D01*
%TO.C,R8*%
X67677500Y-75832258D02*
X67677500Y-75357742D01*
X68722500Y-75832258D02*
X68722500Y-75357742D01*
%TO.C,R5*%
X63177500Y-52557742D02*
X63177500Y-53032258D01*
X64222500Y-52557742D02*
X64222500Y-53032258D01*
%TO.C,R2*%
X61677500Y-52557742D02*
X61677500Y-53032258D01*
X62722500Y-52557742D02*
X62722500Y-53032258D01*
%TO.C,SW2*%
X80050000Y-58220000D02*
X79950000Y-58220000D01*
X81550000Y-58220000D02*
X81550000Y-53820000D01*
X78450000Y-53820000D02*
X78450000Y-58220000D01*
X80050000Y-53820000D02*
X79950000Y-53820000D01*
%TO.C,SW1*%
X80050000Y-64320000D02*
X79950000Y-64320000D01*
X81550000Y-64320000D02*
X81550000Y-59920000D01*
X78450000Y-59920000D02*
X78450000Y-64320000D01*
X80050000Y-59920000D02*
X79950000Y-59920000D01*
%TO.C,C4*%
X82784420Y-74310000D02*
X83065580Y-74310000D01*
X82784420Y-75330000D02*
X83065580Y-75330000D01*
%TO.C,C5*%
X96410000Y-59654420D02*
X96410000Y-59935580D01*
X95390000Y-59654420D02*
X95390000Y-59935580D01*
%TO.C,C9*%
X64710000Y-75804420D02*
X64710000Y-76085580D01*
X63690000Y-75804420D02*
X63690000Y-76085580D01*
%TO.C,C3*%
X79784420Y-74310000D02*
X80065580Y-74310000D01*
X79784420Y-75330000D02*
X80065580Y-75330000D01*
%TO.C,C1*%
X94488748Y-61585000D02*
X95011252Y-61585000D01*
X94488748Y-63055000D02*
X95011252Y-63055000D01*
%TO.C,C6*%
X105111252Y-62855000D02*
X104588748Y-62855000D01*
X105111252Y-61385000D02*
X104588748Y-61385000D01*
%TO.C,C7*%
X101088748Y-61385000D02*
X101611252Y-61385000D01*
X101088748Y-62855000D02*
X101611252Y-62855000D01*
%TO.C,C8*%
X63135000Y-75458748D02*
X63135000Y-75981252D01*
X61665000Y-75458748D02*
X61665000Y-75981252D01*
%TO.C,J2*%
X116110000Y-60230000D02*
X113300000Y-60230000D01*
X116110000Y-54170000D02*
X116110000Y-60230000D01*
X116110000Y-47010000D02*
X116110000Y-50070000D01*
X112000000Y-60420000D02*
X110000000Y-60420000D01*
X108700000Y-60230000D02*
X105890000Y-60230000D01*
X105890000Y-60230000D02*
X105890000Y-54170000D01*
X105890000Y-50070000D02*
X105890000Y-47010000D01*
X105890000Y-47010000D02*
X116110000Y-47010000D01*
%TO.C,DCDC1*%
X109257500Y-64360000D02*
X109257500Y-63120000D01*
X109257500Y-63120000D02*
X108017500Y-63120000D01*
X109017500Y-71980000D02*
X97297500Y-71980000D01*
X109017500Y-63360000D02*
X109017500Y-71980000D01*
X97297500Y-71980000D02*
X97297500Y-63360000D01*
X97297500Y-63360000D02*
X109017500Y-63360000D01*
%TO.C,D3*%
X98050000Y-56830000D02*
X101350000Y-56830000D01*
X98050000Y-56830000D02*
X98050000Y-51320000D01*
X101350000Y-56830000D02*
X101350000Y-51320000D01*
%TO.C,D4*%
X94550000Y-56830000D02*
X97850000Y-56830000D01*
X94550000Y-56830000D02*
X94550000Y-51320000D01*
X97850000Y-56830000D02*
X97850000Y-51320000D01*
%TO.C,D1*%
X83800000Y-62880000D02*
X85800000Y-62880000D01*
X83800000Y-62880000D02*
X83800000Y-58870000D01*
X85800000Y-62880000D02*
X85800000Y-58870000D01*
%TO.C,U1*%
X92490000Y-67030000D02*
X91765000Y-67030000D01*
X92490000Y-66305000D02*
X92490000Y-67030000D01*
X92490000Y-61810000D02*
X92490000Y-62535000D01*
X91765000Y-61810000D02*
X92490000Y-61810000D01*
X87995000Y-67030000D02*
X87270000Y-67030000D01*
X87270000Y-67030000D02*
X87270000Y-66305000D01*
X87270000Y-62535000D02*
X87270000Y-61810000D01*
X87270000Y-61810000D02*
X87995000Y-61810000D01*
X92990000Y-65920000D02*
X93320000Y-65680000D01*
X93320000Y-66160000D01*
X92990000Y-65920000D01*
G36*
X93320000Y-66160000D02*
G01*
X92990000Y-65920000D01*
X93320000Y-65680000D01*
X93320000Y-66160000D01*
G37*
%TO.C,LDO1*%
X79600000Y-67010000D02*
X83360000Y-67010000D01*
X79600000Y-73830000D02*
X83360000Y-73830000D01*
X83360000Y-67010000D02*
X83360000Y-68270000D01*
X83360000Y-73830000D02*
X83360000Y-72570000D01*
X78320000Y-67110000D02*
X78080000Y-66780000D01*
X78560000Y-66780000D01*
X78320000Y-67110000D01*
G36*
X78320000Y-67110000D02*
G01*
X78080000Y-66780000D01*
X78560000Y-66780000D01*
X78320000Y-67110000D01*
G37*
%TO.C,MCU1*%
X54990000Y-73290000D02*
X60800000Y-73290000D01*
X54990000Y-73290000D02*
X54990000Y-55070000D01*
X74910000Y-73290000D02*
X75210000Y-73290000D01*
X75210000Y-73290000D02*
X75210000Y-55070000D01*
X54990000Y-55070000D02*
X61490000Y-55070000D01*
X74910000Y-55070000D02*
X75210000Y-55070000D01*
X61500000Y-73280000D02*
X61500000Y-73780000D01*
X61000000Y-73280000D01*
X61500000Y-73280000D01*
G36*
X61500000Y-73780000D02*
G01*
X61000000Y-73280000D01*
X61500000Y-73280000D01*
X61500000Y-73780000D01*
G37*
%TO.C,R4*%
X71722500Y-52557742D02*
X71722500Y-53032258D01*
X70677500Y-52557742D02*
X70677500Y-53032258D01*
%TO.C,R6*%
X73222500Y-52557742D02*
X73222500Y-53032258D01*
X72177500Y-52557742D02*
X72177500Y-53032258D01*
%TO.C,R9*%
X69177500Y-75832258D02*
X69177500Y-75357742D01*
X70222500Y-75832258D02*
X70222500Y-75357742D01*
%TO.C,R15*%
X68722500Y-52557742D02*
X68722500Y-53032258D01*
X67677500Y-52557742D02*
X67677500Y-53032258D01*
%TD*%
M02*
