M48
; DRILL file KiCad 10.0.4 date 2026-06-26T15:48:39
; FORMAT={-:-/ absolute / metric / decimal}
; #@! TF.CreationDate,2026-06-26T15:48:39-04:00
; #@! TF.GenerationSoftware,Kicad,Pcbnew,10.0.4
; #@! TF.FileFunction,Plated,1,2,PTH
FMAT,2
METRIC
; #@! TA.AperFunction,Plated,PTH,ComponentDrill
T1C0.200
; #@! TA.AperFunction,Plated,PTH,ViaDrill
T2C0.300
; #@! TA.AperFunction,Plated,PTH,ComponentDrill
T3C0.500
; #@! TA.AperFunction,Plated,PTH,ComponentDrill
T4C1.000
%
G90
G05
T1
X67.3Y-62.67
X67.3Y-63.77
X67.85Y-62.12
X67.85Y-63.22
X67.85Y-64.32
X68.4Y-62.67
X68.4Y-63.77
X68.95Y-62.12
X68.95Y-63.22
X68.95Y-64.32
X69.5Y-62.67
X69.5Y-63.77
T2
X57.9Y-49.4
X57.9Y-78.9
X62.2Y-51.02
X62.8Y-63.2
X63.7Y-51.02
X66.475Y-75.92
X66.7Y-51.6
X67.2Y-78.8
X67.8Y-57.9
X68.0Y-70.3
X68.2Y-51.02
X68.2Y-77.42
X69.7Y-78.02
X69.8Y-51.6
X71.2Y-51.02
X72.2Y-63.1
X72.7Y-51.02
X73.9Y-58.0
X74.7Y-70.4
X75.9Y-76.5
X77.8Y-60.5
X78.2Y-65.6
X79.188Y-61.557
X80.0Y-56.02
X80.8Y-63.32
X81.0Y-50.3
X81.3Y-68.1
X84.5Y-73.3
X86.126Y-71.195
X86.6Y-54.0
X86.874Y-68.346
X87.231Y-67.53
X87.6Y-66.82
X87.7Y-59.5
X88.1Y-73.7
X88.1Y-76.7
X88.6Y-58.7
X89.184Y-58.09
X89.5Y-70.12
X89.8Y-64.6
X89.95Y-53.87
X89.979Y-54.69
X92.2Y-66.82
X92.38Y-74.995
X92.9Y-73.3
X93.2Y-70.12
X93.336Y-64.828
X93.5Y-64.045
X94.39Y-75.02
X95.092Y-70.818
X97.2Y-73.3
X97.5Y-57.8
X101.4Y-57.8
X103.1Y-69.0
X103.1Y-76.3
X108.1Y-73.4
X111.0Y-55.9
X112.2Y-71.9
X113.9Y-76.4
X117.6Y-76.12
X118.0Y-77.42
X118.6Y-78.02
X118.7Y-72.0
X118.7Y-74.8
X119.7Y-79.1
X120.05Y-80.57
X121.4Y-51.3
X121.4Y-59.9
X123.125Y-76.731
X124.2Y-75.0
X125.125Y-79.214
X126.6Y-51.3
X126.7Y-82.2
X128.2Y-78.625
X129.3Y-75.0
X129.8Y-79.3
X131.9Y-51.3
X131.9Y-59.9
X134.1Y-80.6
X134.48Y-78.0
X134.5Y-79.22
X135.509Y-80.495
X137.0Y-51.3
X137.0Y-82.3
X138.5Y-79.895
X142.2Y-51.3
X142.2Y-60.1
X144.887Y-79.207
X144.9Y-78.02
X145.8Y-80.4
X147.4Y-51.3
X147.4Y-82.2
X148.9Y-79.9
X150.0Y-74.9
X150.8Y-78.02
X152.5Y-51.3
X152.5Y-60.1
X153.4Y-83.5
X155.2Y-78.02
X155.9Y-74.6
X157.8Y-82.3
X158.6Y-51.3
X158.8Y-60.1
T4
X100.567Y-65.42
X103.108Y-65.42
X105.647Y-65.42
X118.8Y-51.32
X118.8Y-53.86
X118.8Y-56.4
X118.8Y-58.94
X118.8Y-61.48
X118.8Y-64.02
X118.8Y-66.56
X118.8Y-69.1
X124.0Y-51.32
X124.0Y-53.86
X124.0Y-56.4
X124.0Y-58.94
X124.0Y-61.48
X124.0Y-64.02
X124.0Y-66.56
X124.0Y-69.1
X129.2Y-51.32
X129.2Y-53.86
X129.2Y-56.4
X129.2Y-58.94
X129.2Y-61.48
X129.2Y-64.02
X129.2Y-66.56
X129.2Y-69.1
X134.4Y-51.32
X134.4Y-53.86
X134.4Y-56.4
X134.4Y-58.94
X134.4Y-61.48
X134.4Y-64.02
X134.4Y-66.56
X134.4Y-69.1
X139.6Y-51.32
X139.6Y-53.86
X139.6Y-56.4
X139.6Y-58.94
X139.6Y-61.48
X139.6Y-64.02
X139.6Y-66.56
X139.6Y-69.1
X144.8Y-51.32
X144.8Y-53.86
X144.8Y-56.4
X144.8Y-58.94
X144.8Y-61.48
X144.8Y-64.02
X144.8Y-66.56
X144.8Y-69.1
X150.0Y-51.32
X150.0Y-53.86
X150.0Y-56.4
X150.0Y-58.94
X150.0Y-61.48
X150.0Y-64.02
X150.0Y-66.56
X150.0Y-69.1
X155.2Y-51.32
X155.2Y-53.86
X155.2Y-56.4
X155.2Y-58.94
X155.2Y-61.48
X155.2Y-64.02
X155.2Y-66.56
X155.2Y-69.1
T3
X84.54Y-49.68G85X84.54Y-49.08
G05
X84.9Y-55.63G85X84.9Y-55.03
G05
X93.16Y-55.63G85X93.16Y-55.03
G05
X93.52Y-49.68G85X93.52Y-49.08
G05
T4
X106.5Y-52.87G85X106.5Y-51.37
G05
X111.65Y-53.12G85X110.35Y-53.12
G05
X112.0Y-59.12G85X110.0Y-59.12
G05
X115.5Y-52.87G85X115.5Y-51.37
G05
M30
